<?xml version="1.0" encoding="utf-8"?>
<!-- Generator: Adobe Illustrator 21.0.0, SVG Export Plug-In . SVG Version: 6.00 Build 0)  -->
<svg version="1.1" id="圖層_1" xmlns="http://www.w3.org/2000/svg" xmlns:xlink="http://www.w3.org/1999/xlink" x="0px" y="0px"
	 viewBox="0 0 190 72" style="enable-background:new 0 0 190 72;" xml:space="preserve">
<style type="text/css">
	.st0{fill:#FFFFFF;stroke:#B73030;stroke-miterlimit:10;}
	.st1{fill:#B73030;}
</style>
<title>資產 47</title>
<g>
	<g id="圖層_2">
		<g id="圖層_1-2">
			<g id="募資按鈕">
				<path class="st0" d="M33.9,7.3h122.3c14.6,0,26.5,11.9,26.5,26.5v4.3c0,14.6-11.9,26.5-26.5,26.5H33.9
					c-14.6,0-26.5-11.9-26.5-26.5v-4.3C7.4,19.2,19.2,7.3,33.9,7.3z"/>
				<g>
					<path class="st1" d="M63.4,29.5h-7.2c2.6,1.6,5.6,3.5,7.2,4.9L62,36.1c-1.8-1.6-5.4-4.1-8.5-5.9v4.2h-2.3v-4.5
						c-2.2,2.8-5.6,5.2-8.9,6.5c-0.3-0.5-1-1.4-1.5-1.9c2.9-1,5.9-2.9,8-5h-7.4v-2h9.8v-3h2.3v3h9.9V29.5z M41.8,44.6h21.4v2.1H41.8
						V44.6z M59.4,35.1v8.1h-14v-8.1H59.4z M57,36.7h-9.3v1.7H57V36.7z M57,40h-9.3v1.7H57V40z"/>
					<path class="st1" d="M78.5,34c-0.3,0.5-0.5,1-0.8,1.4h12v12h-2.3v-1h-10v1h-2.2v-8.8C74,40,72.6,41.2,71,42.1
						c-0.3-0.5-1-1.4-1.4-1.8c2.7-1.5,4.8-3.7,6.3-6.2h-5.6v-1.8h6.6c0.2-0.5,0.5-1,0.7-1.5H72v-1.8h6.2c0.2-0.5,0.3-0.9,0.4-1.4
						c-2.2,0.1-4.4,0.1-6.5,0.1c0-0.5-0.2-1.3-0.5-1.8c6,0,13.4-0.4,17.5-1.1l1.4,1.7c-2.6,0.5-5.9,0.8-9.4,1
						c-0.2,0.5-0.3,1-0.5,1.5h10v1.8H80c-0.2,0.5-0.4,1-0.6,1.5h12.7V34H78.5z M87.4,37.3h-10v1.4h10V37.3z M77.4,41.7h10v-1.4h-10
						V41.7z M87.4,44.7v-1.5h-10v1.5H87.4z"/>
					<path class="st1" d="M106.3,37.8l0.5,2c-2.6,1.2-5.4,2.5-7.6,3.5l-0.9-2.3c0.9-0.3,2-0.8,3.3-1.3v-7.2h-2.8v-2.2h2.8v-5.5h2.2
						v5.5h2.5v2.2h-2.5v6.3L106.3,37.8z M117.6,44.8c1.4,0,1.6-0.6,1.8-3.3c0.5,0.3,1.4,0.7,2,0.8c-0.3,3.4-1,4.6-3.7,4.6H112
						c-3.1,0-3.9-0.8-3.9-3.8v-7.2l-1.7,0.8l-0.9-2.1l2.6-1.1v-6.6h2.2v5.7l2.8-1.2v-6.9h2.2v5.9l3.3-1.4l1.7,0.6l-0.1,0.4
						c-0.2,3.5-0.6,8-1.2,10.9l-1.9-0.5c0.4-2.1,0.7-5.6,0.8-8.7l-2.6,1.1v9h-2.2v-8l-2.8,1.2v8.2c0,1.4,0.3,1.7,1.9,1.7H117.6z"/>
					<path class="st1" d="M149.2,25.4v22h-2.2v-0.9h-16.5v0.9h-2.2v-22H149.2z M146.9,44.6V27.4h-16.5v17.2H146.9z M146,33.2v1.3
						h-14.5v-1.3h6.2v-1h-3.9v-3.9h9.9v3.9h-4v1H146z M132.9,35.5h11.5v7.9h-11.5V35.5z M134.7,42.1h7.8v-5.2h-7.8V42.1z M135.6,31
						h6v-1.3h-6V31z M136,37.8h5.2v3.4H136V37.8z M137.4,40h2.4v-1.2h-2.4V40z"/>
				</g>
			</g>
		</g>
	</g>
</g>
</svg>
