<?xml version="1.0" encoding="utf-8"?>
<!-- Generator: Adobe Illustrator 21.0.0, SVG Export Plug-In . SVG Version: 6.00 Build 0)  -->
<svg version="1.1" id="圖層_1" xmlns="http://www.w3.org/2000/svg" xmlns:xlink="http://www.w3.org/1999/xlink" x="0px" y="0px"
	 viewBox="0 0 190 72" style="enable-background:new 0 0 190 72;" xml:space="preserve">
<style type="text/css">
	.st0{fill:#FFFFFF;stroke:#B73030;stroke-miterlimit:10;}
	.st1{fill:#B73030;}
</style>
<title>資產 47</title>
<g>
	<g id="圖層_2">
		<g id="圖層_1-2">
			<g id="募資按鈕">
				<path class="st0" d="M33.9,7.3h122.3c14.6,0,26.5,11.9,26.5,26.5v4.3c0,14.6-11.9,26.5-26.5,26.5H33.9
					c-14.6,0-26.5-11.9-26.5-26.5v-4.3C7.4,19.2,19.2,7.3,33.9,7.3z"/>
				
					<text transform="matrix(1 0 0 1 57.4649 129.0938)" class="st1" style="font-family:'NotoSansCJKtc-Medium-B5pc-H'; font-size:25px; letter-spacing:3;">查看地圖</text>
				<g>
					<path class="st1" d="M64.7,29.8h-6.9c2.5,1.6,5.4,3.4,6.9,4.7l-1.4,1.6c-1.8-1.6-5.2-3.9-8.1-5.7v4h-2.2v-4.3
						c-2.1,2.7-5.4,5-8.5,6.3c-0.3-0.5-1-1.3-1.4-1.8c2.8-0.9,5.7-2.8,7.7-4.8h-7.1v-1.9h9.4v-2.9h2.2v2.9h9.6V29.8z M43.9,44.3
						h20.5v2H43.9V44.3z M60.8,35.2V43H47.3v-7.8H60.8z M58.5,36.7h-8.9v1.6h8.9V36.7z M58.5,39.8h-8.9v1.6h8.9V39.8z"/>
					<path class="st1" d="M79.1,34.1c-0.3,0.5-0.5,0.9-0.8,1.4h11.6v11.6h-2.2v-0.9h-9.6v0.9H76v-8.4c-1.2,1.2-2.5,2.3-4,3.2
						c-0.3-0.5-0.9-1.3-1.4-1.8c2.6-1.5,4.6-3.6,6-6h-5.4v-1.8h6.4c0.2-0.5,0.5-1,0.7-1.4h-5.3v-1.8h5.9c0.2-0.5,0.3-0.9,0.4-1.4
						c-2.1,0.1-4.2,0.1-6.2,0.1c0-0.5-0.2-1.2-0.4-1.7c5.8,0,12.9-0.4,16.8-1.1l1.3,1.6c-2.5,0.4-5.7,0.7-9,0.9
						c-0.1,0.5-0.3,1-0.5,1.5h9.6v1.8H80.6c-0.2,0.5-0.4,1-0.6,1.4h12.2v1.8H79.1z M87.7,37.2h-9.6v1.4h9.6V37.2z M78.1,41.4h9.6
						v-1.4h-9.6V41.4z M87.7,44.4v-1.5h-9.6v1.5H87.7z"/>
					<path class="st1" d="M105.8,37.7l0.5,2c-2.5,1.2-5.2,2.4-7.3,3.4l-0.9-2.2c0.9-0.3,2-0.7,3.2-1.2v-6.9h-2.7v-2.1h2.7v-5.3h2.1
						v5.3h2.4v2.1h-2.4v6L105.8,37.7z M116.7,44.5c1.3,0,1.6-0.6,1.8-3.2c0.5,0.3,1.4,0.7,2,0.8c-0.3,3.3-1,4.4-3.6,4.4h-5.5
						c-3,0-3.8-0.7-3.8-3.6v-6.9l-1.7,0.7l-0.8-2l2.5-1.1v-6.4h2.1v5.5l2.7-1.1V25h2.1v5.7l3.2-1.4l1.7,0.6l-0.1,0.4
						c-0.2,3.3-0.6,7.7-1.2,10.5l-1.8-0.5c0.4-2.1,0.6-5.4,0.7-8.3l-2.5,1.1v8.6h-2.1v-7.7l-2.7,1.2v7.9c0,1.3,0.3,1.6,1.8,1.6
						H116.7z"/>
					<path class="st1" d="M147,25.8V47h-2.2v-0.9H129V47h-2.1V25.8H147z M144.8,44.2V27.7H129v16.5H144.8z M143.9,33.3v1.3h-14v-1.3
						h5.9v-0.9h-3.7v-3.7h9.5v3.7h-3.9v0.9H143.9z M131.4,35.5h11.1v7.6h-11.1V35.5z M133.1,41.8h7.5v-5h-7.5V41.8z M134,31.2h5.8
						v-1.3H134V31.2z M134.4,37.7h5v3.2h-5V37.7z M135.7,39.9h2.3v-1.1h-2.3V39.9z"/>
				</g>
			</g>
		</g>
	</g>
</g>
</svg>
