<?xml version="1.0" encoding="utf-8"?>
<!-- Generator: Adobe Illustrator 21.0.0, SVG Export Plug-In . SVG Version: 6.00 Build 0)  -->
<svg version="1.1" id="圖層_1" xmlns="http://www.w3.org/2000/svg" xmlns:xlink="http://www.w3.org/1999/xlink" x="0px" y="0px"
	 viewBox="0 0 190 72" style="enable-background:new 0 0 190 72;" xml:space="preserve">
<style type="text/css">
	.st0{fill:#FFFFFF;stroke:#B73030;stroke-miterlimit:10;}
	.st1{display:none;fill:#B73030;}
	.st2{enable-background:new    ;}
	.st3{fill:#B73030;}
</style>
<title>資產 47</title>
<g>
	<g id="圖層_2">
		<g id="圖層_1-2">
			<g id="募資按鈕">
				<path class="st0" d="M33.9,7.3h122.3c14.6,0,26.5,11.9,26.5,26.5v4.3c0,14.6-11.9,26.5-26.5,26.5H33.9
					c-14.6,0-26.5-11.9-26.5-26.5v-4.3C7.4,19.2,19.2,7.3,33.9,7.3z"/>
				<path class="st1" d="M62.4,27.5v2.2H39.2v-2.2h6c-0.6-1.1-1.4-2.2-2.2-3.2l2.3-0.8c1,1,1.8,2.2,2.5,3.5l-1.3,0.5H54
					c0.9-1.3,1.7-2.6,2.3-4.1l2.6,0.8c-0.7,1.1-1.4,2.3-2.2,3.2h5.7V27.5z M50.5,44.9c0,1.1-0.2,1.7-1,2c-1.2,0.4-2.4,0.5-3.6,0.4
					c-0.2-0.7-0.5-1.4-0.8-2.1c1.1,0,2.3,0,2.6,0s0.5-0.1,0.5-0.5v-2.9H43v5.4h-2.2V31.8h9.7V44.9z M43,33.9V36h5.2v-2.1H43z
					 M48.2,40.1v-2.2H43v2.2H48.2z M55.5,42.7h-2.2V32.1h2.2V42.7z M58.4,31.3h2.4v13.3c0,1.3-0.3,1.9-1.2,2.3
					c-1.3,0.4-2.8,0.6-4.2,0.4c-0.2-0.8-0.5-1.6-0.9-2.3c1.5,0,2.9,0,3.2,0s0.5-0.1,0.5-0.5V31.3H58.4z"/>
				<path class="st1" d="M76,29.8c-0.7,1.2-1.6,2.4-2.5,3.5v14.2h-2.4V35.9c-0.8,0.9-1.7,1.7-2.7,2.4c-0.3-0.5-1-1.7-1.3-2.3
					c2.7-1.9,5-4.3,6.7-7L76,29.8z M75.3,24.5c-1.8,2.5-4.1,4.7-6.6,6.5c-0.3-0.7-0.8-1.4-1.2-2c2.2-1.4,4.1-3.2,5.6-5.4L75.3,24.5z
					 M91.4,44.3v2.3H75.1v-2.3H82v-5.7h-5.2v-2.2H82v-5.3h-5.7v-2.3h8.3c-1.6-1.4-3.5-2.6-5.4-3.6l1.7-1.6c2,1,3.9,2.2,5.6,3.6
					L85,28.8h5.4v2.3h-5.8v5.3H90v2.2h-5.4v5.7H91.4z"/>
				<path class="st1" d="M114.4,38.9c1.8,1.2,3.7,2.2,5.8,2.7c-0.6,0.6-1.1,1.2-1.6,1.9c-1.2-0.4-2.4-0.9-3.5-1.6
					c-0.3,2.9-0.6,4.2-1.1,4.7c-0.5,0.4-1.1,0.7-1.7,0.7c-1,0.1-2,0.1-3.1,0c-0.1-0.7-0.3-1.4-0.6-2c1.1,0.1,2.2,0.1,2.7,0.1
					c0.3,0,0.6,0,0.8-0.2c0.4-0.8,0.6-1.6,0.6-2.5h-5.2c-1.1,2.3-3.3,3.8-7.8,4.8c-0.3-0.7-0.7-1.3-1.2-1.9c3.5-0.6,5.4-1.5,6.4-2.9
					h-4.7v-0.9c-1,0.5-2,1-3.1,1.3c-0.4-0.6-0.8-1.2-1.4-1.7c1.9-0.6,3.7-1.4,5.3-2.6h-4.7V37h6.7c0.3-0.4,0.6-0.8,0.8-1.2h-4.6
					v-7.1h17.2v7.2h-10c-0.2,0.4-0.4,0.8-0.7,1.2h13.5V39L114.4,38.9z M102.5,27.1h-5.6v-1.9h5.6v-1.6h2.3v1.6h6.2v-1.6h2.4v1.6h5.7
					v1.9h-5.7v1.1H111v-1.1h-6.2v1.1h-2.3V27.1z M101.8,31.5h12.5v-1.4h-12.5V31.5z M101.8,34.3h12.5v-1.4h-12.5V34.3z M113.9,41
					c-0.8-0.6-1.6-1.3-2.3-2.1h-7.2c-0.8,0.8-1.6,1.5-2.5,2.1h4c0.2-0.5,0.3-1.1,0.4-1.6h2.3c-0.1,0.6-0.2,1.1-0.3,1.6H113.9z"/>
				<path class="st1" d="M132.4,30.8c-2.3,0.8-4.7,1.5-6.6,2.1l-1-2.1c1.9-0.4,4.7-1.1,7.3-1.8L132.4,30.8z M134.8,44.3
					c-2.5,1.4-5.2,2.5-8,3.2c-0.5-0.6-1.1-1.2-1.8-1.8c2.6-0.5,5.2-1.3,7.6-2.4L134.8,44.3z M131.5,27.9c-1.8-0.9-3.6-1.6-5.5-2.1
					l1.1-1.6c1.9,0.5,3.7,1.1,5.5,1.9L131.5,27.9z M136.4,27.2c-0.6,0.8-1.4,1.5-2.2,2.2c-0.5-0.5-1.2-0.9-1.8-1.2
					c1.7-1.1,3-2.7,3.9-4.6l2.2,0.3c-0.2,0.5-0.5,1-0.8,1.5h8.4l0.4-0.1l1.6,0.4c-0.7,1.4-1.5,2.6-2.5,3.8l-1.9-0.6
					c0.5-0.6,0.9-1.1,1.3-1.8h-3.6c0.6,1.9,2,3.5,7.3,4.2c-0.5,0.6-0.9,1.3-1.2,2c-0.7-0.1-1.4-0.3-2-0.4v10.3h-17V32.8h5.2
					c-0.3-0.6-0.6-1.1-1.1-1.6c4.2-0.7,5.7-1.9,6.3-4.1L136.4,27.2z M142.8,34.4h-12.2v1.4h12.2V34.4z M142.8,37.3h-12.2v1.5h12.2
					V37.3z M142.8,40.3h-12.2v1.5h12.2V40.3z M144.8,32.9c-2-0.5-3.7-1.7-4.8-3.4c-1,1.6-2.7,2.7-5.8,3.4H144.8z M140.4,43.4
					c2.6,0.9,5.2,1.9,7.8,3l-2.8,1.1c-2.3-1.1-4.6-2.1-7-2.9L140.4,43.4z"/>
				<g class="st2">
					<path class="st3" d="M64.2,29.6H57c2.6,1.6,5.6,3.5,7.2,4.9l-1.5,1.7c-1.8-1.6-5.4-4.1-8.5-5.9v4.2H52v-4.5
						c-2.2,2.8-5.6,5.2-8.9,6.5c-0.3-0.5-1-1.4-1.5-1.9c2.9-1,5.9-2.9,8-5h-7.4v-2H52v-3h2.3v3h9.9V29.6z M42.5,44.7h21.4v2.1H42.5
						V44.7z M60.1,35.2v8.1h-14v-8.1H60.1z M57.7,36.8h-9.3v1.7h9.3V36.8z M57.7,40h-9.3v1.7h9.3V40z"/>
					<path class="st3" d="M78.5,34.1c-0.3,0.5-0.5,1-0.8,1.4h12v12h-2.3v-1h-10v1h-2.2v-8.8c-1.2,1.3-2.6,2.4-4.2,3.3
						c-0.3-0.5-1-1.4-1.4-1.8c2.7-1.5,4.8-3.7,6.3-6.2h-5.6v-1.8h6.6c0.2-0.5,0.5-1,0.7-1.5H72v-1.8h6.2c0.2-0.5,0.3-0.9,0.4-1.4
						c-2.2,0.1-4.4,0.1-6.5,0.1c0-0.5-0.2-1.3-0.5-1.8c6,0,13.4-0.4,17.5-1.1l1.4,1.7c-2.6,0.5-5.9,0.8-9.4,1
						c-0.1,0.5-0.3,1-0.5,1.5h10v1.8H80.1c-0.2,0.5-0.4,1-0.6,1.5h12.7v1.8H78.5z M87.4,37.3h-10v1.4h10V37.3z M77.4,41.7h10v-1.4
						h-10V41.7z M87.4,44.8v-1.5h-10v1.5H87.4z"/>
					<path class="st3" d="M119.4,25.6v21.9h-2.2v-1.2h-16v1.3H99v-22H119.4z M117.2,44.4V27.4h-16v17.1H117.2z M116.5,40.6h-3.4v2
						c0,0.8-0.2,1.1-0.8,1.3c-0.6,0.2-1.5,0.2-3,0.2c-0.1-0.4-0.3-0.9-0.5-1.2c0.8,0,1.8,0,2,0c0.3,0,0.3-0.1,0.3-0.3v-1.9h-9.3
						v-1.3h9.3v-0.8h1.9v0.8h3.4V40.6z M113.7,36.1c0.9,0.7,1.9,1.6,2.4,2.2l-1.2,0.9c-0.2-0.3-0.6-0.7-1-1
						c-4.2,0.1-8.5,0.2-11.6,0.3l-0.1-1.3c1.7,0,3.7,0,5.9,0v-1H103v-5h5.1v-0.9h-6v-1.4h6v-1h1.9v1h6.1v1.4H110v0.9h5.3v5H113.7z
						 M106.3,43.7c-0.4-0.7-1.2-1.6-2-2.3l1.5-0.8c0.8,0.7,1.7,1.6,2,2.2L106.3,43.7z M104.8,33h3.3v-0.9h-3.3V33z M108.1,35v-1
						h-3.3v1H108.1z M110,32.1V33h3.4v-0.9H110z M113.5,35v-1H110v1H113.5z M112.7,37.1c-0.1-0.1-0.3-0.2-0.5-0.4l0.9-0.6H110v1
						L112.7,37.1z"/>
					<path class="st3" d="M148.4,27.2v2.1H130v4.7c0,3.9-0.4,9.7-2.5,13.5c-0.4-0.4-1.4-1-1.9-1.3c2-3.5,2.2-8.6,2.2-12.2v-6.8h9.6
						c-0.3-0.7-0.7-1.5-1-2.2l2.3-0.6c0.5,0.9,1,2,1.4,2.8H148.4z M146.7,37l1.6,0.7c-1.1,1.8-2.5,3.8-3.7,5.1l-1.8-0.9
						c0.6-0.7,1.4-1.8,2-2.8h-4.5V45c0,1.3-0.3,1.9-1.3,2.2c-1,0.4-2.5,0.3-4.7,0.3c-0.1-0.6-0.5-1.5-0.8-2.1c1.6,0.1,3.4,0.1,3.8,0
						c0.5,0,0.6-0.1,0.6-0.5v-5.8h-7.3v-2h7.8c-1.5-0.8-3.2-1.6-4.6-2.2l1.4-1.4c1,0.5,2.3,1,3.5,1.5c1.1-0.6,2.3-1.5,3.3-2.3H132
						v-1.9h12.2l0.5-0.1l1.5,1.1c-1.4,1.5-3.4,3-5.4,4.2c0.6,0.3,1.2,0.6,1.6,0.8l-0.2,0.2h4.1L146.7,37z"/>
				</g>
			</g>
		</g>
	</g>
</g>
</svg>
