<svg xmlns="http://www.w3.org/2000/svg" viewBox="0 0 292 106.82"><defs><style>.cls-1,.cls-2{fill:#136e9f;}.cls-1{stroke:#f5ab00;stroke-miterlimit:10;}.cls-3{fill:#f5ab00;}</style></defs><title>資產 4</title><g id="圖層_2" data-name="圖層 2"><g id="圖層_1-2" data-name="圖層 1"><circle class="cls-1" cx="15.8" cy="80.91" r="3.4"/><path class="cls-1" d="M116.49,81.15a8.4,8.4,0,0,0-4.67-2.4q3.16-1.34,4.55-5.6l.41-1.28A7.41,7.41,0,0,1,118.24,69a3,3,0,0,1,2.22-.75V65.72h-5.34q-6.55,0-9.78,1.49a9.2,9.2,0,0,0-4.71,5.21A8.25,8.25,0,0,0,98,69.78a6.33,6.33,0,0,0-8,1.3,7.49,7.49,0,0,0-2,5.2,16.4,16.4,0,0,0,1.54,6.11l2.31-1.05A6.28,6.28,0,0,1,91.36,79a3.49,3.49,0,0,1,.76-2.45,2.94,2.94,0,0,1,2.25-.81,3.3,3.3,0,0,1,2.51,1.08,3.72,3.72,0,0,1,1,2.65q0,3.29-3.29,5.86a11.85,11.85,0,0,1-7.5,2.57,10.46,10.46,0,0,1-7.45-2.91,9.33,9.33,0,0,1-3.08-7,9.12,9.12,0,0,1,9-9.66V65.72h-.85q-7,0-11.33,3.54a11.45,11.45,0,0,0-4.32,9.3,12.77,12.77,0,0,0,4.17,9.63,14.25,14.25,0,0,0,10.19,4q6.93,0,14.56-6l1.57-1.23q4.68-3.67,7.27-3.67a3.45,3.45,0,0,1,2.51,1.05,3.39,3.39,0,0,1,1.07,2.49,3.88,3.88,0,0,1-1.36,3A4.66,4.66,0,0,1,105.82,89a6.25,6.25,0,0,1-4.5-2.34l-2,1.67a10.68,10.68,0,0,0,9.53,5.29,9.87,9.87,0,0,0,6.7-2.3,7.38,7.38,0,0,0,2.64-5.82A6.14,6.14,0,0,0,116.49,81.15Zm-7.18-9.93-.44.74q-3.14,5.57-6.91,6.3.83-10.2,10.64-10.2A6.67,6.67,0,0,0,109.31,71.22Z"/><path class="cls-1" d="M144.14,103.74a8.51,8.51,0,0,0,6.72-3.06,11.38,11.38,0,0,0,2.66-7.75,12.33,12.33,0,0,0-6.11-11l-1.93,2.28q2.7,2.52,2.7,5.19a5.39,5.39,0,0,1-1.44,3.77,4.5,4.5,0,0,1-3.43,1.57,3.92,3.92,0,0,1-2.88-1.23,4,4,0,0,1-1.21-2.89q0-3,4.24-8.4l1.42-1.81q6.95-8.81,6.94-16.82a16.47,16.47,0,0,0-4.57-11.77A14.76,14.76,0,0,0,136.13,47a13.23,13.23,0,0,0-10.74,5q-4.09,5-4.09,13.09v1h2.94A10.53,10.53,0,0,1,135.39,55.6a10.77,10.77,0,0,1,8.12,3.56,12.08,12.08,0,0,1,3.37,8.61,13.69,13.69,0,0,1-3,8.66q-3,3.8-6.77,3.8a4.29,4.29,0,0,1-3.05-1.17,3.82,3.82,0,0,1-1.25-2.89,3.4,3.4,0,0,1,.94-2.6,4,4,0,0,1,2.83-.87,7.28,7.28,0,0,1,2.73.65l1.22-2.67a18.91,18.91,0,0,0-7.06-1.78,8.65,8.65,0,0,0-6,2.27,7.31,7.31,0,0,0-1.5,9.22,9.47,9.47,0,0,0,3.06,3,10.66,10.66,0,0,0-6,5.44q-1.72,3.72-1.72,11.29v6.17h2.94a3.52,3.52,0,0,1,.86-2.57,8.53,8.53,0,0,1,3.3-1.67l1.48-.48q4.92-1.6,6.47-5.25a9.67,9.67,0,0,0,2.78,5.39A7.07,7.07,0,0,0,144.14,103.74ZM124,97.24Q124,85.9,135.78,85q-.83,4.36-7.27,8l-.86.5A7.72,7.72,0,0,0,124,97.24Z"/><path class="cls-1" d="M33,89.06a8.25,8.25,0,0,0,4.29-4.61,7.37,7.37,0,0,0,2.31,2.41,5.67,5.67,0,0,0,7.17-1.06,6.72,6.72,0,0,0,1.83-4.64,14.67,14.67,0,0,0-1.3-5.5l-2.09.91a5.66,5.66,0,0,1,.48,2.12A3.12,3.12,0,0,1,45,80.88a2.64,2.64,0,0,1-2,.7,3,3,0,0,1-2.23-1,3.33,3.33,0,0,1-.88-2.38,6.62,6.62,0,0,1,3-5.21,10.64,10.64,0,0,1,6.76-2.21,9.38,9.38,0,0,1,6.64,2.71A8.36,8.36,0,0,1,59,79.83a8.17,8.17,0,0,1-8.23,8.54l0,2.28h.76q6.29.09,10.2-3a10.27,10.27,0,0,0,4-8.28A11.45,11.45,0,0,0,62,70.66,12.79,12.79,0,0,0,52.95,67q-6.22-.09-13.13,5.2l-1.42,1.09q-4.24,3.23-6.56,3.2a3.1,3.1,0,0,1-2.23-1,3,3,0,0,1-.92-2.25,3.49,3.49,0,0,1,1.26-2.64,4.17,4.17,0,0,1,2.94-1.08,5.6,5.6,0,0,1,4,2.15l1.79-1.47a9.57,9.57,0,0,0-8.47-4.86,8.82,8.82,0,0,0-6,2,6.62,6.62,0,0,0-2.45,5.18,5.49,5.49,0,0,0,1.5,3.93,7.53,7.53,0,0,0,4.15,2.21q-2.85,1.16-4.15,5l-.38,1.15a6.61,6.61,0,0,1-1.34,2.53,2.72,2.72,0,0,1-2,.64l0,2.28,4.79.07Q30.11,90.36,33,89.06Zm-3.51-3.64.4-.66q2.88-5,6.27-5.55-.87,9.13-9.66,9A6,6,0,0,0,29.51,85.42Z"/><circle class="cls-1" cx="260.71" cy="82.33" r="3.4"/><path class="cls-1" d="M158.28,86.93a7.36,7.36,0,0,0,2.65,5.82,9.85,9.85,0,0,0,6.7,2.3,10.67,10.67,0,0,0,9.53-5.29l-2-1.67a6.24,6.24,0,0,1-4.5,2.34,4.66,4.66,0,0,1-3.26-1.25,3.9,3.9,0,0,1-1.36-3,3.38,3.38,0,0,1,1.07-2.49,3.45,3.45,0,0,1,2.5-1.05q2.6,0,7.27,3.67l1.57,1.23q7.63,6,14.56,6a14.26,14.26,0,0,0,10.19-4A12.77,12.77,0,0,0,207.39,80a11.45,11.45,0,0,0-4.32-9.3q-4.31-3.54-11.33-3.54h-.85v2.54a9.12,9.12,0,0,1,9,9.66,9.33,9.33,0,0,1-3.08,7,10.45,10.45,0,0,1-7.45,2.91,11.84,11.84,0,0,1-7.5-2.57q-3.29-2.57-3.29-5.86a3.72,3.72,0,0,1,1-2.65,3.32,3.32,0,0,1,2.51-1.08,2.94,2.94,0,0,1,2.25.81,3.49,3.49,0,0,1,.76,2.45,6.32,6.32,0,0,1-.57,2.36l2.31,1.05a16.4,16.4,0,0,0,1.54-6.11,7.48,7.48,0,0,0-2-5.2,6.32,6.32,0,0,0-8-1.3,8.24,8.24,0,0,0-2.62,2.65,9.2,9.2,0,0,0-4.71-5.21q-3.22-1.49-9.78-1.49H156v2.54a3.06,3.06,0,0,1,2.23.74,7.39,7.39,0,0,1,1.45,2.85l.41,1.29q1.39,4.26,4.55,5.6a8.39,8.39,0,0,0-4.66,2.4A6.14,6.14,0,0,0,158.28,86.93Zm5.62-17.44q9.81,0,10.64,10.2-3.78-.72-6.92-6.29l-.43-.74A6.68,6.68,0,0,0,163.9,69.48Z"/><path class="cls-1" d="M252.26,91.7l4.79-.07,0-2.28a2.74,2.74,0,0,1-2-.64,6.64,6.64,0,0,1-1.34-2.54L253.29,85q-1.3-3.81-4.15-5a7.53,7.53,0,0,0,4.15-2.21,5.49,5.49,0,0,0,1.5-3.92,6.62,6.62,0,0,0-2.44-5.18,8.85,8.85,0,0,0-6-2,9.57,9.57,0,0,0-8.47,4.86l1.79,1.47a5.59,5.59,0,0,1,4-2.15A4.2,4.2,0,0,1,246.57,72a3.48,3.48,0,0,1,1.26,2.64,3,3,0,0,1-.93,2.25,3.11,3.11,0,0,1-2.23,1q-2.33,0-6.56-3.2l-1.42-1.09q-6.92-5.29-13.13-5.2a12.77,12.77,0,0,0-9.08,3.68,11.45,11.45,0,0,0-3.62,8.69,10.28,10.28,0,0,0,4,8.28q3.92,3.12,10.2,3h.76l0-2.28a8.17,8.17,0,0,1-8.23-8.54,8.37,8.37,0,0,1,2.67-6.34,9.36,9.36,0,0,1,6.64-2.71,10.63,10.63,0,0,1,6.76,2.21,6.62,6.62,0,0,1,3,5.21,3.34,3.34,0,0,1-.88,2.38,3,3,0,0,1-2.23,1,2.62,2.62,0,0,1-2-.7,3.13,3.13,0,0,1-.71-2.19,5.7,5.7,0,0,1,.48-2.12l-2.09-.92a14.67,14.67,0,0,0-1.3,5.5,6.7,6.7,0,0,0,1.83,4.64,5.67,5.67,0,0,0,7.17,1.06,7.34,7.34,0,0,0,2.31-2.4,8.26,8.26,0,0,0,4.29,4.61Q246.39,91.78,252.26,91.7ZM250,89.63q-8.79.13-9.66-9,3.39.6,6.28,5.55l.4.66A6,6,0,0,0,250,89.63Z"/><rect class="cls-2" y="18.35" width="292" height="54"/><rect class="cls-3" x="17" y="68.85" width="245" height="4"/><path class="cls-3" d="M46.9,25.28A14.51,14.51,0,0,0,46,28.51c0,1.64,1.52,3.32,1.52,5.44a2.63,2.63,0,0,1-2.6,2.84c-1.28,0-1.92-.72-1.92-2.12s.32-2.6.32-3.92c0-2.6-.32-3-3.12-4-.2-.08-.12-.64.08-.6a15.73,15.73,0,0,0,1.64.2,2.12,2.12,0,0,0,2-1.12A95.59,95.59,0,0,0,50,14c.08-.16.52,0,.48.2C48.66,20,47.82,22.4,46.9,25.28Zm-1.68-8.12c-1,0-1.32-.6-2.08-2.36a8.3,8.3,0,0,0-2.76-3.52c-.16-.12,0-.32.16-.32,4.28.36,6.64,1.76,6.64,4A2,2,0,0,1,45.22,17.16Zm2.88-9.4c-1.16,0-1.44-.56-2.28-2.44A8.55,8.55,0,0,0,43,1.72c-.16-.12,0-.32.16-.32,4.28.32,6.76,1.84,6.76,4.16C49.9,7,49,7.76,48.1,7.76Zm11.76,25.4a26.9,26.9,0,0,1-11.6,3.68c-.2,0-.36-.36-.16-.44a26.22,26.22,0,0,0,6.64-3.76,18.28,18.28,0,0,0,2.92-2.92c3.56,2,4.12,2.4,4.12,2.84S61.41,33.19,59.86,33.15Zm-4-4.28c0,1-.8,1.4-2.16,1.4-1.12,0-1.56-.36-1.56-1.16,0-1.16.16-2.52.16-7.24,0-2.52,0-5-.16-7.6a43,43,0,0,1,4.08,1.88h4.84V11.8H56.9a14.33,14.33,0,0,0-2.4.24l-.44-1.48a11.77,11.77,0,0,0,2.68.32H68c1.64-1.76,2.12-2.08,2.4-2.08s.72.24,1.84,1a13,13,0,0,0,.84-3H54.18c.2,3-.72,5.32-2.64,5.32a1.82,1.82,0,0,1-2-2c0-.76.24-1.16,1.16-1.8C52.5,7.12,53,5.88,53.26,3.76a.21.21,0,0,1,.4,0,14.26,14.26,0,0,1,.44,2.12h7V3.56A26.94,26.94,0,0,0,60.86.4c4.44.36,5,.72,5,1.12s-.16.64-1.08,1V5.88h7.92C74,4.44,74.33,4.2,74.65,4.2s.68.24,2.28,1.76c.72.68,1,1,1,1.32,0,.48-.28.76-1.24.76a1.73,1.73,0,0,0-1.48.48,15.71,15.71,0,0,1-2.4,1.72c.72.56,1,.88,1,1.16s-.12.4-.52.4H64.61v4.36H70c1.32-1.48,1.56-1.72,1.88-1.72s.76.24,2.16,1.36c.64.52.88.8.88,1.12s-.16.48-1.08,1.12V19.8c0,4.6.08,7.76.08,8.8s-.6,1.48-2.12,1.48c-1.08,0-1.52-.32-1.52-1.2v-.16H55.9Zm5.2-7.12V17.08H55.9v4.68Zm-5.2,6h5.2V22.68H55.9Zm14.4-10.72H64.61v4.68h5.68Zm0,5.6H64.61v5.12h5.68Zm4,14.52c-.92,0-1.12-.08-3-2.28a14.91,14.91,0,0,0-6.16-4.08c-.2-.08-.16-.44,0-.44,7.8.36,11,2,11,4.8A1.84,1.84,0,0,1,74.25,37.19Z"/><path class="cls-3" d="M108.69,16.88V33h10.4V25.52a24,24,0,0,0-.28-4.16c4.8.44,5.64.64,5.64,1.36,0,.52-.48.88-1.52,1.24v1.88c0,5,.2,8.36.2,9.48S122.37,37,120.77,37c-1.2,0-1.68-.36-1.68-1.32V33.87H94.74v1.44c0,1.2-.68,1.72-2.32,1.72-1.24,0-1.76-.4-1.76-1.48,0-.88.2-3.6.2-9.08a38.45,38.45,0,0,0-.2-5c4.32.36,5.44.68,5.44,1.28s-.4.8-1.36,1.24v9h10.08V16.88h-8.4v.84c0,1-.72,1.48-2.4,1.48-1.2,0-1.64-.44-1.64-1.28s.24-3.12.24-8A48.12,48.12,0,0,0,92.38,4c4.88.52,5.48.68,5.48,1.32,0,.48-.4.84-1.44,1.24V16h8.4V6.12a51,51,0,0,0-.24-5.68c5.16.48,5.68,1,5.68,1.44s-.52.92-1.56,1.28V16h8.68V8.4a31.25,31.25,0,0,0-.24-4.32c4.48.44,5.36.68,5.36,1.4,0,.44-.36.76-1.28,1.12V8.4c0,4.76.2,8,.2,9s-.72,1.64-2.32,1.64c-1.24,0-1.72-.44-1.72-1.32v-.88Z"/><path class="cls-3" d="M160.61,5.68c1.68-1.8,2-2,2.32-2s.72.24,2.44,1.8c.76.68,1,1,1,1.32,0,.56-.2.68-1.76,1.16a41,41,0,0,1-13.76,14.16l.08,0h13.36c1.48-1.68,1.8-1.92,2.12-1.92s.72.24,2.24,1.52c.68.6.92.88.92,1.2s-.28.6-1.12,1.16V26c0,4.92.16,8.28.16,9.4s-.76,1.56-2.4,1.56c-1.24,0-1.64-.36-1.64-1.4v-1H150.66v1c0,1.12-.68,1.56-2.28,1.56-1.24,0-1.68-.36-1.68-1.44,0-1.64.24-3.28.24-9.88,0-.48,0-1,0-1.48a60,60,0,0,1-9.76,3.64c-.2,0-.4-.4-.2-.48A52.81,52.81,0,0,0,151.58,18a1.7,1.7,0,0,1-.44.08c-.84,0-1.28-.52-1.68-2a9,9,0,0,0-2.52-4.56,37,37,0,0,1-8.72,5.24c-.2.08-.48-.28-.32-.4a38.17,38.17,0,0,0,10.24-11A24.06,24.06,0,0,0,150.66,0c4,.92,4.88,1.32,4.88,2,0,.52-.32.76-1.52,1.08-.52.92-1.08,1.76-1.64,2.6Zm-8.92.92a30.87,30.87,0,0,1-4.28,4.56c3.48.92,5.6,2.68,5.6,4.64a2.38,2.38,0,0,1-.24,1.08,43,43,0,0,0,8-10.28ZM164.57,23H150.66V33.55h13.92Z"/><path class="cls-3" d="M204.53,24.52c0,1.48,0,3,0,4.48h9.8c2.16-2.52,2.6-2.84,2.88-2.84s.88.32,2.88,2c.88.72,1.12,1.12,1.12,1.4s-.12.4-.52.4H204.61c0,2.4,0,4.4,0,5.4,0,1.28-.84,1.72-2.24,1.72s-1.72-.44-1.72-1.4c0-.56.08-2.48.12-5.72H189.14a40.61,40.61,0,0,0-4.08.24l-.44-1.48A31.09,31.09,0,0,0,189,29h11.8V24.52H193.7v.28c0,1.24-.8,1.64-2.16,1.64s-1.72-.4-1.72-1.28c0-1.2.2-2.68.2-7.36,0-2.16,0-4.36-.16-6.56a2,2,0,0,1-.48,0c-1.24,0-1.68-.24-1.68-1.16,0-.56.12-1.36.12-3.76,0-1.92,0-3.8-.2-5.72a32.13,32.13,0,0,1,4.08,2h5.12c1.36-1.48,1.68-1.72,2-1.72s.72.24,2,1.28c.56.48.8.76.8,1.08s-.08.48-1.08,1.28v.8c0,2.16,0,3.72,0,4.2,0,1-.56,1.4-1.92,1.4-1.12,0-1.52-.28-1.52-1.2V9.44h-5.88v.4a1.22,1.22,0,0,1-.52,1.12,36.83,36.83,0,0,1,3.44,1.8h17.32c1.48-1.76,1.8-2,2.12-2s.72.24,2.32,1.64c.72.64,1,.92,1,1.24s-.28.64-1.2,1.12v1.72c0,4.48.2,7.4.2,8.4,0,1.16-.8,1.68-2.2,1.68s-1.72-.32-1.72-1.4v-.64Zm-7.4-21h-5.88v5h5.88ZM193.7,13.68V18h7.12V13.68ZM200.82,19H193.7V23.6h7.12Zm7.24-9.52c0,1-.68,1.56-2,1.56-1.08,0-1.6-.32-1.6-1.36,0-.76.16-1.6.16-4.8a31.1,31.1,0,0,0-.24-4.16,27.48,27.48,0,0,1,3.92,2h5.6c1.36-1.52,1.68-1.76,2-1.76s.72.24,2.08,1.4c.6.56.84.84.84,1.16s-.16.56-1,1.16v.8c0,2,.08,3.56.08,4,0,1.08-.64,1.52-2,1.52-1.12,0-1.52-.4-1.52-1.28v-.2ZM204.53,18H212V13.68h-7.44ZM212,23.6V19h-7.44V23.6Zm2.32-20h-6.24v5h6.24Z"/></g></g></svg>