<svg xmlns="http://www.w3.org/2000/svg" viewBox="0 0 187.14 75.25"><defs><style>.cls-1,.cls-2{fill:none;}.cls-2,.cls-3{stroke:#f5ab00;stroke-miterlimit:10;}.cls-3{fill:#136e9f;}.cls-4{fill:#f5ab00;}</style></defs><title>資產 28</title><g id="圖層_2" data-name="圖層 2"><g id="圖層_1-2" data-name="圖層 1"><path class="cls-1" d="M167.42,51.36q3.13,2.39,4.85,2.37a2.3,2.3,0,0,0,1.65-.72,2.25,2.25,0,0,0,.68-1.66,2.52,2.52,0,0,0-.71-1.72h-4.78a6.79,6.79,0,0,0-.57.56l-.68-.56h-2.79q.64.43,1.3.93Z"/><path class="cls-1" d="M176.2,62.4A4.43,4.43,0,0,1,174,60.34l-.29-.49q-2.13-3.67-4.64-4.11Q169.69,62.5,176.2,62.4Z"/><path class="cls-1" d="M13.22,51.95a2.29,2.29,0,0,0,1.65.72q1.72,0,4.85-2.37l.89-.68h-8a2.58,2.58,0,0,0-.1.66A2.24,2.24,0,0,0,13.22,51.95Z"/><path class="cls-1" d="M94.37,50.36a5.38,5.38,0,0,0-2-.48,3,3,0,0,0-2.1.65,2.51,2.51,0,0,0-.69,1.92,2.82,2.82,0,0,0,.92,2.14,3.17,3.17,0,0,0,2.26.87,6.3,6.3,0,0,0,5-2.81,10.26,10.26,0,0,0,1.65-3H94.71Z"/><path class="cls-1" d="M71.67,49.62H68A9.92,9.92,0,0,0,66.74,54C68.53,53.65,70.17,52.19,71.67,49.62Z"/><path class="cls-1" d="M115,49.84l.32.55q2.32,4.12,5.11,4.65a8.71,8.71,0,0,0-2.05-5.42h-3.52C114.88,49.7,114.93,49.76,115,49.84Z"/><path class="cls-1" d="M130.69,53.58a12.13,12.13,0,0,1-1.14,4.52l-1.71-.78a4.68,4.68,0,0,0,.42-1.75,2.58,2.58,0,0,0-.56-1.82,2.18,2.18,0,0,0-1.66-.6,2.45,2.45,0,0,0-1.86.8,2.75,2.75,0,0,0-.75,2,5.46,5.46,0,0,0,2.43,4.33,8.76,8.76,0,0,0,5.54,1.9A7.73,7.73,0,0,0,136.92,60a6.9,6.9,0,0,0,2.28-5.2,7,7,0,0,0-1.8-5l-.17-.17h-8.09l.11.11A5.53,5.53,0,0,1,130.69,53.58Z"/><path class="cls-1" d="M122.28,49.62h-1.42a8.61,8.61,0,0,1,.54,1.11A7.39,7.39,0,0,1,122.28,49.62Z"/><path class="cls-1" d="M13.46,58.8l-.3.49a4.42,4.42,0,0,1-2.21,2.06q6.51.09,7.15-6.66Q15.58,55.13,13.46,58.8Z"/><path class="cls-1" d="M50.23,58.94a7.73,7.73,0,0,0,5.51,2.16,8.76,8.76,0,0,0,5.55-1.9,5.45,5.45,0,0,0,2.43-4.33,2.75,2.75,0,0,0-.75-2,2.44,2.44,0,0,0-1.85-.8,2.18,2.18,0,0,0-1.66.6,2.58,2.58,0,0,0-.56,1.81,4.64,4.64,0,0,0,.42,1.75L57.6,57a12.13,12.13,0,0,1-1.14-4.52,5.61,5.61,0,0,1,.76-2.9H49.07a7.38,7.38,0,0,0-1.12,4.12A6.9,6.9,0,0,0,50.23,58.94Z"/><path class="cls-1" d="M65.77,49.62h-.06l0,.06Z"/><path class="cls-1" d="M85.73,65.22l.64-.37q4.76-2.68,5.38-5.9Q83,59.65,83,68A5.71,5.71,0,0,1,85.73,65.22Z"/><circle class="cls-2" cx="3.01" cy="55.95" r="2.51"/><path class="cls-2" d="M66.74,54A9.92,9.92,0,0,1,68,49.62H65.77l0,.06,0-.06H57.22a5.61,5.61,0,0,0-.76,2.9A12.13,12.13,0,0,0,57.6,57l1.71-.78a4.64,4.64,0,0,1-.42-1.75,2.58,2.58,0,0,1,.56-1.81,2.18,2.18,0,0,1,1.66-.6,2.44,2.44,0,0,1,1.85.8,2.75,2.75,0,0,1,.75,2,5.45,5.45,0,0,1-2.43,4.33,8.76,8.76,0,0,1-5.55,1.9,7.73,7.73,0,0,1-5.51-2.16,6.9,6.9,0,0,1-2.28-5.2,7.38,7.38,0,0,1,1.12-4.12H43.64a8.75,8.75,0,0,0-1.2,4.59,9.45,9.45,0,0,0,3.09,7.12,10.54,10.54,0,0,0,7.53,2.93q5.13,0,10.77-4.44L65,58.91q3.46-2.72,5.38-2.72a2.55,2.55,0,0,1,1.85.78A2.5,2.5,0,0,1,73,58.82,2.87,2.87,0,0,1,72,61a3.44,3.44,0,0,1-2.41.92,4.62,4.62,0,0,1-3.33-1.73L64.8,61.44a7.9,7.9,0,0,0,7,3.91,7.3,7.3,0,0,0,5-1.7,5.45,5.45,0,0,0,2-4.3,4.54,4.54,0,0,0-1.28-3.22A6.21,6.21,0,0,0,74,54.35a6.24,6.24,0,0,0,3.36-4.14l.19-.59H71.67C70.17,52.19,68.53,53.65,66.74,54Z"/><path class="cls-2" d="M83.84,72.85a6.3,6.3,0,0,1,2.44-1.24l1.1-.35a7.21,7.21,0,0,0,4.78-3.89,7.15,7.15,0,0,0,2.05,4,5.23,5.23,0,0,0,3.72,1.48,6.3,6.3,0,0,0,5-2.26,8.41,8.41,0,0,0,2-5.73,9.12,9.12,0,0,0-4.52-8.14L98.92,58.4a5.33,5.33,0,0,1,2,3.84A4,4,0,0,1,99.85,65a3.32,3.32,0,0,1-2.54,1.16,2.9,2.9,0,0,1-2.13-.91,3,3,0,0,1-.9-2.14q0-2.22,3.14-6.21l1.05-1.34a27.59,27.59,0,0,0,3.66-6H99.4a10.26,10.26,0,0,1-1.65,3,6.3,6.3,0,0,1-5,2.81,3.17,3.17,0,0,1-2.26-.87,2.82,2.82,0,0,1-.92-2.14,2.51,2.51,0,0,1,.69-1.92,3,3,0,0,1,2.1-.65,5.38,5.38,0,0,1,2,.48l.34-.74H84.8a5.14,5.14,0,0,0-1.05,3.18,5.28,5.28,0,0,0,.75,2.76,7,7,0,0,0,2.26,2.24,7.89,7.89,0,0,0-4.46,4Q81,64.58,81,70.18v4.57H83.2A2.6,2.6,0,0,1,83.84,72.85Zm7.9-13.9q-.62,3.23-5.38,5.9l-.64.37A5.71,5.71,0,0,0,83,68Q83,59.64,91.74,58.94Z"/><path class="cls-2" d="M33,50.47a6.18,6.18,0,0,1,2,4.69,6,6,0,0,1-6.09,6.32l0,1.69h.56a11.44,11.44,0,0,0,7.54-2.24,7.59,7.59,0,0,0,2.95-6.12,8.38,8.38,0,0,0-1.6-5.18H31.92A7.34,7.34,0,0,1,33,50.47Z"/><path class="cls-2" d="M19.72,50.3q-3.13,2.39-4.85,2.37a2.29,2.29,0,0,1-1.65-.72,2.24,2.24,0,0,1-.68-1.66,2.58,2.58,0,0,1,.1-.66H7.39s0,.07,0,.11a4.06,4.06,0,0,0,1.11,2.9,5.57,5.57,0,0,0,3.07,1.64,5.59,5.59,0,0,0-3.07,3.67l-.28.85a4.89,4.89,0,0,1-1,1.87,2,2,0,0,1-1.48.47l0,1.68,3.54.05a16.18,16.18,0,0,0,6.49-.9,6.1,6.1,0,0,0,3.17-3.41,5.45,5.45,0,0,0,1.71,1.78,4.19,4.19,0,0,0,5.3-.79,5,5,0,0,0,1.35-3.43,10.85,10.85,0,0,0-1-4.07l-1.54.68a4.19,4.19,0,0,1,.35,1.57,2.31,2.31,0,0,1-.53,1.62,2,2,0,0,1-1.5.52,2.18,2.18,0,0,1-1.65-.74,2.47,2.47,0,0,1-.65-1.76A4.89,4.89,0,0,1,23,50.1c.23-.17.46-.33.7-.47H20.62Zm-8.78,11a4.42,4.42,0,0,0,2.21-2.06l.3-.49q2.13-3.67,4.64-4.11Q17.45,61.44,10.95,61.35Z"/><circle class="cls-2" cx="184.13" cy="57.01" r="2.51"/><path class="cls-2" d="M137.39,49.79a7,7,0,0,1,1.8,5,6.9,6.9,0,0,1-2.28,5.2,7.73,7.73,0,0,1-5.51,2.15,8.76,8.76,0,0,1-5.54-1.9,5.46,5.46,0,0,1-2.43-4.33,2.75,2.75,0,0,1,.75-2,2.45,2.45,0,0,1,1.86-.8,2.18,2.18,0,0,1,1.66.6,2.58,2.58,0,0,1,.56,1.82,4.68,4.68,0,0,1-.42,1.75l1.71.78a12.13,12.13,0,0,0,1.14-4.52,5.53,5.53,0,0,0-1.45-3.85l-.11-.11h-6.85a7.39,7.39,0,0,0-.88,1.11,8.61,8.61,0,0,0-.54-1.11h-2.5A8.71,8.71,0,0,1,120.41,55q-2.79-.53-5.11-4.65l-.32-.55c0-.08-.09-.14-.14-.22H109.2c.08.21.17.44.25.69l.3,1a6.24,6.24,0,0,0,3.36,4.14,6.2,6.2,0,0,0-3.45,1.77,4.54,4.54,0,0,0-1.28,3.22,5.44,5.44,0,0,0,2,4.3,7.28,7.28,0,0,0,5,1.7,7.89,7.89,0,0,0,7.05-3.91l-1.46-1.23A4.62,4.62,0,0,1,117.56,63a3.45,3.45,0,0,1-2.41-.92,2.88,2.88,0,0,1-1-2.19,2.5,2.5,0,0,1,.79-1.84,2.55,2.55,0,0,1,1.85-.78q1.92,0,5.38,2.72l1.16.91q5.64,4.45,10.77,4.45a10.55,10.55,0,0,0,7.53-2.93,9.45,9.45,0,0,0,3.09-7.12,8.51,8.51,0,0,0-2-5.65h-5.53Z"/><path class="cls-2" d="M147.27,55.85A7.6,7.6,0,0,0,150.22,62a11.47,11.47,0,0,0,7.54,2.24h.56l0-1.69a6,6,0,0,1-6.09-6.32,6.19,6.19,0,0,1,2-4.69,6.82,6.82,0,0,1,3.76-1.9h-8.18A8.44,8.44,0,0,0,147.27,55.85Z"/><path class="cls-2" d="M174.61,51.34a2.25,2.25,0,0,1-.68,1.66,2.3,2.3,0,0,1-1.65.72q-1.72,0-4.85-2.37l-1-.8q-.65-.5-1.3-.93h-4.52a7.82,7.82,0,0,1,3.54,1.53A4.9,4.9,0,0,1,166.33,55a2.47,2.47,0,0,1-.65,1.76,2.18,2.18,0,0,1-1.65.74,1.93,1.93,0,0,1-1.5-.52,2.31,2.31,0,0,1-.53-1.62,4.22,4.22,0,0,1,.35-1.57l-1.54-.68a10.85,10.85,0,0,0-1,4.07,5,5,0,0,0,1.35,3.43,4.19,4.19,0,0,0,5.3.79,5.43,5.43,0,0,0,1.71-1.78A6.11,6.11,0,0,0,171.39,63a16.17,16.17,0,0,0,6.49.9l3.54-.05,0-1.68a2,2,0,0,1-1.48-.47,4.91,4.91,0,0,1-1-1.88l-.28-.85a5.59,5.59,0,0,0-3.07-3.67,5.57,5.57,0,0,0,3.07-1.64,4.06,4.06,0,0,0,1.11-2.9,5.47,5.47,0,0,0-.14-1.17H173.9A2.52,2.52,0,0,1,174.61,51.34Zm-.92,8.51.29.49a4.43,4.43,0,0,0,2.21,2.06q-6.5.09-7.15-6.66Q171.56,56.19,173.69,59.85Z"/><path class="cls-3" d="M157.95,49.62h2.61a8.44,8.44,0,0,0-1.46-.11A8,8,0,0,0,157.95,49.62Z"/><rect class="cls-4" x="3.9" y="47.04" width="181.19" height="2.96"/><path class="cls-4" d="M19.82,21.49a12.3,12.3,0,0,0-.75,2.75c0,1.39,1.29,2.82,1.29,4.62a2.24,2.24,0,0,1-2.21,2.41c-1.09,0-1.63-.61-1.63-1.8s.27-2.21.27-3.33c0-2.21-.27-2.55-2.65-3.43-.17-.07-.1-.54.07-.51a13.43,13.43,0,0,0,1.39.17,1.8,1.8,0,0,0,1.67-1,81.3,81.3,0,0,0,5.17-9.52c.07-.14.44,0,.41.17C21.31,17,20.6,19,19.82,21.49Zm-1.43-6.9c-.82,0-1.12-.51-1.77-2a7,7,0,0,0-2.35-3c-.14-.1,0-.27.14-.27,3.64.31,5.64,1.5,5.64,3.43A1.66,1.66,0,0,1,18.39,14.58Zm2.45-8c-1,0-1.22-.48-1.94-2.07a7.27,7.27,0,0,0-2.41-3.06c-.14-.1,0-.27.14-.27,3.64.27,5.75,1.56,5.75,3.54C22.36,6,21.58,6.6,20.83,6.6Zm10,21.59A22.86,22.86,0,0,1,21,31.31c-.17,0-.31-.31-.14-.37a22.3,22.3,0,0,0,5.64-3.2A15.54,15.54,0,0,0,29,25.26c3,1.67,3.5,2,3.5,2.41S32.16,28.22,30.83,28.18Zm-3.37-3.64c0,.85-.68,1.19-1.84,1.19-1,0-1.33-.31-1.33-1,0-1,.14-2.14.14-6.15,0-2.14,0-4.28-.14-6.46a36.85,36.85,0,0,1,3.47,1.6h4.11V10H28.31a12.05,12.05,0,0,0-2,.2L25.9,9a10.07,10.07,0,0,0,2.28.27h9.55c1.39-1.5,1.8-1.77,2-1.77s.61.2,1.56.88A11,11,0,0,0,42,5.78H26c.17,2.52-.61,4.52-2.24,4.52a1.55,1.55,0,0,1-1.67-1.7c0-.65.2-1,1-1.53A4.7,4.7,0,0,0,25.22,3.2a.18.18,0,0,1,.34,0A12.24,12.24,0,0,1,25.93,5h5.92V3A22.7,22.7,0,0,0,31.68.34C35.45.65,36,1,36,1.29s-.14.54-.92.85V5h6.73c1.09-1.22,1.36-1.43,1.63-1.43s.58.2,1.94,1.5c.61.58.82.85.82,1.12s-.24.65-1.05.65a1.47,1.47,0,0,0-1.26.41,13.31,13.31,0,0,1-2,1.46c.61.48.88.75.88,1s-.1.34-.44.34H34.88v3.71h4.59c1.12-1.26,1.33-1.46,1.6-1.46s.65.2,1.84,1.16c.54.44.75.68.75,1s-.14.41-.92,1v1.5c0,3.91.07,6.6.07,7.48s-.51,1.26-1.8,1.26c-.92,0-1.29-.27-1.29-1v-.14H27.46Zm4.42-6.05v-4H27.46v4Zm-4.42,5.13h4.42V19.28H27.46ZM39.7,14.52H34.88v4H39.7Zm0,4.76H34.88v4.35H39.7Zm3.37,12.34c-.78,0-1-.07-2.58-1.94a12.69,12.69,0,0,0-5.24-3.47c-.17-.07-.14-.37,0-.37,6.63.31,9.32,1.7,9.32,4.08A1.57,1.57,0,0,1,43.07,31.62Z"/><path class="cls-4" d="M72.34,14.35V28h8.84V21.69a20.46,20.46,0,0,0-.24-3.54c4.08.37,4.79.54,4.79,1.16,0,.44-.41.75-1.29,1.05V22c0,4.22.17,7.11.17,8.06s-.65,1.39-2,1.39c-1,0-1.43-.31-1.43-1.12v-1.5H60.48V30c0,1-.58,1.46-2,1.46-1.05,0-1.5-.34-1.5-1.26,0-.75.17-3.06.17-7.72A32.86,32.86,0,0,0,57,18.22c3.67.31,4.62.58,4.62,1.09s-.34.68-1.16,1.05V28H69V14.35H61.91v.71c0,.88-.61,1.26-2,1.26-1,0-1.39-.37-1.39-1.09s.2-2.65.2-6.8a40.93,40.93,0,0,0-.2-5c4.15.44,4.66.58,4.66,1.12s-.34.71-1.22,1.05v8H69V5.2a43.1,43.1,0,0,0-.2-4.83c4.39.41,4.83.82,4.83,1.22s-.44.78-1.33,1.09V13.56h7.38V7.14a26.44,26.44,0,0,0-.2-3.67c3.81.37,4.56.58,4.56,1.19,0,.37-.31.65-1.09,1V7.14c0,4,.17,6.76.17,7.68s-.61,1.39-2,1.39c-1.05,0-1.46-.37-1.46-1.12v-.75Z"/><path class="cls-4" d="M116.48,4.83c1.43-1.53,1.7-1.73,2-1.73s.61.2,2.07,1.53c.65.58.85.85.85,1.12,0,.48-.17.58-1.5,1a34.84,34.84,0,0,1-11.7,12l.07,0H119.6c1.26-1.43,1.53-1.63,1.8-1.63s.61.2,1.9,1.29c.58.51.78.75.78,1s-.24.51-1,1v1.6c0,4.18.14,7,.14,8s-.65,1.33-2,1.33c-1.05,0-1.39-.31-1.39-1.19V29.3H108v.82c0,1-.58,1.33-1.94,1.33-1.05,0-1.43-.31-1.43-1.22,0-1.39.2-2.79.2-8.4,0-.41,0-.85,0-1.26a51.13,51.13,0,0,1-8.29,3.09c-.17,0-.34-.34-.17-.41a44.94,44.94,0,0,0,12.44-8,1.44,1.44,0,0,1-.37.07c-.71,0-1.09-.44-1.43-1.67a7.63,7.63,0,0,0-2.14-3.87,31.49,31.49,0,0,1-7.41,4.45c-.17.07-.41-.24-.27-.34a32.44,32.44,0,0,0,8.7-9.35A20.42,20.42,0,0,0,108,0c3.4.78,4.15,1.12,4.15,1.7s-.27.65-1.29.92c-.44.78-.92,1.5-1.39,2.21Zm-7.58.78a26.26,26.26,0,0,1-3.64,3.88c3,.78,4.76,2.28,4.76,3.94a2,2,0,0,1-.2.92,36.51,36.51,0,0,0,6.83-8.74Zm10.95,14H108v8.94h11.83Z"/><path class="cls-4" d="M153.81,20.84c0,1.26,0,2.55,0,3.81h8.33c1.84-2.14,2.21-2.41,2.45-2.41s.75.27,2.45,1.67c.75.61,1,1,1,1.19s-.1.34-.44.34h-13.7c0,2,0,3.74,0,4.59,0,1.09-.71,1.46-1.9,1.46s-1.46-.37-1.46-1.19c0-.48.07-2.11.1-4.86h-9.93a34.35,34.35,0,0,0-3.47.2l-.37-1.26a26.58,26.58,0,0,0,3.74.27h10V20.84H144.6v.24c0,1.05-.68,1.39-1.84,1.39s-1.46-.34-1.46-1.09c0-1,.17-2.28.17-6.25,0-1.84,0-3.71-.14-5.58a1.65,1.65,0,0,1-.41,0c-1.05,0-1.43-.2-1.43-1,0-.48.1-1.16.1-3.2,0-1.63,0-3.23-.17-4.86a27.19,27.19,0,0,1,3.47,1.7h4.35C148.4,1,148.67.78,148.95.78s.61.2,1.7,1.09c.48.41.68.65.68.92s-.07.41-.92,1.09v.68c0,1.84,0,3.16,0,3.57,0,.85-.48,1.19-1.63,1.19-1,0-1.29-.24-1.29-1V8h-5v.34a1,1,0,0,1-.44,1A31.43,31.43,0,0,1,145,10.84h14.72c1.26-1.5,1.53-1.7,1.8-1.7s.61.2,2,1.39c.61.54.82.78.82,1.05s-.24.54-1,1V14c0,3.81.17,6.29.17,7.14s-.68,1.43-1.87,1.43-1.46-.27-1.46-1.19v-.54ZM147.52,3h-5V7.24h5Zm-2.92,8.6v3.71h6.05V11.63Zm6.05,4.49H144.6v3.94h6.05ZM156.8,8c0,.88-.58,1.33-1.7,1.33-.92,0-1.36-.27-1.36-1.16,0-.65.14-1.36.14-4.08a26.4,26.4,0,0,0-.2-3.54A23.27,23.27,0,0,1,157,2.24h4.76c1.16-1.29,1.43-1.5,1.7-1.5s.61.2,1.77,1.19c.51.48.71.71.71,1s-.14.48-.88,1v.68c0,1.73.07,3,.07,3.4,0,.92-.54,1.29-1.73,1.29-1,0-1.29-.34-1.29-1.09V8Zm-3,7.31h6.32V11.63h-6.32Zm6.32,4.72V16.11h-6.32v3.94Zm2-17h-5.3V7.24h5.3Z"/></g></g></svg>