<svg xmlns="http://www.w3.org/2000/svg" xmlns:xlink="http://www.w3.org/1999/xlink" viewBox="0 0 390 307"><defs><style>.cls-1{isolation:isolate;}.cls-2{opacity:0.65;mix-blend-mode:multiply;}.cls-3{fill:#f5ab00;}.cls-4,.cls-5{fill:none;}.cls-4{stroke:#f4f0e3;stroke-width:2px;}.cls-4,.cls-5,.cls-9{stroke-miterlimit:10;}.cls-5{stroke:#1d2b53;}.cls-6{fill:#1d2b53;}.cls-7{opacity:0.69;}.cls-8,.cls-9{fill:#fff;}.cls-9{stroke:#fff;}</style></defs><title>資產 61</title><g class="cls-1"><g id="圖層_2" data-name="圖層 2"><g id="圖層_1-2" data-name="圖層 1"><image class="cls-2" width="390" height="307" xlink:href="資產 611.png"/><rect class="cls-3" x="19" y="19" width="351.88" height="269" rx="30.46" ry="30.46"/><rect class="cls-4" x="19" y="19" width="351.88" height="269" rx="30.46" ry="30.46"/><line class="cls-5" x1="327.82" y1="212.5" x2="65.82" y2="212.5"/><path class="cls-6" d="M101.24,169.72l-.56,1.92a4.57,4.57,0,0,0-2.66,1,8.42,8.42,0,0,0-1.85,3.76l-6.7,21.77H86.82L77.29,177,72.9,191.42a8.67,8.67,0,0,0-.44,2.12,2,2,0,0,0,1.07,1.94,5.12,5.12,0,0,0,2.34.54l-.6,1.91H65.82L66.4,196a3.89,3.89,0,0,0,2.83-1.69,13.47,13.47,0,0,0,1.56-3.6L75.87,174l-.46-.77a3.2,3.2,0,0,0-1.31-1.37,7.4,7.4,0,0,0-2.37-.25l.6-1.92H80l9.45,21,4.06-13.25c.08-.29.19-.65.33-1.07s.25-.82.34-1.19a4.36,4.36,0,0,0,.14-1,2.49,2.49,0,0,0-.79-1.74,3.73,3.73,0,0,0-2.75-.82l.6-1.92Z"/><path class="cls-6" d="M133.4,169.72l-2.46,8.1h-2a10.86,10.86,0,0,0,.19-1.92q0-2.68-1.18-3.4a5.7,5.7,0,0,0-3-.72H122.5l-6.26,20.41a6.62,6.62,0,0,0-.37,1.83,1.59,1.59,0,0,0,.86,1.58,3.91,3.91,0,0,0,1.72.42h1l-.6,1.91h-14l.56-1.91h.69a4.78,4.78,0,0,0,2.86-.6,5.21,5.21,0,0,0,1.3-2.52l6.45-21.12h-2.12a8.15,8.15,0,0,0-4.11,1.11q-1.95,1.11-3.63,4.92h-2l2.48-8.1Z"/><path class="cls-6" d="M137,195.82a2.77,2.77,0,0,1-2.73,2.73,2.55,2.55,0,0,1-1.89-.81,2.65,2.65,0,0,1-.79-1.91,2.68,2.68,0,0,1,.35-1.36,2.6,2.6,0,0,1,1-1,2.78,2.78,0,0,1,3.29.43A2.55,2.55,0,0,1,137,195.82Z"/><path class="cls-6" d="M197.74,146.37a3.77,3.77,0,0,1-.87,2.56,3.16,3.16,0,0,1-2.52,1,3.68,3.68,0,0,1-2.11-.63,9.19,9.19,0,0,1-2.15-2.41,15.23,15.23,0,0,0-2.37-3,3.69,3.69,0,0,0-2.37-.65q-3,0-6.13,3.89t-7.3,13.32a16.77,16.77,0,0,1,6.52-1.52,11.45,11.45,0,0,1,4.8,1,10.67,10.67,0,0,1,3.76,2.85,13.24,13.24,0,0,1,2.41,4.32,16.68,16.68,0,0,1,.85,5.43,29.92,29.92,0,0,1-1.43,8.91,30.85,30.85,0,0,1-4.37,8.73,22.87,22.87,0,0,1-7.3,6.65,19.58,19.58,0,0,1-10,2.52,11.34,11.34,0,0,1-11.39-7.47,18.51,18.51,0,0,1-1.22-6.61,52.5,52.5,0,0,1,1.85-11.56A71.73,71.73,0,0,1,162.5,158a45,45,0,0,1,10-13.17q6-5.34,15.43-5.34,5.78,0,7.82,2.3A7,7,0,0,1,197.74,146.37Zm-16,20.9a5.45,5.45,0,0,0-1.17-3.28,4.49,4.49,0,0,0-3.87-1.59,6.48,6.48,0,0,0-5.15,2.43,26,26,0,0,0-3.93,7.17q-5.08,12.91-5.08,18a6.17,6.17,0,0,0,1.26,4.13,4.43,4.43,0,0,0,3.56,1.48,5.91,5.91,0,0,0,4.43-1.69,10,10,0,0,0,2.13-2.87q.82-1.65,2.74-6.63t3.5-10.08A29,29,0,0,0,181.71,167.28Z"/><path class="cls-6" d="M240.47,153.93a64.35,64.35,0,0,1-1.56,12.32,78.26,78.26,0,0,1-4.8,15.17,38.22,38.22,0,0,1-8.67,12.73,17.74,17.74,0,0,1-12.65,5.19q-7.65,0-10.15-4.82a21.89,21.89,0,0,1-2.5-10.21,65.55,65.55,0,0,1,2.43-15.3,68.72,68.72,0,0,1,7.26-17.82,31.44,31.44,0,0,1,4.11-5.45,21.32,21.32,0,0,1,6-4.41,17.7,17.7,0,0,1,8.15-1.83,11.87,11.87,0,0,1,6.63,1.67,10.92,10.92,0,0,1,3.82,4.19,15.61,15.61,0,0,1,1.61,4.67A26.14,26.14,0,0,1,240.47,153.93Zm-8.13-6a5.27,5.27,0,0,0-1.13-3.43,3.91,3.91,0,0,0-3.22-1.39,6.46,6.46,0,0,0-5,2.39,17.5,17.5,0,0,0-3,4.48,126.54,126.54,0,0,0-5,13.15q-3,8.84-5,16.69t-2.09,10.32a8.6,8.6,0,0,0,.91,3.54q.91,2,3.91,2,4.82,0,8-7.74,1.17-2.87,3.26-9.23t4-12.69q1.89-6.32,3.15-11.39A35.94,35.94,0,0,0,232.34,148Z"/><path class="cls-6" d="M287.2,153.93a64.35,64.35,0,0,1-1.56,12.32,78.26,78.26,0,0,1-4.8,15.17,38.22,38.22,0,0,1-8.67,12.73,17.74,17.74,0,0,1-12.65,5.19q-7.65,0-10.15-4.82a21.89,21.89,0,0,1-2.5-10.21A65.55,65.55,0,0,1,249.3,169a68.72,68.72,0,0,1,7.26-17.82,31.44,31.44,0,0,1,4.11-5.45,21.32,21.32,0,0,1,6-4.41,17.7,17.7,0,0,1,8.15-1.83,11.87,11.87,0,0,1,6.63,1.67,10.92,10.92,0,0,1,3.82,4.19,15.61,15.61,0,0,1,1.61,4.67A26.14,26.14,0,0,1,287.2,153.93Zm-8.13-6a5.27,5.27,0,0,0-1.13-3.43,3.91,3.91,0,0,0-3.22-1.39,6.46,6.46,0,0,0-5,2.39,17.5,17.5,0,0,0-3,4.48,126.54,126.54,0,0,0-5,13.15q-3,8.84-5,16.69t-2.09,10.32a8.6,8.6,0,0,0,.91,3.54q.91,2,3.91,2,4.82,0,8-7.74,1.17-2.87,3.26-9.23t4-12.69q1.89-6.32,3.15-11.39A35.94,35.94,0,0,0,279.07,148Z"/><path class="cls-6" d="M54.34,79.3c2,.16,3.29.22,4.37.22H75.27c2.54-3.19,2.57-3.22,2.88-3.22s.43,0,2.17,1.77S82,79.79,82,80s-.16.34-.4.34H58.71c-1.09,0-2.29.06-4.06.22Z"/><path class="cls-6" d="M105.06,78.71c.19,0,.25.22.06.28-.43.19-.87.34-1.3.5,0,6.67.22,10.11.22,10.94a3.66,3.66,0,0,1-1.58,3.44,4.44,4.44,0,0,1-2.36.74c-.53,0-.68-.22-.81-.78a3.5,3.5,0,0,0-2.95-2.51c-.19,0-.19-.31,0-.31,1.43,0,2.6-.12,3.32-.22s1-.31,1-1.3V80.6c-.68.22-1.4.43-2.17.65,1.27.16,1.49.31,1.49.5s-.16.37-.46.62v.84c0,2.54.09,4.4.09,4.84,0,.59-.46.87-1.55.87-.71,0-1-.22-1-.74s.13-2.33.13-4.84V81.62l-.93.25c-.28,6.95-1.43,9.58-5.52,12.5-.16.09-.4,0-.28-.19,2-2.67,2.7-5.36,2.82-11.56l-.59.15c-.4.56-.5.65-.78.65s-.56-.06-1.52-4.28a24.85,24.85,0,0,0,2.88.09c0-7.38-.09-8.59-.31-10.33A27.08,27.08,0,0,1,96.44,70c.15-1.4.22-2.17.28-3a12.75,12.75,0,0,0,0-1.55c4.31.71,4.81,1,4.81,1.49,0,.34-.25.53-1.24.71A30.19,30.19,0,0,1,98,70.28h2.2c1.33-1.49,1.43-1.55,1.71-1.55s.47,0,1.55,1,1.18,1.15,1.18,1.39-.12.37-.84.93V78.8Zm-8.74.5c1.49,0,2.92-.09,4.34-.19V70.9H96.87a1.43,1.43,0,0,1-.56.4ZM100,75.95a1.61,1.61,0,0,1-1.67,1.77,1.1,1.1,0,0,1-1.05-1.21,8.33,8.33,0,0,1,.13-1.24,4.78,4.78,0,0,0-.56-3.1c-.09-.16,0-.28.19-.19C98.7,72.76,100,74.06,100,75.95Zm13.24,3.54c1.46-1.55,1.58-1.64,1.86-1.64s.5,0,1.83,1.21,1.4,1.49,1.4,1.71-.28.59-1.3.9a25.33,25.33,0,0,1-3.35,6.29,19.53,19.53,0,0,0,6.67,3c.19.06.13.22,0,.28a7.36,7.36,0,0,0-3,2.73c-.34.59-.5.68-.68.68a1.47,1.47,0,0,1-.74-.25,16.14,16.14,0,0,1-4.68-3.84,21.57,21.57,0,0,1-8.53,4c-.19.06-.34-.22-.19-.31a20.47,20.47,0,0,0,7.19-5.92c-1.18-2-1.64-4.31-2.14-8.22-.56,0-1.18.09-1.86.16l-.31-1.05a35.08,35.08,0,0,0,4,.22ZM110,70c0,4.28-1.52,6.6-5.58,8.37-.19.06-.37-.09-.25-.22,2.14-1.89,2.36-3.41,2.36-7.47a32.7,32.7,0,0,0-.25-4.53c2.73.74,3.75,1.18,4.09,1.49H112c1.27-1.55,1.43-1.64,1.64-1.64s.4,0,1.64,1,1.39,1.08,1.39,1.3-.06.4-.9,1V73c0,.56.12.71.74.71a1.3,1.3,0,0,0,1-.34c.5-.46,1-1.52,1.89-3.88.06-.19.31-.09.28.09a23.3,23.3,0,0,0-.28,3.07,1.8,1.8,0,0,0,.31,1.08,1.83,1.83,0,0,1,.53,1.36c0,1.27-.78,2-4.37,2-2.85,0-3.66-.56-3.66-3,0-.43.06-1,.06-3.22V68.29h-1.83a1.55,1.55,0,0,1-.46.4ZM109.4,80.1c-.43,0-.9,0-1.36,0A12,12,0,0,0,111.26,86a27.14,27.14,0,0,0,2.29-5.86Z"/><path class="cls-6" d="M137.95,89.19a27.68,27.68,0,0,1-10,5c-.19,0-.31-.22-.16-.31A18.17,18.17,0,0,0,133.92,88a14.85,14.85,0,0,0,1.27-2.17c3.91,2.11,4.06,2.33,4.06,2.7S139,89.07,137.95,89.19Zm-4.31-20.53a42.81,42.81,0,0,0-4.74.22l-.28-1.05a48.9,48.9,0,0,0,5,.22h17.27c2.14-2.54,2.2-2.57,2.51-2.57s.4,0,1.89,1.36c1.21,1.08,1.3,1.21,1.3,1.49a.3.3,0,0,1-.34.34h-8.81c0,.16-.25.31-.46.46V72h2.23c1.55-1.74,1.64-1.8,1.92-1.8s.5.06,2,1.21c1.08.84,1.15.93,1.15,1.24s-.06.37-.9,1.05v.65c0,1.21.16,3.13.16,3.44,0,.87-.74,1.43-2.48,1.43-1.27,0-1.49-.25-1.49-1.12V78H135.16c-.06,1.15-.81,1.52-2.36,1.52-1,0-1.21-.19-1.21-1.08,0-.37.12-2,.12-3.53s0-3.1-.09-4.34c3.22.78,4,1,4.22,1.43h1.86V68.66ZM151,84.45c2.11-2.6,2.2-2.67,2.48-2.67s.37,0,2.08,1.55c1.08,1,1.18,1.08,1.18,1.3s-.12.43-.59.43H145.24c0,.22-.09.43-.59.71v1.08c0,2,.19,2.95.19,4.28a3,3,0,0,1-1.64,3,4.49,4.49,0,0,1-2.42.62c-.62,0-.87,0-1.15-.87-.34-1-1.05-1.83-2.91-2.39a.16.16,0,0,1,0-.31,18.27,18.27,0,0,0,2.7-.09c1-.09,1.36-.4,1.36-1.8V87.45c0-1,0-1.58-.06-2.39h-7.22c-1.12,0-2.54.06-4.25.22L129,84.23a34.91,34.91,0,0,0,4.53.22ZM146.35,81c1.83-2.23,1.92-2.29,2.17-2.29s.34,0,1.71,1.27c1,.9,1.15,1.05,1.15,1.3s-.22.34-.47.34H137.08c-.71,0-2,.06-3.5.22l-.31-1.05c1.52.16,2.91.22,3.81.22Zm-8.65-8.37h-2a4.34,4.34,0,0,1-.53.43v4.34h2.54Zm3.81-4c0,.12-.25.28-.46.43V72h2.54V68.66Zm-.46,8.74h2.54V72.63h-2.54Zm13.7,13.67a2.07,2.07,0,0,1-2,2.17c-.9,0-1.43-.4-2-1.58A9.8,9.8,0,0,0,145.64,87a.16.16,0,0,1,.06-.31C151.19,86.46,154.75,88.6,154.75,91.08ZM147,72.63v4.78h2.57V72.63Z"/><path class="cls-6" d="M164.51,94.55l12.06-29.08,1,.34L165.48,94.92Z"/><path class="cls-6" d="M208.38,88.1c2-2.6,2.11-2.64,2.42-2.64s.4,0,2,1.52c1.12,1,1.21,1.18,1.21,1.43a.3.3,0,0,1-.34.31H201.25c.06,2.48.12,4.4.12,4.78,0,.93-.84,1.33-2.45,1.33-1.36,0-1.64-.16-1.64-1.15,0-.4.06-2.42.12-5h-7.84a29.81,29.81,0,0,0-3.69.22l-.31-1.05c1.61.16,3,.22,4,.22h7.88c0-1.15,0-2.36,0-3.53h-4.16v.93c0,.9-.71,1.3-2.29,1.3-1.09,0-1.36-.19-1.36-1,0-.56.09-4.16.09-6.29,0-2.95,0-3.81-.09-5.08,2.88.62,3.84.93,4.15,1.18H205.1c1.55-1.52,1.71-1.61,2-1.61s.5.06,1.58.84c1.43,1,1.58,1.21,1.58,1.49s-.09.4-1,1.08v1.67c0,2.82.16,5,.16,5.52,0,.9-1,1.4-2.39,1.4s-1.52-.19-1.52-1.08v-.37h-4.31c0,1.21,0,2.42,0,3.53ZM191.27,72.94c0,.9-.78,1.27-2.08,1.27-1.05,0-1.27-.19-1.27-1s.12-1.77.12-3.19a32.37,32.37,0,0,0-.16-4c2.85.68,3.81,1.05,4.06,1.33h2.51c1.21-1.46,1.33-1.52,1.61-1.52s.4.06,1.86,1.18c1,.78,1.05.93,1.05,1.15s-.09.37-.84,1v1.12c0,1.52.09,2.11.09,2.29,0,.9-.93,1.27-2.29,1.27-1,0-1.15-.19-1.15-1v-.22h-3.53Zm3.53-.87V68h-3a3.12,3.12,0,0,1-.53.34v3.72Zm-1.05,4.19a2.33,2.33,0,0,1-.43.34v3.13h4.16V77.66c0-.53,0-1-.06-1.4Zm-.43,7.69h4.16v-3.6h-4.16ZM203.76,73c0,.9-.81,1.27-2.14,1.27-1.05,0-1.27-.19-1.27-1,0-.28.06-2,.06-3.5a26.51,26.51,0,0,0-.16-3.69,17.11,17.11,0,0,1,4,1.24h2.95c1.24-1.46,1.36-1.52,1.64-1.52s.43,0,1.92,1.21c1,.77,1.09.9,1.09,1.15s-.06.34-.84,1v1.12c0,1,.09,2.2.09,2.39,0,.9-.9,1.27-2.39,1.27-1,0-1.18-.19-1.18-1v-.31h-3.81Zm-2.54,6.7h4.31V76.26h-3.69c0,.31-.19.5-.62.81Zm4.31,4.22v-3.6h-4.31v3.6Zm2-11.88V68h-3.29a3.08,3.08,0,0,1-.53.34v3.72Z"/><path class="cls-6" d="M238.51,69.22A27.73,27.73,0,0,0,241.58,82a23,23,0,0,0,10,8.68c.19.06.19.28,0,.31a6.75,6.75,0,0,0-4,2.48c-.37.5-.56.59-.81.59a1.75,1.75,0,0,1-1-.43,17.05,17.05,0,0,1-6.7-10c-.68-3.22-.87-4.77-.9-11.69L238,72c-.4,8.28-2.2,12.34-5.15,15.94a21.31,21.31,0,0,1-10.17,6.6c-.19.06-.34-.22-.19-.31a18.81,18.81,0,0,0,7.6-7.44C232.37,83.14,234,77.13,234,70a30.15,30.15,0,0,0-.15-4.19c5.18.65,5.89,1.12,5.89,1.49s-.22.68-1.18,1.27Z"/><path class="cls-6" d="M296.43,238.37h-4.92v9h-1.66V231.67h6.57Zm-4.92-5.29v1.28h3.35v-1.28Zm3.35,3.92v-1.4h-3.35V237Zm9.83,8.26c0,1-.23,1.55-.92,1.84a11.07,11.07,0,0,1-3.48.31,6,6,0,0,0-.59-1.73c1.19.05,2.45,0,2.81,0s.47-.13.47-.45v-6.88h-5.08v-6.72h6.79Zm-5.19-12.19v1.28H303v-1.28Zm3.48,4v-1.44h-3.48V237Z"/><path class="cls-6" d="M314.3,243.82a14.24,14.24,0,0,1-4.14,3.26c-.29-.27-.9-.85-1.24-1.1a11.48,11.48,0,0,0,3.83-2.7Zm10.75-2.2V243h-7.22v4.47h-1.66V243H309v-1.35Zm-10.88-8.71h-4.92v-1.35h15.45v1.35h-5v1.19h4.09v4.23h-13.5V234.1h3.87Zm-3,7.71V239.3h11.7v1.31Zm.68-3.55h2.3v-1.73h-2.3Zm6.27-4.16h-2.41v1.19h2.41Zm-2.41,4.16h2.41v-1.73h-2.41Zm5,6.27a27.82,27.82,0,0,1,4.23,2.74l-1.31,1a25,25,0,0,0-4.14-2.84Zm-1-8v1.73h2.43v-1.73Z"/><g id="sold_out" data-name="sold out"><rect class="cls-7" x="19" y="19" width="351.88" height="269" rx="30.46" ry="30.46"/><path class="cls-8" d="M210.78,143h1a10.88,10.88,0,0,0,2.7,5.7,6,6,0,0,0,4.27,1.78,3.81,3.81,0,0,0,4.31-3.8,3.4,3.4,0,0,0-1-2.57,12.71,12.71,0,0,0-2.76-1.69l-2.23-1.13a14.79,14.79,0,0,1-4.68-3.32A6.13,6.13,0,0,1,211,134a7.45,7.45,0,0,1,1.81-4.79q1.81-2.22,5.54-2.22a11.73,11.73,0,0,1,3.67.58,13.67,13.67,0,0,0,2,.58.87.87,0,0,0,.79-.33,2.82,2.82,0,0,0,.35-.88h1v7.62h-1a10.67,10.67,0,0,0-2.41-4.56,5.45,5.45,0,0,0-4.2-1.91,3.81,3.81,0,0,0-2.75,1,3.47,3.47,0,0,0-.06,4.83,22.21,22.21,0,0,0,4.17,2.46l2.58,1.3a10.24,10.24,0,0,1,2.76,1.93,6.66,6.66,0,0,1,1.92,4.82,7.47,7.47,0,0,1-2.06,5q-2.06,2.35-6.6,2.35a11.65,11.65,0,0,1-2.11-.2,11.37,11.37,0,0,1-2.11-.61l-.67-.26-.45-.11a2,2,0,0,0-.37,0,.81.81,0,0,0-.74.32,3.21,3.21,0,0,0-.35.9h-1Z"/><path class="cls-8" d="M252.26,130.45A12.62,12.62,0,1,1,231,139.66a12.41,12.41,0,0,1,3.45-9,13,13,0,0,1,17.79-.17Zm-3.4,15.62a22.76,22.76,0,0,0,.79-6.6q0-5.59-1.67-8.43a5.07,5.07,0,0,0-4.53-2.84q-4,0-5.44,4.73a28,28,0,0,0,0,13.13q1.45,4.67,5.42,4.67T248.86,146.07Z"/><path class="cls-8" d="M258.63,150.32a5.09,5.09,0,0,0,2.05-.38,2.14,2.14,0,0,0,1-2.09v-17a2.11,2.11,0,0,0-1-2.05,5.39,5.39,0,0,0-2.1-.41v-.89h12.24v.89A5.52,5.52,0,0,0,268,129q-.71.53-.71,2.6v16.54a1.68,1.68,0,0,0,.61,1.54,5,5,0,0,0,2.37.38,9.54,9.54,0,0,0,5.31-1.39q2.14-1.39,3.7-5.43h1l-1.42,7.93H258.63Z"/><path class="cls-8" d="M282.69,150.32a5.29,5.29,0,0,0,1.9-.38,2,2,0,0,0,1-1.93V130.75a2,2,0,0,0-1-1.88,5.39,5.39,0,0,0-1.95-.43v-.89h10.7q6.48,0,9.88,3.45a11.52,11.52,0,0,1,3.09,8.44,11.29,11.29,0,0,1-3.11,8q-3.5,3.71-9.5,3.71H282.69Zm9-.77a1.79,1.79,0,0,0,1.5.48,6.6,6.6,0,0,0,5.11-2.2q2-2.2,2-8.43A17,17,0,0,0,299.2,133q-1.74-4.29-5.88-4.29-1.37,0-1.78.58a2.67,2.67,0,0,0-.27,1.45V148A2.92,2.92,0,0,0,291.67,149.55Z"/><path class="cls-8" d="M231.92,170.45a12.62,12.62,0,1,1-21.24,9.21,12.41,12.41,0,0,1,3.45-9,13,13,0,0,1,17.79-.17Zm-3.4,15.62a22.76,22.76,0,0,0,.79-6.6q0-5.59-1.67-8.43a5.07,5.07,0,0,0-4.53-2.84q-4,0-5.44,4.73a28,28,0,0,0,0,13.13q1.45,4.67,5.42,4.67T228.52,186.07Z"/><path class="cls-8" d="M250,167.56v.89a4.83,4.83,0,0,0-2.72.63q-.68.56-.68,2.57v11.73a10.7,10.7,0,0,0,.63,4.13,4.33,4.33,0,0,0,4.39,2.71q4,0,5.45-3a10.88,10.88,0,0,0,.79-4.6V171.9a3.71,3.71,0,0,0-.69-2.59,4.31,4.31,0,0,0-2.71-.86v-.89h7.69v.89a5.12,5.12,0,0,0-2.21.79,3,3,0,0,0-.54,2.16V182.6q0,4.46-2.15,6.89t-6.77,2.43q-6,0-8.25-3.61a9.31,9.31,0,0,1-1.18-4.94V171.64a3.82,3.82,0,0,0-.52-2.48,4.32,4.32,0,0,0-2.35-.71v-.89Z"/><path class="cls-8" d="M264.73,167.56H285.8l0,7.06h-1q-.5-3.79-2.84-5.12a8.74,8.74,0,0,0-3.93-.81v18.44a3.56,3.56,0,0,0,.67,2.57,4.33,4.33,0,0,0,2.81.63v.89H269.07v-.89a4.11,4.11,0,0,0,2.73-.64,3.56,3.56,0,0,0,.67-2.56V168.69a9,9,0,0,0-3.93.81q-2.51,1.37-2.84,5.13h-1Z"/><path class="cls-8" d="M154.13,109.33c2.94-3.53,3.14-3.72,3.63-3.72s.78.25,3.53,2.25c1.42,1.08,2,1.52,2,1.91a.48.48,0,0,1-.49.54H132c-.1,1.52-1.27,2.16-3.92,2.16-1.76,0-2.21-.15-2.16-1.81l.25-11.22,0-.83a48.45,48.45,0,0,1-8.23,5.63c-.25.15-.54-.24-.34-.44a44.18,44.18,0,0,0,9.85-16.27,28.08,28.08,0,0,0,.78-2.79c7.45,1.81,7.79,2.25,7.79,3,0,.49-.29.83-1.86,1.18-.59.93-1.18,1.76-1.71,2.6l.25.15h7.54a53.37,53.37,0,0,0,1.13-5.73,14.09,14.09,0,0,0,.1-1.62c7.1,1.18,8.13,2.06,8.13,2.55,0,.74-.39,1-2,1.32a47.48,47.48,0,0,1-3.72,3.48h10c3-3.53,3.28-3.72,3.77-3.72s.83.25,3.43,2.21c1.67,1.27,2,1.57,2,2a.48.48,0,0,1-.49.54H146.83a2.26,2.26,0,0,1-.74.83v4.12h5.54c2.65-3,2.89-3.23,3.28-3.23s.73.1,2.84,1.71,2.16,1.71,2.16,2-.24.49-.59.49H146.09v4.51h5.54c2.65-3,2.89-3.23,3.28-3.23s.64,0,2.84,1.76c2,1.57,2.16,1.67,2.16,2s-.24.49-.59.49H146.09v5.29Zm-3.72,6.47c2.45-2.79,2.7-2.94,3.18-2.94s.83,0,3.33,2.06c2,1.62,2.11,1.86,2.11,2.3s0,.59-1.47,1.81v1.67c0,1.67.25,5.73.25,7.4,0,1.37-1.08,2.16-4.21,2.16-2.06,0-2.45-.44-2.45-1.86v-1.32H133v1.22c0,2.16-1.52,2.6-4.31,2.6-1.52,0-2-.34-2-1.67,0-1.86.25-5.14.25-8.48,0-1.52,0-4.7-.1-7.5,5.14,1.22,6.81,2,7.25,2.55ZM132.86,92.62a2.49,2.49,0,0,1-.88.54v4.41h8.18V92.62Zm7.3,5.93H132v4.51h8.18Zm0,5.49H132v5.29h8.18Zm11,22v-9.31H134a4,4,0,0,1-1,.54v8.77Z"/><path class="cls-8" d="M149.52,173.43c0,.54-.25.83-1.27,1.42v10.83c0,1.32.39,1.76,3.63,1.76,3.82,0,4.56-.15,5.68-1.18s2.6-3.09,4.31-7.45a.25.25,0,0,1,.49.1q-.51,3.82-.59,5.73a3.83,3.83,0,0,0,.69,2.74,3.77,3.77,0,0,1,1,2.65c0,2.55-2.6,3.77-11.86,3.77-8.23,0-9.6-1.37-9.6-5.68,0-1.22.2-5.83.2-9.16,0-2.6,0-4.26-.1-5.54h-6.37c3.67.73,4.21,1.22,4.21,1.67s-.29.83-1.32,1.32c-1.27,9.11-8,16.56-19.89,18.42-.29,0-.44-.44-.15-.54,8-2.6,13.28-11.27,13.28-19.35,0-.49,0-1,0-1.52h-4.51c-1.76,0-4,.1-6.71.34l-.44-1.67a55.37,55.37,0,0,0,7.15.34h26.46c3.58-4.31,3.82-4.46,4.31-4.46s.74,0,3.58,2.65c1.67,1.52,1.81,1.71,1.81,2.11s-.2.69-.93.69ZM127,157.6a10.12,10.12,0,0,1,.49,3,4.65,4.65,0,0,1-4.7,4.85,3,3,0,0,1-3.18-3.09,4,4,0,0,1,2.06-3.43c1.76-1.27,2.65-2.35,2.45-5.24,0-.29.34-.34.54-.1a13.12,13.12,0,0,1,2,3H138v-3.87a27.43,27.43,0,0,0-.29-4.07c7.84.49,8.77,1,8.77,1.76s-.25.83-2,1.62v4.56h9.95c2.6-2.79,2.84-2.94,3.38-2.94s1.18.29,3.53,2.5c1.91,1.81,2.5,2.6,2.5,3.38s-.54,1.42-2.3,1.47a9.69,9.69,0,0,0-3.53.54c-.88.34-2.21,1-4,1.86-.25.15-.44,0-.34-.25.83-2.25,1.37-3.92,1.86-5.59Zm18.91,7.4c2.94-3.63,3.14-3.72,3.63-3.72s.69.1,2.89,2.06c1.57,1.37,1.81,1.71,1.81,2.11s-.34.54-.74.54H134.18c-1.13,0-3.23.1-5.54.34l-.49-1.67c2.4.25,4.61.34,6,.34Z"/><line class="cls-9" x1="187" y1="84" x2="187" y2="193"/></g></g></g></g></svg>