<svg xmlns="http://www.w3.org/2000/svg" xmlns:xlink="http://www.w3.org/1999/xlink" viewBox="0 0 390 307"><defs><style>.cls-1{isolation:isolate;}.cls-2{opacity:0.65;mix-blend-mode:multiply;}.cls-3{fill:#f5ab00;}.cls-4,.cls-5{fill:none;}.cls-4{stroke:#f4f0e3;stroke-width:2px;}.cls-4,.cls-5,.cls-9{stroke-miterlimit:10;}.cls-5{stroke:#1d2b53;}.cls-6{fill:#1d2b53;}.cls-7{opacity:0.69;}.cls-8,.cls-9{fill:#fff;}.cls-9{stroke:#fff;}</style></defs><title>資產 60</title><g class="cls-1"><g id="圖層_2" data-name="圖層 2"><g id="圖層_1-2" data-name="圖層 1"><image class="cls-2" width="390" height="307" xlink:href="資產 601.png"/><rect class="cls-3" x="19" y="19" width="351.88" height="269" rx="30.46" ry="30.46"/><rect class="cls-4" x="19" y="19" width="351.88" height="269" rx="30.46" ry="30.46"/><line class="cls-5" x1="327.82" y1="212.5" x2="65.82" y2="212.5"/><path class="cls-6" d="M90.62,83.54c2.17-2.91,2.26-3,2.57-3s.4,0,2.11,1.68c1.22,1.16,1.31,1.31,1.31,1.56s-.15.34-.4.34H83.89c0,5.63.15,7.43.15,8,0,.92-.95,1.38-2.75,1.38-1.25,0-1.53-.28-1.53-1.1,0-.64.15-2.57.15-8.29H72.21c-1.07,0-2.26.06-4,.21l-.31-1c2,.15,3.24.21,4.31.21h7.71c0-3.67,0-5-.06-5.66h-4.1v.92c0,.89-.76,1.28-2.57,1.28-1.07,0-1.35-.21-1.35-1,0-.55.09-3,.09-7.25,0-2.69,0-4.59-.09-5.84,3.39.67,4.25,1,4.46,1.28H87.38c1.53-1.68,1.65-1.74,2-1.74s.43,0,2,1.22c1.25.95,1.35,1.07,1.35,1.38s-.12.31-.86.92v2.75c0,4.59.15,5.87.15,6.42,0,.89-.95,1.38-2.69,1.38-1.22,0-1.47-.18-1.47-1.07v-.67H84.56c0,.21-.24.37-.67.58v5.08ZM76.25,67.91a3.14,3.14,0,0,1-.49.34v4H87.83V67.91Zm-.49,9.36H87.83V72.83H75.76Z"/><path class="cls-6" d="M107.7,84a7,7,0,0,1,2,4.83,2.93,2.93,0,0,1-3,3.15,2,2,0,0,1-2-1.83,2.28,2.28,0,0,1,1-2,4.46,4.46,0,0,0,1.74-4.07C107.46,83.9,107.58,83.9,107.7,84Zm19.05-1.59c1.44-1.5,1.56-1.56,1.8-1.56s.52.06,2,1.31c1.28,1.07,1.35,1.22,1.35,1.53s-.12.46-1,1c-.34,4.43-1,6.51-2,7.52a4.93,4.93,0,0,1-3.79,1.41c-.79,0-1-.12-1.13-.73-.34-1.34-.83-1.93-3.06-2.66-.18-.06-.18-.34,0-.34,1.65,0,2.35,0,3.27-.06a2.12,2.12,0,0,0,2-1c.61-1.16.83-2.84.89-5.81H112.84c0,.67-.64,1.28-2.48,1.28-1.1,0-1.44-.34-1.44-1,0-.37.12-7.06.12-11.13,0-2.6,0-3.18-.12-4.43A17.67,17.67,0,0,1,113.12,69c.18-1,.34-1.87.46-3.09a8.07,8.07,0,0,0,.09-1.16c4.22.67,5.2.89,5.2,1.32s-.24.55-1.35.89c-.89.76-1.65,1.44-2.51,2.14h7.46c1.62-1.77,1.77-1.87,2.08-1.87s.55.09,1.93,1.1c1.19.86,1.35,1.07,1.35,1.31s-.06.37-.79,1v2.63c0,1.59.12,2.87.12,3.46,0,1-1,1.32-2.72,1.32-1.25,0-1.47-.25-1.47-.92v-.37H112.84v2.63h13.73c1.87-2.2,2-2.32,2.23-2.32s.4,0,1.47,1c1.35,1.22,1.47,1.38,1.47,1.62a.27.27,0,0,1-.31.31H112.84v2.45Zm-11.25,6.3a2.22,2.22,0,0,1-2.23,2.42,1.58,1.58,0,0,1-1.68-1.65,12.65,12.65,0,0,1,.12-1.53,4,4,0,0,0-.83-3c-.12-.12,0-.25.15-.21C113.58,85.1,115.5,86.81,115.5,88.73Zm-2.23-19.08a3.46,3.46,0,0,1-.43.28v2.63H123V69.65ZM123,76.14v-3H112.84v3Zm-2.23,11.77A2,2,0,0,1,118.62,90a1.64,1.64,0,0,1-1.62-1.9,4.28,4.28,0,0,0-1.56-3.7c-.15-.09-.06-.24.12-.24C119,84.48,120.73,86.14,120.73,87.91Zm-.37-3.7c-.15-.09-.12-.25.06-.25,3.7-.15,5.29,1.16,5.29,2.88a1.94,1.94,0,0,1-1.93,1.93,1.39,1.39,0,0,1-1.5-1.34A4,4,0,0,0,120.36,84.21Z"/><path class="cls-6" d="M150.84,88.12a27.3,27.3,0,0,1-9.82,5c-.18,0-.31-.21-.15-.31a17.93,17.93,0,0,0,6-5.84,14.74,14.74,0,0,0,1.25-2.14c3.85,2.08,4,2.29,4,2.66S151.91,88,150.84,88.12Zm-4.25-20.24a42.09,42.09,0,0,0-4.68.21l-.28-1a48.35,48.35,0,0,0,5,.21h17c2.11-2.51,2.17-2.54,2.48-2.54s.4,0,1.87,1.35c1.19,1.07,1.28,1.19,1.28,1.47a.29.29,0,0,1-.34.34h-8.68c0,.15-.24.31-.46.46v2.84H162c1.53-1.71,1.62-1.77,1.9-1.77s.49.06,2,1.19c1.07.83,1.13.92,1.13,1.22s-.06.37-.89,1v.64c0,1.19.15,3.09.15,3.39,0,.86-.73,1.41-2.45,1.41-1.25,0-1.47-.25-1.47-1.1v-.09H148.09c-.06,1.13-.79,1.5-2.32,1.5-1,0-1.19-.18-1.19-1.07,0-.37.12-2,.12-3.49s0-3.06-.09-4.28c3.18.76,4,1,4.16,1.41h1.83v-3.3Zm17.09,15.56c2.08-2.57,2.17-2.63,2.45-2.63s.37,0,2,1.53c1.07.95,1.16,1.07,1.16,1.28s-.12.43-.58.43H158c0,.21-.09.43-.58.7v1.07c0,2,.18,2.91.18,4.22A3,3,0,0,1,156,93a4.43,4.43,0,0,1-2.38.61c-.61,0-.86,0-1.13-.86-.34-1-1-1.8-2.87-2.35a.15.15,0,0,1,0-.31,18.05,18.05,0,0,0,2.66-.09c1-.09,1.35-.4,1.35-1.77V86.41c0-.95,0-1.56-.06-2.35h-7.12c-1.1,0-2.51.06-4.19.21l-.28-1a34.56,34.56,0,0,0,4.46.21ZM159.13,80c1.8-2.2,1.9-2.26,2.14-2.26s.34,0,1.68,1.25c1,.89,1.13,1,1.13,1.28s-.21.34-.46.34H150c-.7,0-2,.06-3.46.21l-.31-1c1.5.15,2.87.21,3.76.21Zm-8.53-8.26h-2a4.29,4.29,0,0,1-.52.43V76.5h2.51Zm3.76-3.91c0,.12-.24.28-.46.43v2.88h2.51v-3.3Zm-.46,8.62h2.51V71.79H153.9ZM167.42,90a2,2,0,0,1-2,2.14c-.89,0-1.41-.4-2-1.56a9.66,9.66,0,0,0-5-4.65.16.16,0,0,1,.06-.31C163.9,85.43,167.42,87.54,167.42,90Zm-7.64-18.19V76.5h2.54V71.79Z"/><path class="cls-6" d="M101.24,169.72l-.56,1.92a4.57,4.57,0,0,0-2.66,1,8.42,8.42,0,0,0-1.85,3.76l-6.7,21.77H86.82L77.29,177,72.9,191.42a8.67,8.67,0,0,0-.44,2.12,2,2,0,0,0,1.07,1.94,5.12,5.12,0,0,0,2.34.54l-.6,1.91H65.82L66.4,196a3.89,3.89,0,0,0,2.83-1.69,13.47,13.47,0,0,0,1.56-3.6L75.87,174l-.46-.77a3.2,3.2,0,0,0-1.31-1.37,7.4,7.4,0,0,0-2.37-.25l.6-1.92H80l9.45,21,4.06-13.25c.08-.29.19-.65.33-1.07s.25-.82.34-1.19a4.36,4.36,0,0,0,.14-1,2.49,2.49,0,0,0-.79-1.74,3.73,3.73,0,0,0-2.75-.82l.6-1.92Z"/><path class="cls-6" d="M133.4,169.72l-2.46,8.1h-2a10.86,10.86,0,0,0,.19-1.92q0-2.68-1.18-3.4a5.7,5.7,0,0,0-3-.72H122.5l-6.26,20.41a6.62,6.62,0,0,0-.37,1.83,1.59,1.59,0,0,0,.86,1.58,3.91,3.91,0,0,0,1.72.42h1l-.6,1.91h-14l.56-1.91h.69a4.78,4.78,0,0,0,2.86-.6,5.21,5.21,0,0,0,1.3-2.52l6.45-21.12h-2.12a8.15,8.15,0,0,0-4.11,1.11q-1.95,1.11-3.63,4.92h-2l2.48-8.1Z"/><path class="cls-6" d="M137,195.82a2.77,2.77,0,0,1-2.73,2.73,2.55,2.55,0,0,1-1.89-.81,2.65,2.65,0,0,1-.79-1.91,2.68,2.68,0,0,1,.35-1.36,2.6,2.6,0,0,1,1-1,2.78,2.78,0,0,1,3.29.43A2.55,2.55,0,0,1,137,195.82Z"/><path class="cls-6" d="M190.53,139.51,176.45,185.7a26.68,26.68,0,0,0-1.3,5.78,1.91,1.91,0,0,0,.85,1.67,5,5,0,0,0,2.24.76q1.39.17,3.82.26L180.93,198h-26l1.26-3.82H159a9.35,9.35,0,0,0,3-.37,3.47,3.47,0,0,0,1.74-1.72,30,30,0,0,0,1.83-4.78l9.52-31.07q.87-3,.87-2.91a12.09,12.09,0,0,0,.52-2.69,2.29,2.29,0,0,0-1.87-2.39,16.25,16.25,0,0,0-4.35-.52H167l1.17-3.74q6.21-.56,9.34-1.09a27.22,27.22,0,0,0,5-1.24,23.39,23.39,0,0,0,4.15-2.15Z"/><path class="cls-6" d="M243.13,146.37a3.77,3.77,0,0,1-.87,2.56,3.16,3.16,0,0,1-2.52,1,3.68,3.68,0,0,1-2.11-.63,9.18,9.18,0,0,1-2.15-2.41,15.26,15.26,0,0,0-2.37-3,3.69,3.69,0,0,0-2.37-.65q-3,0-6.13,3.89t-7.3,13.32a16.77,16.77,0,0,1,6.52-1.52,11.46,11.46,0,0,1,4.8,1,10.67,10.67,0,0,1,3.76,2.85,13.24,13.24,0,0,1,2.41,4.32,16.66,16.66,0,0,1,.85,5.43,29.92,29.92,0,0,1-1.43,8.91,30.87,30.87,0,0,1-4.37,8.73,22.87,22.87,0,0,1-7.3,6.65,19.59,19.59,0,0,1-10,2.52,11.33,11.33,0,0,1-11.39-7.47,18.51,18.51,0,0,1-1.22-6.61,52.48,52.48,0,0,1,1.85-11.56A71.7,71.7,0,0,1,207.89,158a44.94,44.94,0,0,1,10-13.17q6-5.34,15.43-5.34,5.78,0,7.82,2.3A7,7,0,0,1,243.13,146.37Zm-16,20.9a5.45,5.45,0,0,0-1.17-3.28,4.49,4.49,0,0,0-3.87-1.59,6.48,6.48,0,0,0-5.15,2.43A26,26,0,0,0,213,172q-5.09,12.91-5.08,18a6.16,6.16,0,0,0,1.26,4.13,4.43,4.43,0,0,0,3.56,1.48,5.91,5.91,0,0,0,4.43-1.69,10,10,0,0,0,2.13-2.87q.82-1.65,2.74-6.63t3.5-10.08A29,29,0,0,0,227.1,167.28Z"/><path class="cls-6" d="M284.53,153.93A64.35,64.35,0,0,1,283,166.25a78.23,78.23,0,0,1-4.8,15.17,38.22,38.22,0,0,1-8.67,12.73,17.73,17.73,0,0,1-12.65,5.19q-7.65,0-10.15-4.82a21.9,21.9,0,0,1-2.5-10.21,65.55,65.55,0,0,1,2.43-15.3,68.69,68.69,0,0,1,7.26-17.82,31.48,31.48,0,0,1,4.11-5.45,21.32,21.32,0,0,1,6-4.41,17.7,17.7,0,0,1,8.15-1.83,11.87,11.87,0,0,1,6.63,1.67,10.93,10.93,0,0,1,3.82,4.19A15.63,15.63,0,0,1,284.2,150,26.27,26.27,0,0,1,284.53,153.93Zm-8.13-6a5.27,5.27,0,0,0-1.13-3.43,3.91,3.91,0,0,0-3.22-1.39,6.46,6.46,0,0,0-5,2.39,17.5,17.5,0,0,0-3,4.48,126.74,126.74,0,0,0-5,13.15q-3,8.84-5,16.69t-2.09,10.32a8.61,8.61,0,0,0,.91,3.54q.91,2,3.91,2,4.82,0,8-7.74,1.17-2.87,3.26-9.23T272,166q1.89-6.32,3.15-11.39A35.92,35.92,0,0,0,276.4,148Z"/><path class="cls-6" d="M329.92,153.93a64.35,64.35,0,0,1-1.56,12.32,78.3,78.3,0,0,1-4.8,15.17,38.22,38.22,0,0,1-8.67,12.73,17.74,17.74,0,0,1-12.65,5.19q-7.65,0-10.15-4.82a21.9,21.9,0,0,1-2.5-10.21A65.55,65.55,0,0,1,292,169a68.76,68.76,0,0,1,7.26-17.82,31.49,31.49,0,0,1,4.11-5.45,21.32,21.32,0,0,1,6-4.41,17.71,17.71,0,0,1,8.15-1.83,11.87,11.87,0,0,1,6.63,1.67,10.92,10.92,0,0,1,3.82,4.19,15.63,15.63,0,0,1,1.61,4.67A26.14,26.14,0,0,1,329.92,153.93Zm-8.13-6a5.27,5.27,0,0,0-1.13-3.43,3.91,3.91,0,0,0-3.21-1.39,6.46,6.46,0,0,0-5,2.39,17.47,17.47,0,0,0-3,4.48,126.29,126.29,0,0,0-5,13.15q-3,8.84-5,16.69t-2.09,10.32a8.62,8.62,0,0,0,.91,3.54q.91,2,3.91,2,4.82,0,8-7.74,1.17-2.87,3.26-9.23t4-12.69q1.89-6.32,3.15-11.39A36,36,0,0,0,321.79,148Z"/><path class="cls-6" d="M181.31,94.55l12.06-29.08,1,.34L182.27,94.92Z"/><path class="cls-6" d="M224.75,67.83c1.74-2,1.8-2,2.14-2s.5.06,2,1.24,1.52,1.33,1.52,1.64-.12.53-1,1.15v8.25c0,8.31.34,13.92.34,15.16,0,.93-1.12,1.36-2.7,1.36-1.24,0-1.58-.09-1.58-1.18V92.23H206.89v1.05c0,.93-.87,1.33-2.79,1.33-1.09,0-1.27-.19-1.27-1.15,0-1.33.31-6.08.31-15.29,0-4.19,0-8.68-.16-11.87,3.81.87,4.59,1.18,4.74,1.52Zm.65,23.78V85.44a.71.71,0,0,1-.28,0h-4.37c0,1.77.12,2.51.12,3.16a2.34,2.34,0,0,1-1.36,2,4.11,4.11,0,0,1-2,.53c-.43,0-.59-.09-.81-.71a2.43,2.43,0,0,0-1.92-1.67,1.81,1.81,0,0,1-1.89,1.52c-1,0-1.46-.56-1.49-1.58a2.91,2.91,0,0,0-1.18-2.6c-.16-.09-.09-.28.09-.28,3.38,0,4.46,1.33,4.5,2.6a13.48,13.48,0,0,0,1.39-.15c1-.12,1.3-.43,1.3-1.55V85.47h-6.79a19.55,19.55,0,0,0-3.16.22l-.31-1.05a29.65,29.65,0,0,0,3.47.22h6.79a26.21,26.21,0,0,0-.09-2.64c-2.48.5-5.12,1-7.57,1.46-.28.65-.37.71-.62.71s-.5-.12-1.61-3.66c.93,0,1.49.06,2,.06,1.46,0,3,0,4.71,0v-2.2h-2.14c0,.71-.43,1.24-1.8,1.24-1,0-1.18-.16-1.18-1,0-.5.12-1.67.12-3.32,0-.9,0-1.64-.09-3a17.51,17.51,0,0,1,3.19.93h1.89V71.76h-3.38a19.65,19.65,0,0,0-3.16.22l-.31-1.05a29.84,29.84,0,0,0,3.47.22h3.38a12,12,0,0,0-.19-2.48c3.84.25,4.16.46,4.16.87s-.16.43-.87.84v.78h2.88c1.64-2,1.71-2,2-2s.34.06,1.33,1c1.18,1.05,1.21,1.15,1.21,1.4a.27.27,0,0,1-.31.28H217.4V73.5h2c1.09-1.15,1.21-1.21,1.46-1.21s.34,0,1.71.9c1,.65,1.05.77,1.05,1s0,.28-.59.74v1c0,.53.09,1.77.09,2.11,0,.68-.71,1.12-2.11,1.12-.9,0-1.21-.09-1.3-.5H217.4v2.17c1,0,2,0,3.1-.06a5.34,5.34,0,0,0-1.71-1.15c-.19-.06-.09-.28.09-.28,4.19.12,5.71,1.58,5.71,2.88a1.46,1.46,0,0,1-.68,1.24q.23.19.74.65a9,9,0,0,1,.74.71V68.45H207.51a2.2,2.2,0,0,1-.62.34V91.61ZM212.16,75.67h2.17V74.12h-1.77a2,2,0,0,1-.4.28Zm0,2.33h2.17V76.29h-2.17Zm5.21-3.88v1.55h2.29V74.12Zm2.29,2.17h-2.29V78h2.29Zm2.11,8.56,1.05-1.24c-.4-.09-.71-.43-1.05-1.12a5.73,5.73,0,0,0-.65-1c-1,.22-2.08.43-3.19.65,3.35.34,3.57.59,3.57.87s-.09.4-.74.74v1.12Z"/><path class="cls-6" d="M250.23,83.89c0,3.32.09,6.79.09,7.19a3,3,0,0,1-1.05,2.73,3.63,3.63,0,0,1-2.36.78c-.34,0-.56-.12-.68-.74a3,3,0,0,0-1.8-2.29c-.16-.09-.19-.31,0-.31a14.61,14.61,0,0,0,2.14-.09.7.7,0,0,0,.62-.68v-3.1h-3.25c0,3.75,0,5.8,0,6.23,0,.84-.59,1.21-2.26,1.21-.53,0-.68-.19-.68-.81,0-.78.16-4.28.16-8.15,0-3.19,0-4.65-.06-5.77a1.78,1.78,0,0,1-1.15.4,1.39,1.39,0,0,1-1.3-1.52c0-.74.31-1.12,1-1.77.81-.77.68-1.64.53-2.79,0-.19.16-.25.28-.12a6.77,6.77,0,0,1,.81,1.12V71.83c0-3.69,0-4.43-.06-5.86,2.39.59,3,.9,3.16,1.21h2.48c1.15-1.46,1.24-1.55,1.46-1.55s.37,0,1.49,1.05c.78.71.9.9.9,1.15s0,.31-.77.84v7.29c.46-1,.65-1.21.77-1.21s.43.12,1.27,1.52a3.23,3.23,0,0,1,.43.93c.06-1.64.12-3.19.12-5.3,0-2,0-2.88-.09-3.91a9.35,9.35,0,0,1,3.22,1.33h.62a29.39,29.39,0,0,0-.15-3.29c2.45.31,3.44.53,3.44,1s-.28.59-.84.84v1.49h1.18a29.16,29.16,0,0,0-.16-3.29c2.6.31,3.54.53,3.54,1s-.19.53-.9.84v1.49h.84c1.3-1.43,1.4-1.49,1.64-1.49s.43.06,1.83,1.18c.78.65.84.78.84,1s-.06.37-.84,1v1.05c0,2.36.19,3.72.19,4.5a1.19,1.19,0,0,1-.74,1.15c.25.19.62.46,1.08.84.9.71,1.05.9,1.05,1.15s-.16.28-.34.28H254.13a18.09,18.09,0,0,0-2.85.22L251,79.11a19.61,19.61,0,0,0,3.16.25h9.08q.74-1,1.12-1.4c-.53-.06-.71-.25-.78-.65h-8.43v.22c0,.9-.56,1.15-1.58,1.15s-1.21-.12-1.21-.9v-.06c-.09.19-.34.22-.74.25a2.28,2.28,0,0,0-.9.28c-.37.22-.68.4-1.12.68l.31.25c1.05.84,1.21,1,1.21,1.3s-.06.31-.87,1Zm-3.38-4.15c1.08-1.46,1.21-1.52,1.46-1.52a.67.67,0,0,1,.43.12c.16-.56.25-1.08.37-1.64h-7.32a5.64,5.64,0,0,1,.19,1.43,3.49,3.49,0,0,1-.09.78c1.83.37,2.45.59,2.64.84Zm-2.79-11.94a2.34,2.34,0,0,1-.37.16v8.12h.74V72.72c0-.59,0-1.33-.09-2.48a8.59,8.59,0,0,1,2.6.62h.28V67.79Zm-.12,15.38h3.25V80.35h-2.73a4.77,4.77,0,0,1-.53.46Zm3.25,3.57V83.79h-3.25v2.95Zm0-10.67V71.48h-.43l-.31.22v4.37Zm16.06,16.77c1.83-2.33,2.11-2.57,2.29-2.57s.43,0,1.77,1.36c1,1,1.21,1.3,1.21,1.52s-.09.31-.34.31H254.32a33.77,33.77,0,0,0-3.44.22l-.28-1.05c2,.19,3.07.22,3.72.22h5.55c.34-1.58.53-2.88.71-4.4.06-.53.09-.84.12-1.64,3.72,1.12,4.22,1.39,4.22,1.83s-.19.5-1,.78c-.84,1.05-1.61,2-2.82,3.44Zm-1.18-11c1.46-1.58,1.58-1.64,1.86-1.64s.46,0,1.77,1.08c1.05.84,1.18,1,1.18,1.27s-.09.37-.81.9v.28c0,.71.09,1.52.09,2.14,0,.87-1,1.18-2.36,1.18-1,0-1.27-.09-1.3-.87h-6.26a1.28,1.28,0,0,1-.37.93c2.29.87,3.13,1.74,3.13,3.35a1.79,1.79,0,0,1-2,2A1.47,1.47,0,0,1,255.43,91a5.39,5.39,0,0,1,.12-1.24,4.25,4.25,0,0,0-.28-2.29,3.71,3.71,0,0,1-1.08.12c-1.18,0-1.3-.25-1.3-.87s.12-1.52.12-3.16a25.17,25.17,0,0,0-.12-3.07c2.7.71,3.69,1,4,1.37Zm-6.48-11.94a3.19,3.19,0,0,1-.5.34v2.42h1.12V69.93Zm-.5,3.38v3.38h1.12V73.31ZM257,82.49a1.55,1.55,0,0,1-.71.43v2.67h6.26v-3.1Zm1.71-12.56v2.76h1.18V69.93Zm1.18,3.38h-1.18v3.38h1.18Zm2.48-3.38v2.76h1.18V69.93Zm1.18,3.38h-1.18v3.38h1.18Z"/><path class="cls-6" d="M266.95,242.43h-1.69V246h-1.94v-3.57h-5.73V241l5.28-8.3h2.39v8.08h1.69Zm-3.64-1.6v-3.47c0-.72.07-1.84.11-2.56h-.07c-.32.67-.68,1.35-1.06,2l-2.61,4Z"/><path class="cls-6" d="M275.66,239.64s0,.47,0,.67c-.22,4.18-.41,5.83-.94,6.41a1.54,1.54,0,0,1-1.22.61,16.51,16.51,0,0,1-2.18,0,3.69,3.69,0,0,0-.5-1.64,18.59,18.59,0,0,0,2,.09.77.77,0,0,0,.65-.2c.29-.32.47-1.51.65-4.48h-3.48c.13-1.44.22-3.73.22-5.51h3.28v-2.4h-3.62v-1.49h5.15v5.4h-3.37c0,.86,0,1.75-.07,2.54ZM286,241.89c-.81.61-1.71,1.24-2.48,1.75a10.52,10.52,0,0,0,3.17,2.21,6.65,6.65,0,0,0-1.13,1.33,13.38,13.38,0,0,1-5.8-6.72h-1.21v4.79l2.63-.83a10.73,10.73,0,0,0,.11,1.39c-3.35,1.15-3.93,1.39-4.25,1.66a5,5,0,0,0-.72-1.37,1.33,1.33,0,0,0,.65-1.26v-4.37h-1V239h1.3V231.7H286V233h-7v1.15h6.34v1.21H279v1.19h6.36v1.24H279V239h7.36v1.42h-5.06a12.55,12.55,0,0,0,1.42,2.21,17.89,17.89,0,0,0,2.07-1.86Z"/><path class="cls-6" d="M297.29,238.37h-4.92v9h-1.66V231.67h6.57Zm-4.92-5.29v1.28h3.35v-1.28Zm3.35,3.92v-1.4h-3.35V237Zm9.83,8.26c0,1-.23,1.55-.92,1.84a11.07,11.07,0,0,1-3.48.31,6,6,0,0,0-.59-1.73c1.19.05,2.45,0,2.81,0s.47-.13.47-.45v-6.88h-5.08v-6.72h6.79Zm-5.19-12.19v1.28h3.47v-1.28Zm3.47,4v-1.44h-3.47V237Z"/><path class="cls-6" d="M315.17,243.82a14.24,14.24,0,0,1-4.14,3.26c-.29-.27-.9-.85-1.24-1.1a11.49,11.49,0,0,0,3.83-2.7Zm10.75-2.2V243H318.7v4.47H317V243h-7.15v-1.35ZM315,232.91h-4.92v-1.35h15.45v1.35h-5v1.19h4.09v4.23h-13.5V234.1H315Zm-3,7.71V239.3h11.7v1.31Zm.68-3.55H315v-1.73h-2.3Zm6.27-4.16h-2.41v1.19H319Zm-2.41,4.16H319v-1.73h-2.41Zm5,6.27a27.85,27.85,0,0,1,4.23,2.74l-1.31,1a25,25,0,0,0-4.14-2.84Zm-1-8v1.73H323v-1.73Z"/><g id="sold_out" data-name="sold out"><rect class="cls-7" x="19" y="19" width="351.88" height="269" rx="30.46" ry="30.46"/><path class="cls-8" d="M210.78,143h1a10.88,10.88,0,0,0,2.7,5.7,6,6,0,0,0,4.27,1.78,3.81,3.81,0,0,0,4.31-3.8,3.4,3.4,0,0,0-1-2.57,12.71,12.71,0,0,0-2.76-1.69l-2.23-1.13a14.79,14.79,0,0,1-4.68-3.32A6.13,6.13,0,0,1,211,134a7.45,7.45,0,0,1,1.81-4.79q1.81-2.22,5.54-2.22a11.73,11.73,0,0,1,3.67.58,13.67,13.67,0,0,0,2,.58.87.87,0,0,0,.79-.33,2.82,2.82,0,0,0,.35-.88h1v7.62h-1a10.67,10.67,0,0,0-2.41-4.56,5.45,5.45,0,0,0-4.2-1.91,3.81,3.81,0,0,0-2.75,1,3.47,3.47,0,0,0-.06,4.83,22.21,22.21,0,0,0,4.17,2.46l2.58,1.3a10.24,10.24,0,0,1,2.76,1.93,6.66,6.66,0,0,1,1.92,4.82,7.47,7.47,0,0,1-2.06,5q-2.06,2.35-6.6,2.35a11.65,11.65,0,0,1-2.11-.2,11.37,11.37,0,0,1-2.11-.61l-.67-.26-.45-.11a2,2,0,0,0-.37,0,.81.81,0,0,0-.74.32,3.21,3.21,0,0,0-.35.9h-1Z"/><path class="cls-8" d="M252.26,130.45A12.62,12.62,0,1,1,231,139.66a12.41,12.41,0,0,1,3.45-9,13,13,0,0,1,17.79-.17Zm-3.4,15.62a22.76,22.76,0,0,0,.79-6.6q0-5.59-1.67-8.43a5.07,5.07,0,0,0-4.53-2.84q-4,0-5.44,4.73a28,28,0,0,0,0,13.13q1.45,4.67,5.42,4.67T248.86,146.07Z"/><path class="cls-8" d="M258.63,150.32a5.09,5.09,0,0,0,2.05-.38,2.14,2.14,0,0,0,1-2.09v-17a2.11,2.11,0,0,0-1-2.05,5.39,5.39,0,0,0-2.1-.41v-.89h12.24v.89A5.52,5.52,0,0,0,268,129q-.71.53-.71,2.6v16.54a1.68,1.68,0,0,0,.61,1.54,5,5,0,0,0,2.37.38,9.54,9.54,0,0,0,5.31-1.39q2.14-1.39,3.7-5.43h1l-1.42,7.93H258.63Z"/><path class="cls-8" d="M282.69,150.32a5.29,5.29,0,0,0,1.9-.38,2,2,0,0,0,1-1.93V130.75a2,2,0,0,0-1-1.88,5.39,5.39,0,0,0-1.95-.43v-.89h10.7q6.48,0,9.88,3.45a11.52,11.52,0,0,1,3.09,8.44,11.29,11.29,0,0,1-3.11,8q-3.5,3.71-9.5,3.71H282.69Zm9-.77a1.79,1.79,0,0,0,1.5.48,6.6,6.6,0,0,0,5.11-2.2q2-2.2,2-8.43A17,17,0,0,0,299.2,133q-1.74-4.29-5.88-4.29-1.37,0-1.78.58a2.67,2.67,0,0,0-.27,1.45V148A2.92,2.92,0,0,0,291.67,149.55Z"/><path class="cls-8" d="M231.92,170.45a12.62,12.62,0,1,1-21.24,9.21,12.41,12.41,0,0,1,3.45-9,13,13,0,0,1,17.79-.17Zm-3.4,15.62a22.76,22.76,0,0,0,.79-6.6q0-5.59-1.67-8.43a5.07,5.07,0,0,0-4.53-2.84q-4,0-5.44,4.73a28,28,0,0,0,0,13.13q1.45,4.67,5.42,4.67T228.52,186.07Z"/><path class="cls-8" d="M250,167.56v.89a4.83,4.83,0,0,0-2.72.63q-.68.56-.68,2.57v11.73a10.7,10.7,0,0,0,.63,4.13,4.33,4.33,0,0,0,4.39,2.71q4,0,5.45-3a10.88,10.88,0,0,0,.79-4.6V171.9a3.71,3.71,0,0,0-.69-2.59,4.31,4.31,0,0,0-2.71-.86v-.89h7.69v.89a5.12,5.12,0,0,0-2.21.79,3,3,0,0,0-.54,2.16V182.6q0,4.46-2.15,6.89t-6.77,2.43q-6,0-8.25-3.61a9.31,9.31,0,0,1-1.18-4.94V171.64a3.82,3.82,0,0,0-.52-2.48,4.32,4.32,0,0,0-2.35-.71v-.89Z"/><path class="cls-8" d="M264.73,167.56H285.8l0,7.06h-1q-.5-3.79-2.84-5.12a8.74,8.74,0,0,0-3.93-.81v18.44a3.56,3.56,0,0,0,.67,2.57,4.33,4.33,0,0,0,2.81.63v.89H269.07v-.89a4.11,4.11,0,0,0,2.73-.64,3.56,3.56,0,0,0,.67-2.56V168.69a9,9,0,0,0-3.93.81q-2.51,1.37-2.84,5.13h-1Z"/><path class="cls-8" d="M154.13,109.33c2.94-3.53,3.14-3.72,3.63-3.72s.78.25,3.53,2.25c1.42,1.08,2,1.52,2,1.91a.48.48,0,0,1-.49.54H132c-.1,1.52-1.27,2.16-3.92,2.16-1.76,0-2.21-.15-2.16-1.81l.25-11.22,0-.83a48.45,48.45,0,0,1-8.23,5.63c-.25.15-.54-.24-.34-.44a44.18,44.18,0,0,0,9.85-16.27,28.08,28.08,0,0,0,.78-2.79c7.45,1.81,7.79,2.25,7.79,3,0,.49-.29.83-1.86,1.18-.59.93-1.18,1.76-1.71,2.6l.25.15h7.54a53.37,53.37,0,0,0,1.13-5.73,14.09,14.09,0,0,0,.1-1.62c7.1,1.18,8.13,2.06,8.13,2.55,0,.74-.39,1-2,1.32a47.48,47.48,0,0,1-3.72,3.48h10c3-3.53,3.28-3.72,3.77-3.72s.83.25,3.43,2.21c1.67,1.27,2,1.57,2,2a.48.48,0,0,1-.49.54H146.83a2.26,2.26,0,0,1-.74.83v4.12h5.54c2.65-3,2.89-3.23,3.28-3.23s.73.1,2.84,1.71,2.16,1.71,2.16,2-.24.49-.59.49H146.09v4.51h5.54c2.65-3,2.89-3.23,3.28-3.23s.64,0,2.84,1.76c2,1.57,2.16,1.67,2.16,2s-.24.49-.59.49H146.09v5.29Zm-3.72,6.47c2.45-2.79,2.7-2.94,3.18-2.94s.83,0,3.33,2.06c2,1.62,2.11,1.86,2.11,2.3s0,.59-1.47,1.81v1.67c0,1.67.25,5.73.25,7.4,0,1.37-1.08,2.16-4.21,2.16-2.06,0-2.45-.44-2.45-1.86v-1.32H133v1.22c0,2.16-1.52,2.6-4.31,2.6-1.52,0-2-.34-2-1.67,0-1.86.25-5.14.25-8.48,0-1.52,0-4.7-.1-7.5,5.14,1.22,6.81,2,7.25,2.55ZM132.86,92.62a2.49,2.49,0,0,1-.88.54v4.41h8.18V92.62Zm7.3,5.93H132v4.51h8.18Zm0,5.49H132v5.29h8.18Zm11,22v-9.31H134a4,4,0,0,1-1,.54v8.77Z"/><path class="cls-8" d="M149.52,173.43c0,.54-.25.83-1.27,1.42v10.83c0,1.32.39,1.76,3.63,1.76,3.82,0,4.56-.15,5.68-1.18s2.6-3.09,4.31-7.45a.25.25,0,0,1,.49.1q-.51,3.82-.59,5.73a3.83,3.83,0,0,0,.69,2.74,3.77,3.77,0,0,1,1,2.65c0,2.55-2.6,3.77-11.86,3.77-8.23,0-9.6-1.37-9.6-5.68,0-1.22.2-5.83.2-9.16,0-2.6,0-4.26-.1-5.54h-6.37c3.67.73,4.21,1.22,4.21,1.67s-.29.83-1.32,1.32c-1.27,9.11-8,16.56-19.89,18.42-.29,0-.44-.44-.15-.54,8-2.6,13.28-11.27,13.28-19.35,0-.49,0-1,0-1.52h-4.51c-1.76,0-4,.1-6.71.34l-.44-1.67a55.37,55.37,0,0,0,7.15.34h26.46c3.58-4.31,3.82-4.46,4.31-4.46s.74,0,3.58,2.65c1.67,1.52,1.81,1.71,1.81,2.11s-.2.69-.93.69ZM127,157.6a10.12,10.12,0,0,1,.49,3,4.65,4.65,0,0,1-4.7,4.85,3,3,0,0,1-3.18-3.09,4,4,0,0,1,2.06-3.43c1.76-1.27,2.65-2.35,2.45-5.24,0-.29.34-.34.54-.1a13.12,13.12,0,0,1,2,3H138v-3.87a27.43,27.43,0,0,0-.29-4.07c7.84.49,8.77,1,8.77,1.76s-.25.83-2,1.62v4.56h9.95c2.6-2.79,2.84-2.94,3.38-2.94s1.18.29,3.53,2.5c1.91,1.81,2.5,2.6,2.5,3.38s-.54,1.42-2.3,1.47a9.69,9.69,0,0,0-3.53.54c-.88.34-2.21,1-4,1.86-.25.15-.44,0-.34-.25.83-2.25,1.37-3.92,1.86-5.59Zm18.91,7.4c2.94-3.63,3.14-3.72,3.63-3.72s.69.1,2.89,2.06c1.57,1.37,1.81,1.71,1.81,2.11s-.34.54-.74.54H134.18c-1.13,0-3.23.1-5.54.34l-.49-1.67c2.4.25,4.61.34,6,.34Z"/><line class="cls-9" x1="187" y1="84" x2="187" y2="193"/></g></g></g></g></svg>