<svg xmlns="http://www.w3.org/2000/svg" viewBox="0 0 292 108.31"><defs><style>.cls-1,.cls-2{fill:#f4f0e3;}.cls-1{stroke:#f5ab00;stroke-miterlimit:10;}.cls-3,.cls-4{fill:#f5ab00;}.cls-4{font-size:40px;font-family:YuMin-Demibold-83pv-RKSJ-H, YuMincho;font-weight:700;letter-spacing:0.2em;}</style></defs><title>資產 2</title><g id="圖層_2" data-name="圖層 2"><g id="圖層_1-2" data-name="圖層 1"><circle class="cls-1" cx="15.8" cy="82.39" r="3.4"/><path class="cls-1" d="M116.49,82.63a8.4,8.4,0,0,0-4.67-2.4q3.16-1.34,4.55-5.6l.41-1.28a7.41,7.41,0,0,1,1.45-2.85,3,3,0,0,1,2.22-.75V67.21h-5.34q-6.55,0-9.78,1.49a9.2,9.2,0,0,0-4.71,5.21A8.25,8.25,0,0,0,98,71.26a6.33,6.33,0,0,0-8,1.3,7.49,7.49,0,0,0-2,5.2,16.4,16.4,0,0,0,1.54,6.11l2.31-1.05a6.28,6.28,0,0,1-.56-2.36A3.49,3.49,0,0,1,92.11,78a2.94,2.94,0,0,1,2.25-.81,3.3,3.3,0,0,1,2.51,1.08,3.72,3.72,0,0,1,1,2.65q0,3.29-3.29,5.86a11.85,11.85,0,0,1-7.5,2.57,10.46,10.46,0,0,1-7.45-2.91,9.33,9.33,0,0,1-3.08-7,9.12,9.12,0,0,1,9-9.66V67.21h-.85q-7,0-11.33,3.54A11.45,11.45,0,0,0,69.11,80a12.77,12.77,0,0,0,4.17,9.63,14.25,14.25,0,0,0,10.19,4q6.93,0,14.56-6L99.6,86.4q4.68-3.67,7.27-3.67a3.45,3.45,0,0,1,2.51,1.05,3.39,3.39,0,0,1,1.07,2.49,3.88,3.88,0,0,1-1.36,3,4.66,4.66,0,0,1-3.26,1.25,6.25,6.25,0,0,1-4.5-2.34l-2,1.67a10.68,10.68,0,0,0,9.53,5.29,9.87,9.87,0,0,0,6.7-2.3A7.38,7.38,0,0,0,118.22,87,6.14,6.14,0,0,0,116.49,82.63Zm-7.18-9.93-.44.74Q105.74,79,102,79.74q.83-10.2,10.64-10.2A6.67,6.67,0,0,0,109.31,72.7Z"/><path class="cls-1" d="M144.14,105.22a8.51,8.51,0,0,0,6.72-3.06,11.38,11.38,0,0,0,2.66-7.75,12.33,12.33,0,0,0-6.11-11l-1.93,2.28q2.7,2.52,2.7,5.19a5.39,5.39,0,0,1-1.44,3.77,4.5,4.5,0,0,1-3.43,1.57A3.92,3.92,0,0,1,140.43,95a4,4,0,0,1-1.21-2.89q0-3,4.24-8.4l1.42-1.81q6.95-8.81,6.94-16.82a16.47,16.47,0,0,0-4.57-11.77,14.76,14.76,0,0,0-11.13-4.82,13.23,13.23,0,0,0-10.74,5q-4.09,5-4.09,13.09v1h2.94a10.53,10.53,0,0,1,11.16-10.45,10.77,10.77,0,0,1,8.12,3.56,12.08,12.08,0,0,1,3.37,8.61,13.69,13.69,0,0,1-3,8.66q-3,3.8-6.77,3.8a4.29,4.29,0,0,1-3.05-1.17,3.82,3.82,0,0,1-1.25-2.89,3.4,3.4,0,0,1,.94-2.6,4,4,0,0,1,2.83-.87,7.28,7.28,0,0,1,2.73.65l1.22-2.67a18.91,18.91,0,0,0-7.06-1.78,8.65,8.65,0,0,0-6,2.27,7.31,7.31,0,0,0-1.5,9.22,9.47,9.47,0,0,0,3.06,3,10.66,10.66,0,0,0-6,5.44q-1.72,3.72-1.72,11.29v6.17h2.94a3.52,3.52,0,0,1,.86-2.57,8.53,8.53,0,0,1,3.3-1.67l1.48-.48q4.92-1.6,6.47-5.25a9.67,9.67,0,0,0,2.78,5.39A7.07,7.07,0,0,0,144.14,105.22ZM124,98.73q0-11.34,11.78-12.29-.83,4.36-7.27,8l-.86.5A7.72,7.72,0,0,0,124,98.73Z"/><path class="cls-1" d="M33,90.55a8.25,8.25,0,0,0,4.29-4.61,7.37,7.37,0,0,0,2.31,2.41,5.67,5.67,0,0,0,7.17-1.06,6.72,6.72,0,0,0,1.83-4.64,14.67,14.67,0,0,0-1.3-5.5l-2.09.91a5.66,5.66,0,0,1,.48,2.12A3.12,3.12,0,0,1,45,82.37a2.64,2.64,0,0,1-2,.7,3,3,0,0,1-2.23-1,3.33,3.33,0,0,1-.88-2.38,6.62,6.62,0,0,1,3-5.21,10.64,10.64,0,0,1,6.76-2.21A9.38,9.38,0,0,1,56.29,75,8.36,8.36,0,0,1,59,81.32a8.17,8.17,0,0,1-8.23,8.54l0,2.28h.76q6.29.09,10.2-3a10.27,10.27,0,0,0,4-8.28A11.45,11.45,0,0,0,62,72.15a12.79,12.79,0,0,0-9.08-3.68q-6.22-.09-13.13,5.2l-1.42,1.09Q34.16,78,31.83,78a3.1,3.1,0,0,1-2.23-1,3,3,0,0,1-.92-2.25,3.49,3.49,0,0,1,1.26-2.64A4.17,4.17,0,0,1,32.87,71a5.6,5.6,0,0,1,4,2.15l1.79-1.47a9.57,9.57,0,0,0-8.47-4.86,8.82,8.82,0,0,0-6,2A6.62,6.62,0,0,0,21.71,74a5.49,5.49,0,0,0,1.5,3.93,7.53,7.53,0,0,0,4.15,2.21q-2.85,1.16-4.15,5l-.38,1.15a6.61,6.61,0,0,1-1.34,2.53,2.72,2.72,0,0,1-2,.64l0,2.28,4.79.07Q30.11,91.84,33,90.55ZM29.51,86.9l.4-.66q2.88-5,6.27-5.55-.87,9.13-9.66,9A6,6,0,0,0,29.51,86.9Z"/><circle class="cls-1" cx="260.71" cy="83.82" r="3.4"/><path class="cls-1" d="M158.28,88.41a7.36,7.36,0,0,0,2.65,5.82,9.85,9.85,0,0,0,6.7,2.3,10.67,10.67,0,0,0,9.53-5.29l-2-1.67a6.24,6.24,0,0,1-4.5,2.34,4.66,4.66,0,0,1-3.26-1.25,3.9,3.9,0,0,1-1.36-3,3.38,3.38,0,0,1,1.07-2.49,3.45,3.45,0,0,1,2.5-1.05q2.6,0,7.27,3.67l1.57,1.23q7.63,6,14.56,6a14.26,14.26,0,0,0,10.19-4,12.77,12.77,0,0,0,4.17-9.63,11.45,11.45,0,0,0-4.32-9.3q-4.31-3.54-11.33-3.54h-.85v2.54a9.12,9.12,0,0,1,9,9.66,9.33,9.33,0,0,1-3.08,7,10.45,10.45,0,0,1-7.45,2.91,11.84,11.84,0,0,1-7.5-2.57q-3.29-2.57-3.29-5.86a3.72,3.72,0,0,1,1-2.65,3.32,3.32,0,0,1,2.51-1.08,2.94,2.94,0,0,1,2.25.81,3.49,3.49,0,0,1,.76,2.45,6.32,6.32,0,0,1-.57,2.36l2.31,1.05a16.4,16.4,0,0,0,1.54-6.11,7.48,7.48,0,0,0-2-5.2,6.32,6.32,0,0,0-8-1.3,8.24,8.24,0,0,0-2.62,2.65,9.2,9.2,0,0,0-4.71-5.21q-3.22-1.49-9.78-1.49H156v2.54a3.06,3.06,0,0,1,2.23.74,7.39,7.39,0,0,1,1.45,2.85l.41,1.29q1.39,4.26,4.55,5.6a8.39,8.39,0,0,0-4.66,2.4A6.14,6.14,0,0,0,158.28,88.41ZM163.9,71q9.81,0,10.64,10.2-3.78-.72-6.92-6.29l-.43-.74A6.68,6.68,0,0,0,163.9,71Z"/><path class="cls-1" d="M252.26,93.18l4.79-.07,0-2.28a2.74,2.74,0,0,1-2-.64,6.64,6.64,0,0,1-1.34-2.54l-.38-1.15q-1.3-3.81-4.15-5a7.53,7.53,0,0,0,4.15-2.21,5.49,5.49,0,0,0,1.5-3.92,6.62,6.62,0,0,0-2.44-5.18,8.85,8.85,0,0,0-6-2,9.57,9.57,0,0,0-8.47,4.86l1.79,1.47a5.59,5.59,0,0,1,4-2.15,4.2,4.2,0,0,1,2.94,1.08,3.48,3.48,0,0,1,1.26,2.64,3,3,0,0,1-.93,2.25,3.11,3.11,0,0,1-2.23,1q-2.33,0-6.56-3.2l-1.42-1.09q-6.92-5.29-13.13-5.2a12.77,12.77,0,0,0-9.08,3.68,11.45,11.45,0,0,0-3.62,8.69,10.28,10.28,0,0,0,4,8.28q3.92,3.12,10.2,3h.76l0-2.28a8.17,8.17,0,0,1-8.23-8.54,8.37,8.37,0,0,1,2.67-6.34,9.36,9.36,0,0,1,6.64-2.71,10.63,10.63,0,0,1,6.76,2.21,6.62,6.62,0,0,1,3,5.21,3.34,3.34,0,0,1-.88,2.38,3,3,0,0,1-2.23,1,2.62,2.62,0,0,1-2-.7,3.13,3.13,0,0,1-.71-2.19,5.7,5.7,0,0,1,.48-2.12l-2.09-.92a14.67,14.67,0,0,0-1.3,5.5,6.7,6.7,0,0,0,1.83,4.64,5.67,5.67,0,0,0,7.17,1.06,7.34,7.34,0,0,0,2.31-2.4A8.26,8.26,0,0,0,243.48,92Q246.39,93.27,252.26,93.18ZM250,91.12q-8.79.13-9.66-9,3.39.6,6.28,5.55l.4.66A6,6,0,0,0,250,91.12Z"/><rect class="cls-2" y="19.84" width="292" height="54"/><rect class="cls-3" x="17" y="70.34" width="245" height="4"/><text class="cls-4" transform="translate(38.94 35.2)">售票資訊</text></g></g></svg>