<svg xmlns="http://www.w3.org/2000/svg" xmlns:xlink="http://www.w3.org/1999/xlink" viewBox="0 0 769 439.45"><defs><style>.cls-1{isolation:isolate;}.cls-2{opacity:0.6;}.cls-2,.cls-4{mix-blend-mode:multiply;}.cls-3{fill:#1e9b8e;}.cls-4{opacity:0.75;}.cls-5,.cls-9{fill:#fff;}.cls-6{fill:#edc62b;}.cls-7{fill:#030000;}.cls-8{fill:#af302f;stroke:#edc62b;}.cls-15,.cls-16,.cls-8{stroke-miterlimit:10;}.cls-9{font-size:28px;font-family:Baskerville-SemiBold, Baskerville;font-weight:700;}.cls-10{letter-spacing:-0.03em;}.cls-11{letter-spacing:-0.07em;}.cls-12{letter-spacing:-0.02em;}.cls-13,.cls-15{fill:#f6f2e5;}.cls-14,.cls-16{fill:#e7352e;}.cls-15{stroke:#e7352e;}.cls-15,.cls-16{stroke-width:0.29px;}.cls-16{stroke:#f6f2e5;}</style></defs><title>資產 48</title><g class="cls-1"><g id="圖層_2" data-name="圖層 2"><g id="圖層_1-2" data-name="圖層 1"><image class="cls-2" width="769" height="348" transform="translate(0 91.45)" xlink:href="資產 481.png"/><rect class="cls-3" x="9" y="100.45" width="751" height="330"/><image class="cls-4" width="212" height="212" transform="translate(127.99 55.44)" xlink:href="資產 482.png"/><circle class="cls-5" cx="233.37" cy="152.74" r="88.04"/><path class="cls-6" d="M233.37,231.64c-33-.29-63.2-21.17-74.33-52.43A78.91,78.91,0,0,1,273.91,85.08c28.27,17,43.33,50.77,36.83,83.15-7.35,36.62-40.22,63.09-77.37,63.41a.91.91,0,0,0,0,1.82c33.39-.29,63.85-21.12,75.63-52.52,12-31.91,1.91-68.89-24.38-90.5C258.57,69,220.86,66.1,191.91,83.51A81.51,81.51,0,0,0,154.11,168c7.24,37.71,41.11,65.08,79.26,65.41A.91.91,0,0,0,233.37,231.64Z"/><image class="cls-4" width="212" height="213" transform="translate(282.99 99.44)" xlink:href="資產 483.png"/><circle class="cls-5" cx="388.59" cy="196.94" r="88.04"/><path class="cls-6" d="M388.59,275.84c-33-.29-63.2-21.17-74.33-52.43a78.91,78.91,0,0,1,114.87-94.13c28.27,17,43.33,50.77,36.83,83.15-7.35,36.62-40.22,63.09-77.37,63.41a.91.91,0,0,0,0,1.82c33.39-.29,63.85-21.12,75.63-52.52,12-31.91,1.91-68.89-24.38-90.5-26.05-21.42-63.76-24.33-92.71-6.93a81.51,81.51,0,0,0-37.8,84.54c7.24,37.71,41.11,65.08,79.26,65.41A.91.91,0,0,0,388.59,275.84Z"/><image class="cls-4" width="212" height="212" transform="translate(438.99 57.44)" xlink:href="資產 484.png"/><circle class="cls-5" cx="544.2" cy="154.85" r="88.04"/><path class="cls-6" d="M544.2,233.75c-33-.29-63.2-21.17-74.33-52.43A78.91,78.91,0,0,1,584.74,87.19c28.27,17,43.33,50.77,36.83,83.15-7.35,36.62-40.22,63.09-77.37,63.41a.91.91,0,0,0,0,1.82c33.39-.29,63.85-21.12,75.63-52.52,12-31.91,1.91-68.89-24.38-90.5-26.05-21.42-63.76-24.33-92.71-6.93a81.51,81.51,0,0,0-37.8,84.54c7.24,37.71,41.11,65.08,79.26,65.41A.91.91,0,0,0,544.2,233.75Z"/><path class="cls-7" d="M216.34,115.55l4.6-35.38H206.61l-4.81,35.38h-28l-1.09,5.74H201L187.31,222c-.38,2.77,1.24,5.32,3.37,5.32h75.89c6.56-.88,11-4.29,14.89-13.48,3.48-8.22,3.92-19.89,7.51-46,2.13-15.5,4.13-31,6.1-46.57h26.35c1.5,0,2.36-1.4,2.79-2.68.12-.36.22-.73.36-1.09s.65-2,1.07-2H295.8q1.22-9.62,2.43-19.24c.08-.62.82-7.36,1.42-11.93.29-2.21-1-4.21-2.7-4.21H278s-2.22,15.68-4.9,35.38Zm-13.6,97.91,7.72-52.67H267c-3.28,24.08-6.41,41.64-8,51.86-.35,2.28-1.87,3.93-3.63,3.93H204.69C203.44,216.57,202.5,215.07,202.74,213.46Zm69.62-92.17L268.45,150c-.29,2.13-1.7,3.68-3.34,3.68H211.38l4.21-32.44Z"/><ellipse class="cls-7" cx="504.77" cy="217.77" rx="16.2" ry="15.88"/><path class="cls-7" d="M587.48,166.09l.7-2.51H527.59l-2.47,6.73h56.79A5.78,5.78,0,0,0,587.48,166.09Z"/><path class="cls-7" d="M549.88,112.7h-6.41v0H516v2.12h26.83l-2.54,8.48-2.45,8.15c-1,3.47-1.83,6.39-3.85,9.45l-.84,1.28c-25,37.57-54.14,39.44-54.14,39.44,42.13,6.77,69.13-40.22,69.13-40.22l8.62-21.85A6.88,6.88,0,0,0,549.88,112.7Z"/><path class="cls-7" d="M512.11,133.77l7.65-29.34c0-5.75-3.08-10.41-6.88-10.41h-6.41l-8.62,43.46h30.79a3,3,0,0,0,2.86-2.33l.36-1.38Z"/><path class="cls-7" d="M524,147.73l.33-1.38H496l-1.16,3.71h26.59A2.81,2.81,0,0,0,524,147.73Z"/><path class="cls-7" d="M597.06,148.52c-1.36-1.28-2.63-2.61-3.84-4h2.53a4.84,4.84,0,0,0,4.54-3.17l10.33-21.75a7.15,7.15,0,0,0-6.88-7.4h-6.41l0,0H570.6a3.23,3.23,0,0,0-2.33-1.44,26.16,26.16,0,0,0-4.39,0c-.49,0-5.68.32-5.84,0,5.21,9.41,9.51,22.48,14.84,31.88,5.43,9.56,12.48,18.57,21.54,25.47,4.55,3.46,9.59,6.69,15.32,8.31,6.08,1.71,12.42,1.46,18.45.84,8.44-.86,14.46-2.19,19.81-7.16C629.56,167,609.86,160.59,597.06,148.52ZM572.61,115.7H596.1l-8,22.49c-1.44-1.94-2.83-3.9-4.22-5.85C580,126.82,576.07,121.43,572.61,115.7Z"/><path class="cls-7" d="M582.67,218.57A103.66,103.66,0,0,1,573,203.21l-7.7-14.08h47.61a5.36,5.36,0,0,0,4.9-3.17l1.59-3.56H509.63l-3.95,6.73H548c-4.21,17.74-15.28,73-15.28,73,8.15,0,13-1,17.07-6.52,2.94-4,3.31-18.24,6.33-30.84,1.11-4.64,2.17-9.28,3.22-13.93a84.46,84.46,0,0,0,15.51,23.62,44.91,44.91,0,0,0,27.79,15.34c7.24,1.49,16.17.1,21.18-2.25C608.49,240.55,592.38,230.78,582.67,218.57Z"/><ellipse class="cls-7" cx="362.43" cy="262.65" rx="16.2" ry="15.88"/><path class="cls-7" d="M339.72,237.54h15.63l.31-1.89h0l12.29-55.79.12-3.17c.26-7-7.13-7.91-13.86-8.58v-.06h-.64l-1-.1,0,.1H338.39l0-.1H319.92l-12.62,69.59h32.41Zm12.48-66.46-12.13,61.69H327.28l10.85-61.69Z"/><path class="cls-7" d="M469.61,177.07c.22-4.49-6-5.11-11.65-5.54v0h-.54l-.85-.06,0,.06H443.27l-1.42-.06H441l.26-1.22h0l9.58-36,.1-2c.22-4.49-6-5.11-11.65-5.54v0h-.54l-.85-.06,0,.06H426v-.06H410.44l-10.61,44.94h29.35l-10.61,44.94h41.13l.26-1.22h0l9.58-36Zm-53-8.3L425.74,129h11.82l-10.2,39.74Zm18.74,43.5L444.49,174h11.82l-10.2,38.31Z"/><path class="cls-7" d="M415.6,227l.5-3c.06-.35.58-4.48,1-7.56a2.92,2.92,0,0,0-2.89-3.33h-7.07l9-34,.1-2c.22-4.49-6-5.11-11.65-5.54v0h-.54l-.85-.06,0,.06H391.4v-.06H375.88l-10.61,44.94h37.21c-.39,2.57-1,6.4-1.75,10.59H362l-1.48,5.68h39.21l-.47,2.61v0l-6.29,35c-3,16.58-5.46,27.53-5.46,27.53,7.47,0,11.89-1.16,15.65-7.89,2.69-4.81,3-8.78,5.8-24q1.26-7,2.45-13.93a83.69,83.69,0,0,0,14.66,20.38,46.66,46.66,0,0,0,26.53,14.75c6.82,1.6,15.11.67,19.71-1.26-14.6-6.85-30-16.19-39.52-27.5a103,103,0,0,1-9.57-14.12l-6.91-11.57H473.8a5,5,0,0,0,4.7-3.21l1-2.47Zm-33.55-14.69L391.18,174H403l-10.2,38.31Z"/><path class="cls-8" d="M211.94,115.55l4.6-35.38H202.21l-4.81,35.38h-28l-1.09,5.74h28.3L182.91,222c-.38,2.77,1.24,5.32,3.37,5.32h75.89c6.56-.88,11-4.29,14.89-13.48,3.48-8.22,3.92-19.89,7.51-46,2.13-15.5,4.13-31,6.1-46.57H317c1.5,0,2.36-1.4,2.79-2.68.12-.36.22-.73.36-1.09s.65-2,1.07-2H291.4q1.22-9.62,2.43-19.24c.08-.62.82-7.36,1.42-11.93.29-2.21-1-4.21-2.7-4.21h-19s-2.22,15.68-4.9,35.38Zm-13.6,97.91,7.72-52.67h56.53c-3.28,24.08-6.41,41.64-8,51.86-.35,2.28-1.87,3.93-3.63,3.93H200.29C199,216.57,198.11,215.07,198.34,213.46ZM268,121.28,264.05,150c-.29,2.13-1.7,3.68-3.34,3.68H207l4.21-32.44Z"/><ellipse class="cls-8" cx="500.37" cy="217.77" rx="16.2" ry="15.88"/><path class="cls-8" d="M583.08,166.09l.7-2.51H523.2l-2.47,6.73h56.79A5.78,5.78,0,0,0,583.08,166.09Z"/><path class="cls-8" d="M545.48,112.7h-6.41v0H511.6v2.12h26.83l-2.54,8.48-2.45,8.15c-1,3.47-1.83,6.39-3.85,9.45l-.84,1.28c-25,37.57-54.14,39.44-54.14,39.44,42.13,6.77,69.13-40.22,69.13-40.22l8.62-21.85A6.88,6.88,0,0,0,545.48,112.7Z"/><path class="cls-8" d="M507.72,133.77l7.65-29.34c0-5.75-3.08-10.41-6.88-10.41h-6.41l-8.62,43.46h30.79a3,3,0,0,0,2.86-2.33l.36-1.38Z"/><path class="cls-8" d="M519.6,147.73l.33-1.38H491.56l-1.16,3.71H517A2.81,2.81,0,0,0,519.6,147.73Z"/><path class="cls-8" d="M592.67,148.52c-1.36-1.28-2.63-2.61-3.84-4h2.53a4.84,4.84,0,0,0,4.54-3.17l10.33-21.75a7.15,7.15,0,0,0-6.88-7.4h-6.41l0,0H566.2a3.23,3.23,0,0,0-2.33-1.44,26.16,26.16,0,0,0-4.39,0c-.49,0-5.68.32-5.84,0,5.21,9.41,9.51,22.48,14.84,31.88,5.43,9.56,12.48,18.57,21.54,25.47,4.55,3.46,9.59,6.69,15.32,8.31,6.08,1.71,12.42,1.46,18.45.84,8.44-.86,14.46-2.19,19.81-7.16C625.17,167,605.46,160.59,592.67,148.52ZM568.22,115.7H591.7l-8,22.49c-1.44-1.94-2.83-3.9-4.22-5.85C575.58,126.82,571.67,121.43,568.22,115.7Z"/><path class="cls-8" d="M578.28,218.57a103.66,103.66,0,0,1-9.65-15.36l-7.7-14.08h47.61a5.36,5.36,0,0,0,4.9-3.17l1.59-3.56H505.23l-3.95,6.73h42.33c-4.21,17.74-15.28,73-15.28,73,8.15,0,13-1,17.07-6.52,2.94-4,3.31-18.24,6.33-30.84,1.11-4.64,2.17-9.28,3.22-13.93a84.46,84.46,0,0,0,15.51,23.62,44.91,44.91,0,0,0,27.79,15.34c7.24,1.49,16.17.1,21.18-2.25C604.1,240.55,588,230.78,578.28,218.57Z"/><ellipse class="cls-8" cx="358.03" cy="262.65" rx="16.2" ry="15.88"/><path class="cls-8" d="M335.32,237.54h15.63l.31-1.89h0l12.29-55.79.12-3.17c.26-7-7.13-7.91-13.86-8.58v-.06h-.64l-1-.1,0,.1H334l0-.1H315.53l-12.62,69.59h32.41Zm12.48-66.46-12.13,61.69H322.88l10.85-61.69Z"/><path class="cls-8" d="M465.22,177.07c.22-4.49-6-5.11-11.65-5.54v0H453l-.85-.06,0,.06H438.88l-1.42-.06h-.88l.26-1.22h0l9.58-36,.1-2c.22-4.49-6-5.11-11.65-5.54v0h-.54l-.85-.06,0,.06H421.57v-.06H406l-10.61,44.94h29.35l-10.61,44.94h41.13l.26-1.22h0l9.58-36Zm-53-8.3L421.35,129h11.82L423,168.77ZM431,212.27,440.09,174h11.82l-10.2,38.31Z"/><path class="cls-8" d="M411.21,227l.5-3c.06-.35.58-4.48,1-7.56a2.92,2.92,0,0,0-2.89-3.33h-7.07l9-34,.1-2c.22-4.49-6-5.11-11.65-5.54v0h-.54l-.85-.06,0,.06H387v-.06H371.48l-10.61,44.94h37.21c-.39,2.57-1,6.4-1.75,10.59H357.59l-1.48,5.68h39.21l-.47,2.61v0l-6.29,35c-3,16.58-5.46,27.53-5.46,27.53,7.47,0,11.89-1.16,15.65-7.89,2.69-4.81,3-8.78,5.8-24q1.26-7,2.45-13.93a83.69,83.69,0,0,0,14.66,20.38,46.66,46.66,0,0,0,26.53,14.75c6.82,1.6,15.11.67,19.71-1.26-14.6-6.85-30-16.19-39.52-27.5a103,103,0,0,1-9.57-14.12l-6.91-11.57H469.4a5,5,0,0,0,4.7-3.21l1-2.47Zm-33.55-14.69L386.78,174h11.82l-10.2,38.31Z"/><text class="cls-9" transform="translate(313.76 347.16)">S<tspan class="cls-10" x="16.05" y="0">w</tspan><tspan x="38.04" y="0">eet Sound</tspan><tspan class="cls-11" x="33.14" y="31">F</tspan><tspan x="47.73" y="31">esti</tspan><tspan class="cls-12" x="94.4" y="31">v</tspan><tspan x="108.73" y="31">al</tspan></text><polygon class="cls-13" points="283.56 0.45 296.14 13.67 314.17 10.8 305.49 26.85 313.79 43.11 295.83 39.81 282.94 52.73 280.53 34.63 264.26 26.36 280.72 18.48 283.56 0.45"/><path class="cls-14" d="M283.25.76l6.63,7c1.42,1.5,4,5.62,6,6.33,1.6.57,4.88-.68,6.5-.94,3.79-.6,7.62-1.44,11.45-1.82.74-.07-.14-.76-.21-.48a5.36,5.36,0,0,1-.75,1.39c-1.15,1.72-2,3.73-3,5.54-1.2,2.21-4.61,6.32-4.79,8.86-.1,1.48,1.54,3.53,2.2,4.83,1.84,3.59,3.4,7.63,5.62,11,.68,1,1.17.42,0,.07a54.92,54.92,0,0,0-5.61-1l-6.55-1.2c-1.21-.22-3.33-1.1-4.54-.83S294,41,293,42.06c-2.86,2.87-6.72,5.73-9,9a4.81,4.81,0,0,1-1.12,1.12c-.36.21.66.81.51.08-.32-1.58-.43-3.25-.65-4.85-.49-3.69-.31-8.52-1.6-12-.58-1.59-1.09-1.56-2.87-2.46L267,27.27c-.67-.34-1.38-.64-2-1s-.4.51-.28.38c.94-1,3.32-1.59,4.56-2.18l6.86-3.29c1.16-.56,3.82-1.24,4.65-2.23,1.24-1.48,1.1-5.07,1.4-7L284,.57c.09-.56-.76-.8-.85-.24l-1.42,9c-.33,2.09-.3,7.45-1.34,8.86s-6.17,2.9-8.1,3.83L264,26a.44.44,0,0,0,0,.76l8.14,4.14c1.87,1,7.08,2.7,8,4s.84,6.74,1.12,8.84l1.2,9a.45.45,0,0,0,.75.31l6.45-6.46c1.48-1.48,4.77-5.9,6.24-6.37s6.67,1.29,8.75,1.68l9,1.65a.45.45,0,0,0,.5-.65L310,34.76c-.95-1.86-4.14-6.38-4.12-7.9s3.3-5.94,4.31-7.8l4.34-8a.45.45,0,0,0-.5-.65l-9,1.44c-2.06.33-7.35,2-8.79,1.46s-4.62-5-6.09-6.52L283.87.14C283.48-.28,282.86.35,283.25.76Z"/><path class="cls-13" d="M309.66,13.4l-14.53,2.31L285,5.06l-2.29,14.53-13.27,6.35,13.11,6.67,1.94,14.58,10.39-10.41,14.47,2.66-6.69-13.1Zm-3.1,24-12.19-2.24-8.76,8.77L284,31.6,272.92,26l11.18-5.35L286,8.38l8.55,9,12.24-2-5.9,10.9Z"/><path class="cls-14" d="M309.55,13l-6.79,1.08c-1.72.27-6.32,1.63-7.51,1.25-1-.33-3.79-4.1-4.87-5.23l-5.07-5.33a.45.45,0,0,0-.74.2l-1.07,6.79c-.28,1.75-.29,6.37-1.15,7.58-.75,1.06-5.06,2.38-6.5,3.07l-6.63,3.18a.44.44,0,0,0,0,.76l6.13,3.12c1.55.79,6.06,2.37,6.84,3.38.66.86.68,5.52.89,7.08l1,7.29a.45.45,0,0,0,.75.31l4.86-4.87c1.23-1.23,4.14-5,5.33-5.45,1-.35,5.46,1.07,7,1.35l7.23,1.33a.45.45,0,0,0,.5-.65l-3.13-6.12c-.79-1.55-3.51-5.5-3.52-6.75,0-1.07,2.72-4.87,3.46-6.25l3.5-6.47c.27-.5-.49-.95-.76-.45l-3.73,6.89c-.77,1.43-3.31,4.46-3.32,6.15,0,1.44,1.68,3.55,2.32,4.79,1.35,2.65,3.39,5.54,4.27,8.37.18.59,1-.42.33-.43a5.47,5.47,0,0,1-1.44-.27,33.12,33.12,0,0,0-5-.92c-1.92-.35-5.81-1.93-7.7-1.42-1.06.29-1.95,1.63-2.73,2.42-2.53,2.54-5,5.11-7.61,7.62-.61.6.22,1.11.15-.13s-.36-2.7-.54-4c-.33-2.45,0-7.42-1.27-9.55-.5-.83-1.52-1.12-2.44-1.59-3-1.52-6.13-3.7-9.31-4.73a5.09,5.09,0,0,1-1.31-.67c-.47-.4-.48.87,0,.49a18.37,18.37,0,0,1,3.42-1.64c2.51-1.2,6.92-2.34,8.95-4.29,1-1,.94-1.29,1.21-3,.52-3.3,1.63-7,1.63-10.32a5.21,5.21,0,0,1,.23-1.45c.12-.31-1.06-.26-.22.38a28.76,28.76,0,0,1,3,3.12c1.63,1.71,4.47,6.22,6.7,7,1.41.52,3.93-.44,5.36-.67l9.59-1.53C310.34,13.73,310.1,12.88,309.55,13Z"/><path class="cls-14" d="M306.68,36.93l-6.58-1.21c-1.46-.27-4.31-1.46-5.73-1-1.07.31-2.25,2.07-3,2.82-1.7,1.7-3.7,4.67-5.8,5.81.56-.3.09,1.11.3-.82a19.9,19.9,0,0,0-.57-4.26c-.23-1.7,0-5.11-.88-6.63-.5-.87-2-1.26-2.83-1.71-2.57-1.3-5.12-2.64-7.7-3.92-.93-.46-.93.46,0,0,1.18-.54,2.35-1.13,3.53-1.69,1.76-.84,5.47-1.8,6.81-3.26.62-.68.54-1.89.69-2.8.47-3,1-5.95,1.41-8.93.15-1.08-.73-.76,0,0s1.58,1.66,2.38,2.5c1.42,1.49,3.63,5,5.53,5.81a3.91,3.91,0,0,0,2.25-.09c2.75-.41,6.55-.36,9.1-1.45a5.69,5.69,0,0,1,1-.16c.53.09-.08-1.08-.41-.18a29.42,29.42,0,0,1-2,3.64c-1,1.78-3.44,4.71-3.64,6.73-.12,1.2,1.2,2.8,1.73,3.84l3.91,7.65c.26.51,1,.06.76-.45L304.35,32c-.68-1.33-3-4.72-3-5.73,0-.83,2.3-4.11,2.9-5.23l2.95-5.45a.45.45,0,0,0-.5-.65l-5.64.9c-1.48.24-5.41,1.4-6.38,1.06-.79-.27-3.2-3.47-4.07-4.39l-4.27-4.49a.45.45,0,0,0-.74.2l-.89,5.64c-.24,1.51-.23,5.45-1,6.45s-4.27,2-5.45,2.57L272.7,25.6a.44.44,0,0,0,0,.76l5.09,2.59c1.33.68,5.2,2,5.81,2.87.49.68.58,4.66.75,5.93l.82,6.15a.45.45,0,0,0,.75.31l4-4c1.06-1.06,3.55-4.32,4.52-4.63.79-.25,4.61.9,5.87,1.13l6.1,1.12C307,37.88,307.24,37,306.68,36.93Z"/><polygon class="cls-13" points="351.89 49.9 356.9 60.05 368.11 61.68 360 69.58 361.91 80.74 351.89 75.47 341.87 80.74 343.78 69.58 335.68 61.68 346.88 60.05 351.89 49.9"/><path class="cls-14" d="M351.51,50.12l2.73,5.52c.56,1.13,1.3,3.91,2.35,4.72.87.67,3.32.57,4.33.71,1.51.22,5.81,0,7,1-.79-.68-.06-.41-1.22.38a25.53,25.53,0,0,0-2.92,2.84c-1,.93-3.64,2.72-4.12,4-1.16,3.17,2.54,7.8,1.8,11.07-.06.28,1,.06-.1-.51L358,78.19c-1.46-.77-4.22-3-5.89-3.1-2.28-.07-7.56,3.3-9.35,4.68-1.26,1-.4.59-.39.66a13.42,13.42,0,0,1,.47-2.76c.37-2.15,1.69-5.55,1.32-7.7-.4-2.32-4.88-5.78-6.76-7.23a6.69,6.69,0,0,1-.92-.9c-.65-.75-.48.26-.41.22.86-.44,2.48-.36,3.4-.49,2-.28,5.79,0,7.48-1.09,1-.59,1.49-2.58,2-3.54l3.37-6.83c.25-.51-.51-1-.76-.45l-2.28,4.63c-.61,1.24-1.68,4.7-2.63,5.38s-4.2.57-5.44.76l-5.6.81a.45.45,0,0,0-.2.74l3.7,3.6c1,.94,4,3.2,4.3,4.1s-.76,4.14-1,5.35l-1,5.58a.45.45,0,0,0,.65.5l4.57-2.4c1.2-.63,4.28-2.81,5.23-2.81s3.71,2,4.79,2.58l5,2.63a.45.45,0,0,0,.65-.5l-.87-5.09c-.23-1.34-1.35-4.94-1-5.84s3.08-2.9,3.95-3.75l4.05-4a.45.45,0,0,0-.2-.74l-5.11-.74c-1.36-.2-5-.14-5.93-.83s-1.85-3.81-2.4-4.93l-2.51-5.08C352,49.16,351.26,49.61,351.51,50.12Z"/><path class="cls-13" d="M365,62.39l-9-1.31-4-8.18-4,8.18-9,1.31,6.53,6.37-1.54,9,8.08-4.25L360,77.75l-1.54-9ZM358.7,76l-6.81-3.58L345.08,76l1.3-7.58-5.51-5.37,7.61-1.11,3.4-6.9,3.4,6.9,7.61,1.11-5.51,5.37Z"/><path class="cls-14" d="M365.08,62c-2.11-.31-7.37-.1-8.86-1.26-1.66-1.29-2.91-5.94-3.94-8a.44.44,0,0,0-.76,0c-.94,1.91-2.38,7-3.94,8-1.75,1.18-6.55.92-8.86,1.26a.45.45,0,0,0-.2.74c1.52,1.48,5.94,4.54,6.42,6.17.53,1.8-1.15,6.49-1.54,8.76a.45.45,0,0,0,.65.5c1.88-1,6.17-4.24,7.85-4.18,1.88.07,5.81,3.11,7.85,4.18a.45.45,0,0,0,.65-.5c-.36-2.09-2.13-7.18-1.54-8.76.66-1.78,4.76-4.56,6.42-6.17.41-.4-.22-1-.63-.63-1.65,1.61-5.89,4.31-6.6,6.46-.78,2.34,1.26,6.37,1.41,8.84,0,.5.89.14,0-.37s-1.66-.87-2.48-1.3c-1.2-.63-3.54-2.55-4.9-2.57-2,0-6,2.59-7.57,3.74-1,.75-.31.4-.25.69a8.47,8.47,0,0,1,.4-2.31c.29-1.67,1.44-4.6,1.07-6.24-.41-1.82-3.82-4.57-5.33-5.67-1.68-1.22-1.55-.8.3-.78,1.7,0,5.22-.22,6.74-1,1.85-.92,3.37-4.83,4-6.84.38-1.18,1.08-1.1.1-1.5.42.17,1.17,2.37,1.32,2.68.64,1.29,1.5,4.48,2.65,5.38,1.87,1.46,6.9,1.17,9.29,1.52C365.4,62.89,365.64,62,365.08,62Z"/><path class="cls-14" d="M358.92,75.62c-1.75-.92-5-3.58-6.91-3.62s-5.1,2.5-6.77,3.43c-.4.22.14.87.39,0a20.76,20.76,0,0,0,.4-2.33c.2-1.16,1.1-3.47.79-4.6-.44-1.59-3.6-4.25-5-5.17-1-.65-.34,0-.58.07a9.43,9.43,0,0,1,2-.28c1.41-.21,4.06,0,5.28-.77s3-4.8,3.38-6.3c.31-1.11-.05-.36-.24-.57a8.77,8.77,0,0,1,.87,1.77c.64,1.29,1.29,3.83,2.36,4.79s5.46,1.36,7,1.28c1.07-.05.57-.49.4-.31-.68.73-1.44,1.41-2.16,2.1s-2.77,2-3.12,3.06c-.66,1.94.91,5.89,1.26,7.92.1.56.95.32.85-.24-.3-1.75-1.76-6.14-1.31-7.35.51-1.37,4-3.82,5.4-5.17a.45.45,0,0,0-.2-.74c-1.77-.26-6.26-.13-7.45-1s-2.44-5-3.3-6.75a.44.44,0,0,0-.76,0c-.79,1.61-2.06,5.92-3.3,6.75-1.39.93-5.51.76-7.45,1a.45.45,0,0,0-.2.74c1.28,1.24,5,3.92,5.4,5.17s-1,5.45-1.31,7.35a.45.45,0,0,0,.65.5c1.58-.83,5.29-3.57,6.58-3.53,1.45.05,4.88,2.63,6.58,3.53C359,76.65,359.43,75.89,358.92,75.62Z"/><path class="cls-15" d="M483.36,28a15.68,15.68,0,0,0,7.72,2.44l-1,1.68-1.28,2.17L481,47.6a6.38,6.38,0,1,1-3.67,2.87l9.54-16.2a12.41,12.41,0,0,1-10.6-7.42L478.5,23A15.61,15.61,0,0,0,483.36,28Z"/><path class="cls-16" d="M479.87,58.65a5.74,5.74,0,1,0,1.27-10.44l-1.56.47L490,31a16.3,16.3,0,0,1-6.48-2.14L483,28.5a16.3,16.3,0,0,1-4.49-4.3l-1.58,2.69a11.86,11.86,0,0,0,4.14,4.8l.54.34a11.85,11.85,0,0,0,5.24,1.6l1,.07L477.83,50.8A5.74,5.74,0,0,0,479.87,58.65Z"/><path class="cls-15" d="M457.82,57.72A10.58,10.58,0,0,0,463,59.36l-.67,1.14L461.49,62l-5.3,9a4.3,4.3,0,1,1-2.48,1.94L460.15,62A8.37,8.37,0,0,1,453,57l1.53-2.6A10.54,10.54,0,0,0,457.82,57.72Z"/><path class="cls-16" d="M455.46,78.43a3.87,3.87,0,1,0,.86-7l-1.05.31,7-12a11,11,0,0,1-4.37-1.45l-.35-.21a11,11,0,0,1-3-2.9L453.49,57a8,8,0,0,0,2.79,3.24l.37.23a8,8,0,0,0,3.53,1.08l.7,0-6.79,11.54A3.88,3.88,0,0,0,455.46,78.43Z"/></g></g></g></svg>