<svg xmlns="http://www.w3.org/2000/svg" xmlns:xlink="http://www.w3.org/1999/xlink" viewBox="0 0 523 257"><defs><style>.cls-1{isolation:isolate;}.cls-2{opacity:0.75;mix-blend-mode:multiply;}.cls-3{fill:#fff;}.cls-4{fill:#edc62b;}.cls-5{fill:#030000;}.cls-6{fill:#af302f;stroke:#edc62b;stroke-miterlimit:10;}</style></defs><title>資產 47</title><g class="cls-1"><g id="圖層_2" data-name="圖層 2"><g id="圖層_1-2" data-name="圖層 1"><image class="cls-2" width="212" height="212" xlink:href="資產 471.png"/><circle class="cls-3" cx="105.38" cy="97.3" r="88.04"/><path class="cls-4" d="M105.38,176.2c-33-.29-63.2-21.17-74.33-52.43A78.91,78.91,0,0,1,145.92,29.64c28.27,17,43.33,50.77,36.83,83.15-7.35,36.62-40.22,63.09-77.37,63.41a.91.91,0,0,0,0,1.82c33.39-.29,63.85-21.12,75.63-52.52,12-31.91,1.91-68.89-24.38-90.5-26.05-21.42-63.76-24.33-92.71-6.93a81.51,81.51,0,0,0-37.8,84.54c7.24,37.71,41.11,65.08,79.26,65.41A.91.91,0,0,0,105.38,176.2Z"/><image class="cls-2" width="212" height="213" transform="translate(155 44)" xlink:href="資產 472.png"/><circle class="cls-3" cx="260.6" cy="141.5" r="88.04"/><path class="cls-4" d="M260.6,220.4c-33-.29-63.2-21.17-74.33-52.43A78.91,78.91,0,0,1,301.14,73.84c28.27,17,43.33,50.77,36.83,83.15-7.35,36.62-40.22,63.09-77.37,63.41a.91.91,0,0,0,0,1.82c33.39-.29,63.85-21.12,75.63-52.52,12-31.91,1.91-68.89-24.38-90.5-26.05-21.42-63.76-24.33-92.71-6.93a81.51,81.51,0,0,0-37.8,84.54c7.24,37.71,41.11,65.08,79.26,65.41A.91.91,0,0,0,260.6,220.4Z"/><image class="cls-2" width="212" height="212" transform="translate(311 2)" xlink:href="資產 473.png"/><circle class="cls-3" cx="416.21" cy="99.41" r="88.04"/><path class="cls-4" d="M416.21,178.31c-33-.29-63.2-21.17-74.33-52.43A78.91,78.91,0,0,1,456.75,31.75c28.27,17,43.33,50.77,36.83,83.15-7.35,36.62-40.22,63.09-77.37,63.41a.91.91,0,0,0,0,1.82c33.39-.29,63.85-21.12,75.63-52.52,12-31.91,1.91-68.89-24.38-90.5-26.05-21.42-63.76-24.33-92.71-6.93A81.51,81.51,0,0,0,337,114.72c7.24,37.71,41.11,65.08,79.26,65.41A.91.91,0,0,0,416.21,178.31Z"/><path class="cls-5" d="M88.34,60.11l4.6-35.38H78.61L73.8,60.11h-28l-1.09,5.74H73L59.32,166.53c-.38,2.77,1.24,5.32,3.37,5.32h75.89c6.56-.88,11-4.29,14.89-13.48,3.48-8.22,3.92-19.89,7.51-46,2.13-15.5,4.13-31,6.1-46.57h26.35c1.5,0,2.36-1.4,2.79-2.68.12-.36.22-.73.36-1.09s.65-2,1.07-2H167.8q1.22-9.62,2.43-19.24c.08-.62.82-7.36,1.42-11.93.29-2.21-1-4.21-2.7-4.21H150s-2.22,15.68-4.9,35.38ZM74.75,158l7.72-52.67H139c-3.28,24.08-6.41,41.64-8,51.86-.35,2.28-1.87,3.93-3.63,3.93H76.69C75.45,161.13,74.51,159.63,74.75,158Zm69.62-92.17L140.46,94.6c-.29,2.13-1.7,3.68-3.34,3.68H83.39L87.6,65.84Z"/><ellipse class="cls-5" cx="376.78" cy="162.33" rx="16.2" ry="15.88"/><path class="cls-5" d="M459.48,110.65l.7-2.51H399.6l-2.47,6.73h56.79A5.78,5.78,0,0,0,459.48,110.65Z"/><path class="cls-5" d="M421.88,57.26h-6.41v0H388v2.12h26.83l-2.54,8.48-2.45,8.15c-1,3.47-1.83,6.39-3.85,9.45l-.84,1.28c-25,37.57-54.14,39.44-54.14,39.44C393.14,133,420.14,86,420.14,86l8.62-21.85A6.88,6.88,0,0,0,421.88,57.26Z"/><path class="cls-5" d="M384.12,78.33,391.77,49c0-5.75-3.08-10.41-6.88-10.41h-6.41L369.87,82h30.79a3,3,0,0,0,2.86-2.33l.36-1.38Z"/><path class="cls-5" d="M396,92.29l.33-1.38H368l-1.16,3.71H393.4A2.81,2.81,0,0,0,396,92.29Z"/><path class="cls-5" d="M469.07,93.08c-1.36-1.28-2.63-2.61-3.84-4h2.53a4.84,4.84,0,0,0,4.54-3.17l10.33-21.75a7.15,7.15,0,0,0-6.88-7.4h-6.41l0,0H442.61a3.23,3.23,0,0,0-2.33-1.44,26.16,26.16,0,0,0-4.39,0c-.49,0-5.68.32-5.84,0,5.21,9.41,9.51,22.48,14.84,31.88,5.43,9.56,12.48,18.57,21.54,25.47,4.55,3.46,9.59,6.69,15.32,8.31,6.08,1.71,12.42,1.46,18.45.84,8.44-.86,14.46-2.19,19.81-7.16C501.57,111.59,481.87,105.15,469.07,93.08ZM444.62,60.26h23.49l-8,22.49c-1.44-1.94-2.83-3.9-4.22-5.85C452,71.38,448.07,66,444.62,60.26Z"/><path class="cls-5" d="M454.68,163.13A103.66,103.66,0,0,1,445,147.77l-7.7-14.08h47.61a5.36,5.36,0,0,0,4.9-3.17l1.59-3.56H381.64l-3.95,6.73H420c-4.21,17.74-15.28,73-15.28,73,8.15,0,13-1,17.07-6.52,2.94-4,3.31-18.24,6.33-30.84,1.11-4.64,2.17-9.28,3.22-13.93A84.46,84.46,0,0,0,446.88,179a53,53,0,0,0,12.21,10,53.11,53.11,0,0,0,15.58,5.29c7.24,1.49,16.17.1,21.18-2.25C480.5,185.11,464.39,175.34,454.68,163.13Z"/><ellipse class="cls-5" cx="234.43" cy="207.21" rx="16.2" ry="15.88"/><path class="cls-5" d="M211.72,182.1h15.63l.31-1.89h0l12.29-55.79.12-3.17c.26-7-7.13-7.91-13.86-8.58v-.06h-.64l-1-.1,0,.1H210.4l0-.1H191.93L179.32,182.1h32.41Zm12.48-66.46-12.13,61.69H199.29l10.85-61.69Z"/><path class="cls-5" d="M341.62,121.63c.22-4.49-6-5.11-11.65-5.54v0h-.54l-.85-.06,0,.06H315.28l-1.42-.06H313l.26-1.22h0l9.58-36,.1-2c.22-4.49-6-5.11-11.65-5.54v0h-.54l-.85-.06,0,.06H298V71H282.45L271.84,116h29.35l-10.61,44.94h41.13l.26-1.22h0l9.58-36Zm-53-8.3,9.12-39.74h11.82l-10.2,39.74Zm18.74,43.5,9.12-38.31h11.82l-10.2,38.31Z"/><path class="cls-5" d="M287.61,171.51l.5-3c.06-.35.58-4.48,1-7.56a2.92,2.92,0,0,0-2.89-3.33h-7.07l9-34,.1-2c.22-4.49-6-5.11-11.65-5.54v0h-.54l-.85-.06,0,.06H263.41V116H247.88l-10.61,44.94h37.21c-.39,2.57-1,6.4-1.75,10.59H234l-1.48,5.68h39.21l-.47,2.61v0l-6.29,35c-3,16.58-5.46,27.53-5.46,27.53,7.47,0,11.89-1.16,15.65-7.89,2.69-4.81,3-8.78,5.8-24q1.26-7,2.45-13.93a83.69,83.69,0,0,0,14.66,20.38,46.66,46.66,0,0,0,26.53,14.75c6.82,1.6,15.11.67,19.71-1.26-14.6-6.85-30-16.19-39.52-27.5a103,103,0,0,1-9.57-14.12l-6.91-11.57H345.8a5,5,0,0,0,4.7-3.21l1-2.47Zm-33.55-14.69,9.12-38.31H275l-10.2,38.31Z"/><path class="cls-6" d="M83.95,60.11l4.6-35.38H74.22L69.4,60.11h-28l-1.09,5.74h28.3L54.92,166.53c-.38,2.77,1.24,5.32,3.37,5.32h75.89c6.56-.88,11-4.29,14.89-13.48,3.48-8.22,3.92-19.89,7.51-46,2.13-15.5,4.13-31,6.1-46.57H189c1.5,0,2.36-1.4,2.79-2.68.12-.36.22-.73.36-1.09s.65-2,1.07-2H163.41q1.22-9.62,2.43-19.24c.08-.62.82-7.36,1.42-11.93.29-2.21-1-4.21-2.7-4.21h-19s-2.22,15.68-4.9,35.38ZM70.35,158l7.72-52.67H134.6c-3.28,24.08-6.41,41.64-8,51.86-.35,2.28-1.87,3.93-3.63,3.93H72.3C71.05,161.13,70.11,159.63,70.35,158ZM140,65.84,136.06,94.6c-.29,2.13-1.7,3.68-3.34,3.68H79L83.2,65.84Z"/><ellipse class="cls-6" cx="372.38" cy="162.33" rx="16.2" ry="15.88"/><path class="cls-6" d="M455.09,110.65l.7-2.51H395.2l-2.47,6.73h56.79A5.78,5.78,0,0,0,455.09,110.65Z"/><path class="cls-6" d="M417.49,57.26h-6.41v0H383.61v2.12h26.83l-2.54,8.48-2.45,8.15c-1,3.47-1.83,6.39-3.85,9.45l-.84,1.28c-25,37.57-54.14,39.44-54.14,39.44C388.74,133,415.75,86,415.75,86l8.62-21.85A6.88,6.88,0,0,0,417.49,57.26Z"/><path class="cls-6" d="M379.73,78.33,387.38,49c0-5.75-3.08-10.41-6.88-10.41h-6.41L365.47,82h30.79a3,3,0,0,0,2.86-2.33l.36-1.38Z"/><path class="cls-6" d="M391.61,92.29l.33-1.38H363.57l-1.16,3.71H389A2.81,2.81,0,0,0,391.61,92.29Z"/><path class="cls-6" d="M464.68,93.08c-1.36-1.28-2.63-2.61-3.84-4h2.53a4.84,4.84,0,0,0,4.54-3.17l10.33-21.75a7.15,7.15,0,0,0-6.88-7.4h-6.41l0,0H438.21a3.23,3.23,0,0,0-2.33-1.44,26.16,26.16,0,0,0-4.39,0c-.49,0-5.68.32-5.84,0,5.21,9.41,9.51,22.48,14.84,31.88,5.43,9.56,12.48,18.57,21.54,25.47,4.55,3.46,9.59,6.69,15.32,8.31,6.08,1.71,12.42,1.46,18.45.84,8.44-.86,14.46-2.19,19.81-7.16C497.17,111.59,477.47,105.15,464.68,93.08ZM440.23,60.26h23.49l-8,22.49c-1.44-1.94-2.83-3.9-4.22-5.85C447.59,71.38,443.68,66,440.23,60.26Z"/><path class="cls-6" d="M450.28,163.13a103.66,103.66,0,0,1-9.65-15.36l-7.7-14.08h47.61a5.36,5.36,0,0,0,4.9-3.17L487,127H377.24l-3.95,6.73h42.33c-4.21,17.74-15.28,73-15.28,73,8.15,0,13-1,17.07-6.52,2.94-4,3.31-18.24,6.33-30.84,1.11-4.64,2.17-9.28,3.22-13.93A84.46,84.46,0,0,0,442.49,179a53,53,0,0,0,12.21,10,53.11,53.11,0,0,0,15.58,5.29c7.24,1.49,16.17.1,21.18-2.25C476.11,185.11,460,175.34,450.28,163.13Z"/><ellipse class="cls-6" cx="230.04" cy="207.21" rx="16.2" ry="15.88"/><path class="cls-6" d="M207.33,182.1H223l.31-1.89h0l12.29-55.79.12-3.17c.26-7-7.13-7.91-13.86-8.58v-.06h-.64l-1-.1,0,.1H206l0-.1H187.54L174.92,182.1h32.41Zm12.48-66.46-12.13,61.69H194.89l10.85-61.69Z"/><path class="cls-6" d="M337.22,121.63c.22-4.49-6-5.11-11.65-5.54v0H325l-.85-.06,0,.06H310.88l-1.42-.06h-.88l.26-1.22h0l9.58-36,.1-2c.22-4.49-6-5.11-11.65-5.54v0h-.54l-.85-.06,0,.06H293.58V71H278L267.44,116h29.35l-10.61,44.94h41.13l.26-1.22h0l9.58-36Zm-53-8.3,9.12-39.74h11.82L295,113.33ZM303,156.83l9.12-38.31h11.82l-10.2,38.31Z"/><path class="cls-6" d="M283.22,171.51l.5-3c.06-.35.58-4.48,1-7.56a2.92,2.92,0,0,0-2.89-3.33h-7.07l9-34,.1-2c.22-4.49-6-5.11-11.65-5.54v0h-.54l-.85-.06,0,.06H259V116H243.49l-10.61,44.94h37.21c-.39,2.57-1,6.4-1.75,10.59H229.59l-1.48,5.68h39.21l-.47,2.61v0l-6.29,35c-3,16.58-5.46,27.53-5.46,27.53,7.47,0,11.89-1.16,15.65-7.89,2.69-4.81,3-8.78,5.8-24q1.26-7,2.45-13.93a83.69,83.69,0,0,0,14.66,20.38,46.66,46.66,0,0,0,26.53,14.75c6.82,1.6,15.11.67,19.71-1.26-14.6-6.85-30-16.19-39.52-27.5a103,103,0,0,1-9.57-14.12l-6.91-11.57h57.49a5,5,0,0,0,4.7-3.21l1-2.47Zm-33.55-14.69,9.12-38.31h11.82l-10.2,38.31Z"/></g></g></g></svg>