<svg xmlns="http://www.w3.org/2000/svg" viewBox="0 0 187.14 75.33"><defs><style>.cls-1,.cls-2{fill:none;}.cls-2,.cls-3{stroke:#f5ab00;stroke-miterlimit:10;}.cls-3{fill:#136e9f;}.cls-4{fill:#f5ab00;}</style></defs><title>資產 63</title><g id="圖層_2" data-name="圖層 2"><g id="圖層_1-2" data-name="圖層 1"><path class="cls-1" d="M167.42,51.44q3.13,2.39,4.85,2.37a2.3,2.3,0,0,0,1.65-.72,2.25,2.25,0,0,0,.68-1.66,2.52,2.52,0,0,0-.71-1.72h-4.78a6.79,6.79,0,0,0-.57.56l-.68-.56h-2.79q.64.43,1.3.93Z"/><path class="cls-1" d="M176.2,62.49A4.43,4.43,0,0,1,174,60.43l-.29-.49q-2.13-3.67-4.64-4.11Q169.69,62.58,176.2,62.49Z"/><path class="cls-1" d="M13.22,52a2.29,2.29,0,0,0,1.65.72q1.72,0,4.85-2.37l.89-.68h-8a2.58,2.58,0,0,0-.1.66A2.24,2.24,0,0,0,13.22,52Z"/><path class="cls-1" d="M94.37,50.45a5.38,5.38,0,0,0-2-.48,3,3,0,0,0-2.1.65,2.51,2.51,0,0,0-.69,1.92,2.82,2.82,0,0,0,.92,2.14,3.17,3.17,0,0,0,2.26.87,6.3,6.3,0,0,0,5-2.81,10.26,10.26,0,0,0,1.65-3H94.71Z"/><path class="cls-1" d="M71.67,49.71H68a9.92,9.92,0,0,0-1.26,4.37C68.53,53.73,70.17,52.27,71.67,49.71Z"/><path class="cls-1" d="M115,49.93l.32.55q2.32,4.12,5.11,4.65a8.71,8.71,0,0,0-2.05-5.42h-3.52C114.88,49.78,114.93,49.85,115,49.93Z"/><path class="cls-1" d="M130.69,53.67a12.13,12.13,0,0,1-1.14,4.52l-1.71-.78a4.68,4.68,0,0,0,.42-1.75,2.58,2.58,0,0,0-.56-1.82,2.18,2.18,0,0,0-1.66-.6,2.45,2.45,0,0,0-1.86.8,2.75,2.75,0,0,0-.75,2,5.46,5.46,0,0,0,2.43,4.33,8.76,8.76,0,0,0,5.54,1.9,7.73,7.73,0,0,0,5.51-2.15,6.9,6.9,0,0,0,2.28-5.2,7,7,0,0,0-1.8-5l-.17-.17h-8.09l.11.11A5.53,5.53,0,0,1,130.69,53.67Z"/><path class="cls-1" d="M122.28,49.71h-1.42a8.61,8.61,0,0,1,.54,1.11A7.39,7.39,0,0,1,122.28,49.71Z"/><path class="cls-1" d="M13.46,58.88l-.3.49a4.42,4.42,0,0,1-2.21,2.06q6.51.09,7.15-6.66Q15.58,55.22,13.46,58.88Z"/><path class="cls-1" d="M50.23,59a7.73,7.73,0,0,0,5.51,2.16,8.76,8.76,0,0,0,5.55-1.9A5.45,5.45,0,0,0,63.72,55,2.75,2.75,0,0,0,63,53a2.44,2.44,0,0,0-1.85-.8,2.18,2.18,0,0,0-1.66.6,2.58,2.58,0,0,0-.56,1.81,4.64,4.64,0,0,0,.42,1.75l-1.71.78a12.13,12.13,0,0,1-1.14-4.52,5.61,5.61,0,0,1,.76-2.9H49.07a7.38,7.38,0,0,0-1.12,4.12A6.9,6.9,0,0,0,50.23,59Z"/><path class="cls-1" d="M65.77,49.71h-.06l0,.06Z"/><path class="cls-1" d="M85.73,65.31l.64-.37q4.76-2.68,5.38-5.9Q83,59.73,83,68.12A5.71,5.71,0,0,1,85.73,65.31Z"/><circle class="cls-2" cx="3.01" cy="56.04" r="2.51"/><path class="cls-2" d="M66.74,54.08A9.92,9.92,0,0,1,68,49.71H65.77l0,.06,0-.06H57.22a5.61,5.61,0,0,0-.76,2.9,12.13,12.13,0,0,0,1.14,4.52l1.71-.78a4.64,4.64,0,0,1-.42-1.75,2.58,2.58,0,0,1,.56-1.81,2.18,2.18,0,0,1,1.66-.6A2.44,2.44,0,0,1,63,53a2.75,2.75,0,0,1,.75,2,5.45,5.45,0,0,1-2.43,4.33,8.76,8.76,0,0,1-5.55,1.9A7.73,7.73,0,0,1,50.23,59a6.9,6.9,0,0,1-2.28-5.2,7.38,7.38,0,0,1,1.12-4.12H43.64a8.75,8.75,0,0,0-1.2,4.59,9.45,9.45,0,0,0,3.09,7.12,10.54,10.54,0,0,0,7.53,2.93q5.13,0,10.77-4.44L65,59q3.46-2.72,5.38-2.72a2.55,2.55,0,0,1,1.85.78A2.5,2.5,0,0,1,73,58.9a2.87,2.87,0,0,1-1,2.19,3.44,3.44,0,0,1-2.41.92,4.62,4.62,0,0,1-3.33-1.73L64.8,61.52a7.9,7.9,0,0,0,7,3.91,7.3,7.3,0,0,0,5-1.7,5.45,5.45,0,0,0,2-4.3,4.54,4.54,0,0,0-1.28-3.22A6.21,6.21,0,0,0,74,54.44a6.24,6.24,0,0,0,3.36-4.14l.19-.59H71.67C70.17,52.27,68.53,53.73,66.74,54.08Z"/><path class="cls-2" d="M83.84,72.93a6.3,6.3,0,0,1,2.44-1.24l1.1-.35a7.21,7.21,0,0,0,4.78-3.89,7.15,7.15,0,0,0,2.05,4,5.23,5.23,0,0,0,3.72,1.48,6.3,6.3,0,0,0,5-2.26,8.41,8.41,0,0,0,2-5.73,9.12,9.12,0,0,0-4.52-8.14l-1.43,1.69a5.33,5.33,0,0,1,2,3.84,4,4,0,0,1-1.07,2.79,3.32,3.32,0,0,1-2.54,1.16,2.9,2.9,0,0,1-2.13-.91,3,3,0,0,1-.9-2.14q0-2.22,3.14-6.21l1.05-1.34a27.59,27.59,0,0,0,3.66-6H99.4a10.26,10.26,0,0,1-1.65,3,6.3,6.3,0,0,1-5,2.81,3.17,3.17,0,0,1-2.26-.87,2.82,2.82,0,0,1-.92-2.14,2.51,2.51,0,0,1,.69-1.92,3,3,0,0,1,2.1-.65,5.38,5.38,0,0,1,2,.48l.34-.74H84.8a5.14,5.14,0,0,0-1.05,3.18,5.28,5.28,0,0,0,.75,2.76,7,7,0,0,0,2.26,2.24,7.89,7.89,0,0,0-4.46,4Q81,64.67,81,70.27v4.57H83.2A2.6,2.6,0,0,1,83.84,72.93ZM91.74,59q-.62,3.23-5.38,5.9l-.64.37A5.71,5.71,0,0,0,83,68.12Q83,59.73,91.74,59Z"/><path class="cls-2" d="M33,50.55a6.18,6.18,0,0,1,2,4.69,6,6,0,0,1-6.09,6.32l0,1.69h.56A11.44,11.44,0,0,0,36.93,61a7.59,7.59,0,0,0,2.95-6.12,8.38,8.38,0,0,0-1.6-5.18H31.92A7.34,7.34,0,0,1,33,50.55Z"/><path class="cls-2" d="M19.72,50.39q-3.13,2.39-4.85,2.37A2.29,2.29,0,0,1,13.22,52a2.24,2.24,0,0,1-.68-1.66,2.58,2.58,0,0,1,.1-.66H7.39s0,.07,0,.11a4.06,4.06,0,0,0,1.11,2.9,5.57,5.57,0,0,0,3.07,1.64A5.59,5.59,0,0,0,8.49,58l-.28.85a4.89,4.89,0,0,1-1,1.87,2,2,0,0,1-1.48.47l0,1.68L9.26,63a16.18,16.18,0,0,0,6.49-.9,6.1,6.1,0,0,0,3.17-3.41,5.45,5.45,0,0,0,1.71,1.78,4.19,4.19,0,0,0,5.3-.79,5,5,0,0,0,1.35-3.43,10.85,10.85,0,0,0-1-4.07l-1.54.68a4.19,4.19,0,0,1,.35,1.57A2.31,2.31,0,0,1,24.61,56a2,2,0,0,1-1.5.52,2.18,2.18,0,0,1-1.65-.74A2.47,2.47,0,0,1,20.81,54,4.89,4.89,0,0,1,23,50.18c.23-.17.46-.33.7-.47H20.62Zm-8.78,11a4.42,4.42,0,0,0,2.21-2.06l.3-.49q2.13-3.67,4.64-4.11Q17.45,61.53,10.95,61.44Z"/><circle class="cls-2" cx="184.13" cy="57.09" r="2.51"/><path class="cls-2" d="M137.39,49.88a7,7,0,0,1,1.8,5,6.9,6.9,0,0,1-2.28,5.2,7.73,7.73,0,0,1-5.51,2.15,8.76,8.76,0,0,1-5.54-1.9A5.46,5.46,0,0,1,123.43,56a2.75,2.75,0,0,1,.75-2,2.45,2.45,0,0,1,1.86-.8,2.18,2.18,0,0,1,1.66.6,2.58,2.58,0,0,1,.56,1.82,4.68,4.68,0,0,1-.42,1.75l1.71.78a12.13,12.13,0,0,0,1.14-4.52,5.53,5.53,0,0,0-1.45-3.85l-.11-.11h-6.85a7.39,7.39,0,0,0-.88,1.11,8.61,8.61,0,0,0-.54-1.11h-2.5a8.71,8.71,0,0,1,2.05,5.42q-2.79-.53-5.11-4.65l-.32-.55c0-.08-.09-.14-.14-.22H109.2c.08.21.17.44.25.69l.3,1a6.24,6.24,0,0,0,3.36,4.14,6.2,6.2,0,0,0-3.45,1.77,4.54,4.54,0,0,0-1.28,3.22,5.44,5.44,0,0,0,2,4.3,7.28,7.28,0,0,0,5,1.7,7.89,7.89,0,0,0,7.05-3.91l-1.46-1.23a4.62,4.62,0,0,1-3.33,1.73,3.45,3.45,0,0,1-2.41-.92,2.88,2.88,0,0,1-1-2.19,2.5,2.5,0,0,1,.79-1.84,2.55,2.55,0,0,1,1.85-.78q1.92,0,5.38,2.72l1.16.91q5.64,4.45,10.77,4.45a10.55,10.55,0,0,0,7.53-2.93,9.45,9.45,0,0,0,3.09-7.12,8.51,8.51,0,0,0-2-5.65h-5.53Z"/><path class="cls-2" d="M147.27,55.94a7.6,7.6,0,0,0,2.95,6.12,11.47,11.47,0,0,0,7.54,2.24h.56l0-1.69a6,6,0,0,1-6.09-6.32,6.19,6.19,0,0,1,2-4.69,6.82,6.82,0,0,1,3.76-1.9h-8.18A8.44,8.44,0,0,0,147.27,55.94Z"/><path class="cls-2" d="M174.61,51.43a2.25,2.25,0,0,1-.68,1.66,2.3,2.3,0,0,1-1.65.72q-1.72,0-4.85-2.37l-1-.8q-.65-.5-1.3-.93h-4.52a7.82,7.82,0,0,1,3.54,1.53,4.9,4.9,0,0,1,2.24,3.85,2.47,2.47,0,0,1-.65,1.76,2.18,2.18,0,0,1-1.65.74,1.93,1.93,0,0,1-1.5-.52,2.31,2.31,0,0,1-.53-1.62,4.22,4.22,0,0,1,.35-1.57l-1.54-.68a10.85,10.85,0,0,0-1,4.07,5,5,0,0,0,1.35,3.43,4.19,4.19,0,0,0,5.3.79,5.43,5.43,0,0,0,1.71-1.78,6.11,6.11,0,0,0,3.17,3.41,16.17,16.17,0,0,0,6.49.9l3.54-.05,0-1.68a2,2,0,0,1-1.48-.47,4.91,4.91,0,0,1-1-1.88l-.28-.85a5.59,5.59,0,0,0-3.07-3.67,5.57,5.57,0,0,0,3.07-1.64,4.06,4.06,0,0,0,1.11-2.9,5.47,5.47,0,0,0-.14-1.17H173.9A2.52,2.52,0,0,1,174.61,51.43Zm-.92,8.51.29.49a4.43,4.43,0,0,0,2.21,2.06q-6.5.09-7.15-6.66Q171.56,56.27,173.69,59.94Z"/><path class="cls-3" d="M157.95,49.71h2.61a8.44,8.44,0,0,0-1.46-.11A8,8,0,0,0,157.95,49.71Z"/><rect class="cls-4" x="3.9" y="47.12" width="181.19" height="2.96"/><path class="cls-4" d="M18.65,14.28c-.82,0-1.12-.51-1.77-2a7,7,0,0,0-2.35-3c-.14-.1,0-.27.14-.27,3.64.31,5.64,1.5,5.64,3.43A1.66,1.66,0,0,1,18.65,14.28ZM20,21.42a11.65,11.65,0,0,0-.51,2.31c0,1.77,1.36,3.2,1.36,5a2.24,2.24,0,0,1-2.21,2.41c-1.09,0-1.63-.61-1.63-1.8s.27-2.21.27-3.33c0-2.21-.27-2.55-2.65-3.43-.17-.07-.1-.54.07-.51a13.45,13.45,0,0,0,1.39.17,1.59,1.59,0,0,0,1.53-1c.78-1,3.33-6.29,5.81-12,.07-.17.48,0,.41.17C22.53,13.46,21.27,17.44,20,21.42ZM21.27,6.7c-1,0-1.22-.48-1.94-2.07a7.27,7.27,0,0,0-2.41-3.06c-.14-.1,0-.27.14-.27,3.64.27,5.75,1.56,5.75,3.54C22.8,6.08,22,6.7,21.27,6.7Zm11.08,5.78H26.54a16.75,16.75,0,0,0-2.41.2l-.37-1.26a14.73,14.73,0,0,0,2.79.27h5.81V5.51a54.12,54.12,0,0,1-7.75.61c-.17,0-.17-.44,0-.48A53.51,53.51,0,0,0,36.4,2.18,16.84,16.84,0,0,0,40.21.07c2.14,1.67,3,2.45,3,2.82s-.27.54-1.7.37a42.53,42.53,0,0,1-6,1.67v6.77h4.76C42,9.62,42.38,9.35,42.62,9.35s.65.27,2.28,1.63c.71.61,1,.92,1,1.16s-.1.34-.44.34h-10v7h3.81c1.22-1.46,1.5-1.67,1.77-1.67s.61.2,1.87,1.22c.58.51.78.75.78,1s-.07.37-1,1.12v1.43c0,3.77.1,6.36.1,7.21s-.68,1.33-1.9,1.33c-1,0-1.36-.37-1.36-1.09V29h-11v1c0,.88-.65,1.29-1.84,1.29-.92,0-1.36-.27-1.36-1,0-1.12.14-2.35.14-6.93a52.55,52.55,0,0,0-.24-5.64,20,20,0,0,1,3.64,1.73h3.43Zm7.21,7.79h-11v8h11Z"/><path class="cls-4" d="M65.84,22.74H68c1.12-1.39,1.53-1.67,1.77-1.67s.68.27,1.77,1.16c.48.41.75.71.75,1s-.1.34-.44.34h-6v2.69c2.07-.24,4.22-.54,6.12-.92.17,0,.31.37.14.44-3.94,1.63-6.56,2.35-14.42,3.94-.2.88-.37,1.19-.71,1.19s-.61-.27-1.7-4c2,.07,3.57,0,4.69-.07,1-.07,1.94-.14,3-.24v-3H59a17.77,17.77,0,0,0-2.48.2l-.37-1.26a14.41,14.41,0,0,0,2.75.27h4V19.65H59.83c-.07.88-.54,1.22-1.56,1.22-.65,0-1.39-.17-1.39-1,0-1.53.07-3.64.07-5.54s0-3.54-.14-5.34A19.57,19.57,0,0,1,60,10.5H63V7.75H58.09a16.75,16.75,0,0,0-2.41.2L55.31,6.7A13.76,13.76,0,0,0,58,7h5V4.21c-1.9.17-4,.24-6.49.24-.17,0-.27-.44-.1-.48a40.06,40.06,0,0,0,9-2.18A17.83,17.83,0,0,0,69.18,0C71.18,1.5,72,2.35,72,2.65s-.48.41-1.63.2a34,34,0,0,1-4.56,1V7H69C70.4,5.3,70.81,5,71,5s.65.27,1.94,1.36c.54.48.82.78.82,1s-.1.34-.44.34H65.84V10.5h2.89c1.19-1.22,1.46-1.43,1.73-1.43s.61.2,1.8,1.16c.51.41.71.65.71.92s-.24.51-1,.92v7.21c0,1-.51,1.43-1.63,1.43-.92,0-1.33-.31-1.36-1.05h-3.2ZM63,14.55V11.29H59.83v3.26Zm0,4.32V15.33H59.83v3.54ZM69,14.55V11.29h-3.2v3.26Zm0,4.32V15.33h-3.2v3.54Zm10.61-8.7c-.85,12.44-3.77,17.37-11.39,21.38-.14.07-.34-.34-.2-.44,5.71-4.79,8.06-10.06,8.6-20.94h-.92a10.87,10.87,0,0,0-2.48.27l-.37-1.33a13.06,13.06,0,0,0,2.69.27h1.12q.1-2.45.1-5.3a25.21,25.21,0,0,0-.17-3.4c3.88.54,4.32.65,4.32,1.16s-.27.61-1,1c0,2.41-.1,4.59-.24,6.6h2.79c1.22-1.43,1.39-1.6,1.73-1.6s.65.2,1.8,1.29c.54.48.71.75.71,1s-.14.51-.92,1c-.1,8.19-.48,13.77-1.63,16.9a4.18,4.18,0,0,1-1.9,2.24,4.86,4.86,0,0,1-2.24.51c-.75,0-1-.14-1-.68C79,29,78.39,28.22,75.7,27.54c-.17,0-.14-.48,0-.48,2.31.2,3.54.27,4.49.27s1.09-.17,1.46-1.63C82.33,23,82.74,18,82.81,10.17Z"/><path class="cls-4" d="M120.79,15.3c2-2.45,2.38-2.72,2.62-2.72s.68.27,2.65,1.87c.92.75,1.19,1.05,1.19,1.29s-.1.34-.44.34H100.15a31.6,31.6,0,0,0-3.3.2L96.48,15a24.36,24.36,0,0,0,3.6.27Z"/><path class="cls-4" d="M145.61,25.05c0,.75-.58,1.12-1.56,1.12s-1.43-.34-1.43-1.12c0-1.29.17-2.58.17-7.79,0-1.29,0-2.62-.1-3.94,1.46.58,1.7.71,3.23,1.43h13.22c1.12-1.22,1.39-1.43,1.67-1.43s.61.2,1.8,1.19c.51.48.71.71.71,1s-.2.58-1,1v1.33c0,3.5.14,5.92.14,6.7,0,1-.65,1.36-1.87,1.36-.78,0-1.19-.27-1.22-1h-2.72v2.75c0,.88.51,1.05,3.77,1.05,2.38,0,3.3-.07,4.08-.61s1.16-1.53,2-3.84a.2.2,0,0,1,.37.07c0,.71-.1,1.73-.1,2.48,0,.48.27.71.78,1a1.25,1.25,0,0,1,.68,1.29c0,.85-.51,1.39-1.77,1.77a24.34,24.34,0,0,1-6.29.54c-5.41,0-6.6-.58-6.6-3.2V25h-5c2.55.82,2.89,1.09,2.89,1.46s-.44.61-1.33.65c-2.58,3.23-6.46,4.69-12.71,4.73-.17,0-.17-.41,0-.44,4.22-.85,7.07-2.38,8.81-4.28A6.77,6.77,0,0,0,147.62,25h-2Zm2.75-19.65c.75-1,1-1.16,1.29-1.16s.61.2,1.5.88c.37.31.58.54.58.82s-.1.34-.61.75v.51c0,1,0,1.39,0,1.67,0,.85-.48,1.16-1.73,1.16-.58,0-.88-.1-1-.82H147v2.65h1.12c1.05-1.26,1.46-1.53,1.7-1.53s.71.27,1.84,1.09c.51.37.78.65.78.88s-.1.34-.44.34H141.63v.44c0,.71-.61,1.09-1.7,1.09-.88,0-1.33-.31-1.33-1,0-1.22.14-2.45.14-7.41,0-1.8,0-3.64-.14-5.47A22.86,22.86,0,0,1,142,2h5.92c1.33-1.53,1.6-1.73,1.87-1.73s.65.2,1.84,1.19c.58.48.78.71.78,1s-.14.34-.51.34H147V5.41Zm-4-2.58h-2.75V5.41h2.75Zm-2.75,5.61h6.83V6.19h-6.83Zm2.75,3.43V9.21h-2.75v2.65Zm15,3.67h-13.8v2.28h13.8Zm-13.8,5.37h13.8V18.6h-13.8Zm13.8,3.26V21.69h-13.8v2.48ZM156,4a10.6,10.6,0,0,1-3.81,3.16c-.17.07-.37-.1-.27-.24a15.47,15.47,0,0,0,2.11-4.45A14.93,14.93,0,0,0,154.62.1c2.86,1,3.81,1.39,3.81,1.77s-.34.51-1.26.58c-.17.27-.37.54-.54.78h6.46c1.43-1.67,1.84-1.94,2.07-1.94s.65.27,2,1.36c.58.44.82.78.82,1s-.1.34-.44.34Zm-.58,8.74c-.1.65-.58,1-1.36,1S153,13.43,153,12.61c0-.54.07-1.09.07-3.26,0-.78,0-1.56-.1-2.38a21.8,21.8,0,0,1,2.69,1.39h8.26C164.85,7.24,165.12,7,165.4,7s.58.2,1.5,1c.37.34.58.61.58.88s-.2.54-.82.85v.44c0,1.16.07,2,.07,2.21,0,.88-.48,1.22-1.53,1.22-.71,0-1-.24-1-.92Zm5.95-6.87c1.09-1.29,1.5-1.56,1.73-1.56s.71.27,1.84,1.12c.48.37.75.65.75.88s-.1.34-.44.34h-7.82a12.79,12.79,0,0,0-2.11.2L155,5.61a11.7,11.7,0,0,0,2.48.27ZM155.5,9.14V12H157V9.14ZM159,12h1.56V9.14H159Zm5.17-2.82h-1.56V12h1.56Z"/></g></g></svg>