<?xml version="1.0" encoding="utf-8"?>
<!-- Generator: Adobe Illustrator 21.0.0, SVG Export Plug-In . SVG Version: 6.00 Build 0)  -->
<svg version="1.1" id="圖層_1" xmlns="http://www.w3.org/2000/svg" xmlns:xlink="http://www.w3.org/1999/xlink" x="0px" y="0px"
	 viewBox="0 0 1917.7 36.1" style="enable-background:new 0 0 1917.7 36.1;" xml:space="preserve">
<style type="text/css">
	.st0{fill:#F4F0E3;}
	.st1{fill:none;}
</style>
<title>資產 30</title>
<g id="圖層_2">
	<g id="圖層_1-2">
		<path class="st0" d="M29.3,8.6c-0.5,0-1,0.1-1.4,0.2c-1.7-3.5-5.3-5.7-9.2-5.8c-3.9,0.1-7.4,2.3-9.2,5.8C9,8.7,8.5,8.7,8,8.6
			c-4.4,0-8,3.9-8,8.7s3.6,8.7,8,8.7c1.8,0,3.6-0.6,5-1.8c3.4,2.4,8,2.4,11.4,0c1.4,1.2,3.1,1.8,4.9,1.8c4.4,0,8-3.9,8-8.7
			S33.8,8.6,29.3,8.6z M11.6,20.4c-0.2,0.2-0.7-0.2-2.1-0.9c-1.9-1-2.3-1-2.7-1.6c-0.5-0.8-0.5-1.9,0-2.7c0.7-0.6,1.8-0.6,2.5,0
			c0.4,0.2,0.6,0.5,1.7,3.2C11.6,19.9,11.7,20.3,11.6,20.4z M20,17.6c-0.8,2.3-1,2.8-1.3,2.8s-0.5-0.9-1.3-3.3
			c-1.1-3.2-1.5-3.6-1.3-4.7c0.2-1.3,1.3-2.8,2.6-2.8s2.3,1.6,2.6,2.8C21.4,13.1,21.4,13.6,20,17.6z M31,17.9
			c-0.2,0.4-0.5,0.6-2.9,1.8c-1.4,0.7-1.7,0.8-1.9,0.7s0.2-0.7,0.8-2.2c0.9-2.1,0.9-2.5,1.5-2.9c0.7-0.6,1.8-0.6,2.5,0
			C31.5,16.1,31.5,17.1,31,17.9z"/>
		<path class="st0" d="M684.2,8.5c-0.5,0-1,0.1-1.5,0.2c-2.5-5.2-8.7-7.3-13.9-4.8c-2.1,1-3.8,2.7-4.8,4.8c-0.5-0.1-1-0.1-1.5-0.2
			c-4.5,0-8.2,4-8.2,8.9s3.7,8.9,8.2,8.9c1.8,0,3.6-0.7,5-1.9c3.5,2.5,8.2,2.5,11.7,0c1.4,1.2,3.2,1.8,5,1.9c4.5,0,8.2-4,8.2-8.9
			S688.8,8.5,684.2,8.5z M666.2,20.5c-0.2,0.2-0.7-0.2-2.1-0.9c-2-1-2.4-1-2.8-1.6c-0.6-0.8-0.6-1.9,0-2.8c0.8-0.6,1.8-0.6,2.5,0
			c0.4,0.2,0.6,0.5,1.7,3.2C666.2,20,666.3,20.4,666.2,20.5L666.2,20.5z M674.8,17.7c-0.8,2.4-1,2.9-1.3,2.9s-0.5-1-1.3-3.4
			c-1.1-3.3-1.5-3.7-1.3-4.8c0.3-1.3,1.3-2.9,2.7-2.9s2.4,1.6,2.7,2.9C676.2,13.1,676.2,13.6,674.8,17.7L674.8,17.7z M686,18
			c-0.2,0.4-0.5,0.6-3,1.8c-1.4,0.7-1.8,0.9-1.9,0.7s0.2-0.7,0.8-2.3c0.9-2.1,0.9-2.6,1.5-3c0.7-0.6,1.8-0.6,2.5,0
			C686.5,16.1,686.5,17.2,686,18L686,18z"/>
		<path class="st0" d="M299.1,8.5c-0.5,0-1,0.1-1.5,0.2c-2.5-5.2-8.7-7.3-13.9-4.8c-2.1,1-3.8,2.7-4.8,4.8c-0.5-0.1-1-0.1-1.5-0.2
			c-4.5,0-8.2,4-8.2,8.9s3.7,8.9,8.2,8.9c1.8,0,3.6-0.7,5-1.9c3.5,2.5,8.2,2.5,11.7,0c1.4,1.2,3.2,1.8,5,1.9c4.5,0,8.2-4,8.2-8.9
			S303.6,8.5,299.1,8.5z M281.1,20.5c-0.2,0.2-0.7-0.2-2.1-0.9c-2-1-2.4-1-2.8-1.6c-0.6-0.8-0.6-1.9,0-2.8c0.8-0.6,1.8-0.6,2.5,0
			c0.4,0.2,0.6,0.5,1.7,3.2C281.1,20,281.2,20.4,281.1,20.5L281.1,20.5z M289.6,17.7c-0.8,2.4-1,2.9-1.3,2.9s-0.5-1-1.3-3.4
			c-1.1-3.3-1.5-3.7-1.3-4.8c0.3-1.3,1.3-2.9,2.7-2.9s2.4,1.6,2.7,2.9C291.1,13.1,291,13.6,289.6,17.7L289.6,17.7z M300.8,18
			c-0.2,0.4-0.5,0.6-3,1.8c-1.4,0.7-1.8,0.9-1.9,0.7s0.2-0.7,0.9-2.3c0.9-2.1,0.9-2.6,1.5-3c0.7-0.6,1.8-0.6,2.5,0
			C301.3,16.1,301.3,17.2,300.8,18L300.8,18z"/>
		<path class="st0" d="M645.7,8.5c-0.5,0-1,0.1-1.5,0.2c-2.5-5.2-8.7-7.3-13.9-4.8c-2.1,1-3.8,2.7-4.8,4.8c-0.5-0.1-1-0.1-1.5-0.2
			c-4.5,0-8.2,4-8.2,8.9s3.7,8.9,8.2,8.9c1.8,0,3.6-0.7,5-1.9c3.5,2.5,8.2,2.5,11.7,0c1.4,1.2,3.2,1.8,5,1.9c4.5,0,8.2-4,8.2-8.9
			S650.3,8.5,645.7,8.5z M627.7,20.5c-0.2,0.2-0.7-0.2-2.1-0.9c-2-1-2.4-1-2.8-1.6c-0.6-0.8-0.6-1.9,0-2.8c0.8-0.6,1.8-0.6,2.5,0
			c0.4,0.2,0.6,0.5,1.7,3.2C627.7,20,627.8,20.4,627.7,20.5L627.7,20.5z M636.3,17.7c-0.8,2.4-1,2.9-1.3,2.9s-0.5-1-1.3-3.4
			c-1.1-3.3-1.5-3.7-1.3-4.8c0.3-1.3,1.3-2.9,2.7-2.9s2.4,1.6,2.7,2.9C637.7,13.1,637.7,13.6,636.3,17.7L636.3,17.7z M647.5,18
			c-0.2,0.4-0.5,0.6-3,1.8c-1.4,0.7-1.8,0.9-1.9,0.7s0.2-0.7,0.8-2.3c0.9-2.1,0.9-2.6,1.5-3c0.7-0.6,1.8-0.6,2.5,0
			C648,16.1,648,17.2,647.5,18L647.5,18z"/>
		<path class="st0" d="M222.1,8.5c-0.5,0-1,0.1-1.5,0.2c-2.5-5.2-8.7-7.3-13.9-4.8c-2.1,1-3.8,2.7-4.8,4.8c-0.5-0.1-1-0.1-1.5-0.2
			c-4.5,0-8.2,4-8.2,8.9s3.7,8.9,8.2,8.9c1.8,0,3.6-0.7,5-1.9c3.5,2.5,8.2,2.5,11.7,0c1.4,1.2,3.2,1.8,5,1.9c4.5,0,8.2-4,8.2-8.9
			S226.6,8.5,222.1,8.5z M204.1,20.5c-0.2,0.2-0.7-0.2-2.1-0.9c-2-1-2.4-1-2.8-1.6c-0.6-0.8-0.6-1.9,0-2.8c0.8-0.6,1.8-0.6,2.6,0
			c0.4,0.2,0.6,0.5,1.7,3.2C204,20,204.2,20.4,204.1,20.5L204.1,20.5z M212.6,17.7c-0.8,2.4-1,2.9-1.3,2.9s-0.5-1-1.3-3.4
			c-1.1-3.3-1.5-3.7-1.3-4.8c0.3-1.3,1.3-2.9,2.7-2.9s2.4,1.6,2.7,2.9C214.1,13.1,214,13.6,212.6,17.7L212.6,17.7z M223.8,18
			c-0.2,0.4-0.5,0.6-3,1.8c-1.4,0.7-1.8,0.9-1.9,0.7s0.2-0.7,0.9-2.3c0.9-2.1,0.9-2.6,1.5-3c0.7-0.6,1.8-0.6,2.6,0
			C224.3,16.1,224.3,17.2,223.8,18L223.8,18z"/>
		<path class="st0" d="M607.2,8.5c-0.5,0-1,0.1-1.5,0.2c-2.5-5.2-8.7-7.3-13.9-4.8c-2.1,1-3.8,2.7-4.8,4.8c-0.5-0.1-1-0.1-1.5-0.2
			c-4.5,0-8.2,4-8.2,8.9s3.7,8.9,8.2,8.9c1.8,0,3.6-0.7,5-1.9c3.5,2.5,8.2,2.5,11.7,0c1.4,1.2,3.2,1.8,5,1.9c4.5,0,8.2-4,8.2-8.9
			S611.7,8.5,607.2,8.5z M589.2,20.5c-0.2,0.2-0.7-0.2-2.1-0.9c-2-1-2.4-1-2.8-1.6c-0.6-0.8-0.6-1.9,0-2.8c0.8-0.6,1.8-0.6,2.5,0
			c0.4,0.2,0.6,0.5,1.7,3.2C589.2,20,589.3,20.4,589.2,20.5L589.2,20.5z M597.8,17.7c-0.8,2.4-1,2.9-1.3,2.9s-0.5-1-1.3-3.4
			c-1.1-3.3-1.5-3.7-1.3-4.8c0.3-1.3,1.3-2.9,2.7-2.9s2.4,1.6,2.7,2.9C599.2,13.1,599.1,13.6,597.8,17.7L597.8,17.7z M609,18
			c-0.2,0.4-0.5,0.6-3,1.8c-1.4,0.7-1.8,0.9-1.9,0.7s0.2-0.7,0.8-2.3c0.9-2.1,0.9-2.6,1.5-3c0.7-0.6,1.8-0.6,2.5,0
			C609.5,16.1,609.4,17.2,609,18L609,18z"/>
		<path class="st0" d="M183.6,8.5c-0.5,0-1,0.1-1.5,0.2c-2.5-5.2-8.7-7.3-13.9-4.8c-2.1,1-3.8,2.7-4.8,4.8c-0.5-0.1-1-0.1-1.5-0.2
			c-4.5,0-8.2,4-8.2,8.9s3.7,8.9,8.2,8.9c1.8,0,3.6-0.7,5-1.9c3.5,2.5,8.2,2.5,11.7,0c1.4,1.2,3.2,1.8,5,1.9c4.5,0,8.2-4,8.2-8.9
			S188.1,8.5,183.6,8.5z M165.6,20.5c-0.2,0.2-0.7-0.2-2.1-0.9c-2-1-2.4-1-2.8-1.6c-0.6-0.8-0.6-1.9,0-2.8c0.8-0.6,1.8-0.6,2.6,0
			c0.4,0.2,0.6,0.5,1.7,3.2C165.5,20,165.7,20.4,165.6,20.5L165.6,20.5z M174.1,17.7c-0.8,2.4-1,2.9-1.3,2.9s-0.5-1-1.3-3.4
			c-1.1-3.3-1.5-3.7-1.3-4.8c0.3-1.3,1.3-2.9,2.7-2.9s2.4,1.6,2.7,2.9C175.5,13.1,175.5,13.6,174.1,17.7L174.1,17.7z M185.3,18
			c-0.2,0.4-0.5,0.6-3,1.8c-1.4,0.7-1.8,0.9-1.9,0.7s0.2-0.7,0.9-2.3c0.9-2.1,0.9-2.6,1.5-3c0.7-0.6,1.8-0.6,2.6,0
			C185.8,16.1,185.8,17.2,185.3,18L185.3,18z"/>
		<path class="st0" d="M530.2,8.5c-0.5,0-1,0.1-1.5,0.2c-2.5-5.2-8.7-7.3-13.9-4.8c-2.1,1-3.8,2.7-4.8,4.8c-0.5-0.1-1-0.1-1.5-0.2
			c-4.5,0-8.2,4-8.2,8.9s3.7,8.9,8.2,8.9c1.8,0,3.6-0.7,5-1.9c3.5,2.5,8.2,2.5,11.7,0c1.4,1.2,3.2,1.8,5,1.9c4.5,0,8.2-4,8.2-8.9
			S534.7,8.5,530.2,8.5z M512.2,20.5c-0.2,0.2-0.7-0.2-2.1-0.9c-2-1-2.4-1-2.8-1.6c-0.6-0.8-0.6-1.9,0-2.8c0.8-0.6,1.8-0.6,2.5,0
			c0.4,0.2,0.6,0.5,1.7,3.2C512.2,20,512.3,20.4,512.2,20.5L512.2,20.5z M520.7,17.7c-0.8,2.4-1,2.9-1.3,2.9s-0.5-1-1.3-3.4
			c-1.1-3.3-1.5-3.7-1.3-4.8c0.3-1.3,1.3-2.9,2.7-2.9s2.4,1.6,2.7,2.9C522.2,13.1,522.1,13.6,520.7,17.7L520.7,17.7z M531.9,18
			c-0.2,0.4-0.5,0.6-3,1.8c-1.4,0.7-1.8,0.9-1.9,0.7s0.2-0.7,0.8-2.3c0.9-2.1,0.9-2.6,1.5-3c0.7-0.6,1.8-0.6,2.5,0
			C532.4,16.1,532.4,17.2,531.9,18L531.9,18z"/>
		<path class="st0" d="M145,8.5c-0.5,0-1,0.1-1.5,0.2c-2.5-5.2-8.7-7.3-13.9-4.8c-2.1,1-3.8,2.7-4.8,4.8c-0.5-0.1-1-0.1-1.5-0.2
			c-4.5,0-8.2,4-8.2,8.9s3.7,8.9,8.2,8.9c1.8,0,3.6-0.7,5-1.9c3.5,2.5,8.2,2.5,11.7,0c1.4,1.2,3.2,1.8,5,1.9c4.5,0,8.2-4,8.2-8.9
			S149.6,8.5,145,8.5z M127,20.5c-0.2,0.2-0.7-0.2-2.1-0.9c-2-1-2.4-1-2.8-1.6c-0.6-0.8-0.6-1.9,0-2.8c0.8-0.6,1.8-0.6,2.6,0
			c0.4,0.2,0.6,0.5,1.7,3.2C127,20,127.2,20.4,127,20.5L127,20.5z M135.6,17.7c-0.8,2.4-1,2.9-1.3,2.9s-0.5-1-1.3-3.4
			c-1.1-3.3-1.5-3.7-1.3-4.8c0.3-1.3,1.3-2.9,2.7-2.9s2.4,1.6,2.7,2.9C137,13.1,137,13.6,135.6,17.7L135.6,17.7z M146.7,18
			c-0.2,0.4-0.5,0.6-3,1.8c-1.4,0.7-1.8,0.9-1.9,0.7s0.2-0.7,0.9-2.3c0.9-2.1,0.9-2.6,1.5-3c0.7-0.6,1.8-0.6,2.6,0
			C147.3,16.1,147.3,17.1,146.7,18L146.7,18z"/>
		<path class="st0" d="M453.2,8.5c-0.5,0-1,0.1-1.5,0.2c-2.5-5.2-8.7-7.3-13.9-4.8c-2.1,1-3.8,2.7-4.8,4.8c-0.5-0.1-1-0.1-1.5-0.2
			c-4.5,0-8.2,4-8.2,8.9s3.7,8.9,8.2,8.9c1.8,0,3.6-0.7,5-1.9c3.5,2.5,8.2,2.5,11.7,0c1.4,1.2,3.2,1.8,5,1.9c4.5,0,8.2-4,8.2-8.9
			S457.7,8.5,453.2,8.5z M435.2,20.5c-0.2,0.2-0.7-0.2-2.1-0.9c-2-1-2.4-1-2.8-1.6c-0.6-0.8-0.6-1.9,0-2.8c0.8-0.6,1.8-0.6,2.5,0
			c0.4,0.2,0.6,0.5,1.7,3.2C435.1,20,435.3,20.4,435.2,20.5L435.2,20.5z M443.7,17.7c-0.8,2.4-1,2.9-1.3,2.9s-0.5-1-1.3-3.4
			c-1.1-3.3-1.5-3.7-1.3-4.8c0.3-1.3,1.3-2.9,2.7-2.9s2.4,1.6,2.7,2.9C445.1,13.1,445.1,13.6,443.7,17.7L443.7,17.7z M454.9,18
			c-0.2,0.4-0.5,0.6-3,1.8c-1.4,0.7-1.8,0.9-1.9,0.7s0.2-0.7,0.9-2.3c0.9-2.1,0.9-2.6,1.5-3c0.7-0.6,1.8-0.6,2.5,0
			C455.4,16.1,455.4,17.2,454.9,18L454.9,18z"/>
		<path class="st0" d="M106.5,8.5c-0.5,0-1,0.1-1.5,0.2c-2.5-5.2-8.7-7.3-13.9-4.8c-2.1,1-3.8,2.7-4.8,4.8c-0.5-0.1-1-0.1-1.5-0.2
			c-4.5,0-8.2,4-8.2,8.9s3.7,8.9,8.2,8.9c1.8,0,3.6-0.7,5-1.9c3.5,2.5,8.2,2.5,11.7,0c1.4,1.2,3.2,1.8,5,1.9c4.5,0,8.2-4,8.2-8.9
			S111.1,8.5,106.5,8.5z M88.5,20.5c-0.2,0.2-0.7-0.2-2.1-0.9c-2-1-2.4-1-2.8-1.6c-0.6-0.8-0.6-1.9,0-2.8c0.8-0.6,1.8-0.6,2.6,0
			c0.4,0.2,0.6,0.5,1.7,3.2C88.5,20,88.6,20.4,88.5,20.5L88.5,20.5z M97,17.7c-0.8,2.4-1,2.9-1.3,2.9s-0.5-1-1.3-3.4
			c-1.1-3.3-1.5-3.7-1.3-4.8c0.3-1.3,1.3-2.9,2.7-2.9s2.4,1.6,2.7,2.9C98.5,13.1,98.4,13.6,97,17.7z M108.2,18
			c-0.2,0.4-0.5,0.6-3,1.8c-1.4,0.7-1.8,0.9-1.9,0.7s0.2-0.7,0.8-2.3c0.9-2.1,0.9-2.6,1.5-3c0.7-0.6,1.8-0.6,2.6,0
			C108.7,16.1,108.7,17.1,108.2,18L108.2,18z"/>
		<path class="st0" d="M376.1,8.5c-0.5,0-1,0.1-1.5,0.2c-2.5-5.2-8.7-7.3-13.9-4.8c-2.1,1-3.8,2.7-4.8,4.8c-0.5-0.1-1-0.1-1.5-0.2
			c-4.5,0-8.2,4-8.2,8.9s3.7,8.9,8.2,8.9c1.8,0,3.6-0.7,5-1.9c3.5,2.5,8.2,2.5,11.7,0c1.4,1.2,3.2,1.8,5,1.9c4.5,0,8.2-4,8.2-8.9
			S380.7,8.5,376.1,8.5z M358.1,20.5c-0.2,0.2-0.7-0.2-2.1-0.9c-2-1-2.4-1-2.8-1.6c-0.6-0.8-0.6-1.9,0-2.8c0.8-0.6,1.8-0.6,2.5,0
			c0.4,0.2,0.6,0.5,1.7,3.2C358.1,20,358.2,20.4,358.1,20.5L358.1,20.5z M366.7,17.7c-0.8,2.4-1,2.9-1.3,2.9s-0.5-1-1.3-3.4
			c-1.1-3.3-1.5-3.7-1.3-4.8c0.3-1.3,1.3-2.9,2.7-2.9s2.4,1.6,2.7,2.9C368.1,13.1,368,13.6,366.7,17.7L366.7,17.7z M377.9,18
			c-0.2,0.4-0.5,0.6-3,1.8c-1.4,0.7-1.8,0.9-1.9,0.7s0.2-0.7,0.9-2.3c0.9-2.1,0.9-2.6,1.5-3c0.7-0.6,1.8-0.6,2.5,0
			C378.4,16.1,378.4,17.2,377.9,18L377.9,18z"/>
		<path class="st0" d="M68,8.5c-0.5,0-1,0.1-1.5,0.2C64,3.5,57.8,1.4,52.6,3.9c-2.1,1-3.8,2.7-4.8,4.8c-0.5-0.1-1-0.1-1.5-0.2
			c-4.5,0-8.2,4-8.2,8.9s3.7,8.9,8.2,8.9c1.8,0,3.6-0.7,5-1.9c3.5,2.5,8.2,2.5,11.7,0c1.4,1.2,3.2,1.8,5,1.9c4.5,0,8.2-4,8.2-8.9
			S72.5,8.5,68,8.5z M50,20.5c-0.2,0.2-0.7-0.2-2.1-0.9c-2-1-2.4-1-2.8-1.6c-0.6-0.8-0.6-1.9,0-2.8c0.8-0.6,1.8-0.6,2.5,0
			c0.4,0.2,0.6,0.5,1.7,3.2C50,20,50.1,20.4,50,20.5L50,20.5z M58.5,17.7c-0.8,2.4-1,2.9-1.3,2.9s-0.5-1-1.3-3.4
			c-1.1-3.3-1.5-3.7-1.3-4.8c0.3-1.3,1.3-2.9,2.7-2.9s2.4,1.6,2.7,2.9C60,13.1,59.9,13.6,58.5,17.7L58.5,17.7z M69.7,18
			c-0.2,0.4-0.5,0.6-3,1.8c-1.4,0.7-1.8,0.9-1.9,0.7s0.2-0.7,0.8-2.3c0.9-2.1,0.9-2.6,1.5-3c0.7-0.6,1.8-0.6,2.6,0
			C70.2,16.1,70.2,17.2,69.7,18L69.7,18z"/>
		<path class="st0" d="M568.7,8.5c-0.5,0-1,0.1-1.5,0.2c-2.5-5.2-8.7-7.3-13.9-4.8c-2.1,1-3.8,2.7-4.8,4.8c-0.5-0.1-1-0.1-1.5-0.2
			c-4.5,0-8.2,4-8.2,8.9s3.7,8.9,8.2,8.9c1.8,0,3.6-0.7,5-1.9c3.5,2.5,8.2,2.5,11.7,0c1.4,1.2,3.2,1.8,5,1.9c4.5,0,8.2-4,8.2-8.9
			S573.2,8.5,568.7,8.5z M550.7,20.5c-0.2,0.2-0.7-0.2-2.1-0.9c-2-1-2.4-1-2.8-1.6c-0.6-0.8-0.6-1.9,0-2.8c0.8-0.6,1.8-0.6,2.5,0
			c0.4,0.2,0.6,0.5,1.7,3.2C550.7,20,550.8,20.4,550.7,20.5L550.7,20.5z M559.2,17.7c-0.8,2.4-1,2.9-1.3,2.9s-0.5-1-1.3-3.4
			c-1.1-3.3-1.5-3.7-1.3-4.8c0.3-1.3,1.3-2.9,2.7-2.9s2.4,1.6,2.7,2.9C560.7,13.1,560.6,13.6,559.2,17.7L559.2,17.7z M570.4,18
			c-0.2,0.4-0.5,0.6-3,1.8c-1.4,0.7-1.8,0.9-1.9,0.7s0.2-0.7,0.8-2.3c0.9-2.1,0.9-2.6,1.5-3c0.7-0.6,1.8-0.6,2.5,0
			C570.9,16.1,570.9,17.2,570.4,18L570.4,18z"/>
		<path class="st0" d="M491.7,8.5c-0.5,0-1,0.1-1.5,0.2c-2.5-5.2-8.7-7.3-13.9-4.8c-2.1,1-3.8,2.7-4.8,4.8c-0.5-0.1-1-0.1-1.5-0.2
			c-4.5,0-8.2,4-8.2,8.9s3.7,8.9,8.2,8.9c1.8,0,3.6-0.7,5-1.9c3.5,2.5,8.2,2.5,11.7,0c1.4,1.2,3.2,1.8,5,1.9c4.5,0,8.2-4,8.2-8.9
			S496.2,8.5,491.7,8.5z M473.7,20.5c-0.2,0.2-0.7-0.2-2.1-0.9c-2-1-2.4-1-2.8-1.6c-0.6-0.8-0.6-1.9,0-2.8c0.8-0.6,1.8-0.6,2.5,0
			c0.4,0.2,0.6,0.5,1.7,3.2C473.6,20,473.8,20.4,473.7,20.5L473.7,20.5z M482.2,17.7c-0.8,2.4-1,2.9-1.3,2.9s-0.5-1-1.3-3.4
			c-1.1-3.3-1.5-3.7-1.3-4.8c0.3-1.3,1.3-2.9,2.7-2.9s2.4,1.6,2.7,2.9C483.7,13.1,483.6,13.6,482.2,17.7L482.2,17.7z M493.4,18
			c-0.2,0.4-0.5,0.6-3,1.8c-1.4,0.7-1.8,0.9-1.9,0.7s0.2-0.7,0.9-2.3c0.9-2.1,0.9-2.6,1.5-3c0.7-0.6,1.8-0.6,2.5,0
			C493.9,16.1,493.9,17.2,493.4,18L493.4,18z"/>
		<path class="st0" d="M414.6,8.5c-0.5,0-1,0.1-1.5,0.2c-2.5-5.2-8.7-7.3-13.9-4.8c-2.1,1-3.8,2.7-4.8,4.8c-0.5-0.1-1-0.1-1.5-0.2
			c-4.5,0-8.2,4-8.2,8.9s3.7,8.9,8.2,8.9c1.8,0,3.6-0.7,5-1.9c3.5,2.5,8.2,2.5,11.7,0c1.4,1.2,3.2,1.8,5,1.9c4.5,0,8.2-4,8.2-8.9
			S419.2,8.5,414.6,8.5z M396.6,20.5c-0.2,0.2-0.7-0.2-2.1-0.9c-2-1-2.4-1-2.8-1.6c-0.6-0.8-0.6-1.9,0-2.8c0.8-0.6,1.8-0.6,2.5,0
			c0.4,0.2,0.6,0.5,1.7,3.2C396.6,20,396.8,20.4,396.6,20.5L396.6,20.5z M405.2,17.7c-0.8,2.4-1,2.9-1.3,2.9s-0.5-1-1.3-3.4
			c-1.1-3.3-1.5-3.7-1.3-4.8c0.3-1.3,1.3-2.9,2.7-2.9s2.4,1.6,2.7,2.9C406.6,13.1,406.6,13.6,405.2,17.7L405.2,17.7z M416.4,18
			c-0.2,0.4-0.5,0.6-3,1.8c-1.4,0.7-1.8,0.9-1.9,0.7s0.2-0.7,0.9-2.3c0.9-2.1,0.9-2.6,1.5-3c0.7-0.6,1.8-0.6,2.5,0
			C416.9,16.1,416.9,17.2,416.4,18L416.4,18z"/>
		<path class="st0" d="M337.6,8.5c-0.5,0-1,0.1-1.5,0.2c-2.5-5.2-8.7-7.3-13.9-4.8c-2.1,1-3.8,2.7-4.8,4.8c-0.5-0.1-0.9-0.1-1.4-0.2
			c-4.5,0-8.2,4-8.2,8.9s3.7,8.9,8.2,8.9c1.8,0,3.6-0.7,5-1.9c3.5,2.5,8.2,2.5,11.7,0c1.4,1.2,3.2,1.8,5,1.9c4.5,0,8.2-4,8.2-8.9
			S342.1,8.5,337.6,8.5z M319.6,20.5c-0.2,0.2-0.7-0.2-2.1-0.9c-2-1-2.4-1-2.8-1.6c-0.6-0.8-0.6-1.9,0-2.8c0.8-0.6,1.8-0.6,2.5,0
			c0.4,0.2,0.6,0.5,1.7,3.2C319.6,20,319.7,20.4,319.6,20.5L319.6,20.5z M328.2,17.7c-0.8,2.4-1,2.9-1.3,2.9s-0.5-1-1.3-3.4
			c-1.1-3.3-1.5-3.7-1.3-4.8c0.3-1.3,1.3-2.9,2.7-2.9s2.4,1.6,2.7,2.9C329.6,13.1,329.5,13.6,328.2,17.7L328.2,17.7z M339.4,18
			c-0.2,0.4-0.5,0.6-3,1.8c-1.4,0.7-1.8,0.9-1.9,0.7s0.2-0.7,0.9-2.3c0.9-2.1,0.9-2.6,1.5-3c0.7-0.6,1.8-0.6,2.5,0
			C339.9,16.1,339.8,17.2,339.4,18L339.4,18z"/>
		<path class="st0" d="M260.6,8.5c-0.5,0-1,0.1-1.5,0.2c-2.5-5.2-8.7-7.3-13.9-4.8c-2.1,1-3.8,2.7-4.8,4.8c-0.5-0.1-1-0.1-1.5-0.2
			c-4.5,0-8.2,4-8.2,8.9s3.7,8.9,8.2,8.9c1.8,0,3.6-0.7,5-1.9c3.5,2.5,8.2,2.5,11.7,0c1.4,1.2,3.2,1.8,5,1.9c4.5,0,8.2-4,8.2-8.9
			S265.1,8.5,260.6,8.5z M242.6,20.5c-0.2,0.2-0.7-0.2-2.1-0.9c-2-1-2.4-1-2.8-1.6c-0.6-0.8-0.6-1.9,0-2.8c0.8-0.6,1.8-0.6,2.6,0
			c0.4,0.2,0.6,0.5,1.7,3.2C242.6,20,242.7,20.4,242.6,20.5L242.6,20.5z M251.1,17.7c-0.8,2.4-1,2.9-1.3,2.9s-0.5-1-1.3-3.4
			c-1.1-3.3-1.5-3.7-1.3-4.8c0.3-1.3,1.3-2.9,2.7-2.9s2.4,1.6,2.7,2.9C252.6,13.1,252.5,13.6,251.1,17.7L251.1,17.7z M262.3,18
			c-0.2,0.4-0.5,0.6-3,1.8c-1.4,0.7-1.8,0.9-1.9,0.7s0.2-0.7,0.9-2.3c0.9-2.1,0.9-2.6,1.5-3c0.7-0.6,1.8-0.6,2.5,0
			C262.8,16.1,262.8,17.2,262.3,18L262.3,18z"/>
		<rect y="24.1" class="st0" width="689.3" height="5.4"/>
		<path class="st0" d="M718.3,8.6c-0.5,0-1,0.1-1.4,0.1c-2.5-5.1-8.6-7.2-13.7-4.7c-2,1-3.7,2.7-4.7,4.7c-0.5-0.1-1-0.2-1.5-0.1
			c-4.4,0-8,3.9-8,8.7s3.6,8.7,8,8.7c1.8,0,3.6-0.6,5-1.8c3.4,2.4,8,2.4,11.4,0c1.4,1.2,3.1,1.8,4.9,1.8c4.4,0,8-3.9,8-8.7
			S722.8,8.6,718.3,8.6z M700.6,20.4c-0.2,0.2-0.7-0.2-2.1-0.9c-2-1-2.3-1-2.7-1.6c-0.5-0.8-0.5-1.9,0-2.7c0.7-0.6,1.8-0.6,2.5,0
			c0.4,0.2,0.5,0.5,1.7,3.2C700.6,19.9,700.7,20.3,700.6,20.4z M709,17.7c-0.8,2.3-1,2.8-1.3,2.8s-0.5-0.9-1.3-3.3
			c-1.1-3.2-1.5-3.6-1.3-4.7c0.2-1.3,1.3-2.8,2.6-2.8s2.3,1.6,2.6,2.8C710.4,13.1,710.4,13.6,709,17.7L709,17.7z M720,17.9
			c-0.2,0.4-0.5,0.6-2.9,1.8c-1.4,0.7-1.7,0.8-1.9,0.7s0.2-0.7,0.8-2.2c0.9-2.1,0.9-2.5,1.5-2.9c0.7-0.6,1.8-0.6,2.5,0
			C720.5,16.1,720.5,17.1,720,17.9L720,17.9z"/>
		<path class="st0" d="M1373.2,8.5c-0.5,0-1,0.1-1.5,0.2c-2.5-5.2-8.7-7.3-13.9-4.8c-2.1,1-3.8,2.7-4.8,4.8c-0.5-0.1-1-0.1-1.5-0.2
			c-4.5,0-8.2,4-8.2,8.9s3.7,8.9,8.2,8.9c1.8,0,3.6-0.7,5-1.9c3.5,2.5,8.2,2.5,11.7,0c1.4,1.2,3.2,1.8,5,1.9c4.5,0,8.2-4,8.2-8.9
			S1377.8,8.5,1373.2,8.5z M1355.2,20.5c-0.2,0.2-0.7-0.2-2.1-0.9c-2-1-2.4-1-2.8-1.6c-0.6-0.8-0.6-1.9,0-2.8c0.8-0.6,1.8-0.6,2.6,0
			c0.4,0.2,0.6,0.5,1.7,3.2C1355.2,20,1355.3,20.4,1355.2,20.5L1355.2,20.5z M1363.8,17.7c-0.8,2.4-1,2.9-1.3,2.9s-0.5-1-1.3-3.4
			c-1.1-3.3-1.5-3.7-1.3-4.8c0.3-1.3,1.3-2.9,2.7-2.9s2.4,1.6,2.7,2.9C1365.2,13.1,1365.2,13.6,1363.8,17.7L1363.8,17.7z M1375,18
			c-0.2,0.4-0.5,0.6-3,1.8c-1.4,0.7-1.8,0.9-1.9,0.7s0.2-0.7,0.8-2.3c0.9-2.1,0.9-2.6,1.5-3c0.7-0.6,1.8-0.6,2.6,0
			C1375.5,16.1,1375.5,17.2,1375,18L1375,18z"/>
		<path class="st0" d="M988.1,8.5c-0.5,0-1,0.1-1.5,0.2c-2.5-5.2-8.7-7.3-13.9-4.8c-2.1,1-3.8,2.7-4.8,4.8c-0.5-0.1-1-0.1-1.5-0.2
			c-4.5,0-8.2,4-8.2,8.9s3.7,8.9,8.2,8.9c1.8,0,3.6-0.7,5-1.9c3.5,2.5,8.2,2.5,11.7,0c1.4,1.2,3.2,1.8,5,1.9c4.5,0,8.2-4,8.2-8.9
			S992.6,8.5,988.1,8.5z M970.1,20.5c-0.2,0.2-0.7-0.2-2.1-0.9c-2-1-2.4-1-2.8-1.6c-0.6-0.8-0.6-1.9,0-2.8c0.8-0.6,1.8-0.6,2.5,0
			c0.4,0.2,0.6,0.5,1.7,3.2C970.1,20,970.2,20.4,970.1,20.5L970.1,20.5z M978.6,17.7c-0.8,2.4-1,2.9-1.3,2.9s-0.5-1-1.3-3.4
			c-1.1-3.3-1.5-3.7-1.3-4.8c0.3-1.3,1.3-2.9,2.7-2.9s2.4,1.6,2.7,2.9C980.1,13.1,980,13.6,978.6,17.7L978.6,17.7z M989.8,18
			c-0.2,0.4-0.5,0.6-3,1.8c-1.4,0.7-1.8,0.9-1.9,0.7s0.2-0.7,0.8-2.3c0.9-2.1,0.9-2.6,1.5-3c0.7-0.6,1.8-0.6,2.5,0
			C990.3,16.1,990.3,17.2,989.8,18L989.8,18z"/>
		<path class="st0" d="M1334.7,8.5c-0.5,0-1,0.1-1.5,0.2c-2.5-5.2-8.7-7.3-13.9-4.8c-2.1,1-3.8,2.7-4.8,4.8c-0.5-0.1-1-0.1-1.5-0.2
			c-4.5,0-8.2,4-8.2,8.9s3.7,8.9,8.2,8.9c1.8,0,3.6-0.7,5-1.9c3.5,2.5,8.2,2.5,11.7,0c1.4,1.2,3.2,1.8,5,1.9c4.5,0,8.2-4,8.2-8.9
			S1339.3,8.5,1334.7,8.5z M1316.7,20.5c-0.2,0.2-0.7-0.2-2.1-0.9c-2-1-2.4-1-2.8-1.6c-0.6-0.8-0.6-1.9,0-2.8c0.8-0.6,1.8-0.6,2.6,0
			c0.4,0.2,0.6,0.5,1.7,3.2C1316.7,20,1316.8,20.4,1316.7,20.5L1316.7,20.5z M1325.3,17.7c-0.8,2.4-1,2.9-1.3,2.9s-0.5-1-1.3-3.4
			c-1.1-3.3-1.5-3.7-1.3-4.8c0.3-1.3,1.3-2.9,2.7-2.9s2.4,1.6,2.7,2.9C1326.7,13.1,1326.7,13.6,1325.3,17.7L1325.3,17.7z M1336.5,18
			c-0.2,0.4-0.5,0.6-3,1.8c-1.4,0.7-1.8,0.9-1.9,0.7s0.2-0.7,0.8-2.3c0.9-2.1,0.9-2.6,1.5-3c0.7-0.6,1.8-0.6,2.6,0
			C1337,16.1,1337,17.2,1336.5,18L1336.5,18z"/>
		<path class="st0" d="M911.1,8.5c-0.5,0-1,0.1-1.5,0.2c-2.5-5.2-8.7-7.3-13.9-4.8c-2.1,1-3.8,2.7-4.8,4.8c-0.5-0.1-1-0.1-1.5-0.2
			c-4.5,0-8.2,4-8.2,8.9s3.7,8.9,8.2,8.9c1.8,0,3.6-0.7,5-1.9c3.5,2.5,8.2,2.5,11.7,0c1.4,1.2,3.2,1.8,5,1.9c4.5,0,8.2-4,8.2-8.9
			S915.6,8.5,911.1,8.5z M893.1,20.5c-0.2,0.2-0.7-0.2-2.1-0.9c-2-1-2.4-1-2.8-1.6c-0.6-0.8-0.6-1.9,0-2.8c0.8-0.6,1.8-0.6,2.5,0
			c0.4,0.2,0.6,0.5,1.7,3.2C893,20,893.2,20.4,893.1,20.5L893.1,20.5z M901.6,17.7c-0.8,2.4-1,2.9-1.3,2.9s-0.5-1-1.3-3.4
			c-1.1-3.3-1.5-3.7-1.3-4.8c0.3-1.3,1.3-2.9,2.7-2.9s2.4,1.6,2.7,2.9C903.1,13.1,903,13.6,901.6,17.7L901.6,17.7z M912.8,18
			c-0.2,0.4-0.5,0.6-3,1.8c-1.4,0.7-1.8,0.9-1.9,0.7s0.2-0.7,0.8-2.3c0.9-2.1,0.9-2.6,1.5-3c0.7-0.6,1.8-0.6,2.5,0
			C913.3,16.1,913.3,17.2,912.8,18L912.8,18z"/>
		<path class="st0" d="M1296.2,8.5c-0.5,0-1,0.1-1.5,0.2c-2.5-5.2-8.7-7.3-13.9-4.8c-2.1,1-3.8,2.7-4.8,4.8c-0.5-0.1-1-0.1-1.5-0.2
			c-4.5,0-8.2,4-8.2,8.9s3.7,8.9,8.2,8.9c1.8,0,3.6-0.7,5-1.9c3.5,2.5,8.2,2.5,11.7,0c1.4,1.2,3.2,1.8,5,1.9c4.5,0,8.2-4,8.2-8.9
			S1300.7,8.5,1296.2,8.5z M1278.2,20.5c-0.2,0.2-0.7-0.2-2.1-0.9c-2-1-2.4-1-2.8-1.6c-0.6-0.8-0.6-1.9,0-2.8c0.8-0.6,1.8-0.6,2.6,0
			c0.4,0.2,0.6,0.5,1.7,3.2C1278.2,20,1278.3,20.4,1278.2,20.5L1278.2,20.5z M1286.8,17.7c-0.8,2.4-1,2.9-1.3,2.9s-0.5-1-1.3-3.4
			c-1.1-3.3-1.5-3.7-1.3-4.8c0.3-1.3,1.3-2.9,2.7-2.9s2.4,1.6,2.7,2.9C1288.2,13.1,1288.1,13.6,1286.8,17.7L1286.8,17.7z M1298,18
			c-0.2,0.4-0.5,0.6-3,1.8c-1.4,0.7-1.8,0.9-1.9,0.7s0.2-0.7,0.8-2.3c0.9-2.1,0.9-2.6,1.5-3c0.7-0.6,1.8-0.6,2.6,0
			C1298.5,16.1,1298.4,17.2,1298,18L1298,18z"/>
		<path class="st0" d="M872.6,8.5c-0.5,0-1,0.1-1.5,0.2c-2.5-5.2-8.7-7.3-13.9-4.8c-2.1,1-3.8,2.7-4.8,4.8c-0.5-0.1-1-0.1-1.5-0.2
			c-4.5,0-8.2,4-8.2,8.9s3.7,8.9,8.2,8.9c1.8,0,3.6-0.7,5-1.9c3.5,2.5,8.2,2.5,11.7,0c1.4,1.2,3.2,1.8,5,1.9c4.5,0,8.2-4,8.2-8.9
			S877.1,8.5,872.6,8.5z M854.6,20.5c-0.2,0.2-0.7-0.2-2.1-0.9c-2-1-2.4-1-2.8-1.6c-0.6-0.8-0.6-1.9,0-2.8c0.8-0.6,1.8-0.6,2.5,0
			c0.4,0.2,0.6,0.5,1.7,3.2C854.5,20,854.7,20.4,854.6,20.5L854.6,20.5z M863.1,17.7c-0.8,2.4-1,2.9-1.3,2.9s-0.5-1-1.3-3.4
			c-1.1-3.3-1.5-3.7-1.3-4.8c0.3-1.3,1.3-2.9,2.7-2.9s2.4,1.6,2.7,2.9C864.5,13.1,864.5,13.6,863.1,17.7L863.1,17.7z M874.3,18
			c-0.2,0.4-0.5,0.6-3,1.8c-1.4,0.7-1.8,0.9-1.9,0.7s0.2-0.7,0.8-2.3c0.9-2.1,0.9-2.6,1.5-3c0.7-0.6,1.8-0.6,2.5,0
			C874.8,16.1,874.8,17.2,874.3,18L874.3,18z"/>
		<path class="st0" d="M1219.2,8.5c-0.5,0-1,0.1-1.5,0.2c-2.5-5.2-8.7-7.3-13.9-4.8c-2.1,1-3.8,2.7-4.8,4.8c-0.5-0.1-1-0.1-1.5-0.2
			c-4.5,0-8.2,4-8.2,8.9s3.7,8.9,8.2,8.9c1.8,0,3.6-0.7,5-1.9c3.5,2.5,8.2,2.5,11.7,0c1.4,1.2,3.2,1.8,5,1.9c4.5,0,8.2-4,8.2-8.9
			S1223.7,8.5,1219.2,8.5z M1201.2,20.5c-0.2,0.2-0.7-0.2-2.1-0.9c-2-1-2.4-1-2.8-1.6c-0.6-0.8-0.6-1.9,0-2.8c0.8-0.6,1.8-0.6,2.6,0
			c0.4,0.2,0.6,0.5,1.7,3.2C1201.2,20,1201.3,20.4,1201.2,20.5L1201.2,20.5z M1209.7,17.7c-0.8,2.4-1,2.9-1.3,2.9s-0.5-1-1.3-3.4
			c-1.1-3.3-1.5-3.7-1.3-4.8c0.3-1.3,1.3-2.9,2.7-2.9s2.4,1.6,2.7,2.9C1211.2,13.1,1211.1,13.6,1209.7,17.7L1209.7,17.7z M1220.9,18
			c-0.2,0.4-0.5,0.6-3,1.8c-1.4,0.7-1.8,0.9-1.9,0.7s0.2-0.7,0.8-2.3c0.9-2.1,0.9-2.6,1.5-3c0.7-0.6,1.8-0.6,2.6,0
			C1221.4,16.1,1221.4,17.2,1220.9,18L1220.9,18z"/>
		<path class="st0" d="M834,8.5c-0.5,0-1,0.1-1.5,0.2c-2.5-5.2-8.7-7.3-13.9-4.8c-2.1,1-3.8,2.7-4.8,4.8c-0.5-0.1-1-0.1-1.5-0.2
			c-4.5,0-8.2,4-8.2,8.9s3.7,8.9,8.2,8.9c1.8,0,3.6-0.7,5-1.9c3.5,2.5,8.2,2.5,11.7,0c1.4,1.2,3.2,1.8,5,1.9c4.5,0,8.2-4,8.2-8.9
			S838.6,8.5,834,8.5z M816,20.5c-0.2,0.2-0.7-0.2-2.1-0.9c-2-1-2.4-1-2.8-1.6c-0.6-0.8-0.6-1.9,0-2.8c0.8-0.6,1.8-0.6,2.5,0
			c0.4,0.2,0.6,0.5,1.7,3.2C816,20,816.2,20.4,816,20.5L816,20.5z M824.5,17.7c-0.8,2.4-1,2.9-1.3,2.9s-0.5-1-1.3-3.4
			c-1.1-3.3-1.5-3.7-1.3-4.8c0.3-1.3,1.3-2.9,2.7-2.9s2.4,1.6,2.7,2.9C826,13.1,826,13.6,824.5,17.7L824.5,17.7z M835.7,18
			c-0.2,0.4-0.5,0.6-3,1.8c-1.4,0.7-1.8,0.9-1.9,0.7s0.2-0.7,0.8-2.3c0.9-2.1,0.9-2.6,1.5-3c0.7-0.6,1.8-0.6,2.5,0
			C836.3,16.1,836.3,17.1,835.7,18L835.7,18z"/>
		<path class="st0" d="M1142.2,8.5c-0.5,0-1,0.1-1.5,0.2c-2.5-5.2-8.7-7.3-13.9-4.8c-2.1,1-3.8,2.7-4.8,4.8c-0.5-0.1-1-0.1-1.5-0.2
			c-4.5,0-8.2,4-8.2,8.9s3.7,8.9,8.2,8.9c1.8,0,3.6-0.7,5-1.9c3.5,2.5,8.2,2.5,11.7,0c1.4,1.2,3.2,1.8,5,1.9c4.5,0,8.2-4,8.2-8.9
			S1146.7,8.5,1142.2,8.5z M1124.2,20.5c-0.2,0.2-0.7-0.2-2.1-0.9c-2-1-2.4-1-2.8-1.6c-0.6-0.8-0.6-1.9,0-2.8c0.8-0.6,1.8-0.6,2.6,0
			c0.4,0.2,0.6,0.5,1.7,3.2C1124.1,20,1124.3,20.4,1124.2,20.5L1124.2,20.5z M1132.7,17.7c-0.8,2.4-1,2.9-1.3,2.9s-0.5-1-1.3-3.4
			c-1.1-3.3-1.5-3.7-1.3-4.8c0.3-1.3,1.3-2.9,2.7-2.9s2.4,1.6,2.7,2.9C1134.2,13.1,1134.1,13.6,1132.7,17.7L1132.7,17.7z M1143.9,18
			c-0.2,0.4-0.5,0.6-3,1.8c-1.4,0.7-1.8,0.9-1.9,0.7s0.2-0.7,0.8-2.3c0.9-2.1,0.9-2.6,1.5-3c0.7-0.6,1.8-0.6,2.6,0
			C1144.4,16.1,1144.4,17.2,1143.9,18L1143.9,18z"/>
		<path class="st0" d="M795.5,8.5c-0.5,0-1,0.1-1.5,0.2c-2.5-5.2-8.7-7.3-13.9-4.8c-2.1,1-3.8,2.7-4.8,4.8c-0.5-0.1-1-0.1-1.5-0.2
			c-4.5,0-8.2,4-8.2,8.9s3.7,8.9,8.2,8.9c1.8,0,3.6-0.7,5-1.9c3.5,2.5,8.2,2.5,11.7,0c1.4,1.2,3.2,1.8,5,1.9c4.5,0,8.2-4,8.2-8.9
			S800.1,8.5,795.5,8.5z M777.5,20.5c-0.2,0.2-0.7-0.2-2.1-0.9c-2-1-2.4-1-2.8-1.6c-0.6-0.8-0.6-1.9,0-2.8c0.8-0.6,1.8-0.6,2.5,0
			c0.4,0.2,0.6,0.5,1.7,3.2C777.5,20,777.6,20.4,777.5,20.5L777.5,20.5z M786,17.7c-0.8,2.4-1,2.9-1.3,2.9s-0.5-1-1.3-3.4
			c-1.1-3.3-1.5-3.7-1.3-4.8c0.3-1.3,1.3-2.9,2.7-2.9s2.4,1.6,2.7,2.9C787.5,13.1,787.5,13.6,786,17.7z M797.2,18
			c-0.2,0.4-0.5,0.6-3,1.8c-1.4,0.7-1.8,0.9-1.9,0.7s0.2-0.7,0.8-2.3c0.9-2.1,0.9-2.6,1.5-3c0.7-0.6,1.8-0.6,2.5,0
			C797.7,16.1,797.7,17.1,797.2,18L797.2,18z"/>
		<path class="st0" d="M1065.1,8.5c-0.5,0-1,0.1-1.5,0.2c-2.5-5.2-8.7-7.3-13.9-4.8c-2.1,1-3.8,2.7-4.8,4.8c-0.5-0.1-1-0.1-1.5-0.2
			c-4.5,0-8.2,4-8.2,8.9s3.7,8.9,8.2,8.9c1.8,0,3.6-0.7,5-1.9c3.5,2.5,8.2,2.5,11.7,0c1.4,1.2,3.2,1.8,5,1.9c4.5,0,8.2-4,8.2-8.9
			S1069.7,8.5,1065.1,8.5z M1047.1,20.5c-0.2,0.2-0.7-0.2-2.1-0.9c-2-1-2.4-1-2.8-1.6c-0.6-0.8-0.6-1.9,0-2.8c0.8-0.6,1.8-0.6,2.6,0
			c0.4,0.2,0.6,0.5,1.7,3.2C1047.1,20,1047.2,20.4,1047.1,20.5L1047.1,20.5z M1055.7,17.7c-0.8,2.4-1,2.9-1.3,2.9s-0.5-1-1.3-3.4
			c-1.1-3.3-1.5-3.7-1.3-4.8c0.3-1.3,1.3-2.9,2.7-2.9s2.4,1.6,2.7,2.9C1057.1,13.1,1057,13.6,1055.7,17.7L1055.7,17.7z M1066.9,18
			c-0.2,0.4-0.5,0.6-3,1.8c-1.4,0.7-1.8,0.9-1.9,0.7s0.2-0.7,0.8-2.3c0.9-2.1,0.9-2.6,1.5-3c0.7-0.6,1.8-0.6,2.6,0
			C1067.4,16.1,1067.4,17.2,1066.9,18L1066.9,18z"/>
		<path class="st0" d="M757,8.5c-0.5,0-1,0.1-1.5,0.2c-2.5-5.2-8.7-7.3-13.9-4.8c-2.1,1-3.8,2.7-4.8,4.8c-0.5-0.1-1-0.1-1.5-0.2
			c-4.5,0-8.2,4-8.2,8.9s3.7,8.9,8.2,8.9c1.8,0,3.6-0.7,5-1.9c3.5,2.5,8.2,2.5,11.7,0c1.4,1.2,3.2,1.8,5,1.9c4.5,0,8.2-4,8.2-8.9
			S761.5,8.5,757,8.5z M739,20.5c-0.2,0.2-0.7-0.2-2.1-0.9c-2-1-2.4-1-2.8-1.6c-0.6-0.8-0.6-1.9,0-2.8c0.8-0.6,1.8-0.6,2.5,0
			c0.4,0.2,0.6,0.5,1.7,3.2C739,20,739.1,20.4,739,20.5L739,20.5z M747.5,17.7c-0.8,2.4-1,2.9-1.3,2.9s-0.5-1-1.3-3.4
			c-1.1-3.3-1.5-3.7-1.3-4.8c0.3-1.3,1.3-2.9,2.7-2.9s2.4,1.6,2.7,2.9C749,13.1,748.9,13.6,747.5,17.7L747.5,17.7z M758.7,18
			c-0.2,0.4-0.5,0.6-3,1.8c-1.4,0.7-1.8,0.9-1.9,0.7s0.2-0.7,0.8-2.3c0.9-2.1,0.9-2.6,1.5-3c0.7-0.6,1.8-0.6,2.5,0
			C759.2,16.1,759.2,17.2,758.7,18L758.7,18z"/>
		<path class="st0" d="M1257.7,8.5c-0.5,0-1,0.1-1.5,0.2c-2.5-5.2-8.7-7.3-13.9-4.8c-2.1,1-3.8,2.7-4.8,4.8c-0.5-0.1-1-0.1-1.5-0.2
			c-4.5,0-8.2,4-8.2,8.9s3.7,8.9,8.2,8.9c1.8,0,3.6-0.7,5-1.9c3.5,2.5,8.2,2.5,11.7,0c1.4,1.2,3.2,1.8,5,1.9c4.5,0,8.2-4,8.2-8.9
			S1262.2,8.5,1257.7,8.5z M1239.7,20.5c-0.2,0.2-0.7-0.2-2.1-0.9c-2-1-2.4-1-2.8-1.6c-0.6-0.8-0.6-1.9,0-2.8c0.8-0.6,1.8-0.6,2.6,0
			c0.4,0.2,0.6,0.5,1.7,3.2C1239.7,20,1239.8,20.4,1239.7,20.5L1239.7,20.5z M1248.2,17.7c-0.8,2.4-1,2.9-1.3,2.9s-0.5-1-1.3-3.4
			c-1.1-3.3-1.5-3.7-1.3-4.8c0.3-1.3,1.3-2.9,2.7-2.9s2.4,1.6,2.7,2.9C1249.7,13.1,1249.6,13.6,1248.2,17.7L1248.2,17.7z M1259.4,18
			c-0.2,0.4-0.5,0.6-3,1.8c-1.4,0.7-1.8,0.9-1.9,0.7s0.2-0.7,0.8-2.3c0.9-2.1,0.9-2.6,1.5-3c0.7-0.6,1.8-0.6,2.6,0
			C1259.9,16.1,1259.9,17.2,1259.4,18L1259.4,18z"/>
		<path class="st0" d="M1180.7,8.5c-0.5,0-1,0.1-1.5,0.2c-2.5-5.2-8.7-7.3-13.9-4.8c-2.1,1-3.8,2.7-4.8,4.8c-0.5-0.1-1-0.1-1.5-0.2
			c-4.5,0-8.2,4-8.2,8.9s3.7,8.9,8.2,8.9c1.8,0,3.6-0.7,5-1.9c3.5,2.5,8.2,2.5,11.7,0c1.4,1.2,3.2,1.8,5,1.9c4.5,0,8.2-4,8.2-8.9
			S1185.2,8.5,1180.7,8.5z M1162.7,20.5c-0.2,0.2-0.7-0.2-2.1-0.9c-2-1-2.4-1-2.8-1.6c-0.6-0.8-0.6-1.9,0-2.8c0.8-0.6,1.8-0.6,2.6,0
			c0.4,0.2,0.6,0.5,1.7,3.2C1162.6,20,1162.8,20.4,1162.7,20.5L1162.7,20.5z M1171.2,17.7c-0.8,2.4-1,2.9-1.3,2.9s-0.5-1-1.3-3.4
			c-1.1-3.3-1.5-3.7-1.3-4.8c0.3-1.3,1.3-2.9,2.7-2.9s2.4,1.6,2.7,2.9C1172.7,13.1,1172.6,13.6,1171.2,17.7L1171.2,17.7z M1182.4,18
			c-0.2,0.4-0.5,0.6-3,1.8c-1.4,0.7-1.8,0.9-1.9,0.7s0.2-0.7,0.8-2.3c0.9-2.1,0.9-2.6,1.5-3c0.7-0.6,1.8-0.6,2.6,0
			C1182.9,16.1,1182.9,17.2,1182.4,18L1182.4,18z"/>
		<path class="st0" d="M1103.7,8.5c-0.5,0-1,0.1-1.5,0.2c-2.5-5.2-8.7-7.3-13.9-4.8c-2.1,1-3.8,2.7-4.8,4.8c-0.5-0.1-1-0.1-1.5-0.2
			c-4.5,0-8.2,4-8.2,8.9s3.7,8.9,8.2,8.9c1.8,0,3.6-0.7,5-1.9c3.5,2.5,8.2,2.5,11.7,0c1.4,1.2,3.2,1.8,5,1.9c4.5,0,8.2-4,8.2-8.9
			S1108.2,8.5,1103.7,8.5z M1085.7,20.5c-0.2,0.2-0.7-0.2-2.1-0.9c-2-1-2.4-1-2.8-1.6c-0.6-0.8-0.6-1.9,0-2.8c0.8-0.6,1.8-0.6,2.6,0
			c0.4,0.2,0.6,0.5,1.7,3.2C1085.6,20,1085.8,20.4,1085.7,20.5L1085.7,20.5z M1094.2,17.7c-0.8,2.4-1,2.9-1.3,2.9s-0.5-1-1.3-3.4
			c-1.1-3.3-1.5-3.7-1.3-4.8c0.3-1.3,1.3-2.9,2.7-2.9s2.4,1.6,2.7,2.9C1095.6,13.1,1095.6,13.6,1094.2,17.7L1094.2,17.7z M1105.4,18
			c-0.2,0.4-0.5,0.6-3,1.8c-1.4,0.7-1.8,0.9-1.9,0.7s0.2-0.7,0.8-2.3c0.9-2.1,0.9-2.6,1.5-3c0.7-0.6,1.8-0.6,2.6,0
			C1105.9,16.1,1105.9,17.2,1105.4,18L1105.4,18z"/>
		<path class="st0" d="M1026.6,8.5c-0.5,0-1,0.1-1.5,0.2c-2.5-5.2-8.7-7.3-13.9-4.8c-2.1,1-3.8,2.7-4.8,4.8
			c-0.5-0.1-0.9-0.1-1.4-0.2c-4.5,0-8.2,4-8.2,8.9s3.7,8.9,8.2,8.9c1.8,0,3.6-0.7,5-1.9c3.5,2.5,8.2,2.5,11.7,0
			c1.4,1.2,3.2,1.8,5,1.9c4.5,0,8.2-4,8.2-8.9S1031.1,8.5,1026.6,8.5z M1008.6,20.5c-0.2,0.2-0.7-0.2-2.1-0.9c-2-1-2.4-1-2.8-1.6
			c-0.6-0.8-0.6-1.9,0-2.8c0.8-0.6,1.8-0.6,2.5,0c0.4,0.2,0.6,0.5,1.7,3.2C1008.6,20,1008.7,20.4,1008.6,20.5L1008.6,20.5z
			 M1017.2,17.7c-0.8,2.4-1,2.9-1.3,2.9s-0.5-1-1.3-3.4c-1.1-3.3-1.5-3.7-1.3-4.8c0.3-1.3,1.3-2.9,2.7-2.9s2.4,1.6,2.7,2.9
			C1018.6,13.1,1018.5,13.6,1017.2,17.7L1017.2,17.7z M1028.4,18c-0.2,0.4-0.5,0.6-3,1.8c-1.4,0.7-1.8,0.9-1.9,0.7s0.2-0.7,0.9-2.3
			c0.9-2.1,0.9-2.6,1.5-3c0.7-0.6,1.8-0.6,2.6,0C1028.9,16.1,1028.8,17.2,1028.4,18L1028.4,18z"/>
		<path class="st0" d="M949.6,8.5c-0.5,0-1,0.1-1.5,0.2c-2.5-5.2-8.7-7.3-13.9-4.8c-2.1,1-3.8,2.7-4.8,4.8c-0.5-0.1-1-0.1-1.5-0.2
			c-4.5,0-8.2,4-8.2,8.9s3.7,8.9,8.2,8.9c1.8,0,3.6-0.7,5-1.9c3.5,2.5,8.2,2.5,11.7,0c1.4,1.2,3.2,1.8,5,1.9c4.5,0,8.2-4,8.2-8.9
			S954.1,8.5,949.6,8.5z M931.6,20.5c-0.2,0.2-0.7-0.2-2.1-0.9c-2-1-2.4-1-2.8-1.6c-0.6-0.8-0.6-1.9,0-2.8c0.8-0.6,1.8-0.6,2.5,0
			c0.4,0.2,0.6,0.5,1.7,3.2C931.6,20,931.7,20.4,931.6,20.5L931.6,20.5z M940.1,17.7c-0.8,2.4-1,2.9-1.3,2.9s-0.5-1-1.3-3.4
			c-1.1-3.3-1.5-3.7-1.3-4.8c0.3-1.3,1.3-2.9,2.7-2.9s2.4,1.6,2.7,2.9C941.6,13.1,941.5,13.6,940.1,17.7L940.1,17.7z M951.3,18
			c-0.2,0.4-0.5,0.6-3,1.8c-1.4,0.7-1.8,0.9-1.9,0.7s0.2-0.7,0.8-2.3c0.9-2.1,0.9-2.6,1.5-3c0.7-0.6,1.8-0.6,2.5,0
			C951.8,16.1,951.8,17.2,951.3,18L951.3,18z"/>
		<rect x="689" y="24.1" class="st0" width="689.3" height="5.4"/>
		<path class="st1" d="M1781.8,9.6c-1.3,0-2.4,1.6-2.7,2.9c-0.2,1.1,0.2,1.5,1.3,4.8c0.8,2.4,0.9,3.4,1.3,3.4s0.5-0.5,1.3-2.9
			c1.4-4.1,1.5-4.6,1.3-5.3C1784.2,11.2,1783.2,9.6,1781.8,9.6z"/>
		<path class="st1" d="M1810.8,15.2c-0.7-0.6-1.8-0.6-2.5,0c-0.6,0.8-0.6,1.9,0,2.8c0.4,0.6,0.8,0.6,2.8,1.6
			c1.4,0.7,1.9,1.1,2.1,0.9s0-0.5-0.6-2.1C1811.3,15.8,1811.2,15.5,1810.8,15.2z"/>
		<path class="st1" d="M1907.3,15.2c-0.6,0.4-0.5,0.8-1.5,3c-0.7,1.6-1,2.1-0.8,2.3s0.5,0,1.9-0.7c2.5-1.2,2.8-1.4,3-1.8
			c0.5-0.8,0.5-1.9,0-2.8C1909.2,14.6,1908.1,14.6,1907.3,15.2z"/>
		<path class="st1" d="M1772.3,15.2c-0.8-0.6-1.8-0.6-2.6,0c-0.6,0.8-0.6,1.9,0,2.8c0.4,0.6,0.8,0.6,2.8,1.6
			c1.4,0.7,1.9,1.1,2.1,0.9s0-0.5-0.6-2.1C1772.8,15.8,1772.6,15.5,1772.3,15.2z"/>
		<path class="st1" d="M1733.8,15.2c-0.8-0.6-1.8-0.6-2.6,0c-0.6,0.8-0.6,1.9,0,2.8c0.4,0.6,0.8,0.6,2.8,1.6
			c1.4,0.7,1.9,1.1,2.1,0.9s0-0.5-0.6-2.1C1734.3,15.8,1734.1,15.5,1733.8,15.2z"/>
		<path class="st1" d="M1714.8,15.2c-0.6,0.4-0.5,0.8-1.5,3c-0.7,1.6-1,2.1-0.8,2.3s0.5,0,1.9-0.7c2.5-1.2,2.8-1.4,3-1.8
			c0.5-0.8,0.5-1.9,0-2.8C1716.6,14.6,1715.5,14.6,1714.8,15.2z"/>
		<path class="st1" d="M1743.3,9.6c-1.3,0-2.4,1.6-2.7,2.9c-0.2,1.1,0.2,1.5,1.3,4.8c0.8,2.4,0.9,3.4,1.3,3.4s0.5-0.5,1.3-2.9
			c1.4-4.1,1.5-4.6,1.3-5.3C1745.7,11.2,1744.7,9.6,1743.3,9.6z"/>
		<path class="st1" d="M1753.3,15.2c-0.6,0.4-0.5,0.8-1.5,3c-0.7,1.6-1,2.1-0.8,2.3s0.5,0,1.9-0.7c2.5-1.2,2.8-1.4,3-1.8
			c0.5-0.8,0.5-1.9,0-2.8C1755.1,14.6,1754,14.6,1753.3,15.2z"/>
		<path class="st1" d="M1887.8,15.2c-0.8-0.6-1.8-0.6-2.6,0c-0.6,0.8-0.6,1.9,0,2.8c0.4,0.6,0.8,0.6,2.8,1.6
			c1.4,0.7,1.9,1.1,2.1,0.9s0-0.5-0.6-2.1C1888.4,15.8,1888.2,15.5,1887.8,15.2z"/>
		<path class="st1" d="M1868.8,15.2c-0.6,0.4-0.5,0.8-1.5,3c-0.7,1.6-1,2.1-0.8,2.3s0.5,0,1.9-0.7c2.5-1.2,2.8-1.4,3-1.8
			c0.5-0.8,0.5-1.9,0-2.8C1870.7,14.6,1869.6,14.6,1868.8,15.2z"/>
		<path class="st1" d="M1897.4,9.6c-1.3,0-2.4,1.6-2.7,2.9c-0.2,1.1,0.2,1.5,1.3,4.8c0.8,2.4,0.9,3.4,1.3,3.4s0.5-0.5,1.3-2.9
			c1.4-4.1,1.5-4.6,1.3-5.3C1899.7,11.2,1898.7,9.6,1897.4,9.6z"/>
		<path class="st1" d="M1830.3,15.2c-0.6,0.4-0.5,0.8-1.5,3c-0.7,1.6-1,2.1-0.8,2.3s0.5,0,1.9-0.7c2.5-1.2,2.8-1.4,3-1.8
			c0.5-0.8,0.5-1.9,0-2.8C1832.1,14.6,1831.1,14.6,1830.3,15.2z"/>
		<path class="st1" d="M1820.3,9.6c-1.3,0-2.4,1.6-2.7,2.9c-0.2,1.1,0.2,1.5,1.3,4.8c0.8,2.4,0.9,3.4,1.3,3.4s0.5-0.5,1.3-2.9
			c1.4-4.1,1.5-4.6,1.3-5.3C1822.7,11.2,1821.7,9.6,1820.3,9.6z"/>
		<path class="st1" d="M1483.7,15.2c-0.6,0.4-0.5,0.8-1.5,3c-0.7,1.6-1,2.1-0.8,2.3s0.5,0,1.9-0.7c2.5-1.2,2.8-1.4,3-1.8
			c0.5-0.8,0.5-1.9,0-2.8C1485.5,14.6,1484.4,14.6,1483.7,15.2z"/>
		<path class="st1" d="M1849.3,15.2c-0.8-0.6-1.8-0.6-2.6,0c-0.6,0.8-0.6,1.9,0,2.8c0.4,0.6,0.8,0.6,2.8,1.6
			c1.4,0.7,1.9,1.1,2.1,0.9s0-0.5-0.6-2.1C1849.8,15.8,1849.7,15.5,1849.3,15.2z"/>
		<path class="st1" d="M1791.8,15.2c-0.6,0.4-0.5,0.8-1.5,3c-0.7,1.6-1,2.1-0.8,2.3s0.5,0,1.9-0.7c2.5-1.2,2.8-1.4,3-1.8
			c0.5-0.8,0.5-1.9,0-2.8C1793.6,14.6,1792.5,14.6,1791.8,15.2z"/>
		<path class="st1" d="M1550.7,9.6c-1.3,0-2.4,1.6-2.7,2.9c-0.2,1.1,0.2,1.5,1.3,4.8c0.8,2.4,0.9,3.4,1.3,3.4s0.5-0.5,1.3-2.9
			c1.4-4.1,1.5-4.6,1.3-5.3C1553.1,11.2,1552.1,9.6,1550.7,9.6z"/>
		<path class="st1" d="M1589.2,9.6c-1.3,0-2.4,1.6-2.7,2.9c-0.2,1.1,0.2,1.5,1.3,4.8c0.8,2.4,0.9,3.4,1.3,3.4s0.5-0.5,1.3-2.9
			c1.4-4.1,1.5-4.6,1.3-5.3C1591.6,11.2,1590.6,9.6,1589.2,9.6z"/>
		<path class="st1" d="M1541.2,15.2c-0.8-0.6-1.8-0.6-2.6,0c-0.6,0.8-0.6,1.9,0,2.8c0.4,0.6,0.8,0.6,2.8,1.6
			c1.4,0.7,1.9,1.1,2.1,0.9s0-0.5-0.6-2.1C1541.7,15.8,1541.6,15.5,1541.2,15.2z"/>
		<path class="st1" d="M1704.8,9.6c-1.3,0-2.4,1.6-2.7,2.9c-0.2,1.1,0.2,1.5,1.3,4.8c0.8,2.4,0.9,3.4,1.3,3.4s0.5-0.5,1.3-2.9
			c1.4-4.1,1.5-4.6,1.3-5.3C1707.2,11.2,1706.1,9.6,1704.8,9.6z"/>
		<path class="st1" d="M1560.7,15.2c-0.6,0.4-0.5,0.8-1.5,3c-0.7,1.6-1,2.1-0.8,2.3s0.5,0,1.9-0.7c2.5-1.2,2.8-1.4,3-1.8
			c0.5-0.8,0.5-1.9,0-2.8C1562.5,14.6,1561.5,14.6,1560.7,15.2z"/>
		<path class="st1" d="M1522.2,15.2c-0.6,0.4-0.5,0.8-1.5,3c-0.7,1.6-1,2.1-0.8,2.3s0.5,0,1.9-0.7c2.5-1.2,2.8-1.4,3-1.8
			c0.5-0.8,0.5-1.9,0-2.8C1524,14.6,1522.9,14.6,1522.2,15.2z"/>
		<path class="st1" d="M1502.7,15.2c-0.8-0.6-1.8-0.6-2.6,0c-0.6,0.8-0.6,1.9,0,2.8c0.4,0.6,0.8,0.6,2.8,1.6
			c1.4,0.7,1.9,1.1,2.1,0.9s0-0.5-0.6-2.1C1503.2,15.8,1503,15.5,1502.7,15.2z"/>
		<path class="st1" d="M1512.2,9.6c-1.3,0-2.4,1.6-2.7,2.9c-0.2,1.1,0.2,1.5,1.3,4.8c0.8,2.4,0.9,3.4,1.3,3.4s0.5-0.5,1.3-2.9
			c1.4-4.1,1.5-4.6,1.3-5.3C1514.6,11.2,1513.6,9.6,1512.2,9.6z"/>
		<path class="st1" d="M1579.7,15.2c-0.7-0.6-1.8-0.6-2.5,0c-0.6,0.8-0.6,1.9,0,2.8c0.4,0.6,0.8,0.6,2.8,1.6
			c1.4,0.7,1.9,1.1,2.1,0.9s0-0.5-0.6-2.1C1580.2,15.8,1580.1,15.5,1579.7,15.2z"/>
		<path class="st1" d="M1656.7,15.2c-0.8-0.6-1.8-0.6-2.6,0c-0.6,0.8-0.6,1.9,0,2.8c0.4,0.6,0.8,0.6,2.8,1.6
			c1.4,0.7,1.9,1.1,2.1,0.9s0-0.5-0.6-2.1C1657.3,15.8,1657.1,15.5,1656.7,15.2z"/>
		<path class="st1" d="M1666.3,9.6c-1.3,0-2.4,1.6-2.7,2.9c-0.2,1.1,0.2,1.5,1.3,4.8c0.8,2.4,0.9,3.4,1.3,3.4s0.5-0.5,1.3-2.9
			c1.4-4.1,1.5-4.6,1.3-5.3C1668.7,11.2,1667.6,9.6,1666.3,9.6z"/>
		<path class="st1" d="M1676.2,15.2c-0.6,0.4-0.5,0.8-1.5,3c-0.7,1.6-1,2.1-0.8,2.3s0.5,0,1.9-0.7c2.5-1.2,2.8-1.4,3-1.8
			c0.5-0.8,0.5-1.9,0-2.8C1678.1,14.6,1677,14.6,1676.2,15.2z"/>
		<path class="st1" d="M1599.2,15.2c-0.6,0.4-0.5,0.8-1.5,3c-0.7,1.6-1,2.1-0.8,2.3s0.5,0,1.9-0.7c2.5-1.2,2.8-1.4,3-1.8
			c0.5-0.8,0.5-1.9,0-2.8C1601.1,14.6,1600,14.6,1599.2,15.2z"/>
		<path class="st1" d="M1695.2,15.2c-0.8-0.6-1.8-0.6-2.6,0c-0.6,0.8-0.6,1.9,0,2.8c0.4,0.6,0.8,0.6,2.8,1.6
			c1.4,0.7,1.9,1.1,2.1,0.9s0-0.5-0.6-2.1C1695.8,15.8,1695.6,15.5,1695.2,15.2z"/>
		<path class="st1" d="M1637.7,15.2c-0.6,0.4-0.5,0.8-1.5,3c-0.7,1.6-1,2.1-0.8,2.3s0.5,0,1.9-0.7c2.5-1.2,2.8-1.4,3-1.8
			c0.5-0.8,0.5-1.9,0-2.8C1639.6,14.6,1638.5,14.6,1637.7,15.2z"/>
		<path class="st1" d="M1618.2,15.2c-0.7-0.6-1.8-0.6-2.5,0c-0.6,0.8-0.6,1.9,0,2.8c0.4,0.6,0.8,0.6,2.8,1.6
			c1.4,0.7,1.9,1.1,2.1,0.9s0-0.5-0.6-2.1C1618.8,15.8,1618.6,15.5,1618.2,15.2z"/>
		<path class="st1" d="M1627.8,9.6c-1.3,0-2.4,1.6-2.7,2.9c-0.2,1.1,0.2,1.5,1.3,4.8c0.8,2.4,0.9,3.4,1.3,3.4s0.5-0.5,1.3-2.9
			c1.4-4.1,1.5-4.6,1.3-5.3C1630.1,11.2,1629.1,9.6,1627.8,9.6z"/>
		<path class="st1" d="M1858.8,9.6c-1.3,0-2.4,1.6-2.7,2.9c-0.2,1.1,0.2,1.5,1.3,4.8c0.8,2.4,0.9,3.4,1.3,3.4s0.5-0.5,1.3-2.9
			c1.4-4.1,1.5-4.6,1.3-5.3C1861.2,11.2,1860.2,9.6,1858.8,9.6z"/>
		<path class="st1" d="M1425.6,15.2c-0.7-0.6-1.8-0.6-2.5,0c-0.6,0.8-0.6,1.9,0,2.8c0.4,0.6,0.8,0.6,2.8,1.6
			c1.4,0.7,1.9,1.1,2.1,0.9s0-0.5-0.6-2.1C1426.2,15.8,1426,15.5,1425.6,15.2z"/>
		<path class="st1" d="M1435.2,9.6c-1.3,0-2.4,1.6-2.7,2.9c-0.2,1.1,0.2,1.5,1.3,4.8c0.8,2.4,0.9,3.4,1.3,3.4s0.5-0.5,1.3-2.9
			c1.4-4.1,1.5-4.6,1.3-5.3C1437.6,11.2,1436.5,9.6,1435.2,9.6z"/>
		<path class="st1" d="M1473.7,9.6c-1.3,0-2.4,1.6-2.7,2.9c-0.2,1.1,0.2,1.5,1.3,4.8c0.8,2.4,0.9,3.4,1.3,3.4s0.5-0.5,1.3-2.9
			c1.4-4.1,1.5-4.6,1.3-5.3C1476.1,11.2,1475.1,9.6,1473.7,9.6z"/>
		<path class="st1" d="M1464.2,15.2c-0.8-0.6-1.8-0.6-2.6,0c-0.6,0.8-0.6,1.9,0,2.8c0.4,0.6,0.8,0.6,2.8,1.6
			c1.4,0.7,1.9,1.1,2.1,0.9s0-0.5-0.6-2.1C1464.7,15.8,1464.5,15.5,1464.2,15.2z"/>
		<path class="st1" d="M1445.2,15.2c-0.6,0.4-0.5,0.8-1.5,3c-0.7,1.6-1,2.1-0.8,2.3s0.5,0,1.9-0.7c2.5-1.2,2.8-1.4,3-1.8
			c0.5-0.8,0.5-1.9,0-2.8C1447,14.6,1445.9,14.6,1445.2,15.2z"/>
		<path class="st1" d="M1387.3,15.2c-0.7-0.6-1.8-0.6-2.5,0c-0.5,0.8-0.5,1.9,0,2.7c0.4,0.6,0.8,0.6,2.7,1.6
			c1.4,0.7,1.9,1.1,2.1,0.9s0-0.5-0.6-2C1387.8,15.7,1387.7,15.5,1387.3,15.2z"/>
		<path class="st1" d="M1406.5,15.2c-0.6,0.4-0.5,0.8-1.5,2.9c-0.7,1.5-1,2-0.8,2.2s0.5,0,1.9-0.7c2.4-1.2,2.7-1.4,2.9-1.8
			c0.5-0.8,0.5-1.9,0-2.7C1408.2,14.6,1407.2,14.6,1406.5,15.2z"/>
		<path class="st1" d="M1396.7,9.6c-1.3,0-2.4,1.5-2.6,2.8c-0.2,1.1,0.2,1.5,1.3,4.7c0.8,2.4,0.9,3.3,1.3,3.3s0.5-0.5,1.3-2.8
			c1.4-4,1.4-4.5,1.3-5.2C1399,11.2,1398,9.6,1396.7,9.6z"/>
		<path class="st0" d="M1415.3,17.4c0-4.8-3.6-8.7-8-8.7c-0.5,0-1,0.1-1.4,0.2c-2.5-5.1-8.6-7.2-13.7-4.7c-2,1-3.7,2.7-4.7,4.7
			c-0.5-0.1-1-0.1-1.4-0.2c-4.4,0-8,3.9-8,8.7c0,2.6,1.1,5,3,6.8h31.4C1414.4,22.4,1415.4,19.9,1415.3,17.4z M1389.6,20.4
			c-0.2,0.2-0.7-0.2-2.1-0.9c-1.9-1-2.3-1-2.7-1.6c-0.5-0.8-0.5-1.9,0-2.7c0.7-0.6,1.8-0.6,2.5,0c0.4,0.2,0.6,0.5,1.7,3.2
			C1389.6,19.9,1389.7,20.3,1389.6,20.4z M1398,17.7c-0.8,2.3-1,2.8-1.3,2.8s-0.5-0.9-1.3-3.3c-1.1-3.2-1.5-3.6-1.3-4.7
			c0.2-1.3,1.3-2.8,2.6-2.8s2.3,1.6,2.6,2.8C1399.4,13.1,1399.4,13.6,1398,17.7L1398,17.7z M1409,17.9c-0.2,0.4-0.5,0.6-2.9,1.8
			c-1.4,0.7-1.7,0.8-1.9,0.7s0.2-0.7,0.8-2.2c0.9-2.1,0.9-2.5,1.5-2.9c0.7-0.6,1.8-0.6,2.5,0C1409.5,16.1,1409.5,17.1,1409,17.9
			L1409,17.9z"/>
		<path class="st0" d="M1685.3,17.4c0-4.9-3.7-8.9-8.2-8.9c-0.5,0-1,0.1-1.5,0.2c-2.5-5.2-8.7-7.3-13.9-4.8c-2.1,1-3.8,2.7-4.8,4.8
			c-0.5-0.1-1-0.1-1.5-0.2c-4.5,0-8.2,4-8.2,8.9c0,2.5,1,4.9,2.8,6.7h32.4C1684.3,22.3,1685.3,19.9,1685.3,17.4z M1659.1,20.5
			c-0.2,0.2-0.7-0.2-2.1-0.9c-2-1-2.4-1-2.8-1.6c-0.6-0.8-0.6-1.9,0-2.8c0.8-0.6,1.8-0.6,2.6,0c0.4,0.2,0.6,0.5,1.7,3.2
			C1659.1,20,1659.2,20.4,1659.1,20.5L1659.1,20.5z M1667.6,17.7c-0.8,2.4-1,2.9-1.3,2.9s-0.5-1-1.3-3.4c-1.1-3.3-1.5-3.7-1.3-4.8
			c0.3-1.3,1.3-2.9,2.7-2.9s2.4,1.6,2.7,2.9C1669.1,13.1,1669,13.6,1667.6,17.7L1667.6,17.7z M1678.8,18c-0.2,0.4-0.5,0.6-3,1.8
			c-1.4,0.7-1.8,0.9-1.9,0.7s0.2-0.7,0.8-2.3c0.9-2.1,0.9-2.6,1.5-3c0.7-0.6,1.8-0.6,2.6,0C1679.3,16.1,1679.3,17.1,1678.8,18z"/>
		<path class="st0" d="M1608.3,17.4c0-4.9-3.7-8.9-8.2-8.9c-0.5,0-1,0.1-1.5,0.2c-2.5-5.2-8.7-7.3-13.9-4.8c-2.1,1-3.8,2.7-4.8,4.8
			c-0.5-0.1-1-0.1-1.5-0.2c-4.5,0-8.2,4-8.2,8.9c0,2.5,1,4.9,2.8,6.7h32.4C1607.3,22.3,1608.3,19.9,1608.3,17.4z M1582,20.5
			c-0.2,0.2-0.7-0.2-2.1-0.9c-2-1-2.4-1-2.8-1.6c-0.6-0.8-0.6-1.9,0-2.8c0.7-0.6,1.8-0.6,2.5,0c0.4,0.2,0.6,0.5,1.7,3.2
			C1582,20,1582.2,20.4,1582,20.5z M1590.6,17.7c-0.8,2.4-1,2.9-1.3,2.9s-0.5-1-1.3-3.4c-1.1-3.3-1.5-3.7-1.3-4.8
			c0.3-1.3,1.3-2.9,2.7-2.9s2.4,1.6,2.7,2.9C1592.1,13.1,1592,13.6,1590.6,17.7L1590.6,17.7z M1601.7,18c-0.2,0.4-0.5,0.6-3,1.8
			c-1.4,0.7-1.8,0.9-1.9,0.7s0.2-0.7,0.8-2.3c0.9-2.1,0.9-2.6,1.5-3c0.7-0.6,1.8-0.6,2.6,0C1602.3,16.1,1602.3,17.1,1601.7,18
			L1601.7,18z"/>
		<path class="st0" d="M1569.8,17.4c0-4.9-3.7-8.9-8.2-8.9c-0.5,0-1,0.1-1.5,0.2c-2.5-5.2-8.7-7.3-13.9-4.8c-2.1,1-3.8,2.7-4.8,4.8
			c-0.5-0.1-1-0.1-1.5-0.2c-4.5,0-8.2,4-8.2,8.9c0,2.5,1,4.9,2.8,6.7h32.4C1568.7,22.3,1569.8,19.9,1569.8,17.4z M1543.5,20.5
			c-0.2,0.2-0.7-0.2-2.1-0.9c-2-1-2.4-1-2.8-1.6c-0.6-0.8-0.6-1.9,0-2.8c0.8-0.6,1.8-0.6,2.6,0c0.4,0.2,0.6,0.5,1.7,3.2
			C1543.5,20,1543.7,20.4,1543.5,20.5z M1552.1,17.7c-0.8,2.4-1,2.9-1.3,2.9s-0.5-1-1.3-3.4c-1.1-3.3-1.5-3.7-1.3-4.8
			c0.3-1.3,1.3-2.9,2.7-2.9s2.4,1.6,2.7,2.9C1553.5,13.1,1553.5,13.6,1552.1,17.7z M1563.2,18c-0.2,0.4-0.5,0.6-3,1.8
			c-1.4,0.7-1.8,0.9-1.9,0.7s0.2-0.7,0.8-2.3c0.9-2.1,0.9-2.6,1.5-3c0.7-0.6,1.8-0.6,2.6,0C1563.8,16.1,1563.8,17.1,1563.2,18z"/>
		<path class="st0" d="M1916.4,17.4c0-4.9-3.7-8.9-8.2-8.9c-0.5,0-1,0.1-1.5,0.2c-2.5-5.2-8.7-7.3-13.9-4.8c-2.1,1-3.8,2.7-4.8,4.8
			c-0.5-0.1-1-0.1-1.5-0.2c-4.5,0-8.2,4-8.2,8.9c0,2.5,1,4.9,2.8,6.7h32.4C1915.4,22.3,1916.4,19.9,1916.4,17.4z M1890.1,20.5
			c-0.2,0.2-0.7-0.2-2.1-0.9c-2-1-2.4-1-2.8-1.6c-0.6-0.8-0.6-1.9,0-2.8c0.8-0.6,1.8-0.6,2.6,0c0.4,0.2,0.6,0.5,1.7,3.2
			C1890.2,20,1890.3,20.4,1890.1,20.5z M1898.7,17.7c-0.8,2.4-1,2.9-1.3,2.9s-0.5-1-1.3-3.4c-1.1-3.3-1.5-3.7-1.3-4.8
			c0.3-1.3,1.3-2.9,2.7-2.9s2.4,1.6,2.7,2.9C1900.2,13.1,1900.1,13.6,1898.7,17.7L1898.7,17.7z M1909.9,18c-0.2,0.4-0.5,0.6-3,1.8
			c-1.4,0.7-1.8,0.9-1.9,0.7s0.2-0.7,0.8-2.3c0.9-2.1,0.9-2.6,1.5-3c0.7-0.6,1.8-0.6,2.5,0C1910.4,16.1,1910.4,17.1,1909.9,18z"/>
		<path class="st0" d="M1531.2,17.4c0-4.9-3.7-8.9-8.2-8.9c-0.5,0-1,0.1-1.5,0.2c-2.5-5.2-8.7-7.3-13.9-4.8c-2.1,1-3.8,2.7-4.8,4.8
			c-0.5-0.1-1-0.1-1.5-0.2c-4.5,0-8.2,4-8.2,8.9c0,2.5,1,4.9,2.8,6.7h32.4C1530.2,22.3,1531.3,19.9,1531.2,17.4z M1505,20.5
			c-0.2,0.2-0.7-0.2-2.1-0.9c-2-1-2.4-1-2.8-1.6c-0.6-0.8-0.6-1.9,0-2.8c0.8-0.6,1.8-0.6,2.6,0c0.4,0.2,0.6,0.5,1.7,3.2
			C1505,20,1505.2,20.4,1505,20.5z M1513.6,17.7c-0.8,2.4-1,2.9-1.3,2.9s-0.5-1-1.3-3.4c-1.1-3.3-1.5-3.7-1.3-4.8
			c0.3-1.3,1.3-2.9,2.7-2.9s2.4,1.6,2.7,2.9C1515,13.1,1515,13.6,1513.6,17.7z M1524.7,18c-0.2,0.4-0.5,0.6-3,1.8
			c-1.4,0.7-1.8,0.9-1.9,0.7s0.2-0.7,0.8-2.3c0.9-2.1,0.9-2.6,1.5-3c0.7-0.6,1.8-0.6,2.5,0C1525.2,16.1,1525.3,17.1,1524.7,18z"/>
		<path class="st0" d="M1839.3,17.4c0-4.9-3.7-8.9-8.2-8.9c-0.5,0-1,0.1-1.5,0.2c-2.5-5.2-8.7-7.3-13.9-4.8c-2.1,1-3.8,2.7-4.8,4.8
			c-0.5-0.1-1-0.1-1.5-0.2c-4.5,0-8.2,4-8.2,8.9c0,2.5,1,4.9,2.8,6.7h32.4C1838.3,22.3,1839.4,19.9,1839.3,17.4z M1813.1,20.5
			c-0.2,0.2-0.7-0.2-2.1-0.9c-2-1-2.4-1-2.8-1.6c-0.6-0.8-0.6-1.9,0-2.8c0.7-0.6,1.8-0.6,2.5,0c0.4,0.2,0.6,0.5,1.7,3.2
			C1813.1,20,1813.3,20.4,1813.1,20.5z M1821.7,17.7c-0.8,2.4-1,2.9-1.3,2.9s-0.5-1-1.3-3.4c-1.1-3.3-1.5-3.7-1.3-4.8
			c0.3-1.3,1.3-2.9,2.7-2.9s2.4,1.6,2.7,2.9C1823.2,13.1,1823.1,13.6,1821.7,17.7z M1832.8,18c-0.2,0.4-0.5,0.6-3,1.8
			c-1.4,0.7-1.8,0.9-1.9,0.7s0.2-0.7,0.8-2.3c0.9-2.1,0.9-2.6,1.5-3c0.7-0.6,1.8-0.6,2.6,0C1833.4,16.1,1833.4,17.1,1832.8,18
			L1832.8,18z"/>
		<path class="st0" d="M1492.7,17.4c0-4.9-3.7-8.9-8.2-8.9c-0.5,0-1,0.1-1.5,0.2c-2.5-5.2-8.7-7.3-13.9-4.8c-2.1,1-3.8,2.7-4.8,4.8
			c-0.5-0.1-1-0.1-1.5-0.2c-4.5,0-8.2,4-8.2,8.9c0,2.5,1,4.9,2.8,6.7h32.4C1491.7,22.3,1492.7,19.9,1492.7,17.4z M1466.5,20.5
			c-0.2,0.2-0.7-0.2-2.1-0.9c-2-1-2.4-1-2.8-1.6c-0.6-0.8-0.6-1.9,0-2.8c0.8-0.6,1.8-0.6,2.6,0c0.4,0.2,0.6,0.5,1.7,3.2
			C1466.5,20,1466.6,20.4,1466.5,20.5z M1475,17.7c-0.8,2.4-1,2.9-1.3,2.9s-0.5-1-1.3-3.4c-1.1-3.3-1.5-3.7-1.3-4.8
			c0.3-1.3,1.3-2.9,2.7-2.9s2.4,1.6,2.7,2.9C1476.5,13.1,1476.4,13.6,1475,17.7L1475,17.7z M1486.2,18c-0.2,0.4-0.5,0.6-3,1.8
			c-1.4,0.7-1.8,0.9-1.9,0.7s0.2-0.7,0.8-2.3c0.9-2.1,0.9-2.6,1.5-3c0.7-0.6,1.8-0.6,2.5,0C1486.7,16.1,1486.8,17.1,1486.2,18
			L1486.2,18z"/>
		<path class="st0" d="M1762.3,17.4c0-4.9-3.7-8.9-8.2-8.9c-0.5,0-1,0.1-1.5,0.2c-2.5-5.2-8.7-7.3-13.9-4.8c-2.1,1-3.8,2.7-4.8,4.8
			c-0.5-0.1-1-0.1-1.5-0.2c-4.5,0-8.2,4-8.2,8.9c0,2.5,1,4.9,2.8,6.7h32.4C1761.3,22.3,1762.3,19.9,1762.3,17.4z M1736.1,20.5
			c-0.2,0.2-0.7-0.2-2.1-0.9c-2-1-2.4-1-2.8-1.6c-0.6-0.8-0.6-1.9,0-2.8c0.8-0.6,1.8-0.6,2.6,0c0.4,0.2,0.6,0.5,1.7,3.2
			C1736.1,20,1736.2,20.4,1736.1,20.5z M1744.6,17.7c-0.8,2.4-1,2.9-1.3,2.9s-0.5-1-1.3-3.4c-1.1-3.3-1.5-3.7-1.3-4.8
			c0.3-1.3,1.3-2.9,2.7-2.9s2.4,1.6,2.7,2.9C1746.1,13.1,1746,13.6,1744.6,17.7L1744.6,17.7z M1755.8,18c-0.2,0.4-0.5,0.6-3,1.8
			c-1.4,0.7-1.8,0.9-1.9,0.7s0.2-0.7,0.8-2.3c0.9-2.1,0.9-2.6,1.5-3c0.7-0.6,1.8-0.6,2.6,0C1756.3,16.1,1756.4,17.1,1755.8,18
			L1755.8,18z"/>
		<path class="st0" d="M1454.2,17.4c0-4.9-3.7-8.9-8.2-8.9c-0.5,0-1,0.1-1.5,0.2c-2.5-5.2-8.7-7.3-13.9-4.8c-2.1,1-3.8,2.7-4.8,4.8
			c-0.5-0.1-1-0.1-1.5-0.2c-4.5,0-8.2,4-8.2,8.9c0,2.5,1,4.9,2.8,6.7h32.4C1453.2,22.3,1454.2,19.9,1454.2,17.4z M1428,20.5
			c-0.2,0.2-0.7-0.2-2.1-0.9c-2-1-2.4-1-2.8-1.6c-0.6-0.8-0.6-1.9,0-2.8c0.7-0.6,1.8-0.6,2.5,0c0.4,0.2,0.6,0.5,1.7,3.2
			C1428,20,1428.1,20.4,1428,20.5z M1436.6,17.7c-0.8,2.4-1,2.9-1.3,2.9s-0.5-1-1.3-3.4c-1.1-3.3-1.5-3.7-1.3-4.8
			c0.3-1.3,1.3-2.9,2.7-2.9s2.4,1.6,2.7,2.9C1438,13.1,1437.9,13.6,1436.6,17.7L1436.6,17.7z M1447.7,18c-0.2,0.4-0.5,0.6-3,1.8
			c-1.4,0.7-1.8,0.9-1.9,0.7s0.2-0.7,0.8-2.3c0.9-2.1,0.9-2.6,1.5-3c0.7-0.6,1.8-0.6,2.6,0C1448.2,16.1,1448.2,17.1,1447.7,18
			L1447.7,18z"/>
		<path class="st0" d="M1877.9,17.4c0-4.9-3.7-8.9-8.2-8.9c-0.5,0-1,0.1-1.5,0.2c-2.5-5.2-8.7-7.3-13.9-4.8c-2.1,1-3.8,2.7-4.8,4.8
			c-0.5-0.1-1-0.1-1.5-0.2c-4.5,0-8.2,4-8.2,8.9c0,2.5,1,4.9,2.8,6.7h32.4C1876.8,22.4,1877.9,19.9,1877.9,17.4z M1851.6,20.5
			c-0.2,0.2-0.7-0.2-2.1-0.9c-2-1-2.4-1-2.8-1.6c-0.6-0.8-0.6-1.9,0-2.8c0.8-0.6,1.8-0.6,2.6,0c0.4,0.2,0.6,0.5,1.7,3.2
			C1851.6,20,1851.8,20.4,1851.6,20.5z M1860.2,17.7c-0.8,2.4-1,2.9-1.3,2.9s-0.5-1-1.3-3.4c-1.1-3.3-1.5-3.7-1.3-4.8
			c0.3-1.3,1.3-2.9,2.7-2.9s2.4,1.6,2.7,2.9C1861.7,13.1,1861.6,13.6,1860.2,17.7z M1871.4,18c-0.2,0.4-0.5,0.6-3,1.8
			c-1.4,0.7-1.8,0.9-1.9,0.7s0.2-0.7,0.8-2.3c0.9-2.1,0.9-2.6,1.5-3c0.7-0.6,1.8-0.6,2.6,0C1871.9,16.1,1871.9,17.1,1871.4,18z"/>
		<path class="st0" d="M1800.8,17.4c0-4.9-3.7-8.9-8.2-8.9c-0.5,0-1,0.1-1.5,0.2c-2.5-5.2-8.7-7.3-13.9-4.8c-2.1,1-3.8,2.7-4.8,4.8
			c-0.5-0.1-1-0.1-1.5-0.2c-4.5,0-8.2,4-8.2,8.9c0,2.5,1,4.9,2.8,6.7h32.4C1799.8,22.4,1800.9,19.9,1800.8,17.4z M1774.6,20.5
			c-0.2,0.2-0.7-0.2-2.1-0.9c-2-1-2.4-1-2.8-1.6c-0.6-0.8-0.6-1.9,0-2.8c0.8-0.6,1.8-0.6,2.6,0c0.4,0.2,0.6,0.5,1.7,3.2
			C1774.6,20,1774.8,20.4,1774.6,20.5z M1783.2,17.7c-0.8,2.4-1,2.9-1.3,2.9s-0.5-1-1.3-3.4c-1.1-3.3-1.5-3.7-1.3-4.8
			c0.3-1.3,1.3-2.9,2.7-2.9s2.4,1.6,2.7,2.9C1784.6,13.1,1784.6,13.6,1783.2,17.7z M1794.3,18c-0.2,0.4-0.5,0.6-3,1.8
			c-1.4,0.7-1.8,0.9-1.9,0.7s0.2-0.7,0.8-2.3c0.9-2.1,0.9-2.6,1.5-3c0.7-0.6,1.8-0.6,2.6,0C1794.9,16.1,1794.9,17.1,1794.3,18z"/>
		<path class="st0" d="M1723.8,17.4c0-4.9-3.7-8.9-8.2-8.9c-0.5,0-1,0.1-1.5,0.2c-2.5-5.2-8.7-7.3-13.9-4.8c-2.1,1-3.8,2.7-4.8,4.8
			c-0.5-0.1-0.9-0.1-1.4-0.2c-4.5,0-8.2,4-8.2,8.9c0,2.5,1,4.9,2.8,6.7h32.4C1722.8,22.3,1723.8,19.9,1723.8,17.4z M1697.6,20.5
			c-0.2,0.2-0.7-0.2-2.1-0.9c-2-1-2.4-1-2.8-1.6c-0.6-0.8-0.6-1.9,0-2.8c0.8-0.6,1.8-0.6,2.6,0c0.4,0.2,0.6,0.5,1.7,3.2
			C1697.6,20,1697.7,20.4,1697.6,20.5L1697.6,20.5z M1706.1,17.7c-0.8,2.4-1,2.9-1.3,2.9s-0.5-1-1.3-3.4c-1.1-3.3-1.5-3.7-1.3-4.8
			c0.3-1.3,1.3-2.9,2.7-2.9s2.4,1.6,2.7,2.9C1707.6,13.1,1707.5,13.6,1706.1,17.7L1706.1,17.7z M1717.3,18c-0.2,0.4-0.5,0.6-3,1.8
			c-1.4,0.7-1.8,0.9-1.9,0.7s0.2-0.7,0.8-2.3c0.9-2.1,0.9-2.6,1.5-3c0.7-0.6,1.8-0.6,2.5,0C1717.8,16.1,1717.8,17.1,1717.3,18z"/>
		<path class="st0" d="M1646.8,17.4c0-4.9-3.7-8.9-8.2-8.9c-0.5,0-1,0.1-1.5,0.2c-2.5-5.2-8.7-7.3-13.9-4.8c-2.1,1-3.8,2.7-4.8,4.8
			c-0.5-0.1-1-0.1-1.5-0.2c-4.5,0-8.2,4-8.2,8.9c0,2.5,1,4.9,2.8,6.7h32.4C1645.8,22.3,1646.8,19.9,1646.8,17.4z M1620.5,20.5
			c-0.2,0.2-0.7-0.2-2.1-0.9c-2-1-2.4-1-2.8-1.6c-0.6-0.8-0.6-1.9,0-2.8c0.7-0.6,1.8-0.6,2.5,0c0.4,0.2,0.6,0.5,1.7,3.2
			C1620.6,20,1620.7,20.4,1620.5,20.5z M1629.1,17.7c-0.8,2.4-1,2.9-1.3,2.9s-0.5-1-1.3-3.4c-1.1-3.3-1.5-3.7-1.3-4.8
			c0.3-1.3,1.3-2.9,2.7-2.9s2.4,1.6,2.7,2.9C1630.6,13.1,1630.5,13.6,1629.1,17.7L1629.1,17.7z M1640.3,18c-0.2,0.4-0.5,0.6-3,1.8
			c-1.4,0.7-1.8,0.9-1.9,0.7s0.2-0.7,0.8-2.3c0.9-2.1,0.9-2.6,1.5-3c0.7-0.6,1.8-0.6,2.6,0C1640.8,16.1,1640.8,17.1,1640.3,18z"/>
		<path class="st0" d="M1913.6,24.1c-2.9,2.8-7.3,2.9-10.4,0.3c-3.5,2.5-8.2,2.5-11.7,0c-3,2.6-7.5,2.4-10.4-0.3h-6.2
			c-2.9,2.8-7.3,2.9-10.4,0.3c-3.5,2.5-8.2,2.5-11.7,0c-3,2.6-7.5,2.4-10.4-0.3h-6.1c-2.9,2.8-7.3,2.9-10.4,0.3
			c-3.5,2.5-8.2,2.5-11.7,0c-3,2.6-7.5,2.4-10.4-0.3h-6.1c-2.9,2.8-7.3,2.9-10.4,0.3c-3.5,2.5-8.2,2.5-11.7,0
			c-3,2.6-7.5,2.4-10.4-0.3h-6.1c-2.9,2.8-7.3,2.9-10.4,0.3c-3.5,2.5-8.2,2.5-11.7,0c-3,2.6-7.5,2.4-10.4-0.3h-6.1
			c-2.9,2.8-7.3,2.9-10.4,0.3c-3.5,2.5-8.2,2.5-11.7,0c-3,2.6-7.5,2.4-10.4-0.3h-6.1c-2.9,2.8-7.3,2.9-10.4,0.3
			c-3.5,2.5-8.2,2.5-11.7,0c-3,2.6-7.5,2.4-10.4-0.3h-6.1c-2.9,2.8-7.3,2.9-10.4,0.3c-3.5,2.5-8.2,2.5-11.7,0
			c-3,2.6-7.5,2.4-10.4-0.3h-6.1c-2.9,2.8-7.3,2.9-10.4,0.3c-3.5,2.5-8.2,2.5-11.7,0c-3,2.6-7.5,2.4-10.4-0.3h-6.1
			c-2.9,2.8-7.3,2.9-10.4,0.3c-3.5,2.5-8.2,2.5-11.7,0c-3,2.6-7.5,2.4-10.4-0.3h-6.1c-2.9,2.8-7.3,2.9-10.4,0.3
			c-3.5,2.5-8.2,2.5-11.7,0c-3,2.6-7.5,2.4-10.4-0.3h-6.1c-2.9,2.8-7.3,2.9-10.4,0.3c-3.5,2.5-8.2,2.5-11.7,0
			c-3,2.6-7.5,2.4-10.4-0.3h-6.1c-2.9,2.8-7.3,2.9-10.4,0.3c-3.5,2.5-8.2,2.5-11.7,0c-3,2.6-7.5,2.4-10.4-0.3h-6.6
			c-2.8,2.6-7.1,2.6-10,0.1c-3.4,2.4-8,2.4-11.4,0c-2.9,2.5-7.2,2.4-10-0.1h-3v5.4h539.7v-5.4H1913.6z"/>
		<path class="st0" d="M1391,24.2c3.4,2.4,8,2.4,11.4,0c2.9,2.5,7.2,2.4,10-0.1H1381C1383.8,26.7,1388.1,26.7,1391,24.2z"/>
		<path class="st0" d="M1660.4,24.4c3.5,2.5,8.2,2.5,11.7,0c3,2.6,7.5,2.4,10.4-0.3h-32.4C1652.9,26.9,1657.4,27,1660.4,24.4z"/>
		<path class="st0" d="M1583.4,24.4c3.5,2.5,8.2,2.5,11.7,0c3,2.6,7.5,2.4,10.4-0.3h-32.4C1575.9,26.9,1580.4,27,1583.4,24.4z"/>
		<path class="st0" d="M1544.9,24.4c3.5,2.5,8.2,2.5,11.7,0c3,2.6,7.5,2.4,10.4-0.3h-32.4C1537.4,26.9,1541.9,27,1544.9,24.4z"/>
		<path class="st0" d="M1891.5,24.4c3.5,2.5,8.2,2.5,11.7,0c3,2.6,7.5,2.4,10.4-0.3h-32.4C1884,26.9,1888.5,27,1891.5,24.4z"/>
		<path class="st0" d="M1506.4,24.4c3.5,2.5,8.2,2.5,11.7,0c3,2.6,7.5,2.4,10.4-0.3H1496C1498.9,26.9,1503.3,27,1506.4,24.4
			L1506.4,24.4z"/>
		<path class="st0" d="M1814.5,24.4c3.5,2.5,8.2,2.5,11.7,0c3,2.6,7.5,2.4,10.4-0.3h-32.4C1807,26.9,1811.5,27,1814.5,24.4z"/>
		<path class="st0" d="M1467.9,24.4c3.5,2.5,8.2,2.5,11.7,0c3,2.6,7.5,2.4,10.4-0.3h-32.4C1460.4,26.9,1464.9,27,1467.9,24.4z"/>
		<path class="st0" d="M1737.5,24.4c3.5,2.5,8.2,2.5,11.7,0c3,2.6,7.5,2.4,10.4-0.3h-32.4C1730,26.9,1734.5,27,1737.5,24.4z"/>
		<path class="st0" d="M1429.4,24.4c3.5,2.5,8.2,2.5,11.7,0c3,2.6,7.5,2.4,10.4-0.3H1419C1421.9,26.9,1426.3,27,1429.4,24.4z"/>
		<path class="st0" d="M1853,24.4c3.5,2.5,8.2,2.5,11.7,0c3,2.6,7.5,2.4,10.4-0.3h-32.4C1845.5,26.9,1850,27,1853,24.4z"/>
		<path class="st0" d="M1776,24.4c3.5,2.5,8.2,2.5,11.7,0c3,2.6,7.5,2.4,10.4-0.3h-32.4C1768.5,26.9,1773,27,1776,24.4z"/>
		<path class="st0" d="M1699,24.4c3.5,2.5,8.2,2.5,11.7,0c3,2.6,7.5,2.4,10.4-0.3h-32.4C1691.5,26.9,1695.9,27,1699,24.4L1699,24.4z
			"/>
		<path class="st0" d="M1621.9,24.4c3.5,2.5,8.2,2.5,11.7,0c3,2.6,7.5,2.4,10.4-0.3h-32.4C1614.4,26.9,1618.9,27,1621.9,24.4z"/>
	</g>
</g>
</svg>
