<?xml version="1.0" encoding="utf-8"?>
<!-- Generator: Adobe Illustrator 21.0.0, SVG Export Plug-In . SVG Version: 6.00 Build 0)  -->
<svg version="1.1" id="圖層_1" xmlns="http://www.w3.org/2000/svg" xmlns:xlink="http://www.w3.org/1999/xlink" x="0px" y="0px"
	 viewBox="0 0 1921.2 36.1" style="enable-background:new 0 0 1921.2 36.1;" xml:space="preserve">
<style type="text/css">
	.st0{fill:#F4F0E3;}
	.st1{fill:none;}
</style>
<title>資產 30</title>
<g id="圖層_2">
	<g id="圖層_1-2">
		<path class="st0" d="M32.8,8.6c-0.5,0-1,0.1-1.4,0.2c-1.7-3.5-5.3-5.7-9.2-5.8c-3.9,0.1-7.4,2.3-9.2,5.8c-0.5-0.1-1-0.1-1.5-0.2
			c-4.4,0-8,3.9-8,8.7s3.6,8.7,8,8.7c1.8,0,3.6-0.6,5-1.8c3.4,2.4,8,2.4,11.4,0c1.4,1.2,3.1,1.8,4.9,1.8c4.4,0,8-3.9,8-8.7
			S37.3,8.6,32.8,8.6z M15.1,20.4c-0.2,0.2-0.7-0.2-2.1-0.9c-1.9-1-2.3-1-2.7-1.6c-0.5-0.8-0.5-1.9,0-2.7c0.7-0.6,1.8-0.6,2.5,0
			c0.4,0.2,0.6,0.5,1.7,3.2C15.1,19.9,15.2,20.3,15.1,20.4z M23.5,17.6c-0.8,2.3-1,2.8-1.3,2.8s-0.5-0.9-1.3-3.3
			c-1.1-3.2-1.5-3.6-1.3-4.7c0.2-1.3,1.3-2.8,2.6-2.8s2.3,1.6,2.6,2.8C24.9,13.1,24.9,13.6,23.5,17.6z M34.5,17.9
			c-0.2,0.4-0.5,0.6-2.9,1.8c-1.4,0.7-1.7,0.8-1.9,0.7s0.2-0.7,0.8-2.2c0.9-2.1,0.9-2.5,1.5-2.9c0.7-0.6,1.8-0.6,2.5,0
			C35,16.1,35,17.1,34.5,17.9z"/>
		<path class="st0" d="M687.7,8.5c-0.5,0-1,0.1-1.5,0.2c-2.5-5.2-8.7-7.3-13.9-4.8c-2.1,1-3.8,2.7-4.8,4.8c-0.5-0.1-1-0.1-1.5-0.2
			c-4.5,0-8.2,4-8.2,8.9s3.7,8.9,8.2,8.9c1.8,0,3.6-0.7,5-1.9c3.5,2.5,8.2,2.5,11.7,0c1.4,1.2,3.2,1.8,5,1.9c4.5,0,8.2-4,8.2-8.9
			S692.3,8.5,687.7,8.5z M669.7,20.5c-0.2,0.2-0.7-0.2-2.1-0.9c-2-1-2.4-1-2.8-1.6c-0.6-0.8-0.6-1.9,0-2.8c0.8-0.6,1.8-0.6,2.5,0
			c0.4,0.2,0.6,0.5,1.7,3.2C669.7,20,669.8,20.4,669.7,20.5L669.7,20.5z M678.3,17.7c-0.8,2.4-1,2.9-1.3,2.9s-0.5-1-1.3-3.4
			c-1.1-3.3-1.5-3.7-1.3-4.8c0.3-1.3,1.3-2.9,2.7-2.9s2.4,1.6,2.7,2.9C679.7,13.1,679.7,13.6,678.3,17.7L678.3,17.7z M689.5,18
			c-0.2,0.4-0.5,0.6-3,1.8c-1.4,0.7-1.8,0.9-1.9,0.7s0.2-0.7,0.8-2.3c0.9-2.1,0.9-2.6,1.5-3c0.7-0.6,1.8-0.6,2.5,0
			C690,16.1,690,17.2,689.5,18L689.5,18z"/>
		<path class="st0" d="M302.6,8.5c-0.5,0-1,0.1-1.5,0.2c-2.5-5.2-8.7-7.3-13.9-4.8c-2.1,1-3.8,2.7-4.8,4.8c-0.5-0.1-1-0.1-1.5-0.2
			c-4.5,0-8.2,4-8.2,8.9s3.7,8.9,8.2,8.9c1.8,0,3.6-0.7,5-1.9c3.5,2.5,8.2,2.5,11.7,0c1.4,1.2,3.2,1.8,5,1.9c4.5,0,8.2-4,8.2-8.9
			S307.1,8.5,302.6,8.5z M284.6,20.5c-0.2,0.2-0.7-0.2-2.1-0.9c-2-1-2.4-1-2.8-1.6c-0.6-0.8-0.6-1.9,0-2.8c0.8-0.6,1.8-0.6,2.5,0
			c0.4,0.2,0.6,0.5,1.7,3.2C284.6,20,284.7,20.4,284.6,20.5L284.6,20.5z M293.1,17.7c-0.8,2.4-1,2.9-1.3,2.9s-0.5-1-1.3-3.4
			c-1.1-3.3-1.5-3.7-1.3-4.8c0.3-1.3,1.3-2.9,2.7-2.9s2.4,1.6,2.7,2.9C294.6,13.1,294.5,13.6,293.1,17.7L293.1,17.7z M304.3,18
			c-0.2,0.4-0.5,0.6-3,1.8c-1.4,0.7-1.8,0.9-1.9,0.7s0.2-0.7,0.9-2.3c0.9-2.1,0.9-2.6,1.5-3c0.7-0.6,1.8-0.6,2.5,0
			C304.8,16.1,304.8,17.2,304.3,18L304.3,18z"/>
		<path class="st0" d="M649.2,8.5c-0.5,0-1,0.1-1.5,0.2c-2.5-5.2-8.7-7.3-13.9-4.8c-2.1,1-3.8,2.7-4.8,4.8c-0.5-0.1-1-0.1-1.5-0.2
			c-4.5,0-8.2,4-8.2,8.9s3.7,8.9,8.2,8.9c1.8,0,3.6-0.7,5-1.9c3.5,2.5,8.2,2.5,11.7,0c1.4,1.2,3.2,1.8,5,1.9c4.5,0,8.2-4,8.2-8.9
			S653.8,8.5,649.2,8.5z M631.2,20.5c-0.2,0.2-0.7-0.2-2.1-0.9c-2-1-2.4-1-2.8-1.6c-0.6-0.8-0.6-1.9,0-2.8c0.8-0.6,1.8-0.6,2.5,0
			c0.4,0.2,0.6,0.5,1.7,3.2C631.2,20,631.3,20.4,631.2,20.5L631.2,20.5z M639.8,17.7c-0.8,2.4-1,2.9-1.3,2.9s-0.5-1-1.3-3.4
			c-1.1-3.3-1.5-3.7-1.3-4.8c0.3-1.3,1.3-2.9,2.7-2.9s2.4,1.6,2.7,2.9C641.2,13.1,641.2,13.6,639.8,17.7L639.8,17.7z M651,18
			c-0.2,0.4-0.5,0.6-3,1.8c-1.4,0.7-1.8,0.9-1.9,0.7s0.2-0.7,0.8-2.3c0.9-2.1,0.9-2.6,1.5-3c0.7-0.6,1.8-0.6,2.5,0
			C651.5,16.1,651.5,17.2,651,18L651,18z"/>
		<path class="st0" d="M225.6,8.5c-0.5,0-1,0.1-1.5,0.2c-2.5-5.2-8.7-7.3-13.9-4.8c-2.1,1-3.8,2.7-4.8,4.8c-0.5-0.1-1-0.1-1.5-0.2
			c-4.5,0-8.2,4-8.2,8.9s3.7,8.9,8.2,8.9c1.8,0,3.6-0.7,5-1.9c3.5,2.5,8.2,2.5,11.7,0c1.4,1.2,3.2,1.8,5,1.9c4.5,0,8.2-4,8.2-8.9
			S230.1,8.5,225.6,8.5z M207.6,20.5c-0.2,0.2-0.7-0.2-2.1-0.9c-2-1-2.4-1-2.8-1.6c-0.6-0.8-0.6-1.9,0-2.8c0.8-0.6,1.8-0.6,2.6,0
			c0.4,0.2,0.6,0.5,1.7,3.2C207.5,20,207.7,20.4,207.6,20.5L207.6,20.5z M216.1,17.7c-0.8,2.4-1,2.9-1.3,2.9s-0.5-1-1.3-3.4
			c-1.1-3.3-1.5-3.7-1.3-4.8c0.3-1.3,1.3-2.9,2.7-2.9s2.4,1.6,2.7,2.9C217.6,13.1,217.5,13.6,216.1,17.7L216.1,17.7z M227.3,18
			c-0.2,0.4-0.5,0.6-3,1.8c-1.4,0.7-1.8,0.9-1.9,0.7s0.2-0.7,0.9-2.3c0.9-2.1,0.9-2.6,1.5-3c0.7-0.6,1.8-0.6,2.6,0
			C227.8,16.1,227.8,17.2,227.3,18L227.3,18z"/>
		<path class="st0" d="M610.7,8.5c-0.5,0-1,0.1-1.5,0.2c-2.5-5.2-8.7-7.3-13.9-4.8c-2.1,1-3.8,2.7-4.8,4.8c-0.5-0.1-1-0.1-1.5-0.2
			c-4.5,0-8.2,4-8.2,8.9s3.7,8.9,8.2,8.9c1.8,0,3.6-0.7,5-1.9c3.5,2.5,8.2,2.5,11.7,0c1.4,1.2,3.2,1.8,5,1.9c4.5,0,8.2-4,8.2-8.9
			S615.2,8.5,610.7,8.5z M592.7,20.5c-0.2,0.2-0.7-0.2-2.1-0.9c-2-1-2.4-1-2.8-1.6c-0.6-0.8-0.6-1.9,0-2.8c0.8-0.6,1.8-0.6,2.5,0
			c0.4,0.2,0.6,0.5,1.7,3.2C592.7,20,592.8,20.4,592.7,20.5L592.7,20.5z M601.3,17.7c-0.8,2.4-1,2.9-1.3,2.9s-0.5-1-1.3-3.4
			c-1.1-3.3-1.5-3.7-1.3-4.8c0.3-1.3,1.3-2.9,2.7-2.9s2.4,1.6,2.7,2.9C602.7,13.1,602.6,13.6,601.3,17.7L601.3,17.7z M612.5,18
			c-0.2,0.4-0.5,0.6-3,1.8c-1.4,0.7-1.8,0.9-1.9,0.7s0.2-0.7,0.8-2.3c0.9-2.1,0.9-2.6,1.5-3c0.7-0.6,1.8-0.6,2.5,0
			C613,16.1,612.9,17.2,612.5,18L612.5,18z"/>
		<path class="st0" d="M187.1,8.5c-0.5,0-1,0.1-1.5,0.2c-2.5-5.2-8.7-7.3-13.9-4.8c-2.1,1-3.8,2.7-4.8,4.8c-0.5-0.1-1-0.1-1.5-0.2
			c-4.5,0-8.2,4-8.2,8.9s3.7,8.9,8.2,8.9c1.8,0,3.6-0.7,5-1.9c3.5,2.5,8.2,2.5,11.7,0c1.4,1.2,3.2,1.8,5,1.9c4.5,0,8.2-4,8.2-8.9
			S191.6,8.5,187.1,8.5z M169.1,20.5c-0.2,0.2-0.7-0.2-2.1-0.9c-2-1-2.4-1-2.8-1.6c-0.6-0.8-0.6-1.9,0-2.8c0.8-0.6,1.8-0.6,2.6,0
			c0.4,0.2,0.6,0.5,1.7,3.2C169,20,169.2,20.4,169.1,20.5L169.1,20.5z M177.6,17.7c-0.8,2.4-1,2.9-1.3,2.9s-0.5-1-1.3-3.4
			c-1.1-3.3-1.5-3.7-1.3-4.8c0.3-1.3,1.3-2.9,2.7-2.9s2.4,1.6,2.7,2.9C179,13.1,179,13.6,177.6,17.7L177.6,17.7z M188.8,18
			c-0.2,0.4-0.5,0.6-3,1.8c-1.4,0.7-1.8,0.9-1.9,0.7s0.2-0.7,0.9-2.3c0.9-2.1,0.9-2.6,1.5-3c0.7-0.6,1.8-0.6,2.6,0
			C189.3,16.1,189.3,17.2,188.8,18L188.8,18z"/>
		<path class="st0" d="M533.7,8.5c-0.5,0-1,0.1-1.5,0.2c-2.5-5.2-8.7-7.3-13.9-4.8c-2.1,1-3.8,2.7-4.8,4.8c-0.5-0.1-1-0.1-1.5-0.2
			c-4.5,0-8.2,4-8.2,8.9s3.7,8.9,8.2,8.9c1.8,0,3.6-0.7,5-1.9c3.5,2.5,8.2,2.5,11.7,0c1.4,1.2,3.2,1.8,5,1.9c4.5,0,8.2-4,8.2-8.9
			S538.2,8.5,533.7,8.5z M515.7,20.5c-0.2,0.2-0.7-0.2-2.1-0.9c-2-1-2.4-1-2.8-1.6c-0.6-0.8-0.6-1.9,0-2.8c0.8-0.6,1.8-0.6,2.5,0
			c0.4,0.2,0.6,0.5,1.7,3.2C515.7,20,515.8,20.4,515.7,20.5L515.7,20.5z M524.2,17.7c-0.8,2.4-1,2.9-1.3,2.9s-0.5-1-1.3-3.4
			c-1.1-3.3-1.5-3.7-1.3-4.8c0.3-1.3,1.3-2.9,2.7-2.9s2.4,1.6,2.7,2.9C525.7,13.1,525.6,13.6,524.2,17.7L524.2,17.7z M535.4,18
			c-0.2,0.4-0.5,0.6-3,1.8c-1.4,0.7-1.8,0.9-1.9,0.7s0.2-0.7,0.8-2.3c0.9-2.1,0.9-2.6,1.5-3c0.7-0.6,1.8-0.6,2.5,0
			C535.9,16.1,535.9,17.2,535.4,18L535.4,18z"/>
		<path class="st0" d="M148.5,8.5c-0.5,0-1,0.1-1.5,0.2c-2.5-5.2-8.7-7.3-13.9-4.8c-2.1,1-3.8,2.7-4.8,4.8c-0.5-0.1-1-0.1-1.5-0.2
			c-4.5,0-8.2,4-8.2,8.9s3.7,8.9,8.2,8.9c1.8,0,3.6-0.7,5-1.9c3.5,2.5,8.2,2.5,11.7,0c1.4,1.2,3.2,1.8,5,1.9c4.5,0,8.2-4,8.2-8.9
			S153.1,8.5,148.5,8.5z M130.5,20.5c-0.2,0.2-0.7-0.2-2.1-0.9c-2-1-2.4-1-2.8-1.6c-0.6-0.8-0.6-1.9,0-2.8c0.8-0.6,1.8-0.6,2.6,0
			c0.4,0.2,0.6,0.5,1.7,3.2C130.5,20,130.7,20.4,130.5,20.5L130.5,20.5z M139.1,17.7c-0.8,2.4-1,2.9-1.3,2.9s-0.5-1-1.3-3.4
			c-1.1-3.3-1.5-3.7-1.3-4.8c0.3-1.3,1.3-2.9,2.7-2.9s2.4,1.6,2.7,2.9C140.5,13.1,140.5,13.6,139.1,17.7L139.1,17.7z M150.2,18
			c-0.2,0.4-0.5,0.6-3,1.8c-1.4,0.7-1.8,0.9-1.9,0.7s0.2-0.7,0.9-2.3c0.9-2.1,0.9-2.6,1.5-3c0.7-0.6,1.8-0.6,2.6,0
			C150.8,16.1,150.8,17.1,150.2,18L150.2,18z"/>
		<path class="st0" d="M456.7,8.5c-0.5,0-1,0.1-1.5,0.2c-2.5-5.2-8.7-7.3-13.9-4.8c-2.1,1-3.8,2.7-4.8,4.8c-0.5-0.1-1-0.1-1.5-0.2
			c-4.5,0-8.2,4-8.2,8.9s3.7,8.9,8.2,8.9c1.8,0,3.6-0.7,5-1.9c3.5,2.5,8.2,2.5,11.7,0c1.4,1.2,3.2,1.8,5,1.9c4.5,0,8.2-4,8.2-8.9
			S461.2,8.5,456.7,8.5z M438.7,20.5c-0.2,0.2-0.7-0.2-2.1-0.9c-2-1-2.4-1-2.8-1.6c-0.6-0.8-0.6-1.9,0-2.8c0.8-0.6,1.8-0.6,2.5,0
			c0.4,0.2,0.6,0.5,1.7,3.2C438.6,20,438.8,20.4,438.7,20.5L438.7,20.5z M447.2,17.7c-0.8,2.4-1,2.9-1.3,2.9s-0.5-1-1.3-3.4
			c-1.1-3.3-1.5-3.7-1.3-4.8c0.3-1.3,1.3-2.9,2.7-2.9s2.4,1.6,2.7,2.9C448.6,13.1,448.6,13.6,447.2,17.7L447.2,17.7z M458.4,18
			c-0.2,0.4-0.5,0.6-3,1.8c-1.4,0.7-1.8,0.9-1.9,0.7s0.2-0.7,0.9-2.3c0.9-2.1,0.9-2.6,1.5-3c0.7-0.6,1.8-0.6,2.5,0
			C458.9,16.1,458.9,17.2,458.4,18L458.4,18z"/>
		<path class="st0" d="M110,8.5c-0.5,0-1,0.1-1.5,0.2c-2.5-5.2-8.7-7.3-13.9-4.8c-2.1,1-3.8,2.7-4.8,4.8c-0.5-0.1-1-0.1-1.5-0.2
			c-4.5,0-8.2,4-8.2,8.9s3.7,8.9,8.2,8.9c1.8,0,3.6-0.7,5-1.9c3.5,2.5,8.2,2.5,11.7,0c1.4,1.2,3.2,1.8,5,1.9c4.5,0,8.2-4,8.2-8.9
			S114.6,8.5,110,8.5z M92,20.5c-0.2,0.2-0.7-0.2-2.1-0.9c-2-1-2.4-1-2.8-1.6c-0.6-0.8-0.6-1.9,0-2.8c0.8-0.6,1.8-0.6,2.6,0
			c0.4,0.2,0.6,0.5,1.7,3.2C92,20,92.1,20.4,92,20.5L92,20.5z M100.5,17.7c-0.8,2.4-1,2.9-1.3,2.9s-0.5-1-1.3-3.4
			c-1.1-3.3-1.5-3.7-1.3-4.8c0.3-1.3,1.3-2.9,2.7-2.9s2.4,1.6,2.7,2.9C102,13.1,101.9,13.6,100.5,17.7z M111.7,18
			c-0.2,0.4-0.5,0.6-3,1.8c-1.4,0.7-1.8,0.9-1.9,0.7s0.2-0.7,0.8-2.3c0.9-2.1,0.9-2.6,1.5-3c0.7-0.6,1.8-0.6,2.6,0
			C112.2,16.1,112.2,17.1,111.7,18L111.7,18z"/>
		<path class="st0" d="M379.6,8.5c-0.5,0-1,0.1-1.5,0.2c-2.5-5.2-8.7-7.3-13.9-4.8c-2.1,1-3.8,2.7-4.8,4.8c-0.5-0.1-1-0.1-1.5-0.2
			c-4.5,0-8.2,4-8.2,8.9s3.7,8.9,8.2,8.9c1.8,0,3.6-0.7,5-1.9c3.5,2.5,8.2,2.5,11.7,0c1.4,1.2,3.2,1.8,5,1.9c4.5,0,8.2-4,8.2-8.9
			S384.2,8.5,379.6,8.5z M361.6,20.5c-0.2,0.2-0.7-0.2-2.1-0.9c-2-1-2.4-1-2.8-1.6c-0.6-0.8-0.6-1.9,0-2.8c0.8-0.6,1.8-0.6,2.5,0
			c0.4,0.2,0.6,0.5,1.7,3.2C361.6,20,361.7,20.4,361.6,20.5L361.6,20.5z M370.2,17.7c-0.8,2.4-1,2.9-1.3,2.9s-0.5-1-1.3-3.4
			c-1.1-3.3-1.5-3.7-1.3-4.8c0.3-1.3,1.3-2.9,2.7-2.9s2.4,1.6,2.7,2.9C371.6,13.1,371.5,13.6,370.2,17.7L370.2,17.7z M381.4,18
			c-0.2,0.4-0.5,0.6-3,1.8c-1.4,0.7-1.8,0.9-1.9,0.7s0.2-0.7,0.9-2.3c0.9-2.1,0.9-2.6,1.5-3c0.7-0.6,1.8-0.6,2.5,0
			C381.9,16.1,381.9,17.2,381.4,18L381.4,18z"/>
		<path class="st0" d="M71.5,8.5c-0.5,0-1,0.1-1.5,0.2c-2.5-5.2-8.7-7.3-13.9-4.8c-2.1,1-3.8,2.7-4.8,4.8c-0.5-0.1-1-0.1-1.5-0.2
			c-4.5,0-8.2,4-8.2,8.9s3.7,8.9,8.2,8.9c1.8,0,3.6-0.7,5-1.9c3.5,2.5,8.2,2.5,11.7,0c1.4,1.2,3.2,1.8,5,1.9c4.5,0,8.2-4,8.2-8.9
			S76,8.5,71.5,8.5z M53.5,20.5c-0.2,0.2-0.7-0.2-2.1-0.9c-2-1-2.4-1-2.8-1.6c-0.6-0.8-0.6-1.9,0-2.8c0.8-0.6,1.8-0.6,2.5,0
			c0.4,0.2,0.6,0.5,1.7,3.2C53.5,20,53.6,20.4,53.5,20.5L53.5,20.5z M62,17.7c-0.8,2.4-1,2.9-1.3,2.9s-0.5-1-1.3-3.4
			c-1.1-3.3-1.5-3.7-1.3-4.8c0.3-1.3,1.3-2.9,2.7-2.9s2.4,1.6,2.7,2.9C63.5,13.1,63.4,13.6,62,17.7L62,17.7z M73.2,18
			c-0.2,0.4-0.5,0.6-3,1.8c-1.4,0.7-1.8,0.9-1.9,0.7s0.2-0.7,0.8-2.3c0.9-2.1,0.9-2.6,1.5-3c0.7-0.6,1.8-0.6,2.6,0
			C73.7,16.1,73.7,17.2,73.2,18L73.2,18z"/>
		<path class="st0" d="M572.2,8.5c-0.5,0-1,0.1-1.5,0.2c-2.5-5.2-8.7-7.3-13.9-4.8c-2.1,1-3.8,2.7-4.8,4.8c-0.5-0.1-1-0.1-1.5-0.2
			c-4.5,0-8.2,4-8.2,8.9s3.7,8.9,8.2,8.9c1.8,0,3.6-0.7,5-1.9c3.5,2.5,8.2,2.5,11.7,0c1.4,1.2,3.2,1.8,5,1.9c4.5,0,8.2-4,8.2-8.9
			S576.7,8.5,572.2,8.5z M554.2,20.5c-0.2,0.2-0.7-0.2-2.1-0.9c-2-1-2.4-1-2.8-1.6c-0.6-0.8-0.6-1.9,0-2.8c0.8-0.6,1.8-0.6,2.5,0
			c0.4,0.2,0.6,0.5,1.7,3.2C554.2,20,554.3,20.4,554.2,20.5L554.2,20.5z M562.7,17.7c-0.8,2.4-1,2.9-1.3,2.9s-0.5-1-1.3-3.4
			c-1.1-3.3-1.5-3.7-1.3-4.8c0.3-1.3,1.3-2.9,2.7-2.9s2.4,1.6,2.7,2.9C564.2,13.1,564.1,13.6,562.7,17.7L562.7,17.7z M573.9,18
			c-0.2,0.4-0.5,0.6-3,1.8c-1.4,0.7-1.8,0.9-1.9,0.7s0.2-0.7,0.8-2.3c0.9-2.1,0.9-2.6,1.5-3c0.7-0.6,1.8-0.6,2.5,0
			C574.4,16.1,574.4,17.2,573.9,18L573.9,18z"/>
		<path class="st0" d="M495.2,8.5c-0.5,0-1,0.1-1.5,0.2c-2.5-5.2-8.7-7.3-13.9-4.8c-2.1,1-3.8,2.7-4.8,4.8c-0.5-0.1-1-0.1-1.5-0.2
			c-4.5,0-8.2,4-8.2,8.9s3.7,8.9,8.2,8.9c1.8,0,3.6-0.7,5-1.9c3.5,2.5,8.2,2.5,11.7,0c1.4,1.2,3.2,1.8,5,1.9c4.5,0,8.2-4,8.2-8.9
			S499.7,8.5,495.2,8.5z M477.2,20.5c-0.2,0.2-0.7-0.2-2.1-0.9c-2-1-2.4-1-2.8-1.6c-0.6-0.8-0.6-1.9,0-2.8c0.8-0.6,1.8-0.6,2.5,0
			c0.4,0.2,0.6,0.5,1.7,3.2C477.1,20,477.3,20.4,477.2,20.5L477.2,20.5z M485.7,17.7c-0.8,2.4-1,2.9-1.3,2.9s-0.5-1-1.3-3.4
			c-1.1-3.3-1.5-3.7-1.3-4.8c0.3-1.3,1.3-2.9,2.7-2.9s2.4,1.6,2.7,2.9C487.2,13.1,487.1,13.6,485.7,17.7L485.7,17.7z M496.9,18
			c-0.2,0.4-0.5,0.6-3,1.8c-1.4,0.7-1.8,0.9-1.9,0.7s0.2-0.7,0.9-2.3c0.9-2.1,0.9-2.6,1.5-3c0.7-0.6,1.8-0.6,2.5,0
			C497.4,16.1,497.4,17.2,496.9,18L496.9,18z"/>
		<path class="st0" d="M418.1,8.5c-0.5,0-1,0.1-1.5,0.2c-2.5-5.2-8.7-7.3-13.9-4.8c-2.1,1-3.8,2.7-4.8,4.8c-0.5-0.1-1-0.1-1.5-0.2
			c-4.5,0-8.2,4-8.2,8.9s3.7,8.9,8.2,8.9c1.8,0,3.6-0.7,5-1.9c3.5,2.5,8.2,2.5,11.7,0c1.4,1.2,3.2,1.8,5,1.9c4.5,0,8.2-4,8.2-8.9
			S422.7,8.5,418.1,8.5z M400.1,20.5c-0.2,0.2-0.7-0.2-2.1-0.9c-2-1-2.4-1-2.8-1.6c-0.6-0.8-0.6-1.9,0-2.8c0.8-0.6,1.8-0.6,2.5,0
			c0.4,0.2,0.6,0.5,1.7,3.2C400.1,20,400.3,20.4,400.1,20.5L400.1,20.5z M408.7,17.7c-0.8,2.4-1,2.9-1.3,2.9s-0.5-1-1.3-3.4
			c-1.1-3.3-1.5-3.7-1.3-4.8c0.3-1.3,1.3-2.9,2.7-2.9s2.4,1.6,2.7,2.9C410.1,13.1,410.1,13.6,408.7,17.7L408.7,17.7z M419.9,18
			c-0.2,0.4-0.5,0.6-3,1.8c-1.4,0.7-1.8,0.9-1.9,0.7s0.2-0.7,0.9-2.3c0.9-2.1,0.9-2.6,1.5-3c0.7-0.6,1.8-0.6,2.5,0
			C420.4,16.1,420.4,17.2,419.9,18L419.9,18z"/>
		<path class="st0" d="M341.1,8.5c-0.5,0-1,0.1-1.5,0.2c-2.5-5.2-8.7-7.3-13.9-4.8c-2.1,1-3.8,2.7-4.8,4.8c-0.5-0.1-0.9-0.1-1.4-0.2
			c-4.5,0-8.2,4-8.2,8.9s3.7,8.9,8.2,8.9c1.8,0,3.6-0.7,5-1.9c3.5,2.5,8.2,2.5,11.7,0c1.4,1.2,3.2,1.8,5,1.9c4.5,0,8.2-4,8.2-8.9
			S345.6,8.5,341.1,8.5z M323.1,20.5c-0.2,0.2-0.7-0.2-2.1-0.9c-2-1-2.4-1-2.8-1.6c-0.6-0.8-0.6-1.9,0-2.8c0.8-0.6,1.8-0.6,2.5,0
			c0.4,0.2,0.6,0.5,1.7,3.2C323.1,20,323.2,20.4,323.1,20.5L323.1,20.5z M331.7,17.7c-0.8,2.4-1,2.9-1.3,2.9s-0.5-1-1.3-3.4
			c-1.1-3.3-1.5-3.7-1.3-4.8c0.3-1.3,1.3-2.9,2.7-2.9s2.4,1.6,2.7,2.9C333.1,13.1,333,13.6,331.7,17.7L331.7,17.7z M342.9,18
			c-0.2,0.4-0.5,0.6-3,1.8c-1.4,0.7-1.8,0.9-1.9,0.7s0.2-0.7,0.9-2.3c0.9-2.1,0.9-2.6,1.5-3c0.7-0.6,1.8-0.6,2.5,0
			C343.4,16.1,343.3,17.2,342.9,18L342.9,18z"/>
		<path class="st0" d="M264.1,8.5c-0.5,0-1,0.1-1.5,0.2c-2.5-5.2-8.7-7.3-13.9-4.8c-2.1,1-3.8,2.7-4.8,4.8c-0.5-0.1-1-0.1-1.5-0.2
			c-4.5,0-8.2,4-8.2,8.9s3.7,8.9,8.2,8.9c1.8,0,3.6-0.7,5-1.9c3.5,2.5,8.2,2.5,11.7,0c1.4,1.2,3.2,1.8,5,1.9c4.5,0,8.2-4,8.2-8.9
			S268.6,8.5,264.1,8.5z M246.1,20.5c-0.2,0.2-0.7-0.2-2.1-0.9c-2-1-2.4-1-2.8-1.6c-0.6-0.8-0.6-1.9,0-2.8c0.8-0.6,1.8-0.6,2.6,0
			c0.4,0.2,0.6,0.5,1.7,3.2C246.1,20,246.2,20.4,246.1,20.5L246.1,20.5z M254.6,17.7c-0.8,2.4-1,2.9-1.3,2.9s-0.5-1-1.3-3.4
			c-1.1-3.3-1.5-3.7-1.3-4.8c0.3-1.3,1.3-2.9,2.7-2.9s2.4,1.6,2.7,2.9C256.1,13.1,256,13.6,254.6,17.7L254.6,17.7z M265.8,18
			c-0.2,0.4-0.5,0.6-3,1.8c-1.4,0.7-1.8,0.9-1.9,0.7s0.2-0.7,0.9-2.3c0.9-2.1,0.9-2.6,1.5-3c0.7-0.6,1.8-0.6,2.5,0
			C266.3,16.1,266.3,17.2,265.8,18L265.8,18z"/>
		<rect y="24.1" class="st0" width="692.8" height="5.4"/>
		<path class="st0" d="M721.8,8.6c-0.5,0-1,0.1-1.4,0.1c-2.5-5.1-8.6-7.2-13.7-4.7c-2,1-3.7,2.7-4.7,4.7c-0.5-0.1-1-0.2-1.5-0.1
			c-4.4,0-8,3.9-8,8.7s3.6,8.7,8,8.7c1.8,0,3.6-0.6,5-1.8c3.4,2.4,8,2.4,11.4,0c1.4,1.2,3.1,1.8,4.9,1.8c4.4,0,8-3.9,8-8.7
			S726.3,8.6,721.8,8.6z M704.1,20.4c-0.2,0.2-0.7-0.2-2.1-0.9c-2-1-2.3-1-2.7-1.6c-0.5-0.8-0.5-1.9,0-2.7c0.7-0.6,1.8-0.6,2.5,0
			c0.4,0.2,0.5,0.5,1.7,3.2C704.1,19.9,704.2,20.3,704.1,20.4z M712.5,17.7c-0.8,2.3-1,2.8-1.3,2.8s-0.5-0.9-1.3-3.3
			c-1.1-3.2-1.5-3.6-1.3-4.7c0.2-1.3,1.3-2.8,2.6-2.8s2.3,1.6,2.6,2.8C713.9,13.1,713.9,13.6,712.5,17.7L712.5,17.7z M723.5,17.9
			c-0.2,0.4-0.5,0.6-2.9,1.8c-1.4,0.7-1.7,0.8-1.9,0.7s0.2-0.7,0.8-2.2c0.9-2.1,0.9-2.5,1.5-2.9c0.7-0.6,1.8-0.6,2.5,0
			C724,16.1,724,17.1,723.5,17.9L723.5,17.9z"/>
		<path class="st0" d="M1376.7,8.5c-0.5,0-1,0.1-1.5,0.2c-2.5-5.2-8.7-7.3-13.9-4.8c-2.1,1-3.8,2.7-4.8,4.8c-0.5-0.1-1-0.1-1.5-0.2
			c-4.5,0-8.2,4-8.2,8.9s3.7,8.9,8.2,8.9c1.8,0,3.6-0.7,5-1.9c3.5,2.5,8.2,2.5,11.7,0c1.4,1.2,3.2,1.8,5,1.9c4.5,0,8.2-4,8.2-8.9
			S1381.3,8.5,1376.7,8.5z M1358.7,20.5c-0.2,0.2-0.7-0.2-2.1-0.9c-2-1-2.4-1-2.8-1.6c-0.6-0.8-0.6-1.9,0-2.8c0.8-0.6,1.8-0.6,2.6,0
			c0.4,0.2,0.6,0.5,1.7,3.2C1358.7,20,1358.8,20.4,1358.7,20.5L1358.7,20.5z M1367.3,17.7c-0.8,2.4-1,2.9-1.3,2.9s-0.5-1-1.3-3.4
			c-1.1-3.3-1.5-3.7-1.3-4.8c0.3-1.3,1.3-2.9,2.7-2.9s2.4,1.6,2.7,2.9C1368.7,13.1,1368.7,13.6,1367.3,17.7L1367.3,17.7z M1378.5,18
			c-0.2,0.4-0.5,0.6-3,1.8c-1.4,0.7-1.8,0.9-1.9,0.7s0.2-0.7,0.8-2.3c0.9-2.1,0.9-2.6,1.5-3c0.7-0.6,1.8-0.6,2.6,0
			C1379,16.1,1379,17.2,1378.5,18L1378.5,18z"/>
		<path class="st0" d="M991.6,8.5c-0.5,0-1,0.1-1.5,0.2c-2.5-5.2-8.7-7.3-13.9-4.8c-2.1,1-3.8,2.7-4.8,4.8c-0.5-0.1-1-0.1-1.5-0.2
			c-4.5,0-8.2,4-8.2,8.9s3.7,8.9,8.2,8.9c1.8,0,3.6-0.7,5-1.9c3.5,2.5,8.2,2.5,11.7,0c1.4,1.2,3.2,1.8,5,1.9c4.5,0,8.2-4,8.2-8.9
			S996.1,8.5,991.6,8.5z M973.6,20.5c-0.2,0.2-0.7-0.2-2.1-0.9c-2-1-2.4-1-2.8-1.6c-0.6-0.8-0.6-1.9,0-2.8c0.8-0.6,1.8-0.6,2.5,0
			c0.4,0.2,0.6,0.5,1.7,3.2C973.6,20,973.7,20.4,973.6,20.5L973.6,20.5z M982.1,17.7c-0.8,2.4-1,2.9-1.3,2.9s-0.5-1-1.3-3.4
			c-1.1-3.3-1.5-3.7-1.3-4.8c0.3-1.3,1.3-2.9,2.7-2.9s2.4,1.6,2.7,2.9C983.6,13.1,983.5,13.6,982.1,17.7L982.1,17.7z M993.3,18
			c-0.2,0.4-0.5,0.6-3,1.8c-1.4,0.7-1.8,0.9-1.9,0.7s0.2-0.7,0.8-2.3c0.9-2.1,0.9-2.6,1.5-3c0.7-0.6,1.8-0.6,2.5,0
			C993.8,16.1,993.8,17.2,993.3,18L993.3,18z"/>
		<path class="st0" d="M1338.2,8.5c-0.5,0-1,0.1-1.5,0.2c-2.5-5.2-8.7-7.3-13.9-4.8c-2.1,1-3.8,2.7-4.8,4.8c-0.5-0.1-1-0.1-1.5-0.2
			c-4.5,0-8.2,4-8.2,8.9s3.7,8.9,8.2,8.9c1.8,0,3.6-0.7,5-1.9c3.5,2.5,8.2,2.5,11.7,0c1.4,1.2,3.2,1.8,5,1.9c4.5,0,8.2-4,8.2-8.9
			S1342.8,8.5,1338.2,8.5z M1320.2,20.5c-0.2,0.2-0.7-0.2-2.1-0.9c-2-1-2.4-1-2.8-1.6c-0.6-0.8-0.6-1.9,0-2.8c0.8-0.6,1.8-0.6,2.6,0
			c0.4,0.2,0.6,0.5,1.7,3.2C1320.2,20,1320.3,20.4,1320.2,20.5L1320.2,20.5z M1328.8,17.7c-0.8,2.4-1,2.9-1.3,2.9s-0.5-1-1.3-3.4
			c-1.1-3.3-1.5-3.7-1.3-4.8c0.3-1.3,1.3-2.9,2.7-2.9s2.4,1.6,2.7,2.9C1330.2,13.1,1330.2,13.6,1328.8,17.7L1328.8,17.7z M1340,18
			c-0.2,0.4-0.5,0.6-3,1.8c-1.4,0.7-1.8,0.9-1.9,0.7s0.2-0.7,0.8-2.3c0.9-2.1,0.9-2.6,1.5-3c0.7-0.6,1.8-0.6,2.6,0
			C1340.5,16.1,1340.5,17.2,1340,18L1340,18z"/>
		<path class="st0" d="M914.6,8.5c-0.5,0-1,0.1-1.5,0.2c-2.5-5.2-8.7-7.3-13.9-4.8c-2.1,1-3.8,2.7-4.8,4.8c-0.5-0.1-1-0.1-1.5-0.2
			c-4.5,0-8.2,4-8.2,8.9s3.7,8.9,8.2,8.9c1.8,0,3.6-0.7,5-1.9c3.5,2.5,8.2,2.5,11.7,0c1.4,1.2,3.2,1.8,5,1.9c4.5,0,8.2-4,8.2-8.9
			S919.1,8.5,914.6,8.5z M896.6,20.5c-0.2,0.2-0.7-0.2-2.1-0.9c-2-1-2.4-1-2.8-1.6c-0.6-0.8-0.6-1.9,0-2.8c0.8-0.6,1.8-0.6,2.5,0
			c0.4,0.2,0.6,0.5,1.7,3.2C896.5,20,896.7,20.4,896.6,20.5L896.6,20.5z M905.1,17.7c-0.8,2.4-1,2.9-1.3,2.9s-0.5-1-1.3-3.4
			c-1.1-3.3-1.5-3.7-1.3-4.8c0.3-1.3,1.3-2.9,2.7-2.9s2.4,1.6,2.7,2.9C906.6,13.1,906.5,13.6,905.1,17.7L905.1,17.7z M916.3,18
			c-0.2,0.4-0.5,0.6-3,1.8c-1.4,0.7-1.8,0.9-1.9,0.7s0.2-0.7,0.8-2.3c0.9-2.1,0.9-2.6,1.5-3c0.7-0.6,1.8-0.6,2.5,0
			C916.8,16.1,916.8,17.2,916.3,18L916.3,18z"/>
		<path class="st0" d="M1299.7,8.5c-0.5,0-1,0.1-1.5,0.2c-2.5-5.2-8.7-7.3-13.9-4.8c-2.1,1-3.8,2.7-4.8,4.8c-0.5-0.1-1-0.1-1.5-0.2
			c-4.5,0-8.2,4-8.2,8.9s3.7,8.9,8.2,8.9c1.8,0,3.6-0.7,5-1.9c3.5,2.5,8.2,2.5,11.7,0c1.4,1.2,3.2,1.8,5,1.9c4.5,0,8.2-4,8.2-8.9
			S1304.2,8.5,1299.7,8.5z M1281.7,20.5c-0.2,0.2-0.7-0.2-2.1-0.9c-2-1-2.4-1-2.8-1.6c-0.6-0.8-0.6-1.9,0-2.8c0.8-0.6,1.8-0.6,2.6,0
			c0.4,0.2,0.6,0.5,1.7,3.2C1281.7,20,1281.8,20.4,1281.7,20.5L1281.7,20.5z M1290.3,17.7c-0.8,2.4-1,2.9-1.3,2.9s-0.5-1-1.3-3.4
			c-1.1-3.3-1.5-3.7-1.3-4.8c0.3-1.3,1.3-2.9,2.7-2.9s2.4,1.6,2.7,2.9C1291.7,13.1,1291.6,13.6,1290.3,17.7L1290.3,17.7z M1301.5,18
			c-0.2,0.4-0.5,0.6-3,1.8c-1.4,0.7-1.8,0.9-1.9,0.7s0.2-0.7,0.8-2.3c0.9-2.1,0.9-2.6,1.5-3c0.7-0.6,1.8-0.6,2.6,0
			C1302,16.1,1301.9,17.2,1301.5,18L1301.5,18z"/>
		<path class="st0" d="M876.1,8.5c-0.5,0-1,0.1-1.5,0.2c-2.5-5.2-8.7-7.3-13.9-4.8c-2.1,1-3.8,2.7-4.8,4.8c-0.5-0.1-1-0.1-1.5-0.2
			c-4.5,0-8.2,4-8.2,8.9s3.7,8.9,8.2,8.9c1.8,0,3.6-0.7,5-1.9c3.5,2.5,8.2,2.5,11.7,0c1.4,1.2,3.2,1.8,5,1.9c4.5,0,8.2-4,8.2-8.9
			S880.6,8.5,876.1,8.5z M858.1,20.5c-0.2,0.2-0.7-0.2-2.1-0.9c-2-1-2.4-1-2.8-1.6c-0.6-0.8-0.6-1.9,0-2.8c0.8-0.6,1.8-0.6,2.5,0
			c0.4,0.2,0.6,0.5,1.7,3.2C858,20,858.2,20.4,858.1,20.5L858.1,20.5z M866.6,17.7c-0.8,2.4-1,2.9-1.3,2.9s-0.5-1-1.3-3.4
			c-1.1-3.3-1.5-3.7-1.3-4.8c0.3-1.3,1.3-2.9,2.7-2.9s2.4,1.6,2.7,2.9C868,13.1,868,13.6,866.6,17.7L866.6,17.7z M877.8,18
			c-0.2,0.4-0.5,0.6-3,1.8c-1.4,0.7-1.8,0.9-1.9,0.7s0.2-0.7,0.8-2.3c0.9-2.1,0.9-2.6,1.5-3c0.7-0.6,1.8-0.6,2.5,0
			C878.3,16.1,878.3,17.2,877.8,18L877.8,18z"/>
		<path class="st0" d="M1222.7,8.5c-0.5,0-1,0.1-1.5,0.2c-2.5-5.2-8.7-7.3-13.9-4.8c-2.1,1-3.8,2.7-4.8,4.8c-0.5-0.1-1-0.1-1.5-0.2
			c-4.5,0-8.2,4-8.2,8.9s3.7,8.9,8.2,8.9c1.8,0,3.6-0.7,5-1.9c3.5,2.5,8.2,2.5,11.7,0c1.4,1.2,3.2,1.8,5,1.9c4.5,0,8.2-4,8.2-8.9
			S1227.2,8.5,1222.7,8.5z M1204.7,20.5c-0.2,0.2-0.7-0.2-2.1-0.9c-2-1-2.4-1-2.8-1.6c-0.6-0.8-0.6-1.9,0-2.8c0.8-0.6,1.8-0.6,2.6,0
			c0.4,0.2,0.6,0.5,1.7,3.2C1204.7,20,1204.8,20.4,1204.7,20.5L1204.7,20.5z M1213.2,17.7c-0.8,2.4-1,2.9-1.3,2.9s-0.5-1-1.3-3.4
			c-1.1-3.3-1.5-3.7-1.3-4.8c0.3-1.3,1.3-2.9,2.7-2.9s2.4,1.6,2.7,2.9C1214.7,13.1,1214.6,13.6,1213.2,17.7L1213.2,17.7z M1224.4,18
			c-0.2,0.4-0.5,0.6-3,1.8c-1.4,0.7-1.8,0.9-1.9,0.7s0.2-0.7,0.8-2.3c0.9-2.1,0.9-2.6,1.5-3c0.7-0.6,1.8-0.6,2.6,0
			C1224.9,16.1,1224.9,17.2,1224.4,18L1224.4,18z"/>
		<path class="st0" d="M837.5,8.5c-0.5,0-1,0.1-1.5,0.2c-2.5-5.2-8.7-7.3-13.9-4.8c-2.1,1-3.8,2.7-4.8,4.8c-0.5-0.1-1-0.1-1.5-0.2
			c-4.5,0-8.2,4-8.2,8.9s3.7,8.9,8.2,8.9c1.8,0,3.6-0.7,5-1.9c3.5,2.5,8.2,2.5,11.7,0c1.4,1.2,3.2,1.8,5,1.9c4.5,0,8.2-4,8.2-8.9
			S842.1,8.5,837.5,8.5z M819.5,20.5c-0.2,0.2-0.7-0.2-2.1-0.9c-2-1-2.4-1-2.8-1.6c-0.6-0.8-0.6-1.9,0-2.8c0.8-0.6,1.8-0.6,2.5,0
			c0.4,0.2,0.6,0.5,1.7,3.2C819.5,20,819.7,20.4,819.5,20.5L819.5,20.5z M828,17.7c-0.8,2.4-1,2.9-1.3,2.9s-0.5-1-1.3-3.4
			c-1.1-3.3-1.5-3.7-1.3-4.8c0.3-1.3,1.3-2.9,2.7-2.9s2.4,1.6,2.7,2.9C829.5,13.1,829.5,13.6,828,17.7L828,17.7z M839.2,18
			c-0.2,0.4-0.5,0.6-3,1.8c-1.4,0.7-1.8,0.9-1.9,0.7s0.2-0.7,0.8-2.3c0.9-2.1,0.9-2.6,1.5-3c0.7-0.6,1.8-0.6,2.5,0
			C839.8,16.1,839.8,17.1,839.2,18L839.2,18z"/>
		<path class="st0" d="M1145.7,8.5c-0.5,0-1,0.1-1.5,0.2c-2.5-5.2-8.7-7.3-13.9-4.8c-2.1,1-3.8,2.7-4.8,4.8c-0.5-0.1-1-0.1-1.5-0.2
			c-4.5,0-8.2,4-8.2,8.9s3.7,8.9,8.2,8.9c1.8,0,3.6-0.7,5-1.9c3.5,2.5,8.2,2.5,11.7,0c1.4,1.2,3.2,1.8,5,1.9c4.5,0,8.2-4,8.2-8.9
			S1150.2,8.5,1145.7,8.5z M1127.7,20.5c-0.2,0.2-0.7-0.2-2.1-0.9c-2-1-2.4-1-2.8-1.6c-0.6-0.8-0.6-1.9,0-2.8c0.8-0.6,1.8-0.6,2.6,0
			c0.4,0.2,0.6,0.5,1.7,3.2C1127.6,20,1127.8,20.4,1127.7,20.5L1127.7,20.5z M1136.2,17.7c-0.8,2.4-1,2.9-1.3,2.9s-0.5-1-1.3-3.4
			c-1.1-3.3-1.5-3.7-1.3-4.8c0.3-1.3,1.3-2.9,2.7-2.9s2.4,1.6,2.7,2.9C1137.7,13.1,1137.6,13.6,1136.2,17.7L1136.2,17.7z M1147.4,18
			c-0.2,0.4-0.5,0.6-3,1.8c-1.4,0.7-1.8,0.9-1.9,0.7s0.2-0.7,0.8-2.3c0.9-2.1,0.9-2.6,1.5-3c0.7-0.6,1.8-0.6,2.6,0
			C1147.9,16.1,1147.9,17.2,1147.4,18L1147.4,18z"/>
		<path class="st0" d="M799,8.5c-0.5,0-1,0.1-1.5,0.2c-2.5-5.2-8.7-7.3-13.9-4.8c-2.1,1-3.8,2.7-4.8,4.8c-0.5-0.1-1-0.1-1.5-0.2
			c-4.5,0-8.2,4-8.2,8.9s3.7,8.9,8.2,8.9c1.8,0,3.6-0.7,5-1.9c3.5,2.5,8.2,2.5,11.7,0c1.4,1.2,3.2,1.8,5,1.9c4.5,0,8.2-4,8.2-8.9
			S803.6,8.5,799,8.5z M781,20.5c-0.2,0.2-0.7-0.2-2.1-0.9c-2-1-2.4-1-2.8-1.6c-0.6-0.8-0.6-1.9,0-2.8c0.8-0.6,1.8-0.6,2.5,0
			c0.4,0.2,0.6,0.5,1.7,3.2C781,20,781.1,20.4,781,20.5L781,20.5z M789.5,17.7c-0.8,2.4-1,2.9-1.3,2.9s-0.5-1-1.3-3.4
			c-1.1-3.3-1.5-3.7-1.3-4.8c0.3-1.3,1.3-2.9,2.7-2.9s2.4,1.6,2.7,2.9C791,13.1,791,13.6,789.5,17.7z M800.7,18
			c-0.2,0.4-0.5,0.6-3,1.8c-1.4,0.7-1.8,0.9-1.9,0.7s0.2-0.7,0.8-2.3c0.9-2.1,0.9-2.6,1.5-3c0.7-0.6,1.8-0.6,2.5,0
			C801.2,16.1,801.2,17.1,800.7,18L800.7,18z"/>
		<path class="st0" d="M1068.6,8.5c-0.5,0-1,0.1-1.5,0.2c-2.5-5.2-8.7-7.3-13.9-4.8c-2.1,1-3.8,2.7-4.8,4.8c-0.5-0.1-1-0.1-1.5-0.2
			c-4.5,0-8.2,4-8.2,8.9s3.7,8.9,8.2,8.9c1.8,0,3.6-0.7,5-1.9c3.5,2.5,8.2,2.5,11.7,0c1.4,1.2,3.2,1.8,5,1.9c4.5,0,8.2-4,8.2-8.9
			S1073.2,8.5,1068.6,8.5z M1050.6,20.5c-0.2,0.2-0.7-0.2-2.1-0.9c-2-1-2.4-1-2.8-1.6c-0.6-0.8-0.6-1.9,0-2.8c0.8-0.6,1.8-0.6,2.6,0
			c0.4,0.2,0.6,0.5,1.7,3.2C1050.6,20,1050.7,20.4,1050.6,20.5L1050.6,20.5z M1059.2,17.7c-0.8,2.4-1,2.9-1.3,2.9s-0.5-1-1.3-3.4
			c-1.1-3.3-1.5-3.7-1.3-4.8c0.3-1.3,1.3-2.9,2.7-2.9s2.4,1.6,2.7,2.9C1060.6,13.1,1060.5,13.6,1059.2,17.7L1059.2,17.7z M1070.4,18
			c-0.2,0.4-0.5,0.6-3,1.8c-1.4,0.7-1.8,0.9-1.9,0.7s0.2-0.7,0.8-2.3c0.9-2.1,0.9-2.6,1.5-3c0.7-0.6,1.8-0.6,2.6,0
			C1070.9,16.1,1070.9,17.2,1070.4,18L1070.4,18z"/>
		<path class="st0" d="M760.5,8.5c-0.5,0-1,0.1-1.5,0.2c-2.5-5.2-8.7-7.3-13.9-4.8c-2.1,1-3.8,2.7-4.8,4.8c-0.5-0.1-1-0.1-1.5-0.2
			c-4.5,0-8.2,4-8.2,8.9s3.7,8.9,8.2,8.9c1.8,0,3.6-0.7,5-1.9c3.5,2.5,8.2,2.5,11.7,0c1.4,1.2,3.2,1.8,5,1.9c4.5,0,8.2-4,8.2-8.9
			S765,8.5,760.5,8.5z M742.5,20.5c-0.2,0.2-0.7-0.2-2.1-0.9c-2-1-2.4-1-2.8-1.6c-0.6-0.8-0.6-1.9,0-2.8c0.8-0.6,1.8-0.6,2.5,0
			c0.4,0.2,0.6,0.5,1.7,3.2C742.5,20,742.6,20.4,742.5,20.5L742.5,20.5z M751,17.7c-0.8,2.4-1,2.9-1.3,2.9s-0.5-1-1.3-3.4
			c-1.1-3.3-1.5-3.7-1.3-4.8c0.3-1.3,1.3-2.9,2.7-2.9s2.4,1.6,2.7,2.9C752.5,13.1,752.4,13.6,751,17.7L751,17.7z M762.2,18
			c-0.2,0.4-0.5,0.6-3,1.8c-1.4,0.7-1.8,0.9-1.9,0.7s0.2-0.7,0.8-2.3c0.9-2.1,0.9-2.6,1.5-3c0.7-0.6,1.8-0.6,2.5,0
			C762.7,16.1,762.7,17.2,762.2,18L762.2,18z"/>
		<path class="st0" d="M1261.2,8.5c-0.5,0-1,0.1-1.5,0.2c-2.5-5.2-8.7-7.3-13.9-4.8c-2.1,1-3.8,2.7-4.8,4.8c-0.5-0.1-1-0.1-1.5-0.2
			c-4.5,0-8.2,4-8.2,8.9s3.7,8.9,8.2,8.9c1.8,0,3.6-0.7,5-1.9c3.5,2.5,8.2,2.5,11.7,0c1.4,1.2,3.2,1.8,5,1.9c4.5,0,8.2-4,8.2-8.9
			S1265.7,8.5,1261.2,8.5z M1243.2,20.5c-0.2,0.2-0.7-0.2-2.1-0.9c-2-1-2.4-1-2.8-1.6c-0.6-0.8-0.6-1.9,0-2.8c0.8-0.6,1.8-0.6,2.6,0
			c0.4,0.2,0.6,0.5,1.7,3.2C1243.2,20,1243.3,20.4,1243.2,20.5L1243.2,20.5z M1251.7,17.7c-0.8,2.4-1,2.9-1.3,2.9s-0.5-1-1.3-3.4
			c-1.1-3.3-1.5-3.7-1.3-4.8c0.3-1.3,1.3-2.9,2.7-2.9s2.4,1.6,2.7,2.9C1253.2,13.1,1253.1,13.6,1251.7,17.7L1251.7,17.7z M1262.9,18
			c-0.2,0.4-0.5,0.6-3,1.8c-1.4,0.7-1.8,0.9-1.9,0.7s0.2-0.7,0.8-2.3c0.9-2.1,0.9-2.6,1.5-3c0.7-0.6,1.8-0.6,2.6,0
			C1263.4,16.1,1263.4,17.2,1262.9,18L1262.9,18z"/>
		<path class="st0" d="M1184.2,8.5c-0.5,0-1,0.1-1.5,0.2c-2.5-5.2-8.7-7.3-13.9-4.8c-2.1,1-3.8,2.7-4.8,4.8c-0.5-0.1-1-0.1-1.5-0.2
			c-4.5,0-8.2,4-8.2,8.9s3.7,8.9,8.2,8.9c1.8,0,3.6-0.7,5-1.9c3.5,2.5,8.2,2.5,11.7,0c1.4,1.2,3.2,1.8,5,1.9c4.5,0,8.2-4,8.2-8.9
			S1188.7,8.5,1184.2,8.5z M1166.2,20.5c-0.2,0.2-0.7-0.2-2.1-0.9c-2-1-2.4-1-2.8-1.6c-0.6-0.8-0.6-1.9,0-2.8c0.8-0.6,1.8-0.6,2.6,0
			c0.4,0.2,0.6,0.5,1.7,3.2C1166.1,20,1166.3,20.4,1166.2,20.5L1166.2,20.5z M1174.7,17.7c-0.8,2.4-1,2.9-1.3,2.9s-0.5-1-1.3-3.4
			c-1.1-3.3-1.5-3.7-1.3-4.8c0.3-1.3,1.3-2.9,2.7-2.9s2.4,1.6,2.7,2.9C1176.2,13.1,1176.1,13.6,1174.7,17.7L1174.7,17.7z M1185.9,18
			c-0.2,0.4-0.5,0.6-3,1.8c-1.4,0.7-1.8,0.9-1.9,0.7s0.2-0.7,0.8-2.3c0.9-2.1,0.9-2.6,1.5-3c0.7-0.6,1.8-0.6,2.6,0
			C1186.4,16.1,1186.4,17.2,1185.9,18L1185.9,18z"/>
		<path class="st0" d="M1107.2,8.5c-0.5,0-1,0.1-1.5,0.2c-2.5-5.2-8.7-7.3-13.9-4.8c-2.1,1-3.8,2.7-4.8,4.8c-0.5-0.1-1-0.1-1.5-0.2
			c-4.5,0-8.2,4-8.2,8.9s3.7,8.9,8.2,8.9c1.8,0,3.6-0.7,5-1.9c3.5,2.5,8.2,2.5,11.7,0c1.4,1.2,3.2,1.8,5,1.9c4.5,0,8.2-4,8.2-8.9
			S1111.7,8.5,1107.2,8.5z M1089.2,20.5c-0.2,0.2-0.7-0.2-2.1-0.9c-2-1-2.4-1-2.8-1.6c-0.6-0.8-0.6-1.9,0-2.8c0.8-0.6,1.8-0.6,2.6,0
			c0.4,0.2,0.6,0.5,1.7,3.2C1089.1,20,1089.3,20.4,1089.2,20.5L1089.2,20.5z M1097.7,17.7c-0.8,2.4-1,2.9-1.3,2.9s-0.5-1-1.3-3.4
			c-1.1-3.3-1.5-3.7-1.3-4.8c0.3-1.3,1.3-2.9,2.7-2.9s2.4,1.6,2.7,2.9C1099.1,13.1,1099.1,13.6,1097.7,17.7L1097.7,17.7z M1108.9,18
			c-0.2,0.4-0.5,0.6-3,1.8c-1.4,0.7-1.8,0.9-1.9,0.7s0.2-0.7,0.8-2.3c0.9-2.1,0.9-2.6,1.5-3c0.7-0.6,1.8-0.6,2.6,0
			C1109.4,16.1,1109.4,17.2,1108.9,18L1108.9,18z"/>
		<path class="st0" d="M1030.1,8.5c-0.5,0-1,0.1-1.5,0.2c-2.5-5.2-8.7-7.3-13.9-4.8c-2.1,1-3.8,2.7-4.8,4.8
			c-0.5-0.1-0.9-0.1-1.4-0.2c-4.5,0-8.2,4-8.2,8.9s3.7,8.9,8.2,8.9c1.8,0,3.6-0.7,5-1.9c3.5,2.5,8.2,2.5,11.7,0
			c1.4,1.2,3.2,1.8,5,1.9c4.5,0,8.2-4,8.2-8.9S1034.6,8.5,1030.1,8.5z M1012.1,20.5c-0.2,0.2-0.7-0.2-2.1-0.9c-2-1-2.4-1-2.8-1.6
			c-0.6-0.8-0.6-1.9,0-2.8c0.8-0.6,1.8-0.6,2.5,0c0.4,0.2,0.6,0.5,1.7,3.2C1012.1,20,1012.2,20.4,1012.1,20.5L1012.1,20.5z
			 M1020.7,17.7c-0.8,2.4-1,2.9-1.3,2.9s-0.5-1-1.3-3.4c-1.1-3.3-1.5-3.7-1.3-4.8c0.3-1.3,1.3-2.9,2.7-2.9s2.4,1.6,2.7,2.9
			C1022.1,13.1,1022,13.6,1020.7,17.7L1020.7,17.7z M1031.9,18c-0.2,0.4-0.5,0.6-3,1.8c-1.4,0.7-1.8,0.9-1.9,0.7
			c-0.1-0.2,0.2-0.7,0.9-2.3c0.9-2.1,0.9-2.6,1.5-3c0.7-0.6,1.8-0.6,2.6,0C1032.4,16.1,1032.3,17.2,1031.9,18L1031.9,18z"/>
		<path class="st0" d="M953.1,8.5c-0.5,0-1,0.1-1.5,0.2c-2.5-5.2-8.7-7.3-13.9-4.8c-2.1,1-3.8,2.7-4.8,4.8c-0.5-0.1-1-0.1-1.5-0.2
			c-4.5,0-8.2,4-8.2,8.9s3.7,8.9,8.2,8.9c1.8,0,3.6-0.7,5-1.9c3.5,2.5,8.2,2.5,11.7,0c1.4,1.2,3.2,1.8,5,1.9c4.5,0,8.2-4,8.2-8.9
			S957.6,8.5,953.1,8.5z M935.1,20.5c-0.2,0.2-0.7-0.2-2.1-0.9c-2-1-2.4-1-2.8-1.6c-0.6-0.8-0.6-1.9,0-2.8c0.8-0.6,1.8-0.6,2.5,0
			c0.4,0.2,0.6,0.5,1.7,3.2C935.1,20,935.2,20.4,935.1,20.5L935.1,20.5z M943.6,17.7c-0.8,2.4-1,2.9-1.3,2.9s-0.5-1-1.3-3.4
			c-1.1-3.3-1.5-3.7-1.3-4.8c0.3-1.3,1.3-2.9,2.7-2.9s2.4,1.6,2.7,2.9C945.1,13.1,945,13.6,943.6,17.7L943.6,17.7z M954.8,18
			c-0.2,0.4-0.5,0.6-3,1.8c-1.4,0.7-1.8,0.9-1.9,0.7s0.2-0.7,0.8-2.3c0.9-2.1,0.9-2.6,1.5-3c0.7-0.6,1.8-0.6,2.5,0
			C955.3,16.1,955.3,17.2,954.8,18L954.8,18z"/>
		<rect x="692.5" y="24.1" class="st0" width="689.3" height="5.4"/>
		<path class="st1" d="M1785.3,9.6c-1.3,0-2.4,1.6-2.7,2.9c-0.2,1.1,0.2,1.5,1.3,4.8c0.8,2.4,0.9,3.4,1.3,3.4s0.5-0.5,1.3-2.9
			c1.4-4.1,1.5-4.6,1.3-5.3C1787.7,11.2,1786.7,9.6,1785.3,9.6z"/>
		<path class="st1" d="M1814.3,15.2c-0.7-0.6-1.8-0.6-2.5,0c-0.6,0.8-0.6,1.9,0,2.8c0.4,0.6,0.8,0.6,2.8,1.6
			c1.4,0.7,1.9,1.1,2.1,0.9s0-0.5-0.6-2.1C1814.8,15.8,1814.7,15.5,1814.3,15.2z"/>
		<path class="st1" d="M1910.8,15.2c-0.6,0.4-0.5,0.8-1.5,3c-0.7,1.6-1,2.1-0.8,2.3s0.5,0,1.9-0.7c2.5-1.2,2.8-1.4,3-1.8
			c0.5-0.8,0.5-1.9,0-2.8C1912.7,14.6,1911.6,14.6,1910.8,15.2z"/>
		<path class="st1" d="M1775.8,15.2c-0.8-0.6-1.8-0.6-2.6,0c-0.6,0.8-0.6,1.9,0,2.8c0.4,0.6,0.8,0.6,2.8,1.6
			c1.4,0.7,1.9,1.1,2.1,0.9s0-0.5-0.6-2.1C1776.3,15.8,1776.1,15.5,1775.8,15.2z"/>
		<path class="st1" d="M1737.3,15.2c-0.8-0.6-1.8-0.6-2.6,0c-0.6,0.8-0.6,1.9,0,2.8c0.4,0.6,0.8,0.6,2.8,1.6
			c1.4,0.7,1.9,1.1,2.1,0.9s0-0.5-0.6-2.1C1737.8,15.8,1737.6,15.5,1737.3,15.2z"/>
		<path class="st1" d="M1718.3,15.2c-0.6,0.4-0.5,0.8-1.5,3c-0.7,1.6-1,2.1-0.8,2.3s0.5,0,1.9-0.7c2.5-1.2,2.8-1.4,3-1.8
			c0.5-0.8,0.5-1.9,0-2.8C1720.1,14.6,1719,14.6,1718.3,15.2z"/>
		<path class="st1" d="M1746.8,9.6c-1.3,0-2.4,1.6-2.7,2.9c-0.2,1.1,0.2,1.5,1.3,4.8c0.8,2.4,0.9,3.4,1.3,3.4s0.5-0.5,1.3-2.9
			c1.4-4.1,1.5-4.6,1.3-5.3C1749.2,11.2,1748.2,9.6,1746.8,9.6z"/>
		<path class="st1" d="M1756.8,15.2c-0.6,0.4-0.5,0.8-1.5,3c-0.7,1.6-1,2.1-0.8,2.3s0.5,0,1.9-0.7c2.5-1.2,2.8-1.4,3-1.8
			c0.5-0.8,0.5-1.9,0-2.8C1758.6,14.6,1757.5,14.6,1756.8,15.2z"/>
		<path class="st1" d="M1891.3,15.2c-0.8-0.6-1.8-0.6-2.6,0c-0.6,0.8-0.6,1.9,0,2.8c0.4,0.6,0.8,0.6,2.8,1.6
			c1.4,0.7,1.9,1.1,2.1,0.9s0-0.5-0.6-2.1C1891.9,15.8,1891.7,15.5,1891.3,15.2z"/>
		<path class="st1" d="M1872.3,15.2c-0.6,0.4-0.5,0.8-1.5,3c-0.7,1.6-1,2.1-0.8,2.3s0.5,0,1.9-0.7c2.5-1.2,2.8-1.4,3-1.8
			c0.5-0.8,0.5-1.9,0-2.8C1874.2,14.6,1873.1,14.6,1872.3,15.2z"/>
		<path class="st1" d="M1900.9,9.6c-1.3,0-2.4,1.6-2.7,2.9c-0.2,1.1,0.2,1.5,1.3,4.8c0.8,2.4,0.9,3.4,1.3,3.4s0.5-0.5,1.3-2.9
			c1.4-4.1,1.5-4.6,1.3-5.3C1903.2,11.2,1902.2,9.6,1900.9,9.6z"/>
		<path class="st1" d="M1833.8,15.2c-0.6,0.4-0.5,0.8-1.5,3c-0.7,1.6-1,2.1-0.8,2.3s0.5,0,1.9-0.7c2.5-1.2,2.8-1.4,3-1.8
			c0.5-0.8,0.5-1.9,0-2.8C1835.6,14.6,1834.6,14.6,1833.8,15.2z"/>
		<path class="st1" d="M1823.8,9.6c-1.3,0-2.4,1.6-2.7,2.9c-0.2,1.1,0.2,1.5,1.3,4.8c0.8,2.4,0.9,3.4,1.3,3.4s0.5-0.5,1.3-2.9
			c1.4-4.1,1.5-4.6,1.3-5.3C1826.2,11.2,1825.2,9.6,1823.8,9.6z"/>
		<path class="st1" d="M1487.2,15.2c-0.6,0.4-0.5,0.8-1.5,3c-0.7,1.6-1,2.1-0.8,2.3s0.5,0,1.9-0.7c2.5-1.2,2.8-1.4,3-1.8
			c0.5-0.8,0.5-1.9,0-2.8C1489,14.6,1487.9,14.6,1487.2,15.2z"/>
		<path class="st1" d="M1852.8,15.2c-0.8-0.6-1.8-0.6-2.6,0c-0.6,0.8-0.6,1.9,0,2.8c0.4,0.6,0.8,0.6,2.8,1.6
			c1.4,0.7,1.9,1.1,2.1,0.9s0-0.5-0.6-2.1C1853.3,15.8,1853.2,15.5,1852.8,15.2z"/>
		<path class="st1" d="M1795.3,15.2c-0.6,0.4-0.5,0.8-1.5,3c-0.7,1.6-1,2.1-0.8,2.3s0.5,0,1.9-0.7c2.5-1.2,2.8-1.4,3-1.8
			c0.5-0.8,0.5-1.9,0-2.8C1797.1,14.6,1796,14.6,1795.3,15.2z"/>
		<path class="st1" d="M1554.2,9.6c-1.3,0-2.4,1.6-2.7,2.9c-0.2,1.1,0.2,1.5,1.3,4.8c0.8,2.4,0.9,3.4,1.3,3.4s0.5-0.5,1.3-2.9
			c1.4-4.1,1.5-4.6,1.3-5.3C1556.6,11.2,1555.6,9.6,1554.2,9.6z"/>
		<path class="st1" d="M1592.7,9.6c-1.3,0-2.4,1.6-2.7,2.9c-0.2,1.1,0.2,1.5,1.3,4.8c0.8,2.4,0.9,3.4,1.3,3.4s0.5-0.5,1.3-2.9
			c1.4-4.1,1.5-4.6,1.3-5.3C1595.1,11.2,1594.1,9.6,1592.7,9.6z"/>
		<path class="st1" d="M1544.7,15.2c-0.8-0.6-1.8-0.6-2.6,0c-0.6,0.8-0.6,1.9,0,2.8c0.4,0.6,0.8,0.6,2.8,1.6
			c1.4,0.7,1.9,1.1,2.1,0.9s0-0.5-0.6-2.1C1545.2,15.8,1545.1,15.5,1544.7,15.2z"/>
		<path class="st1" d="M1708.3,9.6c-1.3,0-2.4,1.6-2.7,2.9c-0.2,1.1,0.2,1.5,1.3,4.8c0.8,2.4,0.9,3.4,1.3,3.4s0.5-0.5,1.3-2.9
			c1.4-4.1,1.5-4.6,1.3-5.3C1710.7,11.2,1709.6,9.6,1708.3,9.6z"/>
		<path class="st1" d="M1564.2,15.2c-0.6,0.4-0.5,0.8-1.5,3c-0.7,1.6-1,2.1-0.8,2.3s0.5,0,1.9-0.7c2.5-1.2,2.8-1.4,3-1.8
			c0.5-0.8,0.5-1.9,0-2.8C1566,14.6,1565,14.6,1564.2,15.2z"/>
		<path class="st1" d="M1525.7,15.2c-0.6,0.4-0.5,0.8-1.5,3c-0.7,1.6-1,2.1-0.8,2.3s0.5,0,1.9-0.7c2.5-1.2,2.8-1.4,3-1.8
			c0.5-0.8,0.5-1.9,0-2.8C1527.5,14.6,1526.4,14.6,1525.7,15.2z"/>
		<path class="st1" d="M1506.2,15.2c-0.8-0.6-1.8-0.6-2.6,0c-0.6,0.8-0.6,1.9,0,2.8c0.4,0.6,0.8,0.6,2.8,1.6
			c1.4,0.7,1.9,1.1,2.1,0.9s0-0.5-0.6-2.1C1506.7,15.8,1506.5,15.5,1506.2,15.2z"/>
		<path class="st1" d="M1515.7,9.6c-1.3,0-2.4,1.6-2.7,2.9c-0.2,1.1,0.2,1.5,1.3,4.8c0.8,2.4,0.9,3.4,1.3,3.4s0.5-0.5,1.3-2.9
			c1.4-4.1,1.5-4.6,1.3-5.3C1518.1,11.2,1517.1,9.6,1515.7,9.6z"/>
		<path class="st1" d="M1583.2,15.2c-0.7-0.6-1.8-0.6-2.5,0c-0.6,0.8-0.6,1.9,0,2.8c0.4,0.6,0.8,0.6,2.8,1.6
			c1.4,0.7,1.9,1.1,2.1,0.9s0-0.5-0.6-2.1C1583.7,15.8,1583.6,15.5,1583.2,15.2z"/>
		<path class="st1" d="M1660.2,15.2c-0.8-0.6-1.8-0.6-2.6,0c-0.6,0.8-0.6,1.9,0,2.8c0.4,0.6,0.8,0.6,2.8,1.6
			c1.4,0.7,1.9,1.1,2.1,0.9s0-0.5-0.6-2.1C1660.8,15.8,1660.6,15.5,1660.2,15.2z"/>
		<path class="st1" d="M1669.8,9.6c-1.3,0-2.4,1.6-2.7,2.9c-0.2,1.1,0.2,1.5,1.3,4.8c0.8,2.4,0.9,3.4,1.3,3.4s0.5-0.5,1.3-2.9
			c1.4-4.1,1.5-4.6,1.3-5.3C1672.2,11.2,1671.1,9.6,1669.8,9.6z"/>
		<path class="st1" d="M1679.7,15.2c-0.6,0.4-0.5,0.8-1.5,3c-0.7,1.6-1,2.1-0.8,2.3s0.5,0,1.9-0.7c2.5-1.2,2.8-1.4,3-1.8
			c0.5-0.8,0.5-1.9,0-2.8C1681.6,14.6,1680.5,14.6,1679.7,15.2z"/>
		<path class="st1" d="M1602.7,15.2c-0.6,0.4-0.5,0.8-1.5,3c-0.7,1.6-1,2.1-0.8,2.3s0.5,0,1.9-0.7c2.5-1.2,2.8-1.4,3-1.8
			c0.5-0.8,0.5-1.9,0-2.8C1604.6,14.6,1603.5,14.6,1602.7,15.2z"/>
		<path class="st1" d="M1698.7,15.2c-0.8-0.6-1.8-0.6-2.6,0c-0.6,0.8-0.6,1.9,0,2.8c0.4,0.6,0.8,0.6,2.8,1.6
			c1.4,0.7,1.9,1.1,2.1,0.9s0-0.5-0.6-2.1C1699.3,15.8,1699.1,15.5,1698.7,15.2z"/>
		<path class="st1" d="M1641.2,15.2c-0.6,0.4-0.5,0.8-1.5,3c-0.7,1.6-1,2.1-0.8,2.3s0.5,0,1.9-0.7c2.5-1.2,2.8-1.4,3-1.8
			c0.5-0.8,0.5-1.9,0-2.8C1643.1,14.6,1642,14.6,1641.2,15.2z"/>
		<path class="st1" d="M1621.7,15.2c-0.7-0.6-1.8-0.6-2.5,0c-0.6,0.8-0.6,1.9,0,2.8c0.4,0.6,0.8,0.6,2.8,1.6
			c1.4,0.7,1.9,1.1,2.1,0.9s0-0.5-0.6-2.1C1622.3,15.8,1622.1,15.5,1621.7,15.2z"/>
		<path class="st1" d="M1631.3,9.6c-1.3,0-2.4,1.6-2.7,2.9c-0.2,1.1,0.2,1.5,1.3,4.8c0.8,2.4,0.9,3.4,1.3,3.4s0.5-0.5,1.3-2.9
			c1.4-4.1,1.5-4.6,1.3-5.3C1633.6,11.2,1632.6,9.6,1631.3,9.6z"/>
		<path class="st1" d="M1862.3,9.6c-1.3,0-2.4,1.6-2.7,2.9c-0.2,1.1,0.2,1.5,1.3,4.8c0.8,2.4,0.9,3.4,1.3,3.4s0.5-0.5,1.3-2.9
			c1.4-4.1,1.5-4.6,1.3-5.3C1864.7,11.2,1863.7,9.6,1862.3,9.6z"/>
		<path class="st1" d="M1429.1,15.2c-0.7-0.6-1.8-0.6-2.5,0c-0.6,0.8-0.6,1.9,0,2.8c0.4,0.6,0.8,0.6,2.8,1.6
			c1.4,0.7,1.9,1.1,2.1,0.9s0-0.5-0.6-2.1C1429.7,15.8,1429.5,15.5,1429.1,15.2z"/>
		<path class="st1" d="M1438.7,9.6c-1.3,0-2.4,1.6-2.7,2.9c-0.2,1.1,0.2,1.5,1.3,4.8c0.8,2.4,0.9,3.4,1.3,3.4s0.5-0.5,1.3-2.9
			c1.4-4.1,1.5-4.6,1.3-5.3C1441.1,11.2,1440,9.6,1438.7,9.6z"/>
		<path class="st1" d="M1477.2,9.6c-1.3,0-2.4,1.6-2.7,2.9c-0.2,1.1,0.2,1.5,1.3,4.8c0.8,2.4,0.9,3.4,1.3,3.4s0.5-0.5,1.3-2.9
			c1.4-4.1,1.5-4.6,1.3-5.3C1479.6,11.2,1478.6,9.6,1477.2,9.6z"/>
		<path class="st1" d="M1467.7,15.2c-0.8-0.6-1.8-0.6-2.6,0c-0.6,0.8-0.6,1.9,0,2.8c0.4,0.6,0.8,0.6,2.8,1.6
			c1.4,0.7,1.9,1.1,2.1,0.9s0-0.5-0.6-2.1C1468.2,15.8,1468,15.5,1467.7,15.2z"/>
		<path class="st1" d="M1448.7,15.2c-0.6,0.4-0.5,0.8-1.5,3c-0.7,1.6-1,2.1-0.8,2.3s0.5,0,1.9-0.7c2.5-1.2,2.8-1.4,3-1.8
			c0.5-0.8,0.5-1.9,0-2.8C1450.5,14.6,1449.4,14.6,1448.7,15.2z"/>
		<path class="st1" d="M1390.8,15.2c-0.7-0.6-1.8-0.6-2.5,0c-0.5,0.8-0.5,1.9,0,2.7c0.4,0.6,0.8,0.6,2.7,1.6
			c1.4,0.7,1.9,1.1,2.1,0.9s0-0.5-0.6-2C1391.3,15.7,1391.2,15.5,1390.8,15.2z"/>
		<path class="st1" d="M1410,15.2c-0.6,0.4-0.5,0.8-1.5,2.9c-0.7,1.5-1,2-0.8,2.2s0.5,0,1.9-0.7c2.4-1.2,2.7-1.4,2.9-1.8
			c0.5-0.8,0.5-1.9,0-2.7C1411.7,14.6,1410.7,14.6,1410,15.2z"/>
		<path class="st1" d="M1400.2,9.6c-1.3,0-2.4,1.5-2.6,2.8c-0.2,1.1,0.2,1.5,1.3,4.7c0.8,2.4,0.9,3.3,1.3,3.3s0.5-0.5,1.3-2.8
			c1.4-4,1.4-4.5,1.3-5.2C1402.5,11.2,1401.5,9.6,1400.2,9.6z"/>
		<path class="st0" d="M1418.8,17.4c0-4.8-3.6-8.7-8-8.7c-0.5,0-1,0.1-1.4,0.2c-2.5-5.1-8.6-7.2-13.7-4.7c-2,1-3.7,2.7-4.7,4.7
			c-0.5-0.1-1-0.1-1.4-0.2c-4.4,0-8,3.9-8,8.7c0,2.6,1.1,5,3,6.8h31.4C1417.9,22.4,1418.9,19.9,1418.8,17.4z M1393.1,20.4
			c-0.2,0.2-0.7-0.2-2.1-0.9c-1.9-1-2.3-1-2.7-1.6c-0.5-0.8-0.5-1.9,0-2.7c0.7-0.6,1.8-0.6,2.5,0c0.4,0.2,0.6,0.5,1.7,3.2
			C1393.1,19.9,1393.2,20.3,1393.1,20.4z M1401.5,17.7c-0.8,2.3-1,2.8-1.3,2.8s-0.5-0.9-1.3-3.3c-1.1-3.2-1.5-3.6-1.3-4.7
			c0.2-1.3,1.3-2.8,2.6-2.8s2.3,1.6,2.6,2.8C1402.9,13.1,1402.9,13.6,1401.5,17.7L1401.5,17.7z M1412.5,17.9
			c-0.2,0.4-0.5,0.6-2.9,1.8c-1.4,0.7-1.7,0.8-1.9,0.7s0.2-0.7,0.8-2.2c0.9-2.1,0.9-2.5,1.5-2.9c0.7-0.6,1.8-0.6,2.5,0
			C1413,16.1,1413,17.1,1412.5,17.9L1412.5,17.9z"/>
		<path class="st0" d="M1688.8,17.4c0-4.9-3.7-8.9-8.2-8.9c-0.5,0-1,0.1-1.5,0.2c-2.5-5.2-8.7-7.3-13.9-4.8c-2.1,1-3.8,2.7-4.8,4.8
			c-0.5-0.1-1-0.1-1.5-0.2c-4.5,0-8.2,4-8.2,8.9c0,2.5,1,4.9,2.8,6.7h32.4C1687.8,22.3,1688.8,19.9,1688.8,17.4z M1662.6,20.5
			c-0.2,0.2-0.7-0.2-2.1-0.9c-2-1-2.4-1-2.8-1.6c-0.6-0.8-0.6-1.9,0-2.8c0.8-0.6,1.8-0.6,2.6,0c0.4,0.2,0.6,0.5,1.7,3.2
			C1662.6,20,1662.7,20.4,1662.6,20.5L1662.6,20.5z M1671.1,17.7c-0.8,2.4-1,2.9-1.3,2.9s-0.5-1-1.3-3.4c-1.1-3.3-1.5-3.7-1.3-4.8
			c0.3-1.3,1.3-2.9,2.7-2.9s2.4,1.6,2.7,2.9C1672.6,13.1,1672.5,13.6,1671.1,17.7L1671.1,17.7z M1682.3,18c-0.2,0.4-0.5,0.6-3,1.8
			c-1.4,0.7-1.8,0.9-1.9,0.7s0.2-0.7,0.8-2.3c0.9-2.1,0.9-2.6,1.5-3c0.7-0.6,1.8-0.6,2.6,0C1682.8,16.1,1682.8,17.1,1682.3,18z"/>
		<path class="st0" d="M1611.8,17.4c0-4.9-3.7-8.9-8.2-8.9c-0.5,0-1,0.1-1.5,0.2c-2.5-5.2-8.7-7.3-13.9-4.8c-2.1,1-3.8,2.7-4.8,4.8
			c-0.5-0.1-1-0.1-1.5-0.2c-4.5,0-8.2,4-8.2,8.9c0,2.5,1,4.9,2.8,6.7h32.4C1610.8,22.3,1611.8,19.9,1611.8,17.4z M1585.5,20.5
			c-0.2,0.2-0.7-0.2-2.1-0.9c-2-1-2.4-1-2.8-1.6c-0.6-0.8-0.6-1.9,0-2.8c0.7-0.6,1.8-0.6,2.5,0c0.4,0.2,0.6,0.5,1.7,3.2
			C1585.5,20,1585.7,20.4,1585.5,20.5z M1594.1,17.7c-0.8,2.4-1,2.9-1.3,2.9s-0.5-1-1.3-3.4c-1.1-3.3-1.5-3.7-1.3-4.8
			c0.3-1.3,1.3-2.9,2.7-2.9s2.4,1.6,2.7,2.9C1595.6,13.1,1595.5,13.6,1594.1,17.7L1594.1,17.7z M1605.2,18c-0.2,0.4-0.5,0.6-3,1.8
			c-1.4,0.7-1.8,0.9-1.9,0.7s0.2-0.7,0.8-2.3c0.9-2.1,0.9-2.6,1.5-3c0.7-0.6,1.8-0.6,2.6,0C1605.8,16.1,1605.8,17.1,1605.2,18
			L1605.2,18z"/>
		<path class="st0" d="M1573.3,17.4c0-4.9-3.7-8.9-8.2-8.9c-0.5,0-1,0.1-1.5,0.2c-2.5-5.2-8.7-7.3-13.9-4.8c-2.1,1-3.8,2.7-4.8,4.8
			c-0.5-0.1-1-0.1-1.5-0.2c-4.5,0-8.2,4-8.2,8.9c0,2.5,1,4.9,2.8,6.7h32.4C1572.2,22.3,1573.3,19.9,1573.3,17.4z M1547,20.5
			c-0.2,0.2-0.7-0.2-2.1-0.9c-2-1-2.4-1-2.8-1.6c-0.6-0.8-0.6-1.9,0-2.8c0.8-0.6,1.8-0.6,2.6,0c0.4,0.2,0.6,0.5,1.7,3.2
			C1547,20,1547.2,20.4,1547,20.5z M1555.6,17.7c-0.8,2.4-1,2.9-1.3,2.9s-0.5-1-1.3-3.4c-1.1-3.3-1.5-3.7-1.3-4.8
			c0.3-1.3,1.3-2.9,2.7-2.9s2.4,1.6,2.7,2.9C1557,13.1,1557,13.6,1555.6,17.7z M1566.7,18c-0.2,0.4-0.5,0.6-3,1.8
			c-1.4,0.7-1.8,0.9-1.9,0.7s0.2-0.7,0.8-2.3c0.9-2.1,0.9-2.6,1.5-3c0.7-0.6,1.8-0.6,2.6,0C1567.3,16.1,1567.3,17.1,1566.7,18z"/>
		<path class="st0" d="M1919.9,17.4c0-4.9-3.7-8.9-8.2-8.9c-0.5,0-1,0.1-1.5,0.2c-2.5-5.2-8.7-7.3-13.9-4.8c-2.1,1-3.8,2.7-4.8,4.8
			c-0.5-0.1-1-0.1-1.5-0.2c-4.5,0-8.2,4-8.2,8.9c0,2.5,1,4.9,2.8,6.7h32.4C1918.9,22.3,1919.9,19.9,1919.9,17.4z M1893.6,20.5
			c-0.2,0.2-0.7-0.2-2.1-0.9c-2-1-2.4-1-2.8-1.6c-0.6-0.8-0.6-1.9,0-2.8c0.8-0.6,1.8-0.6,2.6,0c0.4,0.2,0.6,0.5,1.7,3.2
			C1893.7,20,1893.8,20.4,1893.6,20.5z M1902.2,17.7c-0.8,2.4-1,2.9-1.3,2.9s-0.5-1-1.3-3.4c-1.1-3.3-1.5-3.7-1.3-4.8
			c0.3-1.3,1.3-2.9,2.7-2.9s2.4,1.6,2.7,2.9C1903.7,13.1,1903.6,13.6,1902.2,17.7L1902.2,17.7z M1913.4,18c-0.2,0.4-0.5,0.6-3,1.8
			c-1.4,0.7-1.8,0.9-1.9,0.7s0.2-0.7,0.8-2.3c0.9-2.1,0.9-2.6,1.5-3c0.7-0.6,1.8-0.6,2.5,0C1913.9,16.1,1913.9,17.1,1913.4,18z"/>
		<path class="st0" d="M1534.7,17.4c0-4.9-3.7-8.9-8.2-8.9c-0.5,0-1,0.1-1.5,0.2c-2.5-5.2-8.7-7.3-13.9-4.8c-2.1,1-3.8,2.7-4.8,4.8
			c-0.5-0.1-1-0.1-1.5-0.2c-4.5,0-8.2,4-8.2,8.9c0,2.5,1,4.9,2.8,6.7h32.4C1533.7,22.3,1534.8,19.9,1534.7,17.4z M1508.5,20.5
			c-0.2,0.2-0.7-0.2-2.1-0.9c-2-1-2.4-1-2.8-1.6c-0.6-0.8-0.6-1.9,0-2.8c0.8-0.6,1.8-0.6,2.6,0c0.4,0.2,0.6,0.5,1.7,3.2
			C1508.5,20,1508.7,20.4,1508.5,20.5z M1517.1,17.7c-0.8,2.4-1,2.9-1.3,2.9s-0.5-1-1.3-3.4c-1.1-3.3-1.5-3.7-1.3-4.8
			c0.3-1.3,1.3-2.9,2.7-2.9s2.4,1.6,2.7,2.9C1518.5,13.1,1518.5,13.6,1517.1,17.7z M1528.2,18c-0.2,0.4-0.5,0.6-3,1.8
			c-1.4,0.7-1.8,0.9-1.9,0.7s0.2-0.7,0.8-2.3c0.9-2.1,0.9-2.6,1.5-3c0.7-0.6,1.8-0.6,2.5,0C1528.7,16.1,1528.8,17.1,1528.2,18z"/>
		<path class="st0" d="M1842.8,17.4c0-4.9-3.7-8.9-8.2-8.9c-0.5,0-1,0.1-1.5,0.2c-2.5-5.2-8.7-7.3-13.9-4.8c-2.1,1-3.8,2.7-4.8,4.8
			c-0.5-0.1-1-0.1-1.5-0.2c-4.5,0-8.2,4-8.2,8.9c0,2.5,1,4.9,2.8,6.7h32.4C1841.8,22.3,1842.9,19.9,1842.8,17.4z M1816.6,20.5
			c-0.2,0.2-0.7-0.2-2.1-0.9c-2-1-2.4-1-2.8-1.6c-0.6-0.8-0.6-1.9,0-2.8c0.7-0.6,1.8-0.6,2.5,0c0.4,0.2,0.6,0.5,1.7,3.2
			C1816.6,20,1816.8,20.4,1816.6,20.5z M1825.2,17.7c-0.8,2.4-1,2.9-1.3,2.9s-0.5-1-1.3-3.4c-1.1-3.3-1.5-3.7-1.3-4.8
			c0.3-1.3,1.3-2.9,2.7-2.9s2.4,1.6,2.7,2.9C1826.7,13.1,1826.6,13.6,1825.2,17.7z M1836.3,18c-0.2,0.4-0.5,0.6-3,1.8
			c-1.4,0.7-1.8,0.9-1.9,0.7s0.2-0.7,0.8-2.3c0.9-2.1,0.9-2.6,1.5-3c0.7-0.6,1.8-0.6,2.6,0C1836.9,16.1,1836.9,17.1,1836.3,18
			L1836.3,18z"/>
		<path class="st0" d="M1496.2,17.4c0-4.9-3.7-8.9-8.2-8.9c-0.5,0-1,0.1-1.5,0.2c-2.5-5.2-8.7-7.3-13.9-4.8c-2.1,1-3.8,2.7-4.8,4.8
			c-0.5-0.1-1-0.1-1.5-0.2c-4.5,0-8.2,4-8.2,8.9c0,2.5,1,4.9,2.8,6.7h32.4C1495.2,22.3,1496.2,19.9,1496.2,17.4z M1470,20.5
			c-0.2,0.2-0.7-0.2-2.1-0.9c-2-1-2.4-1-2.8-1.6c-0.6-0.8-0.6-1.9,0-2.8c0.8-0.6,1.8-0.6,2.6,0c0.4,0.2,0.6,0.5,1.7,3.2
			C1470,20,1470.1,20.4,1470,20.5z M1478.5,17.7c-0.8,2.4-1,2.9-1.3,2.9s-0.5-1-1.3-3.4c-1.1-3.3-1.5-3.7-1.3-4.8
			c0.3-1.3,1.3-2.9,2.7-2.9s2.4,1.6,2.7,2.9C1480,13.1,1479.9,13.6,1478.5,17.7L1478.5,17.7z M1489.7,18c-0.2,0.4-0.5,0.6-3,1.8
			c-1.4,0.7-1.8,0.9-1.9,0.7s0.2-0.7,0.8-2.3c0.9-2.1,0.9-2.6,1.5-3c0.7-0.6,1.8-0.6,2.5,0C1490.2,16.1,1490.3,17.1,1489.7,18
			L1489.7,18z"/>
		<path class="st0" d="M1765.8,17.4c0-4.9-3.7-8.9-8.2-8.9c-0.5,0-1,0.1-1.5,0.2c-2.5-5.2-8.7-7.3-13.9-4.8c-2.1,1-3.8,2.7-4.8,4.8
			c-0.5-0.1-1-0.1-1.5-0.2c-4.5,0-8.2,4-8.2,8.9c0,2.5,1,4.9,2.8,6.7h32.4C1764.8,22.3,1765.8,19.9,1765.8,17.4z M1739.6,20.5
			c-0.2,0.2-0.7-0.2-2.1-0.9c-2-1-2.4-1-2.8-1.6c-0.6-0.8-0.6-1.9,0-2.8c0.8-0.6,1.8-0.6,2.6,0c0.4,0.2,0.6,0.5,1.7,3.2
			C1739.6,20,1739.7,20.4,1739.6,20.5z M1748.1,17.7c-0.8,2.4-1,2.9-1.3,2.9s-0.5-1-1.3-3.4c-1.1-3.3-1.5-3.7-1.3-4.8
			c0.3-1.3,1.3-2.9,2.7-2.9s2.4,1.6,2.7,2.9C1749.6,13.1,1749.5,13.6,1748.1,17.7L1748.1,17.7z M1759.3,18c-0.2,0.4-0.5,0.6-3,1.8
			c-1.4,0.7-1.8,0.9-1.9,0.7s0.2-0.7,0.8-2.3c0.9-2.1,0.9-2.6,1.5-3c0.7-0.6,1.8-0.6,2.6,0C1759.8,16.1,1759.9,17.1,1759.3,18
			L1759.3,18z"/>
		<path class="st0" d="M1457.7,17.4c0-4.9-3.7-8.9-8.2-8.9c-0.5,0-1,0.1-1.5,0.2c-2.5-5.2-8.7-7.3-13.9-4.8c-2.1,1-3.8,2.7-4.8,4.8
			c-0.5-0.1-1-0.1-1.5-0.2c-4.5,0-8.2,4-8.2,8.9c0,2.5,1,4.9,2.8,6.7h32.4C1456.7,22.3,1457.7,19.9,1457.7,17.4z M1431.5,20.5
			c-0.2,0.2-0.7-0.2-2.1-0.9c-2-1-2.4-1-2.8-1.6c-0.6-0.8-0.6-1.9,0-2.8c0.7-0.6,1.8-0.6,2.5,0c0.4,0.2,0.6,0.5,1.7,3.2
			C1431.5,20,1431.6,20.4,1431.5,20.5z M1440.1,17.7c-0.8,2.4-1,2.9-1.3,2.9s-0.5-1-1.3-3.4c-1.1-3.3-1.5-3.7-1.3-4.8
			c0.3-1.3,1.3-2.9,2.7-2.9s2.4,1.6,2.7,2.9C1441.5,13.1,1441.4,13.6,1440.1,17.7L1440.1,17.7z M1451.2,18c-0.2,0.4-0.5,0.6-3,1.8
			c-1.4,0.7-1.8,0.9-1.9,0.7s0.2-0.7,0.8-2.3c0.9-2.1,0.9-2.6,1.5-3c0.7-0.6,1.8-0.6,2.6,0C1451.7,16.1,1451.7,17.1,1451.2,18
			L1451.2,18z"/>
		<path class="st0" d="M1881.4,17.4c0-4.9-3.7-8.9-8.2-8.9c-0.5,0-1,0.1-1.5,0.2c-2.5-5.2-8.7-7.3-13.9-4.8c-2.1,1-3.8,2.7-4.8,4.8
			c-0.5-0.1-1-0.1-1.5-0.2c-4.5,0-8.2,4-8.2,8.9c0,2.5,1,4.9,2.8,6.7h32.4C1880.3,22.4,1881.4,19.9,1881.4,17.4z M1855.1,20.5
			c-0.2,0.2-0.7-0.2-2.1-0.9c-2-1-2.4-1-2.8-1.6c-0.6-0.8-0.6-1.9,0-2.8c0.8-0.6,1.8-0.6,2.6,0c0.4,0.2,0.6,0.5,1.7,3.2
			C1855.1,20,1855.3,20.4,1855.1,20.5z M1863.7,17.7c-0.8,2.4-1,2.9-1.3,2.9s-0.5-1-1.3-3.4c-1.1-3.3-1.5-3.7-1.3-4.8
			c0.3-1.3,1.3-2.9,2.7-2.9s2.4,1.6,2.7,2.9C1865.2,13.1,1865.1,13.6,1863.7,17.7z M1874.9,18c-0.2,0.4-0.5,0.6-3,1.8
			c-1.4,0.7-1.8,0.9-1.9,0.7s0.2-0.7,0.8-2.3c0.9-2.1,0.9-2.6,1.5-3c0.7-0.6,1.8-0.6,2.6,0C1875.4,16.1,1875.4,17.1,1874.9,18z"/>
		<path class="st0" d="M1804.3,17.4c0-4.9-3.7-8.9-8.2-8.9c-0.5,0-1,0.1-1.5,0.2c-2.5-5.2-8.7-7.3-13.9-4.8c-2.1,1-3.8,2.7-4.8,4.8
			c-0.5-0.1-1-0.1-1.5-0.2c-4.5,0-8.2,4-8.2,8.9c0,2.5,1,4.9,2.8,6.7h32.4C1803.3,22.4,1804.4,19.9,1804.3,17.4z M1778.1,20.5
			c-0.2,0.2-0.7-0.2-2.1-0.9c-2-1-2.4-1-2.8-1.6c-0.6-0.8-0.6-1.9,0-2.8c0.8-0.6,1.8-0.6,2.6,0c0.4,0.2,0.6,0.5,1.7,3.2
			C1778.1,20,1778.3,20.4,1778.1,20.5z M1786.7,17.7c-0.8,2.4-1,2.9-1.3,2.9s-0.5-1-1.3-3.4c-1.1-3.3-1.5-3.7-1.3-4.8
			c0.3-1.3,1.3-2.9,2.7-2.9s2.4,1.6,2.7,2.9C1788.1,13.1,1788.1,13.6,1786.7,17.7z M1797.8,18c-0.2,0.4-0.5,0.6-3,1.8
			c-1.4,0.7-1.8,0.9-1.9,0.7s0.2-0.7,0.8-2.3c0.9-2.1,0.9-2.6,1.5-3c0.7-0.6,1.8-0.6,2.6,0C1798.4,16.1,1798.4,17.1,1797.8,18z"/>
		<path class="st0" d="M1727.3,17.4c0-4.9-3.7-8.9-8.2-8.9c-0.5,0-1,0.1-1.5,0.2c-2.5-5.2-8.7-7.3-13.9-4.8c-2.1,1-3.8,2.7-4.8,4.8
			c-0.5-0.1-0.9-0.1-1.4-0.2c-4.5,0-8.2,4-8.2,8.9c0,2.5,1,4.9,2.8,6.7h32.4C1726.3,22.3,1727.3,19.9,1727.3,17.4z M1701.1,20.5
			c-0.2,0.2-0.7-0.2-2.1-0.9c-2-1-2.4-1-2.8-1.6c-0.6-0.8-0.6-1.9,0-2.8c0.8-0.6,1.8-0.6,2.6,0c0.4,0.2,0.6,0.5,1.7,3.2
			C1701.1,20,1701.2,20.4,1701.1,20.5L1701.1,20.5z M1709.6,17.7c-0.8,2.4-1,2.9-1.3,2.9s-0.5-1-1.3-3.4c-1.1-3.3-1.5-3.7-1.3-4.8
			c0.3-1.3,1.3-2.9,2.7-2.9s2.4,1.6,2.7,2.9C1711.1,13.1,1711,13.6,1709.6,17.7L1709.6,17.7z M1720.8,18c-0.2,0.4-0.5,0.6-3,1.8
			c-1.4,0.7-1.8,0.9-1.9,0.7s0.2-0.7,0.8-2.3c0.9-2.1,0.9-2.6,1.5-3c0.7-0.6,1.8-0.6,2.5,0C1721.3,16.1,1721.3,17.1,1720.8,18z"/>
		<path class="st0" d="M1650.3,17.4c0-4.9-3.7-8.9-8.2-8.9c-0.5,0-1,0.1-1.5,0.2c-2.5-5.2-8.7-7.3-13.9-4.8c-2.1,1-3.8,2.7-4.8,4.8
			c-0.5-0.1-1-0.1-1.5-0.2c-4.5,0-8.2,4-8.2,8.9c0,2.5,1,4.9,2.8,6.7h32.4C1649.3,22.3,1650.3,19.9,1650.3,17.4z M1624,20.5
			c-0.2,0.2-0.7-0.2-2.1-0.9c-2-1-2.4-1-2.8-1.6c-0.6-0.8-0.6-1.9,0-2.8c0.7-0.6,1.8-0.6,2.5,0c0.4,0.2,0.6,0.5,1.7,3.2
			C1624.1,20,1624.2,20.4,1624,20.5z M1632.6,17.7c-0.8,2.4-1,2.9-1.3,2.9s-0.5-1-1.3-3.4c-1.1-3.3-1.5-3.7-1.3-4.8
			c0.3-1.3,1.3-2.9,2.7-2.9s2.4,1.6,2.7,2.9C1634.1,13.1,1634,13.6,1632.6,17.7L1632.6,17.7z M1643.8,18c-0.2,0.4-0.5,0.6-3,1.8
			c-1.4,0.7-1.8,0.9-1.9,0.7s0.2-0.7,0.8-2.3c0.9-2.1,0.9-2.6,1.5-3c0.7-0.6,1.8-0.6,2.6,0C1644.3,16.1,1644.3,17.1,1643.8,18z"/>
		<path class="st0" d="M1918.3,24.1c-2.9,2.8-7.3,2.9-10.4,0.3c-3.5,2.5-8.2,2.5-11.7,0c-3,2.6-7.5,2.4-10.4-0.3h-6.2
			c-2.9,2.8-7.3,2.9-10.4,0.3c-3.5,2.5-8.2,2.5-11.7,0c-3,2.6-7.5,2.4-10.4-0.3h-6.1c-2.9,2.8-7.3,2.9-10.4,0.3
			c-3.5,2.5-8.2,2.5-11.7,0c-3,2.6-7.5,2.4-10.4-0.3h-6.1c-2.9,2.8-7.3,2.9-10.4,0.3c-3.5,2.5-8.2,2.5-11.7,0
			c-3,2.6-7.5,2.4-10.4-0.3h-6.1c-2.9,2.8-7.3,2.9-10.4,0.3c-3.5,2.5-8.2,2.5-11.7,0c-3,2.6-7.5,2.4-10.4-0.3h-6.1
			c-2.9,2.8-7.3,2.9-10.4,0.3c-3.5,2.5-8.2,2.5-11.7,0c-3,2.6-7.5,2.4-10.4-0.3h-6.1c-2.9,2.8-7.3,2.9-10.4,0.3
			c-3.5,2.5-8.2,2.5-11.7,0c-3,2.6-7.5,2.4-10.4-0.3h-6.1c-2.9,2.8-7.3,2.9-10.4,0.3c-3.5,2.5-8.2,2.5-11.7,0
			c-3,2.6-7.5,2.4-10.4-0.3h-6.1c-2.9,2.8-7.3,2.9-10.4,0.3c-3.5,2.5-8.2,2.5-11.7,0c-3,2.6-7.5,2.4-10.4-0.3h-6.1
			c-2.9,2.8-7.3,2.9-10.4,0.3c-3.5,2.5-8.2,2.5-11.7,0c-3,2.6-7.5,2.4-10.4-0.3h-6.1c-2.9,2.8-7.3,2.9-10.4,0.3
			c-3.5,2.5-8.2,2.5-11.7,0c-3,2.6-7.5,2.4-10.4-0.3h-6.1c-2.9,2.8-7.3,2.9-10.4,0.3c-3.5,2.5-8.2,2.5-11.7,0
			c-3,2.6-7.5,2.4-10.4-0.3h-6.1c-2.9,2.8-7.3,2.9-10.4,0.3c-3.5,2.5-8.2,2.5-11.7,0c-3,2.6-7.5,2.4-10.4-0.3h-6.6
			c-2.8,2.6-7.1,2.6-10,0.1c-3.4,2.4-8,2.4-11.4,0c-2.9,2.5-7.2,2.4-10-0.1h-3v5.4h540.9v-5.4H1918.3z"/>
		<path class="st0" d="M1394.5,24.2c3.4,2.4,8,2.4,11.4,0c2.9,2.5,7.2,2.4,10-0.1h-31.4C1387.3,26.7,1391.6,26.7,1394.5,24.2z"/>
		<path class="st0" d="M1663.9,24.4c3.5,2.5,8.3,2.5,11.8,0c3,2.6,7.6,2.4,10.5-0.3h-32.7C1656.3,26.9,1660.9,27,1663.9,24.4z"/>
		<path class="st0" d="M1586.9,24.4c3.5,2.5,8.2,2.5,11.7,0c3,2.6,7.5,2.4,10.4-0.3h-32.4C1579.4,26.9,1583.9,27,1586.9,24.4z"/>
		<path class="st0" d="M1547.5,24.4c3.5,2.5,8.2,2.5,11.7,0c3,2.6,7.5,2.4,10.4-0.3h-32.4C1540,26.9,1544.5,27,1547.5,24.4z"/>
		<path class="st0" d="M1896,24.4c3.5,2.5,8.3,2.5,11.9,0c3,2.6,7.6,2.4,10.5-0.3h-32.8C1888.4,26.9,1892.9,27,1896,24.4z"/>
		<path class="st0" d="M1509.9,24.4c3.5,2.5,8.2,2.5,11.7,0c3,2.6,7.5,2.4,10.4-0.3h-32.5C1502.4,26.9,1506.8,27,1509.9,24.4
			L1509.9,24.4z"/>
		<path class="st0" d="M1818.6,24.4c3.5,2.5,8.3,2.5,11.8,0c3,2.6,7.6,2.4,10.5-0.3h-32.7C1811,26.9,1815.6,27,1818.6,24.4z"/>
		<path class="st0" d="M1471.4,24.4c3.5,2.5,8.2,2.5,11.7,0c3,2.6,7.5,2.4,10.4-0.3h-32.4C1463.9,26.9,1468.4,27,1471.4,24.4z"/>
		<path class="st0" d="M1741.3,24.4c3.5,2.5,8.3,2.5,11.8,0c3,2.6,7.6,2.4,10.5-0.3h-32.7C1733.7,26.9,1738.3,27,1741.3,24.4z"/>
		<path class="st0" d="M1432.9,24.4c3.5,2.5,8.2,2.5,11.7,0c3,2.6,7.5,2.4,10.4-0.3h-32.5C1425.4,26.9,1429.8,27,1432.9,24.4z"/>
		<path class="st0" d="M1857.2,24.4c3.5,2.5,8.3,2.5,11.8,0c3,2.6,7.6,2.4,10.5-0.3h-32.8C1849.6,26.9,1854.2,27,1857.2,24.4z"/>
		<path class="st0" d="M1780,24.4c3.5,2.5,8.3,2.5,11.8,0c3,2.6,7.6,2.4,10.5-0.3h-32.7C1772.4,26.9,1777,27,1780,24.4z"/>
		<path class="st0" d="M1702.6,24.4c3.5,2.5,8.3,2.5,11.8,0c3,2.6,7.5,2.4,10.5-0.3h-32.6C1695.1,26.9,1699.5,27,1702.6,24.4
			L1702.6,24.4z"/>
		<path class="st0" d="M1625.4,24.4c3.5,2.5,8.2,2.5,11.7,0c3,2.6,7.5,2.4,10.4-0.3h-32.4C1617.9,26.9,1622.4,27,1625.4,24.4z"/>
		<rect x="850.3" y="24.1" class="st0" width="1070.9" height="5.4"/>
	</g>
</g>
</svg>
