<svg xmlns="http://www.w3.org/2000/svg" viewBox="0 0 1917.7 36.09"><defs><style>.cls-1{fill:#f4f0e3;}.cls-2{fill:none;}</style></defs><title>資產 30</title><g id="圖層_2" data-name="圖層 2"><g id="圖層_1-2" data-name="圖層 1"><path class="cls-1" d="M29.31,5.81A7.47,7.47,0,0,0,27.87,6,10.5,10.5,0,0,0,18.68.21,10.5,10.5,0,0,0,9.48,6,7.47,7.47,0,0,0,8,5.81c-4.44,0-8,3.9-8,8.71s3.6,8.71,8,8.71A7.62,7.62,0,0,0,13,21.41a9.91,9.91,0,0,0,11.44,0,7.62,7.62,0,0,0,4.91,1.82c4.44,0,8-3.9,8-8.71S33.75,5.81,29.31,5.81ZM11.58,17.59c-.19.2-.67-.17-2.08-.9-1.95-1-2.33-1-2.71-1.58a2.46,2.46,0,0,1,0-2.71,2.05,2.05,0,0,1,2.5,0c.36.24.55.51,1.67,3.16C11.6,17.07,11.73,17.43,11.58,17.59ZM20,14.81c-.79,2.31-1,2.83-1.31,2.83s-.53-.94-1.3-3.3c-1.07-3.25-1.51-3.63-1.31-4.71.25-1.3,1.31-2.83,2.61-2.83S21,8.39,21.29,9.63C21.44,10.29,21.37,10.78,20,14.81Zm11,.29c-.22.39-.47.59-2.92,1.8-1.4.69-1.73.84-1.87.68s.16-.72.83-2.25c.93-2.11.88-2.52,1.46-2.93a2,2,0,0,1,2.5,0A2.53,2.53,0,0,1,31,15.1Z"/><path class="cls-1" d="M684.25,5.7a7.61,7.61,0,0,0-1.47.15,10.41,10.41,0,0,0-18.72,0,7.61,7.61,0,0,0-1.47-.15c-4.52,0-8.19,4-8.19,8.87s3.67,8.87,8.19,8.87a7.76,7.76,0,0,0,5-1.85,10.09,10.09,0,0,0,11.66,0,7.76,7.76,0,0,0,5,1.85c4.52,0,8.19-4,8.19-8.87S688.77,5.7,684.25,5.7Zm-18,12c-.2.2-.68-.18-2.12-.92-2-1-2.37-1-2.76-1.61a2.51,2.51,0,0,1,0-2.76,2.09,2.09,0,0,1,2.55,0c.37.24.56.52,1.7,3.21C666.22,17.17,666.35,17.54,666.2,17.69Zm8.55-2.82c-.81,2.35-1,2.89-1.33,2.88s-.54-1-1.33-3.36c-1.09-3.31-1.54-3.7-1.33-4.8.26-1.32,1.33-2.88,2.66-2.88s2.37,1.61,2.66,2.88C676.23,10.26,676.16,10.76,674.75,14.87Zm11.19.29c-.22.4-.48.6-3,1.84-1.42.71-1.77.85-1.91.69s.16-.74.85-2.3c.94-2.15.9-2.57,1.48-3a2,2,0,0,1,2.55,0A2.58,2.58,0,0,1,685.94,15.16Z"/><path class="cls-1" d="M299.1,5.7a7.61,7.61,0,0,0-1.47.15,10.41,10.41,0,0,0-18.72,0,7.61,7.61,0,0,0-1.47-.15c-4.52,0-8.19,4-8.19,8.87s3.67,8.87,8.19,8.87a7.76,7.76,0,0,0,5-1.85,10.09,10.09,0,0,0,11.66,0,7.76,7.76,0,0,0,5,1.85c4.52,0,8.19-4,8.19-8.87S303.63,5.7,299.1,5.7Zm-18,12c-.2.2-.68-.18-2.12-.92-2-1-2.37-1-2.76-1.61a2.51,2.51,0,0,1,0-2.76,2.09,2.09,0,0,1,2.55,0c.37.24.56.52,1.7,3.21C281.07,17.17,281.2,17.54,281.05,17.69Zm8.55-2.82c-.81,2.35-1,2.89-1.33,2.88s-.54-1-1.33-3.36c-1.09-3.31-1.54-3.7-1.33-4.8.26-1.32,1.33-2.88,2.66-2.88s2.37,1.61,2.66,2.88C291.09,10.26,291,10.76,289.61,14.87Zm11.19.29c-.22.4-.48.6-3,1.84-1.42.71-1.77.85-1.91.69s.16-.74.85-2.3c.94-2.15.9-2.57,1.48-3a2,2,0,0,1,2.55,0A2.58,2.58,0,0,1,300.8,15.16Z"/><path class="cls-1" d="M645.73,5.7a7.61,7.61,0,0,0-1.47.15,10.41,10.41,0,0,0-18.72,0,7.61,7.61,0,0,0-1.47-.15c-4.52,0-8.19,4-8.19,8.87s3.67,8.87,8.19,8.87a7.76,7.76,0,0,0,5-1.85,10.09,10.09,0,0,0,11.66,0,7.76,7.76,0,0,0,5,1.85c4.52,0,8.19-4,8.19-8.87S650.26,5.7,645.73,5.7Zm-18,12c-.2.2-.68-.18-2.12-.92-2-1-2.37-1-2.76-1.61a2.51,2.51,0,0,1,0-2.76,2.09,2.09,0,0,1,2.55,0c.37.24.56.52,1.7,3.21C627.7,17.17,627.83,17.54,627.68,17.69Zm8.55-2.82c-.81,2.35-1,2.89-1.33,2.88s-.54-1-1.33-3.36c-1.09-3.31-1.54-3.7-1.33-4.8.26-1.32,1.33-2.88,2.66-2.88s2.37,1.61,2.66,2.88C637.72,10.26,637.65,10.76,636.24,14.87Zm11.19.29c-.22.4-.48.6-3,1.84-1.42.71-1.77.85-1.91.69s.16-.74.85-2.3c.94-2.15.9-2.57,1.48-3a2,2,0,0,1,2.55,0A2.58,2.58,0,0,1,647.43,15.16Z"/><path class="cls-1" d="M222.07,5.7a7.61,7.61,0,0,0-1.47.15,10.41,10.41,0,0,0-18.72,0,7.61,7.61,0,0,0-1.47-.15c-4.52,0-8.19,4-8.19,8.87s3.67,8.87,8.19,8.87a7.76,7.76,0,0,0,5-1.85,10.09,10.09,0,0,0,11.66,0,7.76,7.76,0,0,0,5,1.85c4.52,0,8.19-4,8.19-8.87S226.6,5.7,222.07,5.7Zm-18,12c-.2.2-.68-.18-2.12-.92-2-1-2.37-1-2.76-1.61a2.51,2.51,0,0,1,0-2.76,2.09,2.09,0,0,1,2.55,0c.37.24.56.52,1.7,3.21C204,17.17,204.18,17.54,204,17.69Zm8.55-2.82c-.81,2.35-1,2.89-1.33,2.88s-.54-1-1.33-3.36c-1.09-3.31-1.54-3.7-1.33-4.8.26-1.32,1.33-2.88,2.66-2.88s2.37,1.61,2.66,2.88C214.06,10.26,214,10.76,212.58,14.87Zm11.19.29c-.22.4-.48.6-3,1.84-1.42.71-1.77.85-1.91.69s.16-.74.85-2.3c.94-2.15.9-2.57,1.48-3a2,2,0,0,1,2.55,0A2.58,2.58,0,0,1,223.77,15.16Z"/><path class="cls-1" d="M607.22,5.7a7.61,7.61,0,0,0-1.47.15,10.41,10.41,0,0,0-18.72,0,7.61,7.61,0,0,0-1.47-.15c-4.52,0-8.19,4-8.19,8.87s3.67,8.87,8.19,8.87a7.76,7.76,0,0,0,5-1.85,10.09,10.09,0,0,0,11.66,0,7.76,7.76,0,0,0,5,1.85c4.52,0,8.19-4,8.19-8.87S611.74,5.7,607.22,5.7Zm-18,12c-.2.2-.68-.18-2.12-.92-2-1-2.37-1-2.76-1.61a2.51,2.51,0,0,1,0-2.76,2.09,2.09,0,0,1,2.55,0c.37.24.56.52,1.7,3.21C589.19,17.17,589.32,17.54,589.17,17.69Zm8.55-2.82c-.81,2.35-1,2.89-1.33,2.88s-.54-1-1.33-3.36c-1.09-3.31-1.54-3.7-1.33-4.8.26-1.32,1.33-2.88,2.66-2.88s2.37,1.61,2.66,2.88C599.2,10.26,599.13,10.76,597.72,14.87Zm11.19.29c-.22.4-.48.6-3,1.84-1.42.71-1.77.85-1.91.69s.16-.74.85-2.3c.94-2.15.9-2.57,1.48-3a2,2,0,0,1,2.55,0A2.58,2.58,0,0,1,608.91,15.16Z"/><path class="cls-1" d="M183.56,5.7a7.61,7.61,0,0,0-1.47.15,10.41,10.41,0,0,0-18.72,0,7.61,7.61,0,0,0-1.47-.15c-4.52,0-8.19,4-8.19,8.87s3.67,8.87,8.19,8.87a7.76,7.76,0,0,0,5-1.85,10.09,10.09,0,0,0,11.66,0,7.76,7.76,0,0,0,5,1.85c4.52,0,8.19-4,8.19-8.87S188.08,5.7,183.56,5.7Zm-18,12c-.2.2-.68-.18-2.12-.92-2-1-2.37-1-2.76-1.61a2.51,2.51,0,0,1,0-2.76,2.09,2.09,0,0,1,2.55,0c.37.24.56.52,1.7,3.21C165.53,17.17,165.66,17.54,165.51,17.69Zm8.55-2.82c-.81,2.35-1,2.89-1.33,2.88s-.54-1-1.33-3.36c-1.09-3.31-1.54-3.7-1.33-4.8.26-1.32,1.33-2.88,2.66-2.88s2.37,1.61,2.66,2.88C175.54,10.26,175.47,10.76,174.06,14.87Zm11.19.29c-.22.4-.48.6-3,1.84-1.42.71-1.77.85-1.91.69s.16-.74.85-2.3c.94-2.15.9-2.57,1.48-3a2,2,0,0,1,2.55,0A2.58,2.58,0,0,1,185.25,15.16Z"/><path class="cls-1" d="M530.19,5.7a7.61,7.61,0,0,0-1.47.15,10.41,10.41,0,0,0-18.72,0,7.61,7.61,0,0,0-1.47-.15c-4.52,0-8.19,4-8.19,8.87s3.67,8.87,8.19,8.87a7.76,7.76,0,0,0,5-1.85,10.09,10.09,0,0,0,11.66,0,7.76,7.76,0,0,0,5,1.85c4.52,0,8.19-4,8.19-8.87S534.71,5.7,530.19,5.7Zm-18,12c-.2.2-.68-.18-2.12-.92-2-1-2.37-1-2.76-1.61a2.51,2.51,0,0,1,0-2.76,2.09,2.09,0,0,1,2.55,0c.37.24.56.52,1.7,3.21C512.16,17.17,512.29,17.54,512.14,17.69Zm8.55-2.82c-.81,2.35-1,2.89-1.33,2.88s-.54-1-1.33-3.36c-1.09-3.31-1.54-3.7-1.33-4.8.26-1.32,1.33-2.88,2.66-2.88s2.37,1.61,2.66,2.88C522.17,10.26,522.1,10.76,520.69,14.87Zm11.19.29c-.22.4-.48.6-3,1.84-1.42.71-1.77.85-1.91.69s.16-.74.85-2.3c.94-2.15.9-2.57,1.48-3a2,2,0,0,1,2.55,0A2.58,2.58,0,0,1,531.88,15.16Z"/><path class="cls-1" d="M145,5.7a7.61,7.61,0,0,0-1.47.15,10.41,10.41,0,0,0-18.72,0,7.61,7.61,0,0,0-1.47-.15c-4.52,0-8.19,4-8.19,8.87s3.67,8.87,8.19,8.87a7.76,7.76,0,0,0,5-1.85,10.09,10.09,0,0,0,11.66,0,7.76,7.76,0,0,0,5,1.85c4.52,0,8.19-4,8.19-8.87S149.57,5.7,145,5.7Zm-18,12c-.2.2-.68-.18-2.12-.92-2-1-2.37-1-2.76-1.61a2.51,2.51,0,0,1,0-2.76,2.09,2.09,0,0,1,2.55,0c.37.24.56.52,1.7,3.21C127,17.17,127.15,17.54,127,17.69Zm8.55-2.82c-.81,2.35-1,2.89-1.33,2.88s-.54-1-1.33-3.36c-1.09-3.31-1.54-3.7-1.33-4.8.26-1.32,1.33-2.88,2.66-2.88s2.37,1.61,2.66,2.88C137,10.26,137,10.76,135.55,14.87Zm11.19.29c-.22.4-.48.6-3,1.84-1.42.71-1.77.85-1.91.69s.16-.74.85-2.3c.94-2.15.9-2.57,1.48-3a2,2,0,0,1,2.55,0A2.58,2.58,0,0,1,146.74,15.16Z"/><path class="cls-1" d="M453.16,5.7a7.61,7.61,0,0,0-1.47.15,10.41,10.41,0,0,0-18.72,0,7.61,7.61,0,0,0-1.47-.15c-4.52,0-8.19,4-8.19,8.87s3.67,8.87,8.19,8.87a7.76,7.76,0,0,0,5-1.85,10.09,10.09,0,0,0,11.66,0,7.76,7.76,0,0,0,5,1.85c4.52,0,8.19-4,8.19-8.87S457.69,5.7,453.16,5.7Zm-18,12c-.2.2-.68-.18-2.12-.92-2-1-2.37-1-2.76-1.61a2.51,2.51,0,0,1,0-2.76,2.09,2.09,0,0,1,2.55,0c.37.24.56.52,1.7,3.21C435.13,17.17,435.26,17.54,435.11,17.69Zm8.55-2.82c-.81,2.35-1,2.89-1.33,2.88s-.54-1-1.33-3.36c-1.09-3.31-1.54-3.7-1.33-4.8.26-1.32,1.33-2.88,2.66-2.88s2.37,1.61,2.66,2.88C445.15,10.26,445.08,10.76,443.66,14.87Zm11.19.29c-.22.4-.48.6-3,1.84-1.42.71-1.77.85-1.91.69s.16-.74.85-2.3c.94-2.15.9-2.57,1.48-3a2,2,0,0,1,2.55,0A2.58,2.58,0,0,1,454.86,15.16Z"/><path class="cls-1" d="M106.53,5.7a7.61,7.61,0,0,0-1.47.15,10.41,10.41,0,0,0-18.72,0,7.61,7.61,0,0,0-1.47-.15c-4.52,0-8.19,4-8.19,8.87s3.67,8.87,8.19,8.87a7.76,7.76,0,0,0,5-1.85,10.09,10.09,0,0,0,11.66,0,7.76,7.76,0,0,0,5,1.85c4.52,0,8.19-4,8.19-8.87S111.06,5.7,106.53,5.7Zm-18,12c-.2.2-.68-.18-2.12-.92-2-1-2.37-1-2.76-1.61a2.51,2.51,0,0,1,0-2.76,2.09,2.09,0,0,1,2.55,0c.37.24.56.52,1.7,3.21C88.5,17.17,88.63,17.54,88.48,17.69ZM97,14.87c-.81,2.35-1,2.89-1.33,2.88s-.54-1-1.33-3.36c-1.09-3.31-1.54-3.7-1.33-4.8.26-1.32,1.33-2.88,2.66-2.88s2.37,1.61,2.66,2.88C98.52,10.26,98.45,10.76,97,14.87Zm11.19.29c-.22.4-.48.6-3,1.84-1.42.71-1.77.85-1.91.69s.16-.74.85-2.3c.94-2.15.9-2.57,1.48-3a2,2,0,0,1,2.55,0A2.58,2.58,0,0,1,108.23,15.16Z"/><path class="cls-1" d="M376.13,5.7a7.61,7.61,0,0,0-1.47.15,10.41,10.41,0,0,0-18.72,0,7.61,7.61,0,0,0-1.47-.15c-4.52,0-8.19,4-8.19,8.87s3.67,8.87,8.19,8.87a7.76,7.76,0,0,0,5-1.85,10.09,10.09,0,0,0,11.66,0,7.76,7.76,0,0,0,5,1.85c4.52,0,8.19-4,8.19-8.87S380.66,5.7,376.13,5.7Zm-18,12c-.2.2-.68-.18-2.12-.92-2-1-2.37-1-2.76-1.61a2.51,2.51,0,0,1,0-2.76,2.09,2.09,0,0,1,2.55,0c.37.24.56.52,1.7,3.21C358.1,17.17,358.23,17.54,358.08,17.69Zm8.55-2.82c-.81,2.35-1,2.89-1.33,2.88s-.54-1-1.33-3.36c-1.09-3.31-1.54-3.7-1.33-4.8.26-1.32,1.33-2.88,2.66-2.88s2.37,1.61,2.66,2.88C368.12,10.26,368,10.76,366.64,14.87Zm11.19.29c-.22.4-.48.6-3,1.84-1.42.71-1.77.85-1.91.69s.16-.74.85-2.3c.94-2.15.9-2.57,1.48-3a2,2,0,0,1,2.55,0A2.58,2.58,0,0,1,377.83,15.16Z"/><path class="cls-1" d="M68,5.7a7.61,7.61,0,0,0-1.47.15,10.41,10.41,0,0,0-18.72,0,7.61,7.61,0,0,0-1.47-.15c-4.52,0-8.19,4-8.19,8.87s3.67,8.87,8.19,8.87a7.76,7.76,0,0,0,5-1.85,10.09,10.09,0,0,0,11.66,0,7.76,7.76,0,0,0,5,1.85c4.52,0,8.19-4,8.19-8.87S72.54,5.7,68,5.7Zm-18,12c-.2.2-.68-.18-2.12-.92-2-1-2.37-1-2.76-1.61a2.51,2.51,0,0,1,0-2.76,2.09,2.09,0,0,1,2.55,0c.37.24.56.52,1.7,3.21C50,17.17,50.12,17.54,50,17.69Zm8.55-2.82c-.81,2.35-1,2.89-1.33,2.88s-.54-1-1.33-3.36c-1.09-3.31-1.54-3.7-1.33-4.8.26-1.32,1.33-2.88,2.66-2.88s2.37,1.61,2.66,2.88C60,10.26,59.93,10.76,58.52,14.87Zm11.19.29c-.22.4-.48.6-3,1.84-1.42.71-1.77.85-1.91.69s.16-.74.85-2.3c.94-2.15.9-2.57,1.48-3a2,2,0,0,1,2.55,0A2.58,2.58,0,0,1,69.71,15.16Z"/><path class="cls-1" d="M568.7,5.7a7.61,7.61,0,0,0-1.47.15,10.41,10.41,0,0,0-18.72,0,7.61,7.61,0,0,0-1.47-.15c-4.52,0-8.19,4-8.19,8.87s3.67,8.87,8.19,8.87a7.76,7.76,0,0,0,5-1.85,10.09,10.09,0,0,0,11.66,0,7.76,7.76,0,0,0,5,1.85c4.52,0,8.19-4,8.19-8.87S573.23,5.7,568.7,5.7Zm-18,12c-.2.2-.68-.18-2.12-.92-2-1-2.37-1-2.76-1.61a2.51,2.51,0,0,1,0-2.76,2.09,2.09,0,0,1,2.55,0c.37.24.56.52,1.7,3.21C550.67,17.17,550.81,17.54,550.66,17.69Zm8.55-2.82c-.81,2.35-1,2.89-1.33,2.88s-.54-1-1.33-3.36c-1.09-3.31-1.54-3.7-1.33-4.8.26-1.32,1.33-2.88,2.66-2.88s2.37,1.61,2.66,2.88C560.69,10.26,560.62,10.76,559.21,14.87Zm11.19.29c-.22.4-.48.6-3,1.84-1.42.71-1.77.85-1.91.69s.16-.74.85-2.3c.94-2.15.9-2.57,1.48-3a2,2,0,0,1,2.55,0A2.58,2.58,0,0,1,570.4,15.16Z"/><path class="cls-1" d="M491.68,5.7a7.61,7.61,0,0,0-1.47.15,10.41,10.41,0,0,0-18.72,0A7.61,7.61,0,0,0,470,5.7c-4.52,0-8.19,4-8.19,8.87s3.67,8.87,8.19,8.87a7.76,7.76,0,0,0,5-1.85,10.09,10.09,0,0,0,11.66,0,7.76,7.76,0,0,0,5,1.85c4.52,0,8.19-4,8.19-8.87S496.2,5.7,491.68,5.7Zm-18,12c-.2.2-.68-.18-2.12-.92-2-1-2.37-1-2.76-1.61a2.51,2.51,0,0,1,0-2.76,2.09,2.09,0,0,1,2.55,0c.37.24.56.52,1.7,3.21C473.64,17.17,473.78,17.54,473.63,17.69Zm8.55-2.82c-.81,2.35-1,2.89-1.33,2.88s-.54-1-1.33-3.36c-1.09-3.31-1.54-3.7-1.33-4.8.26-1.32,1.33-2.88,2.66-2.88s2.37,1.61,2.66,2.88C483.66,10.26,483.59,10.76,482.18,14.87Zm11.19.29c-.22.4-.48.6-3,1.84-1.42.71-1.77.85-1.91.69s.16-.74.85-2.3c.94-2.15.9-2.57,1.48-3a2,2,0,0,1,2.55,0A2.58,2.58,0,0,1,493.37,15.16Z"/><path class="cls-1" d="M414.65,5.7a7.61,7.61,0,0,0-1.47.15,10.41,10.41,0,0,0-18.72,0A7.61,7.61,0,0,0,393,5.7c-4.52,0-8.19,4-8.19,8.87s3.67,8.87,8.19,8.87a7.76,7.76,0,0,0,5-1.85,10.09,10.09,0,0,0,11.66,0,7.76,7.76,0,0,0,5,1.85c4.52,0,8.19-4,8.19-8.87S419.17,5.7,414.65,5.7Zm-18,12c-.2.2-.68-.18-2.12-.92-2-1-2.37-1-2.76-1.61a2.51,2.51,0,0,1,0-2.76,2.09,2.09,0,0,1,2.55,0c.37.24.56.52,1.7,3.21C396.61,17.17,396.75,17.54,396.6,17.69Zm8.55-2.82c-.81,2.35-1,2.89-1.33,2.88s-.54-1-1.33-3.36c-1.09-3.31-1.54-3.7-1.33-4.8.26-1.32,1.33-2.88,2.66-2.88s2.37,1.61,2.66,2.88C406.63,10.26,406.56,10.76,405.15,14.87Zm11.19.29c-.22.4-.48.6-3,1.84-1.42.71-1.77.85-1.91.69s.16-.74.85-2.3c.94-2.15.9-2.57,1.48-3a2,2,0,0,1,2.55,0A2.58,2.58,0,0,1,416.34,15.16Z"/><path class="cls-1" d="M337.62,5.7a7.61,7.61,0,0,0-1.47.15,10.41,10.41,0,0,0-18.72,0A7.61,7.61,0,0,0,316,5.7c-4.52,0-8.19,4-8.19,8.87s3.67,8.87,8.19,8.87a7.76,7.76,0,0,0,5-1.85,10.09,10.09,0,0,0,11.66,0,7.76,7.76,0,0,0,5,1.85c4.52,0,8.19-4,8.19-8.87S342.14,5.7,337.62,5.7Zm-18,12c-.2.2-.68-.18-2.12-.92-2-1-2.37-1-2.76-1.61a2.51,2.51,0,0,1,0-2.76,2.09,2.09,0,0,1,2.55,0c.37.24.56.52,1.7,3.21C319.59,17.17,319.72,17.54,319.57,17.69Zm8.55-2.82c-.81,2.35-1,2.89-1.33,2.88s-.54-1-1.33-3.36c-1.09-3.31-1.54-3.7-1.33-4.8.26-1.32,1.33-2.88,2.66-2.88s2.37,1.61,2.66,2.88C329.6,10.26,329.53,10.76,328.12,14.87Zm11.19.29c-.22.4-.48.6-3,1.84-1.42.71-1.77.85-1.91.69s.16-.74.85-2.3c.94-2.15.9-2.57,1.48-3a2,2,0,0,1,2.55,0A2.58,2.58,0,0,1,339.31,15.16Z"/><path class="cls-1" d="M260.59,5.7a7.61,7.61,0,0,0-1.47.15,10.41,10.41,0,0,0-18.72,0,7.61,7.61,0,0,0-1.47-.15c-4.52,0-8.19,4-8.19,8.87s3.67,8.87,8.19,8.87a7.76,7.76,0,0,0,5-1.85,10.09,10.09,0,0,0,11.66,0,7.76,7.76,0,0,0,5,1.85c4.52,0,8.19-4,8.19-8.87S265.11,5.7,260.59,5.7Zm-18,12c-.2.2-.68-.18-2.12-.92-2-1-2.37-1-2.76-1.61a2.51,2.51,0,0,1,0-2.76,2.09,2.09,0,0,1,2.55,0c.37.24.56.52,1.7,3.21C242.56,17.17,242.69,17.54,242.54,17.69Zm8.55-2.82c-.81,2.35-1,2.89-1.33,2.88s-.54-1-1.33-3.36c-1.09-3.31-1.54-3.7-1.33-4.8.26-1.32,1.33-2.88,2.66-2.88s2.37,1.61,2.66,2.88C252.57,10.26,252.5,10.76,251.09,14.87Zm11.19.29c-.22.4-.48.6-3,1.84-1.42.71-1.77.85-1.91.69s.16-.74.85-2.3c.94-2.15.9-2.57,1.48-3a2,2,0,0,1,2.55,0A2.58,2.58,0,0,1,262.28,15.16Z"/><rect class="cls-1" y="21.27" width="689.33" height="5.42"/><rect class="cls-1" y="32.51" width="689.33" height="3.58"/><path class="cls-1" d="M718.31,5.81a7.47,7.47,0,0,0-1.44.15,10.23,10.23,0,0,0-18.38,0A7.47,7.47,0,0,0,697,5.81c-4.44,0-8,3.9-8,8.71s3.6,8.71,8,8.71A7.62,7.62,0,0,0,702,21.41a9.91,9.91,0,0,0,11.44,0,7.62,7.62,0,0,0,4.91,1.82c4.44,0,8-3.9,8-8.71S722.75,5.81,718.31,5.81ZM700.58,17.59c-.19.2-.67-.17-2.08-.9-1.95-1-2.33-1-2.71-1.58a2.46,2.46,0,0,1,0-2.71,2.05,2.05,0,0,1,2.5,0c.36.24.55.51,1.67,3.16C700.6,17.07,700.73,17.43,700.58,17.59Zm8.4-2.77c-.79,2.31-1,2.83-1.31,2.83s-.53-.94-1.3-3.3c-1.07-3.25-1.51-3.63-1.31-4.71.25-1.3,1.31-2.83,2.61-2.83s2.33,1.59,2.61,2.83C710.44,10.29,710.37,10.78,709,14.81Zm11,.29c-.22.39-.47.59-2.92,1.8-1.4.69-1.73.84-1.87.68s.16-.72.83-2.25c.93-2.11.88-2.52,1.46-2.93a2,2,0,0,1,2.5,0A2.53,2.53,0,0,1,720,15.1Z"/><path class="cls-1" d="M1373.25,5.7a7.61,7.61,0,0,0-1.47.15,10.41,10.41,0,0,0-18.72,0,7.61,7.61,0,0,0-1.47-.15c-4.52,0-8.19,4-8.19,8.87s3.67,8.87,8.19,8.87a7.76,7.76,0,0,0,5-1.85,10.09,10.09,0,0,0,11.66,0,7.76,7.76,0,0,0,5,1.85c4.52,0,8.19-4,8.19-8.87S1377.77,5.7,1373.25,5.7Zm-18,12c-.2.2-.68-.18-2.12-.92-2-1-2.37-1-2.76-1.61a2.51,2.51,0,0,1,0-2.76,2.09,2.09,0,0,1,2.55,0c.37.24.56.52,1.7,3.21C1355.22,17.17,1355.35,17.54,1355.2,17.69Zm8.55-2.82c-.81,2.35-1,2.89-1.33,2.88s-.54-1-1.33-3.36c-1.09-3.31-1.54-3.7-1.33-4.8.26-1.32,1.33-2.88,2.66-2.88s2.37,1.61,2.66,2.88C1365.23,10.26,1365.16,10.76,1363.75,14.87Zm11.19.29c-.22.4-.48.6-3,1.84-1.42.71-1.77.85-1.91.69s.16-.74.85-2.3c.94-2.15.9-2.57,1.48-3a2,2,0,0,1,2.55,0A2.58,2.58,0,0,1,1374.94,15.16Z"/><path class="cls-1" d="M988.1,5.7a7.61,7.61,0,0,0-1.47.15,10.41,10.41,0,0,0-18.72,0,7.61,7.61,0,0,0-1.47-.15c-4.52,0-8.19,4-8.19,8.87s3.67,8.87,8.19,8.87a7.76,7.76,0,0,0,5-1.85,10.09,10.09,0,0,0,11.66,0,7.76,7.76,0,0,0,5,1.85c4.52,0,8.19-4,8.19-8.87S992.63,5.7,988.1,5.7Zm-18,12c-.2.2-.68-.18-2.12-.92-2-1-2.37-1-2.76-1.61a2.51,2.51,0,0,1,0-2.76,2.09,2.09,0,0,1,2.55,0c.37.24.56.52,1.7,3.21C970.07,17.17,970.2,17.54,970.05,17.69Zm8.55-2.82c-.81,2.35-1,2.89-1.33,2.88s-.54-1-1.33-3.36c-1.09-3.31-1.54-3.7-1.33-4.8.26-1.32,1.33-2.88,2.66-2.88s2.37,1.61,2.66,2.88C980.09,10.26,980,10.76,978.61,14.87Zm11.19.29c-.22.4-.48.6-3,1.84-1.42.71-1.77.85-1.91.69s.16-.74.85-2.3c.94-2.15.9-2.57,1.48-3a2,2,0,0,1,2.55,0A2.58,2.58,0,0,1,989.8,15.16Z"/><path class="cls-1" d="M1334.73,5.7a7.61,7.61,0,0,0-1.47.15,10.41,10.41,0,0,0-18.72,0,7.61,7.61,0,0,0-1.47-.15c-4.52,0-8.19,4-8.19,8.87s3.67,8.87,8.19,8.87a7.76,7.76,0,0,0,5-1.85,10.09,10.09,0,0,0,11.66,0,7.76,7.76,0,0,0,5,1.85c4.52,0,8.19-4,8.19-8.87S1339.26,5.7,1334.73,5.7Zm-18,12c-.2.2-.68-.18-2.12-.92-2-1-2.37-1-2.76-1.61a2.51,2.51,0,0,1,0-2.76,2.09,2.09,0,0,1,2.55,0c.37.24.56.52,1.7,3.21C1316.7,17.17,1316.83,17.54,1316.68,17.69Zm8.55-2.82c-.81,2.35-1,2.89-1.33,2.88s-.54-1-1.33-3.36c-1.09-3.31-1.54-3.7-1.33-4.8.26-1.32,1.33-2.88,2.66-2.88s2.37,1.61,2.66,2.88C1326.72,10.26,1326.65,10.76,1325.24,14.87Zm11.19.29c-.22.4-.48.6-3,1.84-1.42.71-1.77.85-1.91.69s.16-.74.85-2.3c.94-2.15.9-2.57,1.48-3a2,2,0,0,1,2.55,0A2.58,2.58,0,0,1,1336.43,15.16Z"/><path class="cls-1" d="M911.07,5.7a7.61,7.61,0,0,0-1.47.15,10.41,10.41,0,0,0-18.72,0,7.61,7.61,0,0,0-1.47-.15c-4.52,0-8.19,4-8.19,8.87s3.67,8.87,8.19,8.87a7.76,7.76,0,0,0,5-1.85,10.09,10.09,0,0,0,11.66,0,7.76,7.76,0,0,0,5,1.85c4.52,0,8.19-4,8.19-8.87S915.6,5.7,911.07,5.7Zm-18,12c-.2.2-.68-.18-2.12-.92-2-1-2.37-1-2.76-1.61a2.51,2.51,0,0,1,0-2.76,2.09,2.09,0,0,1,2.55,0c.37.24.56.52,1.7,3.21C893,17.17,893.18,17.54,893,17.69Zm8.55-2.82c-.81,2.35-1,2.89-1.33,2.88s-.54-1-1.33-3.36c-1.09-3.31-1.54-3.7-1.33-4.8.26-1.32,1.33-2.88,2.66-2.88s2.37,1.61,2.66,2.88C903.06,10.26,903,10.76,901.58,14.87Zm11.19.29c-.22.4-.48.6-3,1.84-1.42.71-1.77.85-1.91.69s.16-.74.85-2.3c.94-2.15.9-2.57,1.48-3a2,2,0,0,1,2.55,0A2.58,2.58,0,0,1,912.77,15.16Z"/><path class="cls-1" d="M1296.22,5.7a7.61,7.61,0,0,0-1.47.15,10.41,10.41,0,0,0-18.72,0,7.61,7.61,0,0,0-1.47-.15c-4.52,0-8.19,4-8.19,8.87s3.67,8.87,8.19,8.87a7.76,7.76,0,0,0,5-1.85,10.09,10.09,0,0,0,11.66,0,7.76,7.76,0,0,0,5,1.85c4.52,0,8.19-4,8.19-8.87S1300.74,5.7,1296.22,5.7Zm-18,12c-.2.2-.68-.18-2.12-.92-2-1-2.37-1-2.76-1.61a2.51,2.51,0,0,1,0-2.76,2.09,2.09,0,0,1,2.55,0c.37.24.56.52,1.7,3.21C1278.19,17.17,1278.32,17.54,1278.17,17.69Zm8.55-2.82c-.81,2.35-1,2.89-1.33,2.88s-.54-1-1.33-3.36c-1.09-3.31-1.54-3.7-1.33-4.8.26-1.32,1.33-2.88,2.66-2.88s2.37,1.61,2.66,2.88C1288.2,10.26,1288.13,10.76,1286.72,14.87Zm11.19.29c-.22.4-.48.6-3,1.84-1.42.71-1.77.85-1.91.69s.16-.74.85-2.3c.94-2.15.9-2.57,1.48-3a2,2,0,0,1,2.55,0A2.58,2.58,0,0,1,1297.91,15.16Z"/><path class="cls-1" d="M872.56,5.7a7.61,7.61,0,0,0-1.47.15,10.41,10.41,0,0,0-18.72,0,7.61,7.61,0,0,0-1.47-.15c-4.52,0-8.19,4-8.19,8.87s3.67,8.87,8.19,8.87a7.76,7.76,0,0,0,5-1.85,10.09,10.09,0,0,0,11.66,0,7.76,7.76,0,0,0,5,1.85c4.52,0,8.19-4,8.19-8.87S877.08,5.7,872.56,5.7Zm-18,12c-.2.2-.68-.18-2.12-.92-2-1-2.37-1-2.76-1.61a2.51,2.51,0,0,1,0-2.76,2.09,2.09,0,0,1,2.55,0c.37.24.56.52,1.7,3.21C854.53,17.17,854.66,17.54,854.51,17.69Zm8.55-2.82c-.81,2.35-1,2.89-1.33,2.88s-.54-1-1.33-3.36c-1.09-3.31-1.54-3.7-1.33-4.8.26-1.32,1.33-2.88,2.66-2.88s2.37,1.61,2.66,2.88C864.54,10.26,864.47,10.76,863.06,14.87Zm11.19.29c-.22.4-.48.6-3,1.84-1.42.71-1.77.85-1.91.69s.16-.74.85-2.3c.94-2.15.9-2.57,1.48-3a2,2,0,0,1,2.55,0A2.58,2.58,0,0,1,874.25,15.16Z"/><path class="cls-1" d="M1219.19,5.7a7.61,7.61,0,0,0-1.47.15,10.41,10.41,0,0,0-18.72,0,7.61,7.61,0,0,0-1.47-.15c-4.52,0-8.19,4-8.19,8.87s3.67,8.87,8.19,8.87a7.76,7.76,0,0,0,5-1.85,10.09,10.09,0,0,0,11.66,0,7.76,7.76,0,0,0,5,1.85c4.52,0,8.19-4,8.19-8.87S1223.71,5.7,1219.19,5.7Zm-18,12c-.2.2-.68-.18-2.12-.92-2-1-2.37-1-2.76-1.61a2.51,2.51,0,0,1,0-2.76,2.09,2.09,0,0,1,2.55,0c.37.24.56.52,1.7,3.21C1201.16,17.17,1201.29,17.54,1201.14,17.69Zm8.55-2.82c-.81,2.35-1,2.89-1.33,2.88s-.54-1-1.33-3.36c-1.09-3.31-1.54-3.7-1.33-4.8.26-1.32,1.33-2.88,2.66-2.88s2.37,1.61,2.66,2.88C1211.17,10.26,1211.1,10.76,1209.69,14.87Zm11.19.29c-.22.4-.48.6-3,1.84-1.42.71-1.77.85-1.91.69s.16-.74.85-2.3c.94-2.15.9-2.57,1.48-3a2,2,0,0,1,2.55,0A2.58,2.58,0,0,1,1220.88,15.16Z"/><path class="cls-1" d="M834,5.7a7.61,7.61,0,0,0-1.47.15,10.41,10.41,0,0,0-18.72,0,7.61,7.61,0,0,0-1.47-.15c-4.52,0-8.19,4-8.19,8.87s3.67,8.87,8.19,8.87a7.76,7.76,0,0,0,5-1.85,10.09,10.09,0,0,0,11.66,0,7.76,7.76,0,0,0,5,1.85c4.52,0,8.19-4,8.19-8.87S838.57,5.7,834,5.7Zm-18,12c-.2.2-.68-.18-2.12-.92-2-1-2.37-1-2.76-1.61a2.51,2.51,0,0,1,0-2.76,2.09,2.09,0,0,1,2.55,0c.37.24.56.52,1.7,3.21C816,17.17,816.15,17.54,816,17.69Zm8.55-2.82c-.81,2.35-1,2.89-1.33,2.88s-.54-1-1.33-3.36c-1.09-3.31-1.54-3.7-1.33-4.8.26-1.32,1.33-2.88,2.66-2.88s2.37,1.61,2.66,2.88C826,10.26,826,10.76,824.55,14.87Zm11.19.29c-.22.4-.48.6-3,1.84-1.42.71-1.77.85-1.91.69s.16-.74.85-2.3c.94-2.15.9-2.57,1.48-3a2,2,0,0,1,2.55,0A2.58,2.58,0,0,1,835.74,15.16Z"/><path class="cls-1" d="M1142.16,5.7a7.61,7.61,0,0,0-1.47.15,10.41,10.41,0,0,0-18.72,0,7.61,7.61,0,0,0-1.47-.15c-4.52,0-8.19,4-8.19,8.87s3.67,8.87,8.19,8.87a7.76,7.76,0,0,0,5-1.85,10.09,10.09,0,0,0,11.66,0,7.76,7.76,0,0,0,5,1.85c4.52,0,8.19-4,8.19-8.87S1146.69,5.7,1142.16,5.7Zm-18,12c-.2.2-.68-.18-2.12-.92-2-1-2.37-1-2.76-1.61a2.51,2.51,0,0,1,0-2.76,2.09,2.09,0,0,1,2.55,0c.37.24.56.52,1.7,3.21C1124.13,17.17,1124.26,17.54,1124.11,17.69Zm8.55-2.82c-.81,2.35-1,2.89-1.33,2.88s-.54-1-1.33-3.36c-1.09-3.31-1.54-3.7-1.33-4.8.26-1.32,1.33-2.88,2.66-2.88s2.37,1.61,2.66,2.88C1134.15,10.26,1134.08,10.76,1132.66,14.87Zm11.19.29c-.22.4-.48.6-3,1.84-1.42.71-1.77.85-1.91.69s.16-.74.85-2.3c.94-2.15.9-2.57,1.48-3a2,2,0,0,1,2.55,0A2.58,2.58,0,0,1,1143.86,15.16Z"/><path class="cls-1" d="M795.53,5.7a7.61,7.61,0,0,0-1.47.15,10.41,10.41,0,0,0-18.72,0,7.61,7.61,0,0,0-1.47-.15c-4.52,0-8.19,4-8.19,8.87s3.67,8.87,8.19,8.87a7.76,7.76,0,0,0,5-1.85,10.09,10.09,0,0,0,11.66,0,7.76,7.76,0,0,0,5,1.85c4.52,0,8.19-4,8.19-8.87S800.06,5.7,795.53,5.7Zm-18,12c-.2.2-.68-.18-2.12-.92-2-1-2.37-1-2.76-1.61a2.51,2.51,0,0,1,0-2.76,2.09,2.09,0,0,1,2.55,0c.37.24.56.52,1.7,3.21C777.5,17.17,777.63,17.54,777.48,17.69ZM786,14.87c-.81,2.35-1,2.89-1.33,2.88s-.54-1-1.33-3.36c-1.09-3.31-1.54-3.7-1.33-4.8.26-1.32,1.33-2.88,2.66-2.88s2.37,1.61,2.66,2.88C787.52,10.26,787.45,10.76,786,14.87Zm11.19.29c-.22.4-.48.6-3,1.84-1.42.71-1.77.85-1.91.69s.16-.74.85-2.3c.94-2.15.9-2.57,1.48-3a2,2,0,0,1,2.55,0A2.58,2.58,0,0,1,797.23,15.16Z"/><path class="cls-1" d="M1065.13,5.7a7.61,7.61,0,0,0-1.47.15,10.41,10.41,0,0,0-18.72,0,7.61,7.61,0,0,0-1.47-.15c-4.52,0-8.19,4-8.19,8.87s3.67,8.87,8.19,8.87a7.76,7.76,0,0,0,5-1.85,10.09,10.09,0,0,0,11.66,0,7.76,7.76,0,0,0,5,1.85c4.52,0,8.19-4,8.19-8.87S1069.66,5.7,1065.13,5.7Zm-18,12c-.2.2-.68-.18-2.12-.92-2-1-2.37-1-2.76-1.61a2.51,2.51,0,0,1,0-2.76,2.09,2.09,0,0,1,2.55,0c.37.24.56.52,1.7,3.21C1047.1,17.17,1047.23,17.54,1047.08,17.69Zm8.55-2.82c-.81,2.35-1,2.89-1.33,2.88s-.54-1-1.33-3.36c-1.09-3.31-1.54-3.7-1.33-4.8.26-1.32,1.33-2.88,2.66-2.88s2.37,1.61,2.66,2.88C1057.12,10.26,1057,10.76,1055.64,14.87Zm11.19.29c-.22.4-.48.6-3,1.84-1.42.71-1.77.85-1.91.69s.16-.74.85-2.3c.94-2.15.9-2.57,1.48-3a2,2,0,0,1,2.55,0A2.58,2.58,0,0,1,1066.83,15.16Z"/><path class="cls-1" d="M757,5.7a7.61,7.61,0,0,0-1.47.15,10.41,10.41,0,0,0-18.72,0,7.61,7.61,0,0,0-1.47-.15c-4.52,0-8.19,4-8.19,8.87s3.67,8.87,8.19,8.87a7.76,7.76,0,0,0,5-1.85,10.09,10.09,0,0,0,11.66,0,7.76,7.76,0,0,0,5,1.85c4.52,0,8.19-4,8.19-8.87S761.54,5.7,757,5.7Zm-18,12c-.2.2-.68-.18-2.12-.92-2-1-2.37-1-2.76-1.61a2.51,2.51,0,0,1,0-2.76,2.09,2.09,0,0,1,2.55,0c.37.24.56.52,1.7,3.21C739,17.17,739.12,17.54,739,17.69Zm8.55-2.82c-.81,2.35-1,2.89-1.33,2.88s-.54-1-1.33-3.36c-1.09-3.31-1.54-3.7-1.33-4.8.26-1.32,1.33-2.88,2.66-2.88s2.37,1.61,2.66,2.88C749,10.26,748.93,10.76,747.52,14.87Zm11.19.29c-.22.4-.48.6-3,1.84-1.42.71-1.77.85-1.91.69s.16-.74.85-2.3c.94-2.15.9-2.57,1.48-3a2,2,0,0,1,2.55,0A2.58,2.58,0,0,1,758.71,15.16Z"/><path class="cls-1" d="M1257.7,5.7a7.61,7.61,0,0,0-1.47.15,10.41,10.41,0,0,0-18.72,0,7.61,7.61,0,0,0-1.47-.15c-4.52,0-8.19,4-8.19,8.87s3.67,8.87,8.19,8.87a7.76,7.76,0,0,0,5-1.85,10.09,10.09,0,0,0,11.66,0,7.76,7.76,0,0,0,5,1.85c4.52,0,8.19-4,8.19-8.87S1262.23,5.7,1257.7,5.7Zm-18,12c-.2.2-.68-.18-2.12-.92-2-1-2.37-1-2.76-1.61a2.51,2.51,0,0,1,0-2.76,2.09,2.09,0,0,1,2.55,0c.37.24.56.52,1.7,3.21C1239.67,17.17,1239.81,17.54,1239.66,17.69Zm8.55-2.82c-.81,2.35-1,2.89-1.33,2.88s-.54-1-1.33-3.36c-1.09-3.31-1.54-3.7-1.33-4.8.26-1.32,1.33-2.88,2.66-2.88s2.37,1.61,2.66,2.88C1249.69,10.26,1249.62,10.76,1248.21,14.87Zm11.19.29c-.22.4-.48.6-3,1.84-1.42.71-1.77.85-1.91.69s.16-.74.85-2.3c.94-2.15.9-2.57,1.48-3a2,2,0,0,1,2.55,0A2.58,2.58,0,0,1,1259.4,15.16Z"/><path class="cls-1" d="M1180.68,5.7a7.61,7.61,0,0,0-1.47.15,10.41,10.41,0,0,0-18.72,0A7.61,7.61,0,0,0,1159,5.7c-4.52,0-8.19,4-8.19,8.87s3.67,8.87,8.19,8.87a7.76,7.76,0,0,0,5-1.85,10.09,10.09,0,0,0,11.66,0,7.76,7.76,0,0,0,5,1.85c4.52,0,8.19-4,8.19-8.87S1185.2,5.7,1180.68,5.7Zm-18,12c-.2.2-.68-.18-2.12-.92-2-1-2.37-1-2.76-1.61a2.51,2.51,0,0,1,0-2.76,2.09,2.09,0,0,1,2.55,0c.37.24.56.52,1.7,3.21C1162.64,17.17,1162.78,17.54,1162.63,17.69Zm8.55-2.82c-.81,2.35-1,2.89-1.33,2.88s-.54-1-1.33-3.36c-1.09-3.31-1.54-3.7-1.33-4.8.26-1.32,1.33-2.88,2.66-2.88s2.37,1.61,2.66,2.88C1172.66,10.26,1172.59,10.76,1171.18,14.87Zm11.19.29c-.22.4-.48.6-3,1.84-1.42.71-1.77.85-1.91.69s.16-.74.85-2.3c.94-2.15.9-2.57,1.48-3a2,2,0,0,1,2.55,0A2.58,2.58,0,0,1,1182.37,15.16Z"/><path class="cls-1" d="M1103.65,5.7a7.61,7.61,0,0,0-1.47.15,10.41,10.41,0,0,0-18.72,0A7.61,7.61,0,0,0,1082,5.7c-4.52,0-8.19,4-8.19,8.87s3.67,8.87,8.19,8.87a7.76,7.76,0,0,0,5-1.85,10.09,10.09,0,0,0,11.66,0,7.76,7.76,0,0,0,5,1.85c4.52,0,8.19-4,8.19-8.87S1108.17,5.7,1103.65,5.7Zm-18,12c-.2.2-.68-.18-2.12-.92-2-1-2.37-1-2.76-1.61a2.51,2.51,0,0,1,0-2.76,2.09,2.09,0,0,1,2.55,0c.37.24.56.52,1.7,3.21C1085.61,17.17,1085.75,17.54,1085.6,17.69Zm8.55-2.82c-.81,2.35-1,2.89-1.33,2.88s-.54-1-1.33-3.36c-1.09-3.31-1.54-3.7-1.33-4.8.26-1.32,1.33-2.88,2.66-2.88s2.37,1.61,2.66,2.88C1095.63,10.26,1095.56,10.76,1094.15,14.87Zm11.19.29c-.22.4-.48.6-3,1.84-1.42.71-1.77.85-1.91.69s.16-.74.85-2.3c.94-2.15.9-2.57,1.48-3a2,2,0,0,1,2.55,0A2.58,2.58,0,0,1,1105.34,15.16Z"/><path class="cls-1" d="M1026.62,5.7a7.61,7.61,0,0,0-1.47.15,10.41,10.41,0,0,0-18.72,0A7.61,7.61,0,0,0,1005,5.7c-4.52,0-8.19,4-8.19,8.87s3.67,8.87,8.19,8.87a7.76,7.76,0,0,0,5-1.85,10.09,10.09,0,0,0,11.66,0,7.76,7.76,0,0,0,5,1.85c4.52,0,8.19-4,8.19-8.87S1031.14,5.7,1026.62,5.7Zm-18,12c-.2.2-.68-.18-2.12-.92-2-1-2.37-1-2.76-1.61a2.51,2.51,0,0,1,0-2.76,2.09,2.09,0,0,1,2.55,0c.37.24.56.52,1.7,3.21C1008.59,17.17,1008.72,17.54,1008.57,17.69Zm8.55-2.82c-.81,2.35-1,2.89-1.33,2.88s-.54-1-1.33-3.36c-1.09-3.31-1.54-3.7-1.33-4.8.26-1.32,1.33-2.88,2.66-2.88s2.37,1.61,2.66,2.88C1018.6,10.26,1018.53,10.76,1017.12,14.87Zm11.19.29c-.22.4-.48.6-3,1.84-1.42.71-1.77.85-1.91.69s.16-.74.85-2.3c.94-2.15.9-2.57,1.48-3a2,2,0,0,1,2.55,0A2.58,2.58,0,0,1,1028.31,15.16Z"/><path class="cls-1" d="M949.59,5.7a7.61,7.61,0,0,0-1.47.15,10.41,10.41,0,0,0-18.72,0,7.61,7.61,0,0,0-1.47-.15c-4.52,0-8.19,4-8.19,8.87s3.67,8.87,8.19,8.87a7.76,7.76,0,0,0,5-1.85,10.09,10.09,0,0,0,11.66,0,7.76,7.76,0,0,0,5,1.85c4.52,0,8.19-4,8.19-8.87S954.11,5.7,949.59,5.7Zm-18,12c-.2.2-.68-.18-2.12-.92-2-1-2.37-1-2.76-1.61a2.51,2.51,0,0,1,0-2.76,2.09,2.09,0,0,1,2.55,0c.37.24.56.52,1.7,3.21C931.56,17.17,931.69,17.54,931.54,17.69Zm8.55-2.82c-.81,2.35-1,2.89-1.33,2.88s-.54-1-1.33-3.36c-1.09-3.31-1.54-3.7-1.33-4.8.26-1.32,1.33-2.88,2.66-2.88s2.37,1.61,2.66,2.88C941.57,10.26,941.5,10.76,940.09,14.87Zm11.19.29c-.22.4-.48.6-3,1.84-1.42.71-1.77.85-1.91.69s.16-.74.85-2.3c.94-2.15.9-2.57,1.48-3a2,2,0,0,1,2.55,0A2.58,2.58,0,0,1,951.28,15.16Z"/><rect class="cls-1" x="689" y="21.27" width="689.33" height="5.42"/><rect class="cls-1" x="689" y="32.51" width="689.33" height="3.58"/><path class="cls-2" d="M1781.82,6.72c-1.33,0-2.4,1.56-2.66,2.88-.21,1.1.24,1.48,1.33,4.8.79,2.4.93,3.35,1.33,3.36s.52-.53,1.33-2.88c1.41-4.11,1.48-4.61,1.33-5.28C1784.19,8.33,1783.17,6.72,1781.82,6.72Z"/><path class="cls-2" d="M1810.78,12.41a2.09,2.09,0,0,0-2.54,0,2.51,2.51,0,0,0,0,2.76c.38.64.77.59,2.76,1.61,1.44.74,1.92,1.12,2.12.92s0-.52-.64-2.07C1811.33,12.93,1811.15,12.65,1810.78,12.41Z"/><path class="cls-2" d="M1907.34,12.41c-.59.41-.54.84-1.48,3-.69,1.56-1,2.08-.85,2.3s.48,0,1.91-.69c2.49-1.24,2.75-1.44,3-1.84a2.58,2.58,0,0,0,0-2.75A2,2,0,0,0,1907.34,12.41Z"/><path class="cls-2" d="M1772.27,12.41a2.09,2.09,0,0,0-2.55,0,2.51,2.51,0,0,0,0,2.76c.38.64.77.59,2.76,1.61,1.44.74,1.92,1.12,2.12.92s0-.52-.64-2.07C1772.82,12.93,1772.63,12.65,1772.27,12.41Z"/><path class="cls-2" d="M1733.75,12.41a2.09,2.09,0,0,0-2.55,0,2.51,2.51,0,0,0,0,2.76c.38.64.77.59,2.76,1.61,1.44.74,1.92,1.12,2.12.92s0-.52-.64-2.07C1734.31,12.93,1734.12,12.65,1733.75,12.41Z"/><path class="cls-2" d="M1714.77,12.41c-.59.41-.54.84-1.48,3-.69,1.56-1,2.08-.85,2.3s.48,0,1.91-.69c2.49-1.24,2.75-1.44,3-1.84a2.58,2.58,0,0,0,0-2.75A2,2,0,0,0,1714.77,12.41Z"/><path class="cls-2" d="M1743.31,6.72c-1.33,0-2.4,1.56-2.66,2.88-.21,1.1.24,1.48,1.33,4.8.79,2.4.93,3.35,1.33,3.36s.52-.53,1.33-2.88c1.41-4.11,1.48-4.61,1.33-5.28C1745.68,8.33,1744.65,6.72,1743.31,6.72Z"/><path class="cls-2" d="M1753.28,12.41c-.59.41-.54.84-1.48,3-.69,1.56-1,2.08-.85,2.3s.48,0,1.91-.69c2.49-1.24,2.75-1.44,3-1.84a2.58,2.58,0,0,0,0-2.75A2,2,0,0,0,1753.28,12.41Z"/><path class="cls-2" d="M1887.81,12.41a2.09,2.09,0,0,0-2.55,0,2.51,2.51,0,0,0,0,2.76c.38.64.77.59,2.76,1.61,1.44.74,1.92,1.12,2.12.92s0-.52-.64-2.07C1888.36,12.93,1888.18,12.65,1887.81,12.41Z"/><path class="cls-2" d="M1868.82,12.41c-.59.41-.54.84-1.48,3-.69,1.56-1,2.08-.85,2.3s.48,0,1.91-.69c2.49-1.24,2.75-1.44,3-1.84a2.58,2.58,0,0,0,0-2.75A2,2,0,0,0,1868.82,12.41Z"/><path class="cls-2" d="M1897.36,6.72c-1.33,0-2.4,1.56-2.66,2.88-.21,1.1.24,1.48,1.33,4.8.79,2.4.93,3.35,1.33,3.36s.52-.53,1.33-2.88c1.41-4.11,1.48-4.61,1.33-5.28C1899.73,8.33,1898.71,6.72,1897.36,6.72Z"/><path class="cls-2" d="M1830.31,12.41c-.59.41-.54.84-1.48,3-.69,1.56-1,2.08-.85,2.3s.48,0,1.91-.69c2.49-1.24,2.75-1.44,3-1.84a2.58,2.58,0,0,0,0-2.75A2,2,0,0,0,1830.31,12.41Z"/><path class="cls-2" d="M1820.34,6.72c-1.33,0-2.4,1.56-2.66,2.88-.21,1.1.24,1.48,1.33,4.8.79,2.4.93,3.35,1.33,3.36s.52-.53,1.33-2.88c1.41-4.11,1.48-4.61,1.33-5.28C1822.71,8.33,1821.68,6.72,1820.34,6.72Z"/><path class="cls-2" d="M1483.68,12.41c-.59.41-.54.84-1.48,3-.69,1.56-1,2.08-.85,2.3s.48,0,1.91-.69c2.49-1.24,2.75-1.44,3-1.84a2.58,2.58,0,0,0,0-2.75A2,2,0,0,0,1483.68,12.41Z"/><path class="cls-2" d="M1849.29,12.41a2.09,2.09,0,0,0-2.55,0,2.51,2.51,0,0,0,0,2.76c.38.64.77.59,2.76,1.61,1.44.74,1.92,1.12,2.12.92s0-.52-.64-2.07C1849.85,12.93,1849.66,12.65,1849.29,12.41Z"/><path class="cls-2" d="M1791.8,12.41c-.59.41-.54.84-1.48,3-.69,1.56-1,2.08-.85,2.3s.48,0,1.91-.69c2.49-1.24,2.75-1.44,3-1.84a2.58,2.58,0,0,0,0-2.75A2,2,0,0,0,1791.8,12.41Z"/><path class="cls-2" d="M1550.73,6.72c-1.33,0-2.4,1.56-2.66,2.88-.21,1.1.24,1.48,1.33,4.8.79,2.4.93,3.35,1.33,3.36s.52-.53,1.33-2.88c1.41-4.11,1.48-4.61,1.33-5.28C1553.1,8.33,1552.08,6.72,1550.73,6.72Z"/><path class="cls-2" d="M1589.25,6.72c-1.33,0-2.4,1.56-2.66,2.88-.21,1.1.24,1.48,1.33,4.8.79,2.4.93,3.35,1.33,3.36s.52-.53,1.33-2.88c1.41-4.11,1.48-4.61,1.33-5.28C1591.62,8.33,1590.6,6.72,1589.25,6.72Z"/><path class="cls-2" d="M1541.18,12.41a2.09,2.09,0,0,0-2.55,0,2.51,2.51,0,0,0,0,2.76c.38.64.77.59,2.76,1.61,1.44.74,1.92,1.12,2.12.92s0-.52-.64-2.07C1541.73,12.93,1541.55,12.65,1541.18,12.41Z"/><path class="cls-2" d="M1704.79,6.72c-1.33,0-2.4,1.56-2.66,2.88-.21,1.1.24,1.48,1.33,4.8.79,2.4.93,3.35,1.33,3.36s.52-.53,1.33-2.88c1.41-4.11,1.48-4.61,1.33-5.28C1707.16,8.33,1706.14,6.72,1704.79,6.72Z"/><path class="cls-2" d="M1560.71,12.41c-.59.41-.54.84-1.48,3-.69,1.56-1,2.08-.85,2.3s.48,0,1.91-.69c2.49-1.24,2.75-1.44,3-1.84a2.58,2.58,0,0,0,0-2.75A2,2,0,0,0,1560.71,12.41Z"/><path class="cls-2" d="M1522.19,12.41c-.59.41-.54.84-1.48,3-.69,1.56-1,2.08-.85,2.3s.48,0,1.91-.69c2.49-1.24,2.75-1.44,3-1.84a2.58,2.58,0,0,0,0-2.75A2,2,0,0,0,1522.19,12.41Z"/><path class="cls-2" d="M1502.66,12.41a2.09,2.09,0,0,0-2.55,0,2.51,2.51,0,0,0,0,2.76c.38.64.77.59,2.76,1.61,1.44.74,1.92,1.12,2.12.92s0-.52-.64-2.07C1503.22,12.93,1503,12.65,1502.66,12.41Z"/><path class="cls-2" d="M1512.22,6.72c-1.33,0-2.4,1.56-2.66,2.88-.21,1.1.24,1.48,1.33,4.8.79,2.4.93,3.35,1.33,3.36s.52-.53,1.33-2.88c1.41-4.11,1.48-4.61,1.33-5.28C1514.59,8.33,1513.57,6.72,1512.22,6.72Z"/><path class="cls-2" d="M1579.69,12.41a2.09,2.09,0,0,0-2.54,0,2.51,2.51,0,0,0,0,2.76c.38.64.77.59,2.76,1.61,1.44.74,1.92,1.12,2.12.92s0-.52-.64-2.07C1580.25,12.93,1580.06,12.65,1579.69,12.41Z"/><path class="cls-2" d="M1656.72,12.41a2.09,2.09,0,0,0-2.55,0,2.51,2.51,0,0,0,0,2.76c.38.64.77.59,2.76,1.61,1.44.74,1.92,1.12,2.12.92s0-.52-.64-2.07C1657.28,12.93,1657.09,12.65,1656.72,12.41Z"/><path class="cls-2" d="M1666.28,6.72c-1.33,0-2.4,1.56-2.66,2.88-.21,1.1.24,1.48,1.33,4.8.79,2.4.93,3.35,1.33,3.36s.52-.53,1.33-2.88c1.41-4.11,1.48-4.61,1.33-5.28C1668.65,8.33,1667.62,6.72,1666.28,6.72Z"/><path class="cls-2" d="M1676.25,12.41c-.59.41-.54.84-1.48,3-.69,1.56-1,2.08-.85,2.3s.48,0,1.91-.69c2.49-1.24,2.75-1.44,3-1.84a2.58,2.58,0,0,0,0-2.75A2,2,0,0,0,1676.25,12.41Z"/><path class="cls-2" d="M1599.22,12.41c-.59.41-.54.84-1.48,3-.69,1.56-1,2.08-.85,2.3s.48,0,1.91-.69c2.49-1.24,2.75-1.44,3-1.84a2.58,2.58,0,0,0,0-2.75A2,2,0,0,0,1599.22,12.41Z"/><path class="cls-2" d="M1695.24,12.41a2.09,2.09,0,0,0-2.55,0,2.51,2.51,0,0,0,0,2.76c.38.64.77.59,2.76,1.61,1.44.74,1.92,1.12,2.12.92s0-.52-.64-2.07C1695.79,12.93,1695.6,12.65,1695.24,12.41Z"/><path class="cls-2" d="M1637.74,12.41c-.59.41-.54.84-1.48,3-.69,1.56-1,2.08-.85,2.3s.48,0,1.91-.69c2.49-1.24,2.75-1.44,3-1.84a2.58,2.58,0,0,0,0-2.75A2,2,0,0,0,1637.74,12.41Z"/><path class="cls-2" d="M1618.21,12.41a2.09,2.09,0,0,0-2.54,0,2.51,2.51,0,0,0,0,2.76c.38.64.77.59,2.76,1.61,1.44.74,1.92,1.12,2.12.92s0-.52-.64-2.07C1618.76,12.93,1618.58,12.65,1618.21,12.41Z"/><path class="cls-2" d="M1627.76,6.72c-1.33,0-2.4,1.56-2.66,2.88-.21,1.1.24,1.48,1.33,4.8.79,2.4.93,3.35,1.33,3.36s.52-.53,1.33-2.88c1.41-4.11,1.48-4.61,1.33-5.28C1630.13,8.33,1629.11,6.72,1627.76,6.72Z"/><path class="cls-2" d="M1858.85,6.72c-1.33,0-2.4,1.56-2.66,2.88-.21,1.1.24,1.48,1.33,4.8.79,2.4.93,3.35,1.33,3.36s.52-.53,1.33-2.88c1.41-4.11,1.48-4.61,1.33-5.28C1861.22,8.33,1860.2,6.72,1858.85,6.72Z"/><path class="cls-2" d="M1425.64,12.41a2.09,2.09,0,0,0-2.54,0,2.51,2.51,0,0,0,0,2.76c.38.64.77.59,2.76,1.61,1.44.74,1.92,1.12,2.12.92s0-.52-.64-2.07C1426.19,12.93,1426,12.65,1425.64,12.41Z"/><path class="cls-2" d="M1435.19,6.72c-1.33,0-2.4,1.56-2.66,2.88-.21,1.1.24,1.48,1.33,4.8.79,2.4.93,3.35,1.33,3.36s.52-.53,1.33-2.88c1.41-4.11,1.48-4.61,1.33-5.28C1437.56,8.33,1436.54,6.72,1435.19,6.72Z"/><path class="cls-2" d="M1473.71,6.72c-1.33,0-2.4,1.56-2.66,2.88-.21,1.1.24,1.48,1.33,4.8.79,2.4.93,3.35,1.33,3.36s.52-.53,1.33-2.88c1.41-4.11,1.48-4.61,1.33-5.28C1476.08,8.33,1475.05,6.72,1473.71,6.72Z"/><path class="cls-2" d="M1464.15,12.41a2.09,2.09,0,0,0-2.55,0,2.51,2.51,0,0,0,0,2.76c.38.64.77.59,2.76,1.61,1.44.74,1.92,1.12,2.12.92s0-.52-.64-2.07C1464.7,12.93,1464.52,12.65,1464.15,12.41Z"/><path class="cls-2" d="M1445.17,12.41c-.59.41-.54.84-1.48,3-.69,1.56-1,2.08-.85,2.3s.48,0,1.91-.69c2.49-1.24,2.75-1.44,3-1.84a2.58,2.58,0,0,0,0-2.75A2,2,0,0,0,1445.17,12.41Z"/><path class="cls-2" d="M1387.29,12.4a2.05,2.05,0,0,0-2.5,0,2.46,2.46,0,0,0,0,2.71c.38.62.76.57,2.71,1.58,1.41.73,1.89,1.1,2.08.9s0-.52-.62-2C1387.84,12.91,1387.66,12.64,1387.29,12.4Z"/><path class="cls-2" d="M1406.47,12.39c-.58.41-.53.82-1.46,2.93-.67,1.53-1,2-.83,2.25s.48,0,1.87-.68c2.45-1.21,2.7-1.41,2.92-1.8a2.53,2.53,0,0,0,0-2.71A2,2,0,0,0,1406.47,12.39Z"/><path class="cls-2" d="M1396.68,6.81c-1.3,0-2.36,1.53-2.61,2.83-.21,1.08.24,1.46,1.31,4.71.78,2.36.91,3.29,1.3,3.3s.51-.52,1.31-2.83c1.39-4,1.45-4.52,1.3-5.18C1399,8.39,1398,6.81,1396.68,6.81Z"/><path class="cls-1" d="M1415.35,14.52c0-4.81-3.6-8.71-8-8.71a7.45,7.45,0,0,0-1.44.15,10.23,10.23,0,0,0-18.38,0,7.45,7.45,0,0,0-1.44-.15c-4.44,0-8,3.9-8,8.71a9,9,0,0,0,3,6.75h31.43A9,9,0,0,0,1415.35,14.52Zm-25.77,3.07c-.19.2-.67-.17-2.08-.9-1.95-1-2.33-1-2.71-1.58a2.46,2.46,0,0,1,0-2.71,2.05,2.05,0,0,1,2.5,0c.36.24.55.51,1.67,3.16C1389.6,17.07,1389.73,17.43,1389.58,17.59Zm8.4-2.77c-.79,2.31-1,2.83-1.31,2.83s-.53-.94-1.3-3.3c-1.07-3.25-1.51-3.63-1.31-4.71.25-1.3,1.31-2.83,2.61-2.83s2.33,1.59,2.61,2.83C1399.44,10.29,1399.37,10.78,1398,14.81Zm11,.29c-.22.39-.47.59-2.92,1.8-1.4.69-1.73.83-1.87.68s.16-.72.83-2.25c.93-2.11.88-2.52,1.46-2.93a2,2,0,0,1,2.5,0A2.53,2.53,0,0,1,1409,15.1Z"/><path class="cls-1" d="M1685.3,14.57c0-4.9-3.67-8.87-8.19-8.87a7.61,7.61,0,0,0-1.47.15,10.41,10.41,0,0,0-18.72,0,7.61,7.61,0,0,0-1.47-.15c-4.52,0-8.19,4-8.19,8.87a9.16,9.16,0,0,0,2.83,6.69h32.38A9.16,9.16,0,0,0,1685.3,14.57Zm-26.24,3.12c-.2.2-.68-.18-2.12-.92-2-1-2.37-1-2.76-1.61a2.51,2.51,0,0,1,0-2.76,2.09,2.09,0,0,1,2.55,0c.37.24.56.52,1.7,3.21C1659.07,17.17,1659.2,17.54,1659.05,17.69Zm8.55-2.82c-.81,2.35-1,2.89-1.33,2.88s-.54-1-1.33-3.36c-1.09-3.31-1.54-3.7-1.33-4.8.26-1.32,1.33-2.88,2.66-2.88s2.37,1.61,2.66,2.88C1669.09,10.26,1669,10.76,1667.61,14.87Zm11.19.29c-.22.4-.48.6-3,1.84-1.42.71-1.77.85-1.91.69s.16-.74.85-2.3c.94-2.15.9-2.57,1.48-3a2,2,0,0,1,2.55,0A2.58,2.58,0,0,1,1678.8,15.16Z"/><path class="cls-1" d="M1608.27,14.57c0-4.9-3.67-8.87-8.19-8.87a7.6,7.6,0,0,0-1.47.15,10.41,10.41,0,0,0-18.72,0,7.6,7.6,0,0,0-1.47-.15c-4.52,0-8.19,4-8.19,8.87a9.16,9.16,0,0,0,2.83,6.69h32.38A9.16,9.16,0,0,0,1608.27,14.57ZM1582,17.69c-.2.2-.68-.18-2.12-.92-2-1-2.37-1-2.76-1.61a2.51,2.51,0,0,1,0-2.76,2.09,2.09,0,0,1,2.54,0c.37.24.56.52,1.7,3.21C1582,17.17,1582.18,17.54,1582,17.69Zm8.55-2.82c-.81,2.35-1,2.89-1.33,2.88s-.54-1-1.33-3.36c-1.09-3.31-1.54-3.7-1.33-4.8.26-1.32,1.33-2.88,2.66-2.88s2.37,1.61,2.66,2.88C1592.06,10.26,1592,10.76,1590.58,14.87Zm11.19.29c-.22.4-.48.6-3,1.84-1.42.71-1.77.85-1.91.69s.16-.74.85-2.3c.94-2.15.9-2.57,1.48-3a2,2,0,0,1,2.55,0A2.58,2.58,0,0,1,1601.77,15.16Z"/><path class="cls-1" d="M1569.75,14.57c0-4.9-3.67-8.87-8.19-8.87a7.6,7.6,0,0,0-1.47.15,10.41,10.41,0,0,0-18.72,0,7.6,7.6,0,0,0-1.47-.15c-4.52,0-8.19,4-8.19,8.87a9.16,9.16,0,0,0,2.83,6.69h32.38A9.16,9.16,0,0,0,1569.75,14.57Zm-26.24,3.12c-.2.2-.68-.18-2.12-.92-2-1-2.37-1-2.76-1.61a2.51,2.51,0,0,1,0-2.76,2.09,2.09,0,0,1,2.55,0c.37.24.56.52,1.7,3.21C1543.53,17.17,1543.66,17.54,1543.51,17.69Zm8.55-2.82c-.81,2.35-1,2.89-1.33,2.88s-.54-1-1.33-3.36c-1.09-3.31-1.54-3.7-1.33-4.8.26-1.32,1.33-2.88,2.66-2.88s2.37,1.61,2.66,2.88C1553.54,10.26,1553.47,10.76,1552.06,14.87Zm11.19.29c-.22.4-.48.6-3,1.84-1.42.71-1.77.85-1.91.69s.16-.74.85-2.3c.94-2.15.9-2.57,1.48-3a2,2,0,0,1,2.55,0A2.58,2.58,0,0,1,1563.25,15.16Z"/><path class="cls-1" d="M1916.38,14.57c0-4.9-3.67-8.87-8.19-8.87a7.61,7.61,0,0,0-1.47.15,10.41,10.41,0,0,0-18.72,0,7.61,7.61,0,0,0-1.47-.15c-4.52,0-8.19,4-8.19,8.87a9.16,9.16,0,0,0,2.83,6.69h32.38A9.16,9.16,0,0,0,1916.38,14.57Zm-26.24,3.12c-.2.2-.68-.18-2.12-.92-2-1-2.37-1-2.76-1.61a2.51,2.51,0,0,1,0-2.76,2.09,2.09,0,0,1,2.55,0c.37.24.56.52,1.7,3.21C1890.16,17.17,1890.29,17.54,1890.14,17.69Zm8.55-2.82c-.81,2.35-1,2.89-1.33,2.88s-.54-1-1.33-3.36c-1.09-3.31-1.54-3.7-1.33-4.8.26-1.32,1.33-2.88,2.66-2.88s2.37,1.61,2.66,2.88C1900.17,10.26,1900.1,10.76,1898.69,14.87Zm11.19.29c-.22.4-.48.6-3,1.84-1.42.71-1.77.85-1.91.69s.16-.74.85-2.3c.94-2.15.9-2.57,1.48-3a2,2,0,0,1,2.54,0A2.58,2.58,0,0,1,1909.88,15.16Z"/><path class="cls-1" d="M1531.24,14.57c0-4.9-3.67-8.87-8.19-8.87a7.61,7.61,0,0,0-1.47.15,10.41,10.41,0,0,0-18.72,0,7.6,7.6,0,0,0-1.47-.15c-4.52,0-8.19,4-8.19,8.87a9.16,9.16,0,0,0,2.83,6.69h32.38A9.16,9.16,0,0,0,1531.24,14.57ZM1505,17.69c-.2.2-.68-.18-2.12-.92-2-1-2.37-1-2.76-1.61a2.51,2.51,0,0,1,0-2.76,2.09,2.09,0,0,1,2.55,0c.37.24.56.52,1.7,3.21C1505,17.17,1505.15,17.54,1505,17.69Zm8.55-2.82c-.81,2.35-1,2.89-1.33,2.88s-.54-1-1.33-3.36c-1.09-3.31-1.54-3.7-1.33-4.8.26-1.32,1.33-2.88,2.66-2.88s2.37,1.61,2.66,2.88C1515,10.26,1515,10.76,1513.55,14.87Zm11.19.29c-.22.4-.48.6-3,1.84-1.42.71-1.77.85-1.91.69s.16-.74.85-2.3c.94-2.15.9-2.57,1.48-3a2,2,0,0,1,2.54,0A2.58,2.58,0,0,1,1524.74,15.16Z"/><path class="cls-1" d="M1839.35,14.57c0-4.9-3.67-8.87-8.19-8.87a7.6,7.6,0,0,0-1.47.15,10.41,10.41,0,0,0-18.72,0,7.61,7.61,0,0,0-1.47-.15c-4.52,0-8.19,4-8.19,8.87a9.16,9.16,0,0,0,2.83,6.69h32.38A9.16,9.16,0,0,0,1839.35,14.57Zm-26.24,3.12c-.2.2-.68-.18-2.12-.92-2-1-2.37-1-2.76-1.61a2.51,2.51,0,0,1,0-2.76,2.09,2.09,0,0,1,2.54,0c.37.24.56.52,1.7,3.21C1813.13,17.17,1813.26,17.54,1813.11,17.69Zm8.55-2.82c-.81,2.35-1,2.89-1.33,2.88s-.54-1-1.33-3.36c-1.09-3.31-1.54-3.7-1.33-4.8.26-1.32,1.33-2.88,2.66-2.88s2.37,1.61,2.66,2.88C1823.15,10.26,1823.08,10.76,1821.66,14.87Zm11.19.29c-.22.4-.48.6-3,1.84-1.42.71-1.77.85-1.91.69s.16-.74.85-2.3c.94-2.15.9-2.57,1.48-3a2,2,0,0,1,2.55,0A2.58,2.58,0,0,1,1832.86,15.16Z"/><path class="cls-1" d="M1492.72,14.57c0-4.9-3.67-8.87-8.19-8.87a7.61,7.61,0,0,0-1.47.15,10.41,10.41,0,0,0-18.72,0,7.6,7.6,0,0,0-1.47-.15c-4.52,0-8.19,4-8.19,8.87a9.16,9.16,0,0,0,2.83,6.69h32.38A9.16,9.16,0,0,0,1492.72,14.57Zm-26.24,3.12c-.2.2-.68-.18-2.12-.92-2-1-2.37-1-2.76-1.61a2.51,2.51,0,0,1,0-2.76,2.09,2.09,0,0,1,2.55,0c.37.24.56.52,1.7,3.21C1466.5,17.17,1466.63,17.54,1466.48,17.69Zm8.55-2.82c-.81,2.35-1,2.89-1.33,2.88s-.54-1-1.33-3.36c-1.09-3.31-1.54-3.7-1.33-4.8.26-1.32,1.33-2.88,2.66-2.88s2.37,1.61,2.66,2.88C1476.52,10.26,1476.45,10.76,1475,14.87Zm11.19.29c-.22.4-.48.6-3,1.84-1.42.71-1.77.85-1.91.69s.16-.74.85-2.3c.94-2.15.9-2.57,1.48-3a2,2,0,0,1,2.54,0A2.58,2.58,0,0,1,1486.23,15.16Z"/><path class="cls-1" d="M1762.32,14.57c0-4.9-3.67-8.87-8.19-8.87a7.6,7.6,0,0,0-1.47.15,10.41,10.41,0,0,0-18.72,0,7.6,7.6,0,0,0-1.47-.15c-4.52,0-8.19,4-8.19,8.87a9.16,9.16,0,0,0,2.83,6.69h32.38A9.16,9.16,0,0,0,1762.32,14.57Zm-26.24,3.12c-.2.2-.68-.18-2.12-.92-2-1-2.37-1-2.76-1.61a2.51,2.51,0,0,1,0-2.76,2.09,2.09,0,0,1,2.55,0c.37.24.56.52,1.7,3.21C1736.1,17.17,1736.23,17.54,1736.08,17.69Zm8.55-2.82c-.81,2.35-1,2.89-1.33,2.88s-.54-1-1.33-3.36c-1.09-3.31-1.54-3.7-1.33-4.8.26-1.32,1.33-2.88,2.66-2.88s2.37,1.61,2.66,2.88C1746.12,10.26,1746,10.76,1744.64,14.87Zm11.19.29c-.22.4-.48.6-3,1.84-1.42.71-1.77.85-1.91.69s.16-.74.85-2.3c.94-2.15.9-2.57,1.48-3a2,2,0,0,1,2.55,0A2.58,2.58,0,0,1,1755.83,15.16Z"/><path class="cls-1" d="M1454.21,14.57c0-4.9-3.67-8.87-8.19-8.87a7.61,7.61,0,0,0-1.47.15,10.41,10.41,0,0,0-18.72,0,7.61,7.61,0,0,0-1.47-.15c-4.52,0-8.19,4-8.19,8.87a9.16,9.16,0,0,0,2.83,6.69h32.38A9.16,9.16,0,0,0,1454.21,14.57ZM1428,17.69c-.2.2-.68-.18-2.12-.92-2-1-2.37-1-2.76-1.61a2.51,2.51,0,0,1,0-2.76,2.09,2.09,0,0,1,2.54,0c.37.24.56.52,1.7,3.21C1428,17.17,1428.12,17.54,1428,17.69Zm8.55-2.82c-.81,2.35-1,2.89-1.33,2.88s-.54-1-1.33-3.36c-1.09-3.31-1.54-3.7-1.33-4.8.26-1.32,1.33-2.88,2.66-2.88s2.37,1.61,2.66,2.88C1438,10.26,1437.93,10.76,1436.52,14.87Zm11.19.29c-.22.4-.48.6-3,1.84-1.42.71-1.77.85-1.91.69s.16-.74.85-2.3c.94-2.15.9-2.57,1.48-3a2,2,0,0,1,2.55,0A2.58,2.58,0,0,1,1447.71,15.16Z"/><path class="cls-1" d="M1877.87,14.57c0-4.9-3.67-8.87-8.19-8.87a7.6,7.6,0,0,0-1.47.15,10.41,10.41,0,0,0-18.72,0A7.61,7.61,0,0,0,1848,5.7c-4.52,0-8.19,4-8.19,8.87a9.16,9.16,0,0,0,2.83,6.69H1875A9.16,9.16,0,0,0,1877.87,14.57Zm-26.24,3.12c-.2.2-.68-.18-2.12-.92-2-1-2.37-1-2.76-1.61a2.51,2.51,0,0,1,0-2.76,2.09,2.09,0,0,1,2.55,0c.37.24.56.52,1.7,3.21C1851.64,17.17,1851.78,17.54,1851.63,17.69Zm8.55-2.82c-.81,2.35-1,2.89-1.33,2.88s-.54-1-1.33-3.36c-1.09-3.31-1.54-3.7-1.33-4.8.26-1.32,1.33-2.88,2.66-2.88s2.37,1.61,2.66,2.88C1861.66,10.26,1861.59,10.76,1860.18,14.87Zm11.19.29c-.22.4-.48.6-3,1.84-1.42.71-1.77.85-1.91.69s.16-.74.85-2.3c.94-2.15.9-2.57,1.48-3a2,2,0,0,1,2.55,0A2.58,2.58,0,0,1,1871.37,15.16Z"/><path class="cls-1" d="M1800.84,14.57c0-4.9-3.67-8.87-8.19-8.87a7.6,7.6,0,0,0-1.47.15,10.41,10.41,0,0,0-18.72,0A7.6,7.6,0,0,0,1771,5.7c-4.52,0-8.19,4-8.19,8.87a9.16,9.16,0,0,0,2.83,6.69H1798A9.16,9.16,0,0,0,1800.84,14.57Zm-26.24,3.12c-.2.2-.68-.18-2.12-.92-2-1-2.37-1-2.76-1.61a2.51,2.51,0,0,1,0-2.76,2.09,2.09,0,0,1,2.55,0c.37.24.56.52,1.7,3.21C1774.61,17.17,1774.75,17.54,1774.6,17.69Zm8.55-2.82c-.81,2.35-1,2.89-1.33,2.88s-.54-1-1.33-3.36c-1.09-3.31-1.54-3.7-1.33-4.8.26-1.32,1.33-2.88,2.66-2.88s2.37,1.61,2.66,2.88C1784.63,10.26,1784.56,10.76,1783.15,14.87Zm11.19.29c-.22.4-.48.6-3,1.84-1.42.71-1.77.85-1.91.69s.16-.74.85-2.3c.94-2.15.9-2.57,1.48-3a2,2,0,0,1,2.55,0A2.58,2.58,0,0,1,1794.34,15.16Z"/><path class="cls-1" d="M1723.81,14.57c0-4.9-3.67-8.87-8.19-8.87a7.61,7.61,0,0,0-1.47.15,10.41,10.41,0,0,0-18.72,0A7.6,7.6,0,0,0,1694,5.7c-4.52,0-8.19,4-8.19,8.87a9.16,9.16,0,0,0,2.83,6.69H1721A9.16,9.16,0,0,0,1723.81,14.57Zm-26.24,3.12c-.2.2-.68-.18-2.12-.92-2-1-2.37-1-2.76-1.61a2.51,2.51,0,0,1,0-2.76,2.09,2.09,0,0,1,2.55,0c.37.24.56.52,1.7,3.21C1697.59,17.17,1697.72,17.54,1697.57,17.69Zm8.55-2.82c-.81,2.35-1,2.89-1.33,2.88s-.54-1-1.33-3.36c-1.09-3.31-1.54-3.7-1.33-4.8.26-1.32,1.33-2.88,2.66-2.88s2.37,1.61,2.66,2.88C1707.6,10.26,1707.53,10.76,1706.12,14.87Zm11.19.29c-.22.4-.48.6-3,1.84-1.42.71-1.77.85-1.91.69s.16-.74.85-2.3c.94-2.15.9-2.57,1.48-3a2,2,0,0,1,2.54,0A2.58,2.58,0,0,1,1717.31,15.16Z"/><path class="cls-1" d="M1646.78,14.57c0-4.9-3.67-8.87-8.19-8.87a7.6,7.6,0,0,0-1.47.15,10.41,10.41,0,0,0-18.72,0,7.61,7.61,0,0,0-1.47-.15c-4.52,0-8.19,4-8.19,8.87a9.16,9.16,0,0,0,2.83,6.69H1644A9.16,9.16,0,0,0,1646.78,14.57Zm-26.24,3.12c-.2.2-.68-.18-2.12-.92-2-1-2.37-1-2.76-1.61a2.51,2.51,0,0,1,0-2.76,2.09,2.09,0,0,1,2.54,0c.37.24.56.52,1.7,3.21C1620.56,17.17,1620.69,17.54,1620.54,17.69Zm8.55-2.82c-.81,2.35-1,2.89-1.33,2.88s-.54-1-1.33-3.36c-1.09-3.31-1.54-3.7-1.33-4.8.26-1.32,1.33-2.88,2.66-2.88s2.37,1.61,2.66,2.88C1630.57,10.26,1630.5,10.76,1629.09,14.87Zm11.19.29c-.22.4-.48.6-3,1.84-1.42.71-1.77.85-1.91.69s.16-.74.85-2.3c.94-2.15.9-2.57,1.48-3a2,2,0,0,1,2.55,0A2.58,2.58,0,0,1,1640.28,15.16Z"/><path class="cls-1" d="M1913.55,21.27a7.69,7.69,0,0,1-10.36.32,10.09,10.09,0,0,1-11.66,0,7.69,7.69,0,0,1-10.36-.32H1875a7.69,7.69,0,0,1-10.36.32,10.09,10.09,0,0,1-11.66,0,7.69,7.69,0,0,1-10.36-.32h-6.13a7.69,7.69,0,0,1-10.36.32,10.09,10.09,0,0,1-11.66,0,7.69,7.69,0,0,1-10.36-.32H1798a7.69,7.69,0,0,1-10.36.32,10.09,10.09,0,0,1-11.66,0,7.69,7.69,0,0,1-10.36-.32h-6.13a7.69,7.69,0,0,1-10.36.32,10.09,10.09,0,0,1-11.66,0,7.69,7.69,0,0,1-10.36-.32H1721a7.69,7.69,0,0,1-10.36.32,10.09,10.09,0,0,1-11.66,0,7.69,7.69,0,0,1-10.36-.32h-6.13a7.69,7.69,0,0,1-10.36.32,10.09,10.09,0,0,1-11.66,0,7.69,7.69,0,0,1-10.36-.32H1644a7.69,7.69,0,0,1-10.36.32,10.09,10.09,0,0,1-11.66,0,7.69,7.69,0,0,1-10.36-.32h-6.13a7.69,7.69,0,0,1-10.36.32,10.09,10.09,0,0,1-11.66,0,7.69,7.69,0,0,1-10.36-.32h-6.13a7.69,7.69,0,0,1-10.36.32,10.09,10.09,0,0,1-11.66,0,7.69,7.69,0,0,1-10.36-.32h-6.13a7.69,7.69,0,0,1-10.36.32,10.09,10.09,0,0,1-11.66,0,7.69,7.69,0,0,1-10.36-.32h-6.13a7.69,7.69,0,0,1-10.36.32,10.09,10.09,0,0,1-11.66,0,7.69,7.69,0,0,1-10.36-.32h-6.13a7.69,7.69,0,0,1-10.36.32,10.09,10.09,0,0,1-11.66,0,7.69,7.69,0,0,1-10.36-.32h-6.61a7.55,7.55,0,0,1-10,.14,9.91,9.91,0,0,1-11.44,0,7.55,7.55,0,0,1-10-.14h-3v5.42h539.7V21.27Z"/><path class="cls-1" d="M1391,21.41a9.91,9.91,0,0,0,11.44,0,7.55,7.55,0,0,0,10-.14H1381a7.55,7.55,0,0,0,10,.14Z"/><path class="cls-1" d="M1660.45,21.59a10.09,10.09,0,0,0,11.66,0,7.69,7.69,0,0,0,10.36-.32h-32.38a7.69,7.69,0,0,0,10.36.32Z"/><path class="cls-1" d="M1583.42,21.59a10.09,10.09,0,0,0,11.66,0,7.69,7.69,0,0,0,10.36-.32h-32.38a7.69,7.69,0,0,0,10.36.32Z"/><path class="cls-1" d="M1544.91,21.59a10.09,10.09,0,0,0,11.66,0,7.69,7.69,0,0,0,10.36-.32h-32.38a7.69,7.69,0,0,0,10.36.32Z"/><path class="cls-1" d="M1891.54,21.59a10.09,10.09,0,0,0,11.66,0,7.69,7.69,0,0,0,10.36-.32h-32.38a7.69,7.69,0,0,0,10.36.32Z"/><path class="cls-1" d="M1506.39,21.59a10.09,10.09,0,0,0,11.66,0,7.69,7.69,0,0,0,10.36-.32H1496a7.69,7.69,0,0,0,10.36.32Z"/><path class="cls-1" d="M1814.51,21.59a10.09,10.09,0,0,0,11.66,0,7.69,7.69,0,0,0,10.36-.32h-32.38a7.69,7.69,0,0,0,10.36.32Z"/><path class="cls-1" d="M1467.88,21.59a10.09,10.09,0,0,0,11.66,0,7.69,7.69,0,0,0,10.36-.32h-32.38a7.69,7.69,0,0,0,10.36.32Z"/><path class="cls-1" d="M1737.48,21.59a10.09,10.09,0,0,0,11.66,0,7.69,7.69,0,0,0,10.36-.32h-32.38a7.69,7.69,0,0,0,10.36.32Z"/><path class="cls-1" d="M1429.36,21.59a10.09,10.09,0,0,0,11.66,0,7.69,7.69,0,0,0,10.36-.32H1419a7.69,7.69,0,0,0,10.36.32Z"/><path class="cls-1" d="M1853,21.59a10.09,10.09,0,0,0,11.66,0,7.69,7.69,0,0,0,10.36-.32h-32.38a7.69,7.69,0,0,0,10.36.32Z"/><path class="cls-1" d="M1776,21.59a10.09,10.09,0,0,0,11.66,0,7.69,7.69,0,0,0,10.36-.32h-32.38a7.69,7.69,0,0,0,10.36.32Z"/><path class="cls-1" d="M1699,21.59a10.09,10.09,0,0,0,11.66,0,7.69,7.69,0,0,0,10.36-.32H1688.6a7.69,7.69,0,0,0,10.36.32Z"/><path class="cls-1" d="M1621.93,21.59a10.09,10.09,0,0,0,11.66,0,7.69,7.69,0,0,0,10.36-.32h-32.38a7.69,7.69,0,0,0,10.36.32Z"/><rect class="cls-1" x="1378" y="32.51" width="539.7" height="3.58"/></g></g></svg>