<svg xmlns="http://www.w3.org/2000/svg" viewBox="0 0 99.55 129.15"><defs><style>.cls-1{fill:#f5ab00;}.cls-2{fill:#f4f0e3;stroke:#f5ab00;stroke-miterlimit:10;stroke-width:2px;}</style></defs><title>資產 51</title><g id="圖層_2" data-name="圖層 2"><g id="圖層_1-2" data-name="圖層 1"><path class="cls-1" d="M25.72,113.84h3.74v2.06H25.72v3.58h3.22v8.81H26.85v-.84H22.51v1.39h-2v-9.36h3.1V115.9h-4v-2.06h4v-3.62c-1.13.19-2.28.36-3.36.5a5.8,5.8,0,0,0-.65-1.73,40.42,40.42,0,0,0,8-1.85l1.78,1.63a25.82,25.82,0,0,1-3.6,1Zm1.13,7.66H22.51v4h4.34Zm14.83-7.85H40V129H37.77v-1.22H33.21v1.32H31V113.65H29v-2.16h2v-4.3h2.23v4.3h4.56v-4.3H40v4.3h1.66Zm-3.91,0H33.21v4.85h4.56Zm0,12v-5.09H33.21v5.09Z"/><path class="cls-1" d="M51.4,121.16a22.22,22.22,0,0,1-1.61,6.12,9.39,9.39,0,0,0-1.7-.84,18.13,18.13,0,0,0,1.42-5.62Zm4.44-6.41a20.29,20.29,0,0,1,2.3,4.92l-1.7.82a12.11,12.11,0,0,0-.43-1.34l-1.78.12v9.89h-2v-9.77l-3.74.22-.19-2,1.68,0c.46-.58.91-1.2,1.39-1.87a25.78,25.78,0,0,0-3-3.36l1.08-1.49.65.58a27.7,27.7,0,0,0,2-4.34l2,.72c-.86,1.63-1.87,3.53-2.74,4.83A14,14,0,0,1,52.51,114a44.79,44.79,0,0,0,2.42-4.18l1.9.82A75.34,75.34,0,0,1,52,117.49l3.19-.12a20.65,20.65,0,0,0-1-1.92Zm.6,6A26.19,26.19,0,0,1,58,125.24l-1.78.62a25.89,25.89,0,0,0-1.46-4.61ZM70,112.35c-.41,10.58-.72,14.33-1.73,15.55a2.56,2.56,0,0,1-2.11,1.1,22.91,22.91,0,0,1-3.7,0,5,5,0,0,0-.74-2.23c1.56.12,3,.14,3.58.14a1.15,1.15,0,0,0,1-.41c.77-.77,1.15-4.32,1.46-13.13H60.45a18.67,18.67,0,0,1-2.11,3.22,16.76,16.76,0,0,0-2-1.34,20.08,20.08,0,0,0,4.15-8.21l2.28.53a31.74,31.74,0,0,1-1.32,3.67H70ZM62.61,123a23.58,23.58,0,0,0-3.07-5.52l1.8-.89a22.66,22.66,0,0,1,3.24,5.4Z"/><path class="cls-1" d="M94.05,107.12a18.93,18.93,0,0,0,5.5,5.47,16.41,16.41,0,0,0-1.22,2h0V127c0,.91-.14,1.49-.74,1.8a6.61,6.61,0,0,1-2.78.34,6.54,6.54,0,0,0-.55-1.85c.79,0,1.58,0,1.8,0s.34-.1.34-.34v-4.25a15,15,0,0,1-3.29,4.34,6.11,6.11,0,0,0-.55-.5V127c0,.91-.17,1.44-.74,1.75a6.24,6.24,0,0,1-2.71.34,7.24,7.24,0,0,0-.5-1.8c.77,0,1.51,0,1.75,0s.34-.07.34-.34v-4.54a15.52,15.52,0,0,1-3.86,4.58,9.37,9.37,0,0,0-1.37-1.15,9.35,9.35,0,0,0,1.08-.86H83.35v4.06H81.16V125H77.23v-2h3.94V121.3H78.09v-8.11h3.07v-1.75h-3.7v-2h3.7V107.1h2.18v2.38H87v2H83.35v1.75h3.19v6.89a9,9,0,0,0,2.62-3l1.54.41v-1H87.5v-1.85h.24a6.75,6.75,0,0,0-1-1.61A17.16,17.16,0,0,0,92,107.12Zm-14,9.29h4.51V114.9H80Zm0,3.14h4.51v-1.49H80Zm10.68,2.35v-4.13a13.7,13.7,0,0,1-3,3.5,10.6,10.6,0,0,0-1.2-1v1H83.35V123h3.84v1.39a11.45,11.45,0,0,0,2.06-2.9Zm7.58-7.32a22.88,22.88,0,0,1-5.16-5.4,19.68,19.68,0,0,1-4.9,5.4h4.34V120a9.37,9.37,0,0,0,2.3-2.93l1.54.41v-1H93.21v-1.85Zm-1.87,7.27V117.8a13,13,0,0,1-2.76,3.48,9.23,9.23,0,0,0-1.08-.86v4.75a12.19,12.19,0,0,0,2.5-3.65Z"/><line class="cls-2" x1="1" x2="1" y2="128.32"/></g></g></svg>