<svg xmlns="http://www.w3.org/2000/svg" viewBox="0 0 104.55 252.7"><defs><style>.cls-1,.cls-2{fill:none;}.cls-2,.cls-3{stroke:#f5ab00;stroke-miterlimit:10;}.cls-3,.cls-4{fill:#f4f0e3;}.cls-5{fill:#f5ab00;}</style></defs><title>資產 64</title><g id="圖層_2" data-name="圖層 2"><g id="圖層_1-2" data-name="圖層 1"><path class="cls-1" d="M73.22,235a3.09,3.09,0,0,0,1-2.23q0-2.33-3.2-6.56l-.92-1.2v10.78a3.49,3.49,0,0,0,.9.14A3,3,0,0,0,73.22,235Z"/><path class="cls-1" d="M72.42,26.49q3.23-4.23,3.2-6.56a3.11,3.11,0,0,0-1-2.23,3,3,0,0,0-2.25-.93,3.4,3.4,0,0,0-2.32,1V24.2a9.15,9.15,0,0,0,.76.78l-.76.92v3.77q.59-.87,1.26-1.75Z"/><path class="cls-1" d="M87.36,14.63a6,6,0,0,1-2.79,3l-.66.4q-5,2.88-5.55,6.28Q87.48,23.43,87.36,14.63Z"/><path class="cls-1" d="M82.48,234.68l.66.4a6,6,0,0,1,2.79,3q.13-8.8-9-9.66Q77.53,231.81,82.48,234.68Z"/><path class="cls-1" d="M71.08,125.27a7.28,7.28,0,0,0-.65,2.73,4,4,0,0,0,.87,2.83,3.4,3.4,0,0,0,2.6.94,3.82,3.82,0,0,0,2.89-1.25A4.29,4.29,0,0,0,78,127.46q0-3.8-3.8-6.77a13.87,13.87,0,0,0-4.09-2.23v6.35Z"/><path class="cls-1" d="M70.08,156v5a13.42,13.42,0,0,0,5.91,1.7C75.52,160.21,73.54,158,70.08,156Z"/><path class="cls-1" d="M75.43,76.17a16.4,16.4,0,0,1,6.11,1.54L80.49,80a6.32,6.32,0,0,0-2.36-.57,3.49,3.49,0,0,0-2.45.76,2.94,2.94,0,0,0-.81,2.25A3.32,3.32,0,0,0,75.94,85a3.72,3.72,0,0,0,2.65,1q3.29,0,5.86-3.29A11.84,11.84,0,0,0,87,75.19a10.45,10.45,0,0,0-2.91-7.45,9.33,9.33,0,0,0-7-3.08A9.5,9.5,0,0,0,70.3,67.1l-.23.24V78.28l.15-.15A7.48,7.48,0,0,1,75.43,76.17Z"/><path class="cls-1" d="M70.37,97.41l.74-.43q5.57-3.14,6.29-6.92a11.78,11.78,0,0,0-7.33,2.78V97.6Z"/><path class="cls-1" d="M70.08,87.54v1.92a11.7,11.7,0,0,1,1.5-.73A10,10,0,0,1,70.08,87.54Z"/><path class="cls-1" d="M70.08,163.94V164l.07-.05Z"/><path class="cls-1" d="M91.16,137l-.5-.86q-3.62-6.44-8-7.27.95,11.78,12.29,11.78A7.72,7.72,0,0,1,91.16,137Z"/><path class="cls-1" d="M82.67,185a10.46,10.46,0,0,0,2.91-7.45A11.85,11.85,0,0,0,83,170q-2.57-3.29-5.86-3.29a3.72,3.72,0,0,0-2.65,1,3.31,3.31,0,0,0-1.08,2.51,2.94,2.94,0,0,0,.81,2.25,3.49,3.49,0,0,0,2.45.76,6.28,6.28,0,0,0,2.36-.56L80.12,175A16.4,16.4,0,0,1,74,176.54a7.59,7.59,0,0,1-3.93-1v11A10,10,0,0,0,75.65,188,9.33,9.33,0,0,0,82.67,185Z"/><circle class="cls-2" cx="78.63" cy="248.81" r="3.4"/><path class="cls-2" d="M76,162.64a13.42,13.42,0,0,1-5.91-1.7v3l.07,0-.07.05v11.48a7.59,7.59,0,0,0,3.93,1A16.4,16.4,0,0,0,80.12,175l-1.05-2.31a6.28,6.28,0,0,1-2.36.56,3.49,3.49,0,0,1-2.45-.76,2.94,2.94,0,0,1-.81-2.25,3.31,3.31,0,0,1,1.08-2.51,3.72,3.72,0,0,1,2.65-1q3.29,0,5.86,3.29a11.85,11.85,0,0,1,2.57,7.5A10.46,10.46,0,0,1,82.67,185a9.33,9.33,0,0,1-7,3.08,10,10,0,0,1-5.57-1.51v7.34a11.84,11.84,0,0,0,6.21,1.62,12.77,12.77,0,0,0,9.63-4.17,14.25,14.25,0,0,0,4-10.19q0-6.93-6-14.56L82.64,165Q79,160.32,79,157.73A3.45,3.45,0,0,1,80,155.23a3.39,3.39,0,0,1,2.49-1.07,3.88,3.88,0,0,1,3,1.36,4.66,4.66,0,0,1,1.25,3.26,6.25,6.25,0,0,1-2.34,4.5l1.67,2a10.68,10.68,0,0,0,5.29-9.53A9.87,9.87,0,0,0,89,149a7.38,7.38,0,0,0-5.82-2.64,6.14,6.14,0,0,0-4.36,1.73,8.4,8.4,0,0,0-2.4,4.67q-1.34-3.16-5.6-4.55l-.79-.25v8C73.54,158,75.52,160.21,76,162.64Z"/><path class="cls-2" d="M101.48,139.51a8.52,8.52,0,0,1-1.67-3.3l-.48-1.48q-1.6-4.92-5.25-6.47a9.67,9.67,0,0,0,5.39-2.78,7.07,7.07,0,0,0,2-5,8.51,8.51,0,0,0-3.06-6.72,11.38,11.38,0,0,0-7.75-2.66,12.33,12.33,0,0,0-11,6.11l2.28,1.93q2.52-2.7,5.19-2.7a5.39,5.39,0,0,1,3.77,1.44,4.5,4.5,0,0,1,1.57,3.43,3.92,3.92,0,0,1-1.23,2.88,4,4,0,0,1-2.89,1.21q-3,0-8.4-4.24l-1.81-1.42a37.3,37.3,0,0,0-8.06-5v3.7a13.87,13.87,0,0,1,4.09,2.23q3.8,3,3.8,6.77a4.29,4.29,0,0,1-1.17,3.05,3.82,3.82,0,0,1-2.89,1.25,3.4,3.4,0,0,1-2.6-.94,4,4,0,0,1-.87-2.83,7.28,7.28,0,0,1,.65-2.73l-1-.45v13.4a6.94,6.94,0,0,0,4.3,1.42,7.14,7.14,0,0,0,3.74-1,9.47,9.47,0,0,0,3-3.06,10.67,10.67,0,0,0,5.44,6q3.72,1.72,11.29,1.72H104v-2.94A3.52,3.52,0,0,1,101.48,139.51Zm-18.8-10.69q4.36.83,8,7.27l.5.86a7.72,7.72,0,0,0,3.8,3.65Q83.63,140.61,82.68,128.82Z"/><path class="cls-2" d="M71.22,208.32a8.36,8.36,0,0,1,6.34-2.67,8.17,8.17,0,0,1,8.54,8.23l2.28,0v-.76q.09-6.29-3-10.2a10.27,10.27,0,0,0-8.28-4,11.33,11.33,0,0,0-7,2.16v8.6A9.92,9.92,0,0,1,71.22,208.32Z"/><path class="cls-2" d="M71,226.21q3.23,4.24,3.2,6.56a3.09,3.09,0,0,1-1,2.23,3,3,0,0,1-2.25.92,3.49,3.49,0,0,1-.9-.14v7.1h.15a5.49,5.49,0,0,0,3.93-1.5,7.53,7.53,0,0,0,2.21-4.15q1.16,2.85,5,4.15l1.15.38A6.62,6.62,0,0,1,85,243.12a2.72,2.72,0,0,1,.64,2l2.28,0,.07-4.79q.08-5.87-1.21-8.78a8.25,8.25,0,0,0-4.61-4.29A7.37,7.37,0,0,0,84.58,225a5.67,5.67,0,0,0-1.06-7.17A6.72,6.72,0,0,0,78.88,216a14.66,14.66,0,0,0-5.5,1.3l.91,2.09a5.66,5.66,0,0,1,2.12-.48,3.12,3.12,0,0,1,2.19.71,2.64,2.64,0,0,1,.7,2,3,3,0,0,1-1,2.23,3.33,3.33,0,0,1-2.38.88,6.62,6.62,0,0,1-5.21-3c-.23-.31-.44-.63-.64-.95V225Zm14.94,11.87a6,6,0,0,0-2.79-3l-.66-.4q-5-2.88-5.55-6.27Q86.06,229.28,85.93,238.07Z"/><circle class="cls-2" cx="80.06" cy="3.9" r="3.4"/><path class="cls-2" d="M70.3,67.1a9.5,9.5,0,0,1,6.77-2.44,9.33,9.33,0,0,1,7,3.08A10.45,10.45,0,0,1,87,75.19a11.84,11.84,0,0,1-2.57,7.5Q81.87,86,78.59,86a3.72,3.72,0,0,1-2.65-1,3.32,3.32,0,0,1-1.08-2.51,2.94,2.94,0,0,1,.81-2.25,3.49,3.49,0,0,1,2.45-.76,6.32,6.32,0,0,1,2.36.57l1.05-2.31a16.4,16.4,0,0,0-6.11-1.54,7.48,7.48,0,0,0-5.2,2l-.15.15v9.26a10,10,0,0,0,1.5,1.19,11.7,11.7,0,0,0-1.5.73v3.38a11.78,11.78,0,0,1,7.33-2.78q-.72,3.78-6.29,6.92l-.74.43-.29.19v7.62c.29-.11.6-.23.93-.34l1.29-.41q4.26-1.39,5.6-4.55a8.39,8.39,0,0,0,2.4,4.66,6.14,6.14,0,0,0,4.36,1.73,7.36,7.36,0,0,0,5.82-2.65,9.85,9.85,0,0,0,2.3-6.7,10.67,10.67,0,0,0-5.29-9.53l-1.67,2a6.24,6.24,0,0,1,2.34,4.5,4.66,4.66,0,0,1-1.25,3.26,3.9,3.9,0,0,1-3,1.36,3.38,3.38,0,0,1-2.49-1.07A3.45,3.45,0,0,1,80.39,95q0-2.59,3.67-7.27l1.23-1.57q6-7.63,6-14.56a14.26,14.26,0,0,0-4-10.19,12.77,12.77,0,0,0-9.63-4.17,11.5,11.5,0,0,0-7.64,2.65v7.48Z"/><path class="cls-2" d="M78.5,53.74a10.28,10.28,0,0,0,8.28-4q3.12-3.92,3-10.2V38.8l-2.28,0A8.17,8.17,0,0,1,79,47.06a8.36,8.36,0,0,1-6.34-2.67,9.22,9.22,0,0,1-2.57-5.08V50.37A11.41,11.41,0,0,0,78.5,53.74Z"/><path class="cls-3" d="M70.08,24.2v1.7l.76-.92A9.15,9.15,0,0,1,70.08,24.2Z"/><path class="cls-2" d="M72.4,16.78a3,3,0,0,1,2.25.93,3.11,3.11,0,0,1,1,2.23q0,2.33-3.2,6.56l-1.09,1.42q-.67.88-1.26,1.75v6.11A10.58,10.58,0,0,1,72.14,31a6.62,6.62,0,0,1,5.21-3,3.34,3.34,0,0,1,2.38.88,3,3,0,0,1,1,2.23,2.62,2.62,0,0,1-.7,2,3.13,3.13,0,0,1-2.19.71,5.71,5.71,0,0,1-2.12-.48l-.92,2.09a14.66,14.66,0,0,0,5.5,1.3,6.7,6.7,0,0,0,4.64-1.83A5.67,5.67,0,0,0,86,27.73a7.34,7.34,0,0,0-2.4-2.31,8.26,8.26,0,0,0,4.61-4.29q1.3-2.91,1.21-8.78l-.07-4.79-2.28,0a2.74,2.74,0,0,1-.64,2,6.64,6.64,0,0,1-2.54,1.34l-1.15.38q-3.81,1.3-5,4.15a7.53,7.53,0,0,0-2.21-4.15,5.49,5.49,0,0,0-3.92-1.5,7.41,7.41,0,0,0-1.58.19v7.73A3.4,3.4,0,0,1,72.4,16.78ZM83.91,18l.66-.4a6,6,0,0,0,2.79-3q.13,8.79-9,9.66Q79,20.9,83.91,18Z"/><path class="cls-4" d="M70.08,39.31V35.77a11.42,11.42,0,0,0-.14,2A10.75,10.75,0,0,0,70.08,39.31Z"/><path class="cls-4" d="M69.76,18A4.2,4.2,0,0,0,68.68,21a5,5,0,0,0,1.4,3.22V17.73A4.2,4.2,0,0,0,69.76,18Z"/><path class="cls-4" d="M70.08,220.77v-11A9.46,9.46,0,0,0,68.51,215,10.61,10.61,0,0,0,70.08,220.77Z"/><rect class="cls-5" x="-53.92" y="123.1" width="245" height="4" transform="translate(-56.53 193.68) rotate(-90)"/><path class="cls-5" d="M4.92,40.41c-1,0-1.32-.6-2.08-2.36A8.29,8.29,0,0,0,.08,34.53c-.16-.12,0-.32.16-.32,4.28.36,6.64,1.76,6.64,4A2,2,0,0,1,4.92,40.41Zm1.56,8.4a13.69,13.69,0,0,0-.6,2.72c0,2.08,1.6,3.76,1.6,5.88a2.63,2.63,0,0,1-2.6,2.84C3.6,60.25,3,59.53,3,58.13s.32-2.6.32-3.92c0-2.6-.32-3-3.12-4-.2-.08-.12-.64.08-.6a15.73,15.73,0,0,0,1.64.2,1.87,1.87,0,0,0,1.8-1.12c.92-1.2,3.92-7.4,6.84-14.08.08-.2.56,0,.48.2C9.48,39.45,8,44.13,6.48,48.81ZM8,31.49c-1.16,0-1.44-.56-2.28-2.44a8.55,8.55,0,0,0-2.84-3.6c-.16-.12,0-.32.16-.32C7.32,25.45,9.8,27,9.8,29.29,9.8,30.77,8.88,31.49,8,31.49Zm13,6.8H14.2a19.81,19.81,0,0,0-2.84.24l-.44-1.48a17.34,17.34,0,0,0,3.28.32H21V30.09a63.59,63.59,0,0,1-9.12.72c-.2,0-.2-.52,0-.56A63,63,0,0,0,25.8,26.17a19.86,19.86,0,0,0,4.48-2.48c2.52,2,3.52,2.88,3.52,3.32s-.32.64-2,.44a50.12,50.12,0,0,1-7.08,2v8h5.6c2-2.44,2.52-2.76,2.8-2.76s.76.32,2.68,1.92c.84.72,1.16,1.08,1.16,1.36s-.12.4-.52.4H24.72v8.24h4.48c1.44-1.72,1.76-2,2.08-2s.72.24,2.2,1.44c.68.6.92.88.92,1.2s-.08.44-1.16,1.32v1.68c0,4.44.12,7.48.12,8.48s-.8,1.56-2.24,1.56c-1.2,0-1.6-.44-1.6-1.28v-1.2H16.6V59c0,1-.76,1.52-2.16,1.52-1.08,0-1.6-.32-1.6-1.2,0-1.32.16-2.76.16-8.16a61.93,61.93,0,0,0-.28-6.64,23.46,23.46,0,0,1,4.28,2h4Zm8.48,9.16H16.6v9.4H29.51Z"/><path class="cls-5" d="M12.44,106.37H15c1.32-1.64,1.8-2,2.08-2s.8.32,2.08,1.36c.56.48.88.84.88,1.12s-.12.4-.52.4h-7v3.16c2.44-.28,5-.64,7.2-1.08.2,0,.36.44.16.52-4.64,1.92-7.72,2.76-17,4.64-.24,1-.44,1.4-.84,1.4-.56,0-.72-.32-2-4.72,2.4.08,4.2,0,5.52-.08C6.64,111,7.8,111,9,110.85v-3.56H4.4a20.84,20.84,0,0,0-2.92.24L1,106a17,17,0,0,0,3.24.32H9v-3.64H5.36c-.08,1-.64,1.44-1.84,1.44-.76,0-1.64-.2-1.64-1.16,0-1.8.08-4.28.08-6.52,0-2.08,0-4.16-.16-6.28A23,23,0,0,1,5.6,92H9V88.73H3.32A19.82,19.82,0,0,0,.48,89L0,87.49a16.19,16.19,0,0,0,3.16.32H9V84.57c-2.24.2-4.72.28-7.64.28-.2,0-.32-.52-.12-.56a47,47,0,0,0,10.64-2.56,20.94,20.94,0,0,0,4.44-2.12c2.36,1.76,3.36,2.76,3.36,3.12s-.56.48-1.92.24a40,40,0,0,1-5.36,1.2v3.64h3.72c1.64-2,2.12-2.28,2.4-2.28s.76.32,2.28,1.6c.64.56,1,.92,1,1.2s-.12.4-.52.4H12.44V92h3.4c1.4-1.44,1.72-1.68,2-1.68s.72.24,2.12,1.36c.6.48.84.76.84,1.08s-.28.6-1.12,1.08v8.48c0,1.16-.6,1.68-1.92,1.68-1.08,0-1.56-.36-1.6-1.24H12.44ZM9,96.73V92.89H5.36v3.84Zm0,5.08V97.65H5.36v4.16Zm7.16-5.08V92.89H12.44v3.84Zm0,5.08V97.65H12.44v4.16ZM28.67,91.57c-1,14.64-4.44,20.44-13.4,25.16-.16.08-.4-.4-.24-.52,6.72-5.64,9.48-11.84,10.12-24.64H24.08a12.77,12.77,0,0,0-2.92.32l-.44-1.56a15.34,15.34,0,0,0,3.16.32H25.2q.12-2.88.12-6.24a29.66,29.66,0,0,0-.2-4c4.56.64,5.08.76,5.08,1.36,0,.44-.32.72-1.2,1.12,0,2.84-.12,5.4-.28,7.76H32c1.44-1.68,1.64-1.88,2-1.88s.76.24,2.12,1.52c.64.56.84.88.84,1.2s-.16.6-1.08,1.16c-.12,9.64-.56,16.2-1.92,19.88a4.92,4.92,0,0,1-2.24,2.64,5.71,5.71,0,0,1-2.64.6c-.88,0-1.12-.16-1.16-.8-.08-1.28-.76-2.16-3.92-3-.2,0-.16-.56,0-.56,2.72.24,4.16.32,5.28.32s1.28-.2,1.72-1.92c.76-3.12,1.24-9,1.32-18.28Z"/><path class="cls-5" d="M29.07,153.61c2.32-2.88,2.8-3.2,3.08-3.2s.8.32,3.12,2.2c1.08.88,1.4,1.24,1.4,1.52s-.12.4-.52.4H4.8a37.07,37.07,0,0,0-3.88.24l-.44-1.48a28.65,28.65,0,0,0,4.24.32Z"/><path class="cls-5" d="M10.28,221.09c0,.88-.68,1.32-1.84,1.32s-1.68-.4-1.68-1.32c0-1.52.2-3,.2-9.16,0-1.52,0-3.08-.12-4.64,1.72.68,2,.84,3.8,1.68H26.2c1.32-1.44,1.64-1.68,2-1.68s.72.24,2.12,1.4c.6.56.84.84.84,1.16s-.24.68-1.12,1.2v1.56c0,4.12.16,7,.16,7.88,0,1.12-.76,1.6-2.2,1.6-.92,0-1.4-.32-1.44-1.12h-3.2v3.24c0,1,.6,1.24,4.44,1.24,2.8,0,3.88-.08,4.8-.72s1.36-1.8,2.36-4.52c.08-.2.44-.12.44.08,0,.84-.12,2-.12,2.92,0,.56.32.84.92,1.2a1.47,1.47,0,0,1,.8,1.52c0,1-.6,1.64-2.08,2.08a28.67,28.67,0,0,1-7.4.64c-6.36,0-7.76-.68-7.76-3.76V221H13.88c3,1,3.4,1.28,3.4,1.72s-.52.72-1.56.76c-3,3.8-7.6,5.52-15,5.56-.2,0-.2-.48,0-.52,5-1,8.32-2.8,10.36-5A8,8,0,0,0,12.64,221H10.28ZM13.52,198c.88-1.12,1.2-1.36,1.52-1.36s.72.24,1.76,1c.44.36.68.64.68,1s-.12.4-.72.88v.6c0,1.16,0,1.64,0,2,0,1-.56,1.36-2,1.36-.68,0-1-.12-1.12-1H11.92v3.12h1.32c1.24-1.48,1.72-1.8,2-1.8s.84.32,2.16,1.28c.6.44.92.76.92,1s-.12.4-.52.4H5.6V207c0,.84-.72,1.28-2,1.28-1,0-1.56-.36-1.56-1.2,0-1.44.16-2.88.16-8.72,0-2.12,0-4.28-.16-6.44A26.9,26.9,0,0,1,6,194h7c1.56-1.8,1.88-2,2.2-2s.76.24,2.16,1.4c.68.56.92.84.92,1.16s-.16.4-.6.4H11.92v3Zm-4.68-3H5.6v3H8.84Zm-3.24,6.6h8v-2.64h-8Zm3.24,4v-3.12H5.6v3.12Zm17.68,4.32H10.28v2.68H26.52Zm-16.24,6.32H26.52v-2.72H10.28ZM26.52,220v-2.92H10.28V220Zm-4-23.72a12.46,12.46,0,0,1-4.48,3.72c-.2.08-.44-.12-.32-.28a18.22,18.22,0,0,0,2.48-5.24,17.71,17.71,0,0,0,.64-2.8c3.36,1.12,4.48,1.64,4.48,2.08s-.4.6-1.48.68c-.2.32-.44.64-.64.92h7.6c1.68-2,2.16-2.28,2.44-2.28s.76.32,2.4,1.6c.68.52,1,.92,1,1.2s-.12.4-.52.4Zm-.68,10.28c-.12.76-.68,1.16-1.6,1.16S19,207.41,19,206.45c0-.64.08-1.28.08-3.84,0-.92,0-1.84-.12-2.8a25.66,25.66,0,0,1,3.16,1.64h9.72c1.08-1.32,1.4-1.56,1.72-1.56s.68.24,1.76,1.2c.44.4.68.72.68,1s-.24.64-1,1v.52c0,1.36.08,2.32.08,2.6,0,1-.56,1.44-1.8,1.44-.84,0-1.2-.28-1.2-1.08Zm7-8.08c1.28-1.52,1.76-1.84,2-1.84s.84.32,2.16,1.32c.56.44.88.76.88,1s-.12.4-.52.4h-9.2a15.11,15.11,0,0,0-2.48.24l-.44-1.48a13.76,13.76,0,0,0,2.92.32Zm-7,3.84v3.32h1.72v-3.32ZM26,205.69h1.84v-3.32H26Zm6.08-3.32H30.27v3.32h1.84Z"/></g></g></svg>