<svg xmlns="http://www.w3.org/2000/svg" viewBox="0 0 105.13 252.7"><defs><style>.cls-1,.cls-2{fill:none;}.cls-2,.cls-3{stroke:#f5ab00;stroke-miterlimit:10;}.cls-3,.cls-4{fill:#f4f0e3;}.cls-5{fill:#f5ab00;}</style></defs><title>資產 52</title><g id="圖層_2" data-name="圖層 2"><g id="圖層_1-2" data-name="圖層 1"><path class="cls-1" d="M73.8,235a3.09,3.09,0,0,0,1-2.23q0-2.33-3.2-6.56l-.92-1.2v10.78a3.49,3.49,0,0,0,.9.14A3,3,0,0,0,73.8,235Z"/><path class="cls-1" d="M73,26.49q3.23-4.23,3.2-6.56a3.11,3.11,0,0,0-1-2.23A3,3,0,0,0,73,16.78a3.4,3.4,0,0,0-2.32,1V24.2a9.15,9.15,0,0,0,.76.78l-.76.92v3.77q.59-.87,1.26-1.75Z"/><path class="cls-1" d="M87.94,14.63a6,6,0,0,1-2.79,3l-.66.4q-5,2.88-5.55,6.28Q88.07,23.43,87.94,14.63Z"/><path class="cls-1" d="M83.06,234.68l.66.4a6,6,0,0,1,2.79,3q.13-8.8-9-9.66Q78.11,231.81,83.06,234.68Z"/><path class="cls-1" d="M71.66,125.27A7.28,7.28,0,0,0,71,128a4,4,0,0,0,.87,2.83,3.4,3.4,0,0,0,2.6.94,3.82,3.82,0,0,0,2.89-1.25,4.29,4.29,0,0,0,1.17-3.05q0-3.8-3.8-6.77a13.87,13.87,0,0,0-4.09-2.23v6.35Z"/><path class="cls-1" d="M70.66,156v5a13.42,13.42,0,0,0,5.91,1.7C76.1,160.21,74.12,158,70.66,156Z"/><path class="cls-1" d="M76,76.17a16.4,16.4,0,0,1,6.11,1.54L81.07,80a6.32,6.32,0,0,0-2.36-.57,3.49,3.49,0,0,0-2.45.76,2.94,2.94,0,0,0-.81,2.25A3.32,3.32,0,0,0,76.53,85a3.72,3.72,0,0,0,2.65,1q3.29,0,5.86-3.29a11.84,11.84,0,0,0,2.57-7.5,10.45,10.45,0,0,0-2.91-7.45,9.33,9.33,0,0,0-7-3.08,9.5,9.5,0,0,0-6.77,2.44l-.23.24V78.28l.15-.15A7.48,7.48,0,0,1,76,76.17Z"/><path class="cls-1" d="M71,97.41,71.7,97q5.57-3.14,6.29-6.92a11.78,11.78,0,0,0-7.33,2.78V97.6Z"/><path class="cls-1" d="M70.66,87.54v1.92a11.7,11.7,0,0,1,1.5-.73A10,10,0,0,1,70.66,87.54Z"/><path class="cls-1" d="M70.66,163.94V164l.07-.05Z"/><path class="cls-1" d="M91.75,137l-.5-.86q-3.62-6.44-8-7.27.95,11.78,12.29,11.78A7.72,7.72,0,0,1,91.75,137Z"/><path class="cls-1" d="M83.26,185a10.46,10.46,0,0,0,2.91-7.45A11.85,11.85,0,0,0,83.6,170q-2.57-3.29-5.86-3.29a3.72,3.72,0,0,0-2.65,1A3.31,3.31,0,0,0,74,170.24a2.94,2.94,0,0,0,.81,2.25,3.49,3.49,0,0,0,2.45.76,6.28,6.28,0,0,0,2.36-.56L80.7,175a16.4,16.4,0,0,1-6.11,1.54,7.59,7.59,0,0,1-3.93-1v11A10,10,0,0,0,76.23,188,9.33,9.33,0,0,0,83.26,185Z"/><circle class="cls-2" cx="79.21" cy="248.81" r="3.4"/><path class="cls-2" d="M76.56,162.64a13.42,13.42,0,0,1-5.91-1.7v3l.07,0-.07.05v11.48a7.59,7.59,0,0,0,3.93,1A16.4,16.4,0,0,0,80.7,175l-1.05-2.31a6.28,6.28,0,0,1-2.36.56,3.49,3.49,0,0,1-2.45-.76,2.94,2.94,0,0,1-.81-2.25,3.31,3.31,0,0,1,1.08-2.51,3.72,3.72,0,0,1,2.65-1q3.29,0,5.86,3.29a11.85,11.85,0,0,1,2.57,7.5A10.46,10.46,0,0,1,83.26,185a9.33,9.33,0,0,1-7,3.08,10,10,0,0,1-5.57-1.51v7.34a11.84,11.84,0,0,0,6.21,1.62,12.77,12.77,0,0,0,9.63-4.17,14.25,14.25,0,0,0,4-10.19q0-6.93-6-14.56L83.22,165q-3.67-4.68-3.67-7.27a3.45,3.45,0,0,1,1.05-2.51,3.39,3.39,0,0,1,2.49-1.07,3.88,3.88,0,0,1,3,1.36,4.66,4.66,0,0,1,1.25,3.26,6.25,6.25,0,0,1-2.34,4.5l1.67,2a10.68,10.68,0,0,0,5.29-9.53,9.87,9.87,0,0,0-2.3-6.7,7.38,7.38,0,0,0-5.82-2.64,6.14,6.14,0,0,0-4.36,1.73,8.4,8.4,0,0,0-2.4,4.67q-1.34-3.16-5.6-4.55l-.79-.25v8C74.12,158,76.1,160.21,76.56,162.64Z"/><path class="cls-2" d="M102.06,139.51a8.52,8.52,0,0,1-1.67-3.3l-.48-1.48q-1.6-4.92-5.25-6.47a9.67,9.67,0,0,0,5.39-2.78,7.07,7.07,0,0,0,2-5A8.51,8.51,0,0,0,99,113.74a11.38,11.38,0,0,0-7.75-2.66,12.33,12.33,0,0,0-11,6.11l2.28,1.93q2.52-2.7,5.19-2.7a5.39,5.39,0,0,1,3.77,1.44,4.5,4.5,0,0,1,1.57,3.43,3.92,3.92,0,0,1-1.23,2.88,4,4,0,0,1-2.89,1.21q-3,0-8.4-4.24l-1.81-1.42a37.3,37.3,0,0,0-8.06-5v3.7a13.87,13.87,0,0,1,4.09,2.23q3.8,3,3.8,6.77a4.29,4.29,0,0,1-1.17,3.05,3.82,3.82,0,0,1-2.89,1.25,3.4,3.4,0,0,1-2.6-.94A4,4,0,0,1,71,128a7.28,7.28,0,0,1,.65-2.73l-1-.45v13.4a6.94,6.94,0,0,0,4.3,1.42,7.14,7.14,0,0,0,3.74-1,9.47,9.47,0,0,0,3-3.06,10.67,10.67,0,0,0,5.44,6q3.72,1.72,11.29,1.72h6.17v-2.94A3.52,3.52,0,0,1,102.06,139.51Zm-18.8-10.69q4.36.83,8,7.27l.5.86a7.72,7.72,0,0,0,3.8,3.65Q84.21,140.61,83.26,128.82Z"/><path class="cls-2" d="M71.8,208.32a8.36,8.36,0,0,1,6.34-2.67,8.17,8.17,0,0,1,8.54,8.23l2.28,0v-.76q.09-6.29-3-10.2a10.27,10.27,0,0,0-8.28-4,11.33,11.33,0,0,0-7,2.16v8.6A9.92,9.92,0,0,1,71.8,208.32Z"/><path class="cls-2" d="M71.58,226.21q3.23,4.24,3.2,6.56a3.09,3.09,0,0,1-1,2.23,3,3,0,0,1-2.25.92,3.49,3.49,0,0,1-.9-.14v7.1h.15a5.49,5.49,0,0,0,3.93-1.5,7.53,7.53,0,0,0,2.21-4.15q1.16,2.85,5,4.15l1.15.38a6.62,6.62,0,0,1,2.53,1.34,2.72,2.72,0,0,1,.64,2l2.28,0,.07-4.79q.08-5.87-1.21-8.78a8.25,8.25,0,0,0-4.61-4.29A7.37,7.37,0,0,0,85.16,225a5.67,5.67,0,0,0-1.06-7.17A6.72,6.72,0,0,0,79.46,216a14.66,14.66,0,0,0-5.5,1.3l.91,2.09a5.66,5.66,0,0,1,2.12-.48,3.12,3.12,0,0,1,2.19.71,2.64,2.64,0,0,1,.7,2,3,3,0,0,1-1,2.23,3.33,3.33,0,0,1-2.38.88,6.62,6.62,0,0,1-5.21-3c-.23-.31-.44-.63-.64-.95V225Zm14.94,11.87a6,6,0,0,0-2.79-3l-.66-.4q-5-2.88-5.55-6.27Q86.64,229.28,86.51,238.07Z"/><circle class="cls-2" cx="80.64" cy="3.9" r="3.4"/><path class="cls-2" d="M70.89,67.1a9.5,9.5,0,0,1,6.77-2.44,9.33,9.33,0,0,1,7,3.08,10.45,10.45,0,0,1,2.91,7.45A11.84,11.84,0,0,1,85,82.69Q82.46,86,79.17,86a3.72,3.72,0,0,1-2.65-1,3.32,3.32,0,0,1-1.08-2.51,2.94,2.94,0,0,1,.81-2.25,3.49,3.49,0,0,1,2.45-.76,6.32,6.32,0,0,1,2.36.57l1.05-2.31A16.4,16.4,0,0,0,76,76.17a7.48,7.48,0,0,0-5.2,2l-.15.15v9.26a10,10,0,0,0,1.5,1.19,11.7,11.7,0,0,0-1.5.73v3.38A11.78,11.78,0,0,1,78,90.06Q77.27,93.84,71.7,97l-.74.43-.29.19v7.62c.29-.11.6-.23.93-.34l1.29-.41q4.26-1.39,5.6-4.55a8.39,8.39,0,0,0,2.4,4.66,6.14,6.14,0,0,0,4.36,1.73,7.36,7.36,0,0,0,5.82-2.65,9.85,9.85,0,0,0,2.3-6.7,10.67,10.67,0,0,0-5.29-9.53l-1.67,2a6.24,6.24,0,0,1,2.34,4.5,4.66,4.66,0,0,1-1.25,3.26,3.9,3.9,0,0,1-3,1.36A3.38,3.38,0,0,1,82,97.48,3.45,3.45,0,0,1,81,95q0-2.59,3.67-7.27l1.23-1.57q6-7.63,6-14.56a14.26,14.26,0,0,0-4-10.19,12.77,12.77,0,0,0-9.63-4.17,11.5,11.5,0,0,0-7.64,2.65v7.48Z"/><path class="cls-2" d="M79.08,53.74a10.28,10.28,0,0,0,8.28-4q3.12-3.92,3-10.2V38.8l-2.28,0a8.17,8.17,0,0,1-8.54,8.23,8.36,8.36,0,0,1-6.34-2.67,9.22,9.22,0,0,1-2.57-5.08V50.37A11.41,11.41,0,0,0,79.08,53.74Z"/><path class="cls-3" d="M70.66,24.2v1.7l.76-.92A9.15,9.15,0,0,1,70.66,24.2Z"/><path class="cls-2" d="M73,16.78a3,3,0,0,1,2.25.93,3.11,3.11,0,0,1,1,2.23q0,2.33-3.2,6.56l-1.09,1.42q-.67.88-1.26,1.75v6.11A10.58,10.58,0,0,1,72.72,31a6.62,6.62,0,0,1,5.21-3,3.34,3.34,0,0,1,2.38.88,3,3,0,0,1,1,2.23,2.62,2.62,0,0,1-.7,2,3.13,3.13,0,0,1-2.19.71,5.71,5.71,0,0,1-2.12-.48l-.92,2.09a14.66,14.66,0,0,0,5.5,1.3,6.7,6.7,0,0,0,4.64-1.83,5.67,5.67,0,0,0,1.06-7.17,7.34,7.34,0,0,0-2.4-2.31,8.26,8.26,0,0,0,4.61-4.29q1.3-2.91,1.21-8.78l-.07-4.79-2.28,0a2.74,2.74,0,0,1-.64,2,6.64,6.64,0,0,1-2.54,1.34l-1.15.38q-3.81,1.3-5,4.15a7.53,7.53,0,0,0-2.21-4.15,5.49,5.49,0,0,0-3.92-1.5,7.41,7.41,0,0,0-1.58.19v7.73A3.4,3.4,0,0,1,73,16.78ZM84.49,18l.66-.4a6,6,0,0,0,2.79-3q.13,8.79-9,9.66Q79.53,20.9,84.49,18Z"/><path class="cls-4" d="M70.66,39.31V35.77a11.42,11.42,0,0,0-.14,2A10.75,10.75,0,0,0,70.66,39.31Z"/><path class="cls-4" d="M70.34,18A4.2,4.2,0,0,0,69.26,21a5,5,0,0,0,1.4,3.22V17.73A4.2,4.2,0,0,0,70.34,18Z"/><path class="cls-4" d="M70.66,220.77v-11A9.46,9.46,0,0,0,69.09,215,10.61,10.61,0,0,0,70.66,220.77Z"/><rect class="cls-5" x="-53.34" y="123.1" width="245" height="4" transform="translate(-55.94 194.26) rotate(-90)"/><path class="cls-5" d="M7.39,54a17,17,0,0,1-7,6.08c-.2.08-.44-.24-.32-.4A16.76,16.76,0,0,0,3.39,54.4a15.69,15.69,0,0,0,.92-3.16C7.63,52.52,8.63,53,8.63,53.4S8.27,53.92,7.39,54Zm-1.6-4.64v.24c0,.92-.8,1.32-2.08,1.32-1.12,0-1.52-.36-1.52-1.16,0-2.28.2-7,.2-16.24,0-3.72,0-5-.2-8.76a28,28,0,0,1,4,1.88h4.28c1.08-1.52,1.4-1.76,1.72-1.76s.72.24,2.08,1.44c.6.56.84.84.84,1.16s-.2.56-1.12,1.2v3.4c0,9,.08,15.2.08,17.24,0,.84-.56,1.36-2,1.36-.92,0-1.48-.28-1.48-1.08v-.24Zm4.8-21.8H5.79v6.2h4.8Zm0,7.12H5.79v6.08h4.8Zm0,7H5.79v6.76h4.8ZM12,57.2c-1,0-1.28-.44-1.6-2.08a7.61,7.61,0,0,0-1.68-3.48c-.12-.16,0-.32.24-.24,3.36,1.12,4.8,2.24,4.8,3.88A1.81,1.81,0,0,1,12,57.2ZM30.95,36.28c1.4-1.68,1.72-1.92,2-1.92s.72.24,2.2,1.52c.68.64.92.92.92,1.24s-.28.6-1.32,1.2a32.76,32.76,0,0,1-5.48,12A17.6,17.6,0,0,0,38,55.76c.2,0,.16.44,0,.52a4.58,4.58,0,0,0-2.56,3c-.2.48-.32.68-.64.68a3.11,3.11,0,0,1-1.16-.6,26.27,26.27,0,0,1-6.32-6.64A30.58,30.58,0,0,1,15.51,60c-.2.08-.44-.36-.28-.48a38,38,0,0,0,10.6-9.4,36.16,36.16,0,0,1-3.08-13H21.67a45.71,45.71,0,0,1-1.36,11A22.31,22.31,0,0,1,13,59.76c-.16.12-.52-.2-.4-.36a28.15,28.15,0,0,0,4.72-11.64c.8-4.24.76-9.68.76-16.6,0-2.6-.12-3.92-.32-6.36A21.22,21.22,0,0,1,21.95,27h8.84c2-2.32,2.32-2.56,2.64-2.56s.76.24,2.76,1.76c.92.72,1.16,1,1.16,1.32s-.16.4-.6.4h-15v1.48c0,2.48,0,4.76-.08,6.84Zm-7.36.92a24.47,24.47,0,0,0,3.76,10.6A32.82,32.82,0,0,0,31,37.2Z"/><path class="cls-5" d="M10,100.92c0,1.08-.84,1.64-2.24,1.64-1.16,0-1.64-.4-1.64-1.36,0-1.76.28-3.52.28-10.6V89.44A24.42,24.42,0,0,1,.71,93c-.2.08-.48-.28-.32-.4a33.11,33.11,0,0,0,7.76-9.84,20.63,20.63,0,0,0,1.24-3.08c4.16,1.48,4.92,1.88,4.92,2.48s-.32.76-1.88.92c-.64.88-1.36,1.72-2.08,2.56h7.56A26.73,26.73,0,0,0,19,82.52a16.06,16.06,0,0,0,.56-2.76c4.72,1.36,5.24,1.6,5.24,2.24s-.56.84-2,.92a16,16,0,0,1-3.48,2.72H28c1.84-2.32,2.16-2.56,2.48-2.56s.72.24,2.56,1.76c.84.72,1.08,1,1.08,1.32s-.16.4-.6.4H21.31v3.76h5.28c1.6-2,2.08-2.28,2.36-2.28s.8.32,2.48,1.6c.72.6,1,.92,1,1.2s-.12.4-.52.4H21.31V95h5.2c1.68-2,2.16-2.28,2.44-2.28s.8.32,2.48,1.6c.72.6,1,.92,1,1.2s-.12.4-.52.4H21.31V100h7.16c1.84-2.16,2.32-2.48,2.6-2.48s.84.32,2.72,1.76c.84.64,1.16,1,1.16,1.24s-.12.4-.52.4Zm-.24,12.76V115c0,1.28-.64,1.76-2.24,1.76-1.28,0-1.76-.4-1.76-1.48s.08-2.16.08-6.52c0-2,0-3.92-.16-5.88a32.4,32.4,0,0,1,4.52,1.92H27.63c1.6-1.64,1.92-1.88,2.24-1.88s.72.24,2.32,1.48c.72.6,1,.88,1,1.2s-.24.64-1.24,1.24v1.32c0,3.44.16,5.8.16,6.56,0,1.32-.64,1.76-2.32,1.76-1.32,0-1.76-.36-1.76-1.48v-1.28Zm18.28-8H9.71v7.08H28ZM17.67,90.32V86.56H10v3.76ZM10,95h7.72V91.24H10Zm0,5h7.72V95.88H10Z"/><path class="cls-5" d="M4.11,149.76c-.16,1-.4,1.44-.92,1.44s-.72-.24-2-4.68a33.1,33.1,0,0,0,4.12-.2,67.46,67.46,0,0,0,9.28-1.48c.2,0,.36.44.2.52A52.81,52.81,0,0,1,4.11,149.76ZM14.19,169.6a31.15,31.15,0,0,1-12.76,2.72c-.2,0-.28-.48-.08-.52a31,31,0,0,0,7.32-3.24,10.94,10.94,0,0,0,2.88-2.44c4.44,2.52,4.44,2.52,4.44,3C16,169.48,15.75,169.64,14.19,169.6ZM6.75,153c-1.28.16-2.6.32-4,.44-.2,0-.32-.44-.12-.48A31.08,31.08,0,0,0,6.71,152c0-.88,0-1.76-.08-2.64a30.73,30.73,0,0,1,3.6,1.4,18.69,18.69,0,0,0,7.16-5,12.45,12.45,0,0,0,2.4-4.76c3.52.52,5,1,5,1.52,0,.36-.44.6-1.48.88a14.65,14.65,0,0,0,5.76,4.12,26.11,26.11,0,0,0,8.8,1.64c.2,0,.12.4-.08.48a3.29,3.29,0,0,0-2.08,3,.57.57,0,0,1-.6.44,6.65,6.65,0,0,1-1.72-.4c-.68-.24-1.36-.52-2-.8a3.82,3.82,0,0,1-.8.56v2.08c0,5.56.16,9.44.16,10.68,0,1-.84,1.4-2.32,1.4-1,0-1.52-.32-1.52-1.2H10.31v.16c0,.88-.72,1.32-2.08,1.32-1.2,0-1.68-.36-1.68-1.32,0-1.8.2-3.64.2-11ZM8,142.88c-.92,0-1.36-.36-1.92-1.64A9.91,9.91,0,0,0,3,137.09c-.16-.12,0-.32.16-.32,4.6.4,6.92,1.68,6.92,4A2,2,0,0,1,8,142.88Zm2.36,12.44h16.6v-3.48H12.43c-.72.2-1.4.36-2.12.52Zm16.6.92H10.31v3.48h16.6Zm0,4.4H10.31v3.8h16.6ZM16.59,140.56a21.34,21.34,0,0,1-5.36,3.72c-.16.08-.56-.24-.4-.36a19.05,19.05,0,0,0,3.64-5.24,17.72,17.72,0,0,0,1.28-3.6c3.76,1.12,4.8,1.6,4.8,2s-.2.56-1.76.84a9.38,9.38,0,0,1-1.28,1.68H30.63c1.48-1.64,1.8-1.88,2.12-1.88s.68.24,2.36,1.8c.76.72,1,1,1,1.36,0,.72-.2.92-1.68,1a2.22,2.22,0,0,0-1.36.56,26.62,26.62,0,0,1-4.2,2.28c-.2.08-.48-.32-.36-.48a14.62,14.62,0,0,0,2.24-3.72Zm10,10.36c.44-.52.8-.92,1-1.16a16.49,16.49,0,0,1-4.84-5.8,16.32,16.32,0,0,1-7.8,7Zm5.2,21.8a3.26,3.26,0,0,1-2.4-1.16,20,20,0,0,0-8.12-4.2c-.2,0-.16-.4,0-.4C31.71,167,34,168.44,34,170.72A2.11,2.11,0,0,1,31.83,172.72Z"/><path class="cls-5" d="M.31,199.48a13.42,13.42,0,0,0,2.88.32H9.87c1.52-2.12,2-2.44,2.28-2.44s.8.32,2.52,1.72c.76.6,1.08,1,1.08,1.24s-.12.4-.52.4h-12A14.76,14.76,0,0,0,.75,201Zm5,25.76v1.48c0,1-.72,1.44-2,1.44-1,0-1.56-.36-1.56-1.24,0-1.28.16-2.6.16-7.8a49.88,49.88,0,0,0-.24-5.44c2,.88,2.24,1,4.12,2H9.83c1.24-1.52,1.56-1.76,1.88-1.76s.76.24,2,1.28c.6.48.84.76.84,1.08s-.24.68-1.12,1.32v1.24c0,3.24.08,5.52.08,6.24,0,1.08-.68,1.56-2,1.56-.92,0-1.4-.32-1.4-1.2v-.2Zm-3.4-31.16a12.09,12.09,0,0,0,2.72.32H8.51c1.6-2,2.08-2.36,2.36-2.36s.8.32,2.4,1.68c.68.56,1,.92,1,1.2s-.12.4-.52.4H4.63a13,13,0,0,0-2.28.24Zm0,16a10.05,10.05,0,0,0,2.48.32H8.23c1.48-1.92,2-2.24,2.24-2.24s.8.32,2.32,1.56c.68.56,1,.92,1,1.2s-.12.4-.52.4h-9a9.61,9.61,0,0,0-2,.24Zm.2-5.24a10.06,10.06,0,0,0,2.48.32H8.27c1.52-1.92,2-2.24,2.28-2.24s.8.32,2.32,1.56c.68.56,1,.92,1,1.2s-.12.4-.52.4H4.59a10.32,10.32,0,0,0-2,.24Zm8,11.72H5.31v7.72h4.8Zm8.32-21.28a18,18,0,0,0-2.72.2L15.35,194a9.7,9.7,0,0,0,3.08.36H28.51c1.48-1.64,1.8-1.88,2.12-1.88s.68.2,2.12,1.44c.64.52.92.92.92,1.24s-.12.52-1.16,1.36c-.12,4.28-.08,8.36.2,12.64a47.56,47.56,0,0,0,1.52,10.08c.44,1.4.88,2.4,1.16,2.4s.88-1.76,1.56-4.2c.08-.24.56-.2.52,0-.36,3.8-.44,5.32-.44,5.64a2.22,2.22,0,0,0,.48,1.4,2.54,2.54,0,0,1,.36,1.2,1.77,1.77,0,0,1-1.92,1.88c-1.88,0-3.76-2.24-5-6a38.43,38.43,0,0,1-1.84-10.44c-.24-3.72-.44-8.68-.44-15.88H24c0,4.48,0,9-.36,13.44h.4c1.24-1.68,1.68-2,2-2s.68.32,1.88,1.4c.52.52.8.88.8,1.12s-.12.4-.48.4H23.59a39.37,39.37,0,0,1-1.16,6.12c-1.48,5.44-4.28,9.56-9,12.4-.2.12-.52-.36-.36-.52a22.21,22.21,0,0,0,6.08-11.84,49.73,49.73,0,0,0,.8-6.16H17.35a14.25,14.25,0,0,0-2.4.24l-.44-1.48a13.14,13.14,0,0,0,2.84.32H20c.24-4.48.2-9,.2-13.44Z"/></g></g></svg>