<svg xmlns="http://www.w3.org/2000/svg" viewBox="0 0 105.32 292"><defs><style>.cls-1,.cls-2{fill:#136e9f;}.cls-1{stroke:#f5ab00;stroke-miterlimit:10;}.cls-3{fill:#f5ab00;}</style></defs><title>資產 5</title><g id="圖層_2" data-name="圖層 2"><g id="圖層_1-2" data-name="圖層 1"><circle class="cls-1" cx="79.41" cy="276.2" r="3.4"/><path class="cls-1" d="M79.65,175.51a8.4,8.4,0,0,0-2.4,4.67q-1.34-3.16-5.6-4.55l-1.28-.41a7.41,7.41,0,0,1-2.85-1.45,3,3,0,0,1-.75-2.22H64.22v5.34q0,6.55,1.49,9.78a9.2,9.2,0,0,0,5.21,4.71A8.25,8.25,0,0,0,68.28,194a6.33,6.33,0,0,0,1.3,8,7.49,7.49,0,0,0,5.2,2,16.4,16.4,0,0,0,6.11-1.54l-1.05-2.31a6.28,6.28,0,0,1-2.36.56,3.49,3.49,0,0,1-2.45-.76,2.94,2.94,0,0,1-.81-2.25,3.3,3.3,0,0,1,1.08-2.51,3.72,3.72,0,0,1,2.65-1q3.29,0,5.86,3.29a11.85,11.85,0,0,1,2.57,7.5,10.46,10.46,0,0,1-2.91,7.45,9.33,9.33,0,0,1-7,3.08,9.12,9.12,0,0,1-9.66-9H64.22v.85q0,7,3.54,11.33a11.45,11.45,0,0,0,9.3,4.32,12.77,12.77,0,0,0,9.63-4.17,14.25,14.25,0,0,0,4-10.19q0-6.93-6-14.56l-1.23-1.57q-3.67-4.68-3.67-7.27a3.45,3.45,0,0,1,1.05-2.51,3.39,3.39,0,0,1,2.49-1.07,3.88,3.88,0,0,1,3,1.36,4.66,4.66,0,0,1,1.25,3.26,6.25,6.25,0,0,1-2.34,4.5l1.67,2a10.68,10.68,0,0,0,5.29-9.53,9.87,9.87,0,0,0-2.3-6.7A7.38,7.38,0,0,0,84,173.78,6.14,6.14,0,0,0,79.65,175.51Zm-9.93,7.18.74.44q5.57,3.14,6.3,6.91-10.2-.83-10.2-10.64A6.67,6.67,0,0,0,69.72,182.69Z"/><path class="cls-1" d="M102.24,147.86a8.51,8.51,0,0,0-3.06-6.72,11.38,11.38,0,0,0-7.75-2.66,12.33,12.33,0,0,0-11,6.11l2.28,1.93q2.52-2.7,5.19-2.7a5.39,5.39,0,0,1,3.77,1.44,4.5,4.5,0,0,1,1.57,3.43A3.92,3.92,0,0,1,92,151.57a4,4,0,0,1-2.89,1.21q-3,0-8.4-4.24l-1.81-1.42q-8.81-6.95-16.82-6.94a16.47,16.47,0,0,0-11.77,4.57,14.76,14.76,0,0,0-4.82,11.13,13.23,13.23,0,0,0,5,10.74q5,4.09,13.09,4.09h1v-2.94a10.53,10.53,0,0,1-10.45-11.16,10.77,10.77,0,0,1,3.56-8.12,12.08,12.08,0,0,1,8.61-3.37,13.69,13.69,0,0,1,8.66,3q3.8,3,3.8,6.77a4.29,4.29,0,0,1-1.17,3.05,3.82,3.82,0,0,1-2.89,1.25,3.4,3.4,0,0,1-2.6-.94,4,4,0,0,1-.87-2.83,7.28,7.28,0,0,1,.65-2.73l-2.67-1.22a18.91,18.91,0,0,0-1.78,7.06,8.65,8.65,0,0,0,2.27,6,7.31,7.31,0,0,0,9.22,1.5,9.47,9.47,0,0,0,3-3.06,10.66,10.66,0,0,0,5.44,6q3.72,1.72,11.29,1.72h6.17v-2.94a3.52,3.52,0,0,1-2.57-.86,8.53,8.53,0,0,1-1.67-3.3l-.48-1.48q-1.6-4.92-5.25-6.47a9.67,9.67,0,0,0,5.39-2.78A7.07,7.07,0,0,0,102.24,147.86ZM95.74,168q-11.34,0-12.29-11.78,4.36.83,8,7.27l.5.86A7.72,7.72,0,0,0,95.74,168Z"/><path class="cls-1" d="M87.56,259a8.25,8.25,0,0,0-4.61-4.29,7.37,7.37,0,0,0,2.41-2.31,5.67,5.67,0,0,0-1.06-7.17,6.72,6.72,0,0,0-4.64-1.83,14.67,14.67,0,0,0-5.5,1.3l.91,2.09a5.66,5.66,0,0,1,2.12-.48,3.12,3.12,0,0,1,2.19.71,2.64,2.64,0,0,1,.7,2,3,3,0,0,1-1,2.23,3.33,3.33,0,0,1-2.38.88,6.62,6.62,0,0,1-5.21-3,10.64,10.64,0,0,1-2.21-6.76A9.38,9.38,0,0,1,72,235.71,8.36,8.36,0,0,1,78.33,233a8.17,8.17,0,0,1,8.54,8.23l2.28,0v-.76q.09-6.29-3-10.2a10.27,10.27,0,0,0-8.28-4A11.45,11.45,0,0,0,69.16,230a12.79,12.79,0,0,0-3.68,9.08q-.09,6.22,5.2,13.13l1.09,1.42q3.23,4.24,3.2,6.56a3.1,3.1,0,0,1-1,2.23,3,3,0,0,1-2.25.92,3.49,3.49,0,0,1-2.64-1.26A4.17,4.17,0,0,1,68,259.13a5.6,5.6,0,0,1,2.15-4l-1.47-1.79a9.57,9.57,0,0,0-4.86,8.47,8.82,8.82,0,0,0,2,6A6.62,6.62,0,0,0,71,270.29a5.49,5.49,0,0,0,3.93-1.5,7.53,7.53,0,0,0,2.21-4.15q1.16,2.85,5,4.15l1.15.38a6.61,6.61,0,0,1,2.53,1.34,2.72,2.72,0,0,1,.64,2l2.28,0,.07-4.79Q88.86,261.89,87.56,259Zm-3.64,3.51-.66-.4q-5-2.88-5.55-6.27,9.13.87,9,9.66A6,6,0,0,0,83.92,262.49Z"/><circle class="cls-1" cx="80.83" cy="31.29" r="3.4"/><path class="cls-1" d="M85.43,133.72a7.36,7.36,0,0,0,5.82-2.65,9.85,9.85,0,0,0,2.3-6.7,10.67,10.67,0,0,0-5.29-9.53l-1.67,2a6.24,6.24,0,0,1,2.34,4.5,4.66,4.66,0,0,1-1.25,3.26,3.9,3.9,0,0,1-3,1.36,3.38,3.38,0,0,1-2.49-1.07,3.45,3.45,0,0,1-1.05-2.5q0-2.6,3.67-7.27l1.23-1.57q6-7.63,6-14.56a14.26,14.26,0,0,0-4-10.19,12.77,12.77,0,0,0-9.63-4.17,11.45,11.45,0,0,0-9.3,4.32q-3.54,4.31-3.54,11.33v.85h2.54a9.12,9.12,0,0,1,9.66-9,9.33,9.33,0,0,1,7,3.08,10.45,10.45,0,0,1,2.91,7.45,11.84,11.84,0,0,1-2.57,7.5q-2.57,3.29-5.86,3.29a3.72,3.72,0,0,1-2.65-1,3.32,3.32,0,0,1-1.08-2.51,2.94,2.94,0,0,1,.81-2.25,3.49,3.49,0,0,1,2.45-.76,6.32,6.32,0,0,1,2.36.57l1.05-2.31a16.4,16.4,0,0,0-6.11-1.54,7.48,7.48,0,0,0-5.2,2,6.32,6.32,0,0,0-1.3,8,8.24,8.24,0,0,0,2.65,2.62,9.2,9.2,0,0,0-5.21,4.71q-1.49,3.22-1.49,9.78V136h2.54a3.06,3.06,0,0,1,.74-2.23,7.39,7.39,0,0,1,2.85-1.45l1.29-.41q4.26-1.39,5.6-4.55a8.39,8.39,0,0,0,2.4,4.66A6.14,6.14,0,0,0,85.43,133.72ZM68,128.1q0-9.81,10.2-10.64-.72,3.78-6.29,6.92l-.74.43A6.68,6.68,0,0,0,68,128.1Z"/><path class="cls-1" d="M90.2,39.74,90.13,35l-2.28,0a2.74,2.74,0,0,1-.64,2,6.64,6.64,0,0,1-2.54,1.34l-1.15.38q-3.81,1.3-5,4.15a7.53,7.53,0,0,0-2.21-4.15,5.49,5.49,0,0,0-3.92-1.5,6.62,6.62,0,0,0-5.18,2.44,8.85,8.85,0,0,0-2,6,9.57,9.57,0,0,0,4.86,8.47l1.47-1.79a5.59,5.59,0,0,1-2.15-4,4.2,4.2,0,0,1,1.08-2.94,3.48,3.48,0,0,1,2.64-1.26,3,3,0,0,1,2.25.93,3.11,3.11,0,0,1,1,2.23q0,2.33-3.2,6.56l-1.09,1.42q-5.29,6.92-5.2,13.13a12.77,12.77,0,0,0,3.68,9.08,11.45,11.45,0,0,0,8.69,3.62,10.28,10.28,0,0,0,8.28-4q3.12-3.92,3-10.2V66.2l-2.28,0a8.17,8.17,0,0,1-8.54,8.23,8.37,8.37,0,0,1-6.34-2.67,9.36,9.36,0,0,1-2.71-6.64,10.63,10.63,0,0,1,2.21-6.76,6.62,6.62,0,0,1,5.21-3,3.34,3.34,0,0,1,2.38.88,3,3,0,0,1,1,2.23,2.62,2.62,0,0,1-.7,2,3.13,3.13,0,0,1-2.19.71,5.7,5.7,0,0,1-2.12-.48l-.92,2.09a14.67,14.67,0,0,0,5.5,1.3,6.7,6.7,0,0,0,4.64-1.83,5.67,5.67,0,0,0,1.06-7.17,7.34,7.34,0,0,0-2.4-2.31A8.26,8.26,0,0,0,89,48.52Q90.28,45.61,90.2,39.74ZM88.13,42q.13,8.79-9,9.66.6-3.39,5.55-6.28l.66-.4A6,6,0,0,0,88.13,42Z"/><rect class="cls-2" x="-102.15" y="119" width="292" height="54" transform="translate(-102.15 189.85) rotate(-90)"/><path class="cls-3" d="M6.79,74a14.51,14.51,0,0,0-.88,3.24c0,1.64,1.52,3.32,1.52,5.44a2.63,2.63,0,0,1-2.6,2.84c-1.28,0-1.92-.72-1.92-2.12s.32-2.6.32-3.92c0-2.6-.32-3-3.12-4-.2-.08-.12-.64.08-.6a15.73,15.73,0,0,0,1.64.2,2.12,2.12,0,0,0,2-1.12,95.59,95.59,0,0,0,6.08-11.2c.08-.16.52,0,.48.2C8.55,68.72,7.71,71.12,6.79,74ZM5.11,65.88c-1,0-1.32-.6-2.08-2.36A8.3,8.3,0,0,0,.28,60c-.16-.12,0-.32.16-.32,4.28.36,6.64,1.76,6.64,4A2,2,0,0,1,5.11,65.88ZM8,56.49c-1.16,0-1.44-.56-2.28-2.44a8.55,8.55,0,0,0-2.84-3.6c-.16-.12,0-.32.16-.32,4.28.32,6.76,1.84,6.76,4.16C9.79,55.77,8.87,56.49,8,56.49Zm11.76,25.4a26.9,26.9,0,0,1-11.6,3.68c-.2,0-.36-.36-.16-.44a26.22,26.22,0,0,0,6.64-3.76,18.28,18.28,0,0,0,2.92-2.92c3.56,2,4.12,2.4,4.12,2.84S21.31,81.92,19.75,81.88Zm-4-4.28c0,1-.8,1.4-2.16,1.4-1.12,0-1.56-.36-1.56-1.16,0-1.16.16-2.52.16-7.24,0-2.52,0-5-.16-7.6a43,43,0,0,1,4.08,1.88H21V60.53h-4.2a14.33,14.33,0,0,0-2.4.24L14,59.29a11.77,11.77,0,0,0,2.68.32H27.87c1.64-1.76,2.12-2.08,2.4-2.08s.72.24,1.84,1a13,13,0,0,0,.84-3H14.07c.2,3-.72,5.32-2.64,5.32a1.82,1.82,0,0,1-2-2c0-.76.24-1.16,1.16-1.8,1.76-1.2,2.24-2.44,2.52-4.56a.21.21,0,0,1,.4,0A14.26,14.26,0,0,1,14,54.61h7V52.29a26.94,26.94,0,0,0-.2-3.16c4.44.36,5,.72,5,1.12s-.16.64-1.08,1v3.36h7.92c1.28-1.44,1.6-1.68,1.92-1.68s.68.24,2.28,1.76c.72.68,1,1,1,1.32,0,.48-.28.76-1.24.76a1.73,1.73,0,0,0-1.48.48A15.71,15.71,0,0,1,32.67,59c.72.56,1,.88,1,1.16s-.12.4-.52.4H24.51v4.36h5.4c1.32-1.48,1.56-1.72,1.88-1.72s.76.24,2.16,1.36c.64.52.88.8.88,1.12s-.16.48-1.08,1.12v1.76c0,4.6.08,7.76.08,8.8s-.6,1.48-2.12,1.48c-1.08,0-1.52-.32-1.52-1.2v-.16H15.79ZM21,70.48V65.81h-5.2v4.68Zm-5.2,6H21V71.4h-5.2Zm14.4-10.72H24.51v4.68h5.68Zm0,5.6H24.51v5.12h5.68Zm4,14.52c-.92,0-1.12-.08-3-2.28A14.91,14.91,0,0,0,25,79.56c-.2-.08-.16-.44,0-.44,7.8.36,11,2,11,4.8A1.84,1.84,0,0,1,34.15,85.92Z"/><path class="cls-3" d="M20.59,121.61v16.08H31v-7.44a24,24,0,0,0-.28-4.16c4.8.44,5.64.64,5.64,1.36,0,.52-.48.88-1.52,1.24v1.88c0,5,.2,8.36.2,9.48s-.76,1.64-2.36,1.64c-1.2,0-1.68-.36-1.68-1.32V138.6H6.64V140c0,1.2-.68,1.72-2.32,1.72-1.24,0-1.76-.4-1.76-1.48,0-.88.2-3.6.2-9.08a38.45,38.45,0,0,0-.2-5c4.32.36,5.44.68,5.44,1.28s-.4.8-1.36,1.24v9H16.71V121.61H8.31v.84c0,1-.72,1.48-2.4,1.48-1.2,0-1.64-.44-1.64-1.28s.24-3.12.24-8a48.12,48.12,0,0,0-.24-5.88c4.88.52,5.48.68,5.48,1.32,0,.48-.4.84-1.44,1.24v9.36h8.4v-9.84a51,51,0,0,0-.24-5.68c5.16.48,5.68,1,5.68,1.44s-.52.92-1.56,1.28v12.8h8.68v-7.56a31.25,31.25,0,0,0-.24-4.32c4.48.44,5.36.68,5.36,1.4,0,.44-.36.76-1.28,1.12v1.8c0,4.76.2,8,.2,9s-.72,1.64-2.32,1.64c-1.24,0-1.72-.44-1.72-1.32v-.88Z"/><path class="cls-3" d="M24.51,166.41c1.68-1.8,2-2,2.32-2s.72.24,2.44,1.8c.76.68,1,1,1,1.32,0,.56-.2.68-1.76,1.16A41,41,0,0,1,14.75,182.8l.08,0H28.19c1.48-1.68,1.8-1.92,2.12-1.92s.72.24,2.24,1.52c.68.6.92.88.92,1.2s-.28.6-1.12,1.16v1.88c0,4.92.16,8.28.16,9.4s-.76,1.56-2.4,1.56c-1.24,0-1.64-.36-1.64-1.4v-1H14.55v1c0,1.12-.68,1.56-2.28,1.56-1.24,0-1.68-.36-1.68-1.44,0-1.64.24-3.28.24-9.88,0-.48,0-1,0-1.48A60,60,0,0,1,1,188.56c-.2,0-.4-.4-.2-.48a52.81,52.81,0,0,0,14.64-9.36,1.7,1.7,0,0,1-.44.08c-.84,0-1.28-.52-1.68-2a9,9,0,0,0-2.52-4.56,37,37,0,0,1-8.72,5.24c-.2.08-.48-.28-.32-.4a38.17,38.17,0,0,0,10.24-11,24.06,24.06,0,0,0,2.52-5.4c4,.92,4.88,1.32,4.88,2,0,.52-.32.76-1.52,1.08-.52.92-1.08,1.76-1.64,2.6Zm-8.92.92a30.87,30.87,0,0,1-4.28,4.56c3.48.92,5.6,2.68,5.6,4.64a2.38,2.38,0,0,1-.24,1.08,43,43,0,0,0,8-10.28Zm12.88,16.44H14.55v10.52H28.47Z"/><path class="cls-3" d="M20.43,241.24c0,1.48,0,3,0,4.48h9.8c2.16-2.52,2.6-2.84,2.88-2.84s.88.32,2.88,2c.88.72,1.12,1.12,1.12,1.4s-.12.4-.52.4H20.51c0,2.4,0,4.4,0,5.4,0,1.28-.84,1.72-2.24,1.72s-1.72-.44-1.72-1.4c0-.56.08-2.48.12-5.72H5a40.61,40.61,0,0,0-4.08.24L.52,245.4a31.09,31.09,0,0,0,4.4.32h11.8v-4.48H9.59v.28c0,1.24-.8,1.64-2.16,1.64s-1.72-.4-1.72-1.28c0-1.2.2-2.68.2-7.36,0-2.16,0-4.36-.16-6.56a2,2,0,0,1-.48,0c-1.24,0-1.68-.24-1.68-1.16,0-.56.12-1.36.12-3.76,0-1.92,0-3.8-.2-5.72a32.13,32.13,0,0,1,4.08,2h5.12c1.36-1.48,1.68-1.72,2-1.72s.72.24,2,1.28c.56.48.8.76.8,1.08s-.08.48-1.08,1.28v.8c0,2.16,0,3.72,0,4.2,0,1-.56,1.4-1.92,1.4-1.12,0-1.52-.28-1.52-1.2v-.32H7.15v.4a1.22,1.22,0,0,1-.52,1.12,36.83,36.83,0,0,1,3.44,1.8H27.39c1.48-1.76,1.8-2,2.12-2s.72.24,2.32,1.64c.72.64,1,.92,1,1.24s-.28.64-1.2,1.12v1.72c0,4.48.2,7.4.2,8.4,0,1.16-.8,1.68-2.2,1.68s-1.72-.32-1.72-1.4v-.64Zm-7.4-21H7.15v5H13ZM9.59,230.41v4.36h7.12v-4.36Zm7.12,5.28H9.59v4.64h7.12ZM24,226.17c0,1-.68,1.56-2,1.56-1.08,0-1.6-.32-1.6-1.36,0-.76.16-1.6.16-4.8a31.1,31.1,0,0,0-.24-4.16,27.48,27.48,0,0,1,3.92,2h5.6c1.36-1.52,1.68-1.76,2-1.76s.72.24,2.08,1.4c.6.56.84.84.84,1.16s-.16.56-1,1.16v.8c0,2,.08,3.56.08,4,0,1.08-.64,1.52-2,1.52-1.12,0-1.52-.4-1.52-1.28v-.2Zm-3.52,8.6h7.44v-4.36H20.43Zm7.44,5.56v-4.64H20.43v4.64Zm2.32-20H24v5h6.24Z"/></g></g></svg>