<svg xmlns="http://www.w3.org/2000/svg" viewBox="0 0 187.14 75.26"><defs><style>.cls-1,.cls-2{fill:none;}.cls-2,.cls-3{stroke:#f5ab00;stroke-miterlimit:10;}.cls-3{fill:#136e9f;}.cls-4{fill:#f5ab00;}</style></defs><title>資產 51</title><g id="圖層_2" data-name="圖層 2"><g id="圖層_1-2" data-name="圖層 1"><path class="cls-1" d="M167.42,51.37q3.13,2.39,4.85,2.37a2.3,2.3,0,0,0,1.65-.72,2.25,2.25,0,0,0,.68-1.66,2.52,2.52,0,0,0-.71-1.72h-4.78a6.79,6.79,0,0,0-.57.56l-.68-.56h-2.79q.64.43,1.3.93Z"/><path class="cls-1" d="M176.2,62.42A4.43,4.43,0,0,1,174,60.36l-.29-.49q-2.13-3.67-4.64-4.11Q169.69,62.51,176.2,62.42Z"/><path class="cls-1" d="M13.22,52a2.29,2.29,0,0,0,1.65.72q1.72,0,4.85-2.37l.89-.68h-8a2.58,2.58,0,0,0-.1.66A2.24,2.24,0,0,0,13.22,52Z"/><path class="cls-1" d="M94.37,50.38a5.38,5.38,0,0,0-2-.48,3,3,0,0,0-2.1.65,2.51,2.51,0,0,0-.69,1.92,2.82,2.82,0,0,0,.92,2.14,3.17,3.17,0,0,0,2.26.87,6.3,6.3,0,0,0,5-2.81,10.26,10.26,0,0,0,1.65-3H94.71Z"/><path class="cls-1" d="M71.67,49.64H68A9.92,9.92,0,0,0,66.74,54C68.53,53.66,70.17,52.2,71.67,49.64Z"/><path class="cls-1" d="M115,49.85l.32.55q2.32,4.12,5.11,4.65a8.71,8.71,0,0,0-2.05-5.42h-3.52C114.88,49.71,114.93,49.77,115,49.85Z"/><path class="cls-1" d="M130.69,53.59a12.13,12.13,0,0,1-1.14,4.52l-1.71-.78a4.68,4.68,0,0,0,.42-1.75,2.58,2.58,0,0,0-.56-1.82,2.18,2.18,0,0,0-1.66-.6,2.45,2.45,0,0,0-1.86.8,2.75,2.75,0,0,0-.75,2,5.46,5.46,0,0,0,2.43,4.33,8.76,8.76,0,0,0,5.54,1.9A7.73,7.73,0,0,0,136.92,60a6.9,6.9,0,0,0,2.28-5.2,7,7,0,0,0-1.8-5l-.17-.17h-8.09l.11.11A5.53,5.53,0,0,1,130.69,53.59Z"/><path class="cls-1" d="M122.28,49.64h-1.42a8.61,8.61,0,0,1,.54,1.11A7.39,7.39,0,0,1,122.28,49.64Z"/><path class="cls-1" d="M13.46,58.81l-.3.49a4.42,4.42,0,0,1-2.21,2.06q6.51.09,7.15-6.66Q15.58,55.15,13.46,58.81Z"/><path class="cls-1" d="M50.23,59a7.73,7.73,0,0,0,5.51,2.16,8.76,8.76,0,0,0,5.55-1.9,5.45,5.45,0,0,0,2.43-4.33,2.75,2.75,0,0,0-.75-2,2.44,2.44,0,0,0-1.85-.8,2.18,2.18,0,0,0-1.66.6,2.58,2.58,0,0,0-.56,1.81,4.64,4.64,0,0,0,.42,1.75l-1.71.78a12.13,12.13,0,0,1-1.14-4.52,5.61,5.61,0,0,1,.76-2.9H49.07a7.38,7.38,0,0,0-1.12,4.12A6.9,6.9,0,0,0,50.23,59Z"/><path class="cls-1" d="M65.77,49.64h-.06l0,.06Z"/><path class="cls-1" d="M85.73,65.23l.64-.37q4.76-2.68,5.38-5.9Q83,59.66,83,68A5.71,5.71,0,0,1,85.73,65.23Z"/><circle class="cls-2" cx="3.01" cy="55.96" r="2.51"/><path class="cls-2" d="M66.74,54A9.92,9.92,0,0,1,68,49.64H65.77l0,.06,0-.06H57.22a5.61,5.61,0,0,0-.76,2.9,12.13,12.13,0,0,0,1.14,4.52l1.71-.78a4.64,4.64,0,0,1-.42-1.75,2.58,2.58,0,0,1,.56-1.81,2.18,2.18,0,0,1,1.66-.6,2.44,2.44,0,0,1,1.85.8,2.75,2.75,0,0,1,.75,2,5.45,5.45,0,0,1-2.43,4.33,8.76,8.76,0,0,1-5.55,1.9A7.73,7.73,0,0,1,50.23,59a6.9,6.9,0,0,1-2.28-5.2,7.38,7.38,0,0,1,1.12-4.12H43.64a8.75,8.75,0,0,0-1.2,4.59,9.45,9.45,0,0,0,3.09,7.12,10.54,10.54,0,0,0,7.53,2.93q5.13,0,10.77-4.44L65,58.93q3.46-2.72,5.38-2.72a2.55,2.55,0,0,1,1.85.78A2.5,2.5,0,0,1,73,58.83,2.87,2.87,0,0,1,72,61a3.44,3.44,0,0,1-2.41.92,4.62,4.62,0,0,1-3.33-1.73L64.8,61.45a7.9,7.9,0,0,0,7,3.91,7.3,7.3,0,0,0,5-1.7,5.45,5.45,0,0,0,2-4.3,4.54,4.54,0,0,0-1.28-3.22A6.21,6.21,0,0,0,74,54.37a6.24,6.24,0,0,0,3.36-4.14l.19-.59H71.67C70.17,52.2,68.53,53.66,66.74,54Z"/><path class="cls-2" d="M83.84,72.86a6.3,6.3,0,0,1,2.44-1.24l1.1-.35a7.21,7.21,0,0,0,4.78-3.89,7.15,7.15,0,0,0,2.05,4,5.23,5.23,0,0,0,3.72,1.48,6.3,6.3,0,0,0,5-2.26,8.41,8.41,0,0,0,2-5.73,9.12,9.12,0,0,0-4.52-8.14l-1.43,1.69a5.33,5.33,0,0,1,2,3.84A4,4,0,0,1,99.85,65a3.32,3.32,0,0,1-2.54,1.16,2.9,2.9,0,0,1-2.13-.91,3,3,0,0,1-.9-2.14q0-2.22,3.14-6.21l1.05-1.34a27.59,27.59,0,0,0,3.66-6H99.4a10.26,10.26,0,0,1-1.65,3,6.3,6.3,0,0,1-5,2.81,3.17,3.17,0,0,1-2.26-.87,2.82,2.82,0,0,1-.92-2.14,2.51,2.51,0,0,1,.69-1.92,3,3,0,0,1,2.1-.65,5.38,5.38,0,0,1,2,.48l.34-.74H84.8a5.14,5.14,0,0,0-1.05,3.18,5.28,5.28,0,0,0,.75,2.76,7,7,0,0,0,2.26,2.24,7.89,7.89,0,0,0-4.46,4Q81,64.6,81,70.19v4.57H83.2A2.6,2.6,0,0,1,83.84,72.86ZM91.74,59q-.62,3.23-5.38,5.9l-.64.37A5.71,5.71,0,0,0,83,68Q83,59.66,91.74,59Z"/><path class="cls-2" d="M33,50.48a6.18,6.18,0,0,1,2,4.69,6,6,0,0,1-6.09,6.32l0,1.69h.56a11.44,11.44,0,0,0,7.54-2.24,7.59,7.59,0,0,0,2.95-6.12,8.38,8.38,0,0,0-1.6-5.18H31.92A7.34,7.34,0,0,1,33,50.48Z"/><path class="cls-2" d="M19.72,50.32q-3.13,2.39-4.85,2.37A2.29,2.29,0,0,1,13.22,52a2.24,2.24,0,0,1-.68-1.66,2.58,2.58,0,0,1,.1-.66H7.39s0,.07,0,.11a4.06,4.06,0,0,0,1.11,2.9,5.57,5.57,0,0,0,3.07,1.64A5.59,5.59,0,0,0,8.49,58l-.28.85a4.89,4.89,0,0,1-1,1.87,2,2,0,0,1-1.48.47l0,1.68,3.54.05a16.18,16.18,0,0,0,6.49-.9,6.1,6.1,0,0,0,3.17-3.41,5.45,5.45,0,0,0,1.71,1.78,4.19,4.19,0,0,0,5.3-.79,5,5,0,0,0,1.35-3.43,10.85,10.85,0,0,0-1-4.07l-1.54.68a4.19,4.19,0,0,1,.35,1.57,2.31,2.31,0,0,1-.53,1.62,2,2,0,0,1-1.5.52,2.18,2.18,0,0,1-1.65-.74A2.47,2.47,0,0,1,20.81,54,4.89,4.89,0,0,1,23,50.11c.23-.17.46-.33.7-.47H20.62Zm-8.78,11a4.42,4.42,0,0,0,2.21-2.06l.3-.49q2.13-3.67,4.64-4.11Q17.45,61.46,10.95,61.36Z"/><circle class="cls-2" cx="184.13" cy="57.02" r="2.51"/><path class="cls-2" d="M137.39,49.81a7,7,0,0,1,1.8,5,6.9,6.9,0,0,1-2.28,5.2,7.73,7.73,0,0,1-5.51,2.15,8.76,8.76,0,0,1-5.54-1.9,5.46,5.46,0,0,1-2.43-4.33,2.75,2.75,0,0,1,.75-2,2.45,2.45,0,0,1,1.86-.8,2.18,2.18,0,0,1,1.66.6,2.58,2.58,0,0,1,.56,1.82,4.68,4.68,0,0,1-.42,1.75l1.71.78a12.13,12.13,0,0,0,1.14-4.52,5.53,5.53,0,0,0-1.45-3.85l-.11-.11h-6.85a7.39,7.39,0,0,0-.88,1.11,8.61,8.61,0,0,0-.54-1.11h-2.5a8.71,8.71,0,0,1,2.05,5.42q-2.79-.53-5.11-4.65l-.32-.55c0-.08-.09-.14-.14-.22H109.2c.08.21.17.44.25.69l.3,1a6.24,6.24,0,0,0,3.36,4.14,6.2,6.2,0,0,0-3.45,1.77,4.54,4.54,0,0,0-1.28,3.22,5.44,5.44,0,0,0,2,4.3,7.28,7.28,0,0,0,5,1.7,7.89,7.89,0,0,0,7.05-3.91l-1.46-1.23A4.62,4.62,0,0,1,117.56,63a3.45,3.45,0,0,1-2.41-.92,2.88,2.88,0,0,1-1-2.19,2.5,2.5,0,0,1,.79-1.84,2.55,2.55,0,0,1,1.85-.78q1.92,0,5.38,2.72l1.16.91q5.64,4.45,10.77,4.45a10.55,10.55,0,0,0,7.53-2.93,9.45,9.45,0,0,0,3.09-7.12,8.51,8.51,0,0,0-2-5.65h-5.53Z"/><path class="cls-2" d="M147.27,55.87A7.6,7.6,0,0,0,150.22,62a11.47,11.47,0,0,0,7.54,2.24h.56l0-1.69a6,6,0,0,1-6.09-6.32,6.19,6.19,0,0,1,2-4.69,6.82,6.82,0,0,1,3.76-1.9h-8.18A8.44,8.44,0,0,0,147.27,55.87Z"/><path class="cls-2" d="M174.61,51.36a2.25,2.25,0,0,1-.68,1.66,2.3,2.3,0,0,1-1.65.72q-1.72,0-4.85-2.37l-1-.8q-.65-.5-1.3-.93h-4.52a7.82,7.82,0,0,1,3.54,1.53A4.9,4.9,0,0,1,166.33,55a2.47,2.47,0,0,1-.65,1.76,2.18,2.18,0,0,1-1.65.74,1.93,1.93,0,0,1-1.5-.52,2.31,2.31,0,0,1-.53-1.62,4.22,4.22,0,0,1,.35-1.57l-1.54-.68a10.85,10.85,0,0,0-1,4.07,5,5,0,0,0,1.35,3.43,4.19,4.19,0,0,0,5.3.79,5.43,5.43,0,0,0,1.71-1.78A6.11,6.11,0,0,0,171.39,63a16.17,16.17,0,0,0,6.49.9l3.54-.05,0-1.68a2,2,0,0,1-1.48-.47,4.91,4.91,0,0,1-1-1.88l-.28-.85a5.59,5.59,0,0,0-3.07-3.67,5.57,5.57,0,0,0,3.07-1.64,4.06,4.06,0,0,0,1.11-2.9,5.47,5.47,0,0,0-.14-1.17H173.9A2.52,2.52,0,0,1,174.61,51.36Zm-.92,8.51.29.49a4.43,4.43,0,0,0,2.21,2.06q-6.5.09-7.15-6.66Q171.56,56.2,173.69,59.87Z"/><path class="cls-3" d="M157.95,49.64h2.61a8.44,8.44,0,0,0-1.46-.11A8,8,0,0,0,157.95,49.64Z"/><rect class="cls-4" x="3.9" y="47.05" width="181.19" height="2.96"/><path class="cls-4" d="M21.39,15c0,1.29-.07,2.58-.17,3.88,1-.24,2.07-.54,3.37-1,.17,0,.24.37.1.48-1.43.92-2.55,1.6-3.64,2.21a19,19,0,0,1-1.53,5.58,13.78,13.78,0,0,1-4.79,5.41c-.14.1-.37-.14-.27-.27a14.68,14.68,0,0,0,3-5.44,24.28,24.28,0,0,0,.78-4l-1.77.65c-.1.78-.37,1.12-.68,1.12s-.44-.17-1.36-3.84a16.4,16.4,0,0,0,2.82-.2c.37-.07.78-.1,1.16-.17.07-1.5.1-3,.1-4.45H16.4a8.5,8.5,0,0,0-1.7.2L14.32,14a8.27,8.27,0,0,0,2.07.27h3.26a27.57,27.57,0,0,0,1.5-4.86c.2-1,.34-1.94.41-2.58C24.15,7.62,25,7.92,25,8.33s-.37.54-1.05.65a29.48,29.48,0,0,1-3.43,5.27h1.22c1.09-1.53,1.5-1.8,1.73-1.8s.61.27,1.6,1.29c.41.41.68.71.68,1s-.1.34-.44.34ZM18.47,2.65A19,19,0,0,0,18.33.27c3.81.34,4.18.65,4.18,1s-.34.61-1.05.88V5.44h.44c1.16-1.53,1.46-1.8,1.7-1.8s.61.27,1.7,1.26c.44.41.71.75.71,1s-.1.34-.44.34H16.94a10,10,0,0,0-1.84.2l-.37-1.26a9.33,9.33,0,0,0,2.21.27h1.53Zm-.68,10.67c-1,0-1.26-.48-1.26-2.24a8.76,8.76,0,0,0-.92-3.64c-.1-.14.14-.31.27-.2,2.28,1.33,3.43,2.72,3.43,4.25A1.64,1.64,0,0,1,17.79,13.33Zm11.9-3.43c-.34,6-1.09,10.1-2.48,13.16a20.08,20.08,0,0,1-6.46,8.06c-.14.1-.44-.14-.34-.27a26.09,26.09,0,0,0,4.69-8.5c1.12-3.2,1.63-7.17,1.8-12.44h-.34a4.81,4.81,0,0,0-1.5.27l-.37-1.26a8,8,0,0,0,1.7.2h.54c0-1.53.07-3.16.07-4.9A25.67,25.67,0,0,0,26.83.75c3.6.41,4.11.71,4.11,1.16s-.31.61-1.05,1c0,2.28-.07,4.35-.17,6.26h1.5c1-1.26,1.26-1.46,1.53-1.46s.61.2,1.8,1.22c.51.44.65.68.65,1s-.1.34-.92,1C34,20.13,33.8,22.3,33.16,26a7.4,7.4,0,0,1-1.39,3.57,3.15,3.15,0,0,1-2.55,1.12c-.61,0-.78-.2-.82-.78,0-1.22-.71-2-2.45-2.55-.17-.07-.17-.44,0-.41a26.82,26.82,0,0,0,3,.31c1,0,1.09-.31,1.5-2.31.68-3.2.92-8.4,1.05-15.09Zm8.36-7A18.59,18.59,0,0,0,37.88.2c3.77.34,4.08.68,4.08,1S41.65,1.8,41,2v3.4h.61c1.16-1.56,1.46-1.84,1.7-1.84s.65.27,1.77,1.29c.44.41.71.75.71,1s-.1.34-.44.34H36.32a9.36,9.36,0,0,0-1.8.2l-.37-1.26a8.31,8.31,0,0,0,2.07.27h1.84Zm3,18h.44c1-1.53,1.43-1.8,1.67-1.8s.65.27,1.77,1.29c.44.41.71.71.71,1s-.1.34-.44.34H41v2.89c0,3.06.17,4.79.17,5.64s-.58,1.26-1.9,1.26c-.92,0-1.36-.31-1.36-.92s.1-2.11.1-5.27v-3.6H36.79a10,10,0,0,0-1.84.2l-.37-1.26a8.52,8.52,0,0,0,2.11.27h1.36V15h-1.5a10.06,10.06,0,0,0-1.84.2L34.35,14a8.52,8.52,0,0,0,2.11.27h3.26a45.23,45.23,0,0,0,1.46-6.12c.07-.44.14-.92.17-1.36C44.27,8,45,8.33,45,8.74s-.31.44-1.09.44a28,28,0,0,1-3.26,5.07h1.67c1.05-1.5,1.46-1.77,1.7-1.77s.65.27,1.7,1.22c.44.44.71.75.71,1s-.1.34-.44.34H41Zm-3.6-7.48c-1,0-1.33-.65-1.33-1.94a9,9,0,0,0-.92-4c-.07-.14.14-.31.27-.2,2.24,1.33,3.47,2.89,3.47,4.39A1.62,1.62,0,0,1,37.44,13.39Z"/><path class="cls-4" d="M62.43,20.77c1.67-.58,3.3-1.19,4.59-1.73.17-.07.34.27.2.37a40.08,40.08,0,0,1-9.45,6c0,1.09-.24,1.46-.71,1.46s-.92-.75-2.31-4.08a27.58,27.58,0,0,0,3-.65c.51-.14,1.05-.27,1.6-.44V13h-1.5a10.09,10.09,0,0,0-1.87.2l-.37-1.26a9.22,9.22,0,0,0,2.18.27h1.56V4.15h-1.9a10.09,10.09,0,0,0-1.87.2l-.37-1.26a8.77,8.77,0,0,0,2.14.27h4.79C63.35,1.8,63.76,1.53,64,1.53s.68.27,2,1.29c.54.44.82.75.82,1s-.1.34-.44.34H62.43v8.06h.27c1-1.39,1.36-1.67,1.6-1.67s.65.27,1.7,1.19c.41.37.68.68.68.92s-.1.34-.44.34H62.43Zm15.06.75h2.35c1.77-2,2.18-2.24,2.41-2.24s.68.27,2.24,1.56c.68.58,1,.88,1,1.12s-.1.34-.44.34H77.49v6.29h3.67c1.94-2,2.35-2.31,2.58-2.31s.68.27,2.31,1.63c.71.58,1,.88,1,1.12s-.1.34-.44.34H66.31a14,14,0,0,0-2.21.2l-.37-1.26a11.7,11.7,0,0,0,2.48.27h8.23V22.3h-5a13.28,13.28,0,0,0-2.14.2L67,21.25a11.12,11.12,0,0,0,2.41.27h5.07V15.91H70.52v.85c0,.85-.58,1.19-1.94,1.19-1,0-1.36-.34-1.36-1.19,0-1.09.2-3.57.2-9.76,0-2.07,0-3.13-.2-6.26a34.29,34.29,0,0,1,3.54,1.77H81.5C82.62,1.22,82.9,1,83.17,1s.65.2,2,1.29c.61.51.82.75.82,1s-.31.65-1.22,1.19v2c0,5.2.14,8.77.14,10,0,.88-.54,1.26-1.94,1.26-.88,0-1.26-.31-1.26-1.09v-.71H77.49ZM74.43,8.7V3.3H70.52V8.7Zm0,6.43V9.49H70.52v5.64ZM81.71,8.7V3.3H77.49V8.7Zm0,6.43V9.49H77.49v5.64Z"/><path class="cls-4" d="M113.16,20.67c0,1.26,0,2.55,0,3.81h8.33c1.84-2.14,2.21-2.41,2.45-2.41s.75.27,2.45,1.67c.75.61,1,1,1,1.19s-.1.34-.44.34h-13.7c0,2,0,3.74,0,4.59,0,1.09-.71,1.46-1.9,1.46s-1.46-.37-1.46-1.19c0-.48.07-2.11.1-4.86h-9.93a34.36,34.36,0,0,0-3.47.2l-.37-1.26a26.43,26.43,0,0,0,3.74.27h10V20.67h-6.05v.24c0,1.05-.68,1.39-1.84,1.39s-1.46-.34-1.46-1.09c0-1,.17-2.28.17-6.25,0-1.84,0-3.71-.14-5.58a1.64,1.64,0,0,1-.41,0c-1.05,0-1.43-.2-1.43-1,0-.48.1-1.16.1-3.2,0-1.63,0-3.23-.17-4.86a27.16,27.16,0,0,1,3.47,1.7h4.35C107.75.82,108,.61,108.3.61s.61.2,1.7,1.09c.48.41.68.65.68.92s-.07.41-.92,1.09v.68c0,1.84,0,3.16,0,3.57,0,.85-.48,1.19-1.63,1.19-1,0-1.29-.24-1.29-1V7.85h-5v.34a1,1,0,0,1-.44,1,31.56,31.56,0,0,1,2.92,1.53h14.72c1.26-1.5,1.53-1.7,1.8-1.7s.61.2,2,1.39c.61.54.82.78.82,1.05s-.24.54-1,1v1.46c0,3.81.17,6.29.17,7.14s-.68,1.43-1.87,1.43-1.46-.27-1.46-1.19v-.54ZM106.87,2.86h-5V7.07h5Zm-2.92,8.6v3.71H110V11.46ZM110,15.94h-6.05v3.94H110Zm6.15-8.09c0,.88-.58,1.33-1.7,1.33-.92,0-1.36-.27-1.36-1.16,0-.65.14-1.36.14-4.08A26.4,26.4,0,0,0,113,.41a23.32,23.32,0,0,1,3.33,1.67h4.76c1.16-1.29,1.43-1.5,1.7-1.5s.61.2,1.77,1.19c.51.48.71.71.71,1s-.14.48-.88,1v.68c0,1.73.07,3,.07,3.4,0,.92-.54,1.29-1.73,1.29-1,0-1.29-.34-1.29-1.09V7.85Zm-3,7.31h6.32V11.46h-6.32Zm6.32,4.73V15.94h-6.32v3.94Zm2-17h-5.3V7.07h5.3Z"/><path class="cls-4" d="M140.26,13.33a27.57,27.57,0,0,1-3.67,3.77c-.14.1-.44-.2-.34-.34a36.73,36.73,0,0,0,5.3-11.25A29,29,0,0,0,142.71,0c3.64,1.12,4.49,1.46,4.49,1.87s-.34.61-1.22.78a41.66,41.66,0,0,1-3.81,8c1.77.31,2,.44,2,.78s-.2.48-.88.78V29.85c0,1-.58,1.43-1.77,1.43s-1.46-.34-1.46-1.33.2-3.54.2-8.91Zm15.4,15.23a113.86,113.86,0,0,0,3.2-13.05A37.76,37.76,0,0,0,159.4,11c5,1.46,5,1.46,5,2s-.31.65-1.5.88c-2.52,7.31-3.88,10.71-6.22,14.65h5.78c1.84-2.38,2.24-2.65,2.48-2.65s.65.27,2.45,1.84c.78.71,1.05,1,1.05,1.26s-.1.34-.44.34H147.12a19.14,19.14,0,0,0-2.58.2l-.37-1.26a15.67,15.67,0,0,0,2.86.27ZM153.82,3.91a34.15,34.15,0,0,0-.17-3.54c4.15.41,4.56.78,4.56,1.16s-.41.58-1.16.92V8.4H162c1.6-2,2-2.31,2.24-2.31s.68.27,2.31,1.63c.71.58,1,.88,1,1.12s-.1.34-.44.34H148a12.88,12.88,0,0,0-2.11.2l-.37-1.26A11.71,11.71,0,0,0,148,8.4h5.85Zm-2.35,21c-1,0-1.46-.54-1.5-1.77a34.22,34.22,0,0,0-1.73-11.29c-.07-.17.27-.31.37-.17,3.23,3.47,5,7,5,10C153.65,23.53,152.73,24.89,151.48,24.89Z"/></g></g></svg>