<svg xmlns="http://www.w3.org/2000/svg" viewBox="0 0 353.88 271"><defs><style>.cls-1{fill:#f5ab00;stroke:#f4f0e3;stroke-width:2px;}.cls-1,.cls-2{stroke-miterlimit:10;}.cls-2{fill:none;stroke:#1d2b53;}.cls-3{fill:#1d2b53;}</style></defs><title>資產 38</title><g id="圖層_2" data-name="圖層 2"><g id="圖層_1-2" data-name="圖層 1"><rect class="cls-1" x="1" y="1" width="351.88" height="269" rx="30.46" ry="30.46"/><line class="cls-2" x1="309.82" y1="194.5" x2="47.82" y2="194.5"/><path class="cls-3" d="M72.62,65.54c2.17-2.91,2.26-3,2.57-3s.4,0,2.11,1.68c1.22,1.16,1.31,1.31,1.31,1.56s-.15.34-.4.34H65.89c0,5.63.15,7.43.15,8,0,.92-.95,1.38-2.75,1.38-1.25,0-1.53-.28-1.53-1.1,0-.64.15-2.57.15-8.29H54.21c-1.07,0-2.26.06-4,.21l-.31-1c2,.15,3.24.21,4.31.21h7.71c0-3.67,0-5-.06-5.66h-4.1v.92c0,.89-.76,1.28-2.57,1.28-1.07,0-1.35-.21-1.35-1,0-.55.09-3,.09-7.25,0-2.69,0-4.59-.09-5.84,3.39.67,4.25,1,4.46,1.28H69.38c1.53-1.68,1.65-1.74,2-1.74s.43,0,2,1.22c1.25.95,1.35,1.07,1.35,1.38s-.12.31-.86.92v2.75c0,4.59.15,5.87.15,6.42,0,.89-.95,1.38-2.69,1.38-1.22,0-1.47-.18-1.47-1.07v-.67H66.56c0,.21-.24.37-.67.58v5.08ZM58.25,49.91a3.14,3.14,0,0,1-.49.34v4H69.83V49.91Zm-.49,9.36H69.83V54.83H57.76Z"/><path class="cls-3" d="M89.7,66a7,7,0,0,1,2,4.83,2.93,2.93,0,0,1-3,3.15,2,2,0,0,1-2-1.83,2.28,2.28,0,0,1,1-2,4.46,4.46,0,0,0,1.74-4.07C89.46,65.9,89.58,65.9,89.7,66Zm19.05-1.59c1.44-1.5,1.56-1.56,1.8-1.56s.52.06,2,1.31c1.28,1.07,1.35,1.22,1.35,1.53s-.12.46-1,1c-.34,4.43-1,6.51-2,7.52a4.93,4.93,0,0,1-3.79,1.41c-.79,0-1-.12-1.13-.73-.34-1.34-.83-1.93-3.06-2.66-.18-.06-.18-.34,0-.34,1.65,0,2.35,0,3.27-.06a2.12,2.12,0,0,0,2-1c.61-1.16.83-2.84.89-5.81H94.84c0,.67-.64,1.28-2.48,1.28-1.1,0-1.44-.34-1.44-1,0-.37.12-7.06.12-11.13,0-2.6,0-3.18-.12-4.43A17.67,17.67,0,0,1,95.12,51c.18-1,.34-1.87.46-3.09a8.07,8.07,0,0,0,.09-1.16c4.22.67,5.2.89,5.2,1.32s-.24.55-1.35.89c-.89.76-1.65,1.44-2.51,2.14h7.46c1.62-1.77,1.77-1.87,2.08-1.87s.55.09,1.93,1.1c1.19.86,1.35,1.07,1.35,1.31s-.06.37-.79,1v2.63c0,1.59.12,2.87.12,3.46,0,1-1,1.32-2.72,1.32-1.25,0-1.47-.25-1.47-.92v-.37H94.84v2.63h13.73c1.87-2.2,2-2.32,2.23-2.32s.4,0,1.47,1c1.35,1.22,1.47,1.38,1.47,1.62a.27.27,0,0,1-.31.31H94.84v2.45ZM97.5,70.73a2.22,2.22,0,0,1-2.23,2.42,1.58,1.58,0,0,1-1.68-1.65A12.65,12.65,0,0,1,93.71,70a4,4,0,0,0-.83-3c-.12-.12,0-.25.15-.21C95.58,67.1,97.5,68.81,97.5,70.73ZM95.27,51.65a3.46,3.46,0,0,1-.43.28v2.63H105V51.65ZM105,58.14v-3H94.84v3Zm-2.23,11.77A2,2,0,0,1,100.62,72,1.64,1.64,0,0,1,99,70.15a4.28,4.28,0,0,0-1.56-3.7c-.15-.09-.06-.24.12-.24C101,66.48,102.73,68.14,102.73,69.91Zm-.37-3.7c-.15-.09-.12-.25.06-.25,3.7-.15,5.29,1.16,5.29,2.88a1.94,1.94,0,0,1-1.93,1.93,1.39,1.39,0,0,1-1.5-1.34A4,4,0,0,0,102.36,66.21Z"/><path class="cls-3" d="M132.84,70.12a27.3,27.3,0,0,1-9.82,5c-.18,0-.31-.21-.15-.31a17.93,17.93,0,0,0,6-5.84,14.74,14.74,0,0,0,1.25-2.14c3.85,2.08,4,2.29,4,2.66S133.91,70,132.84,70.12Zm-4.25-20.24a42.09,42.09,0,0,0-4.68.21l-.28-1a48.35,48.35,0,0,0,5,.21h17c2.11-2.51,2.17-2.54,2.48-2.54s.4,0,1.87,1.35c1.19,1.07,1.28,1.19,1.28,1.47a.29.29,0,0,1-.34.34h-8.68c0,.15-.24.31-.46.46v2.84H144c1.53-1.71,1.62-1.77,1.9-1.77s.49.06,2,1.19c1.07.83,1.13.92,1.13,1.22s-.06.37-.89,1v.64c0,1.19.15,3.09.15,3.39,0,.86-.73,1.41-2.45,1.41-1.25,0-1.47-.25-1.47-1.1v-.09H130.09c-.06,1.13-.79,1.5-2.32,1.5-1,0-1.19-.18-1.19-1.07,0-.37.12-2,.12-3.49s0-3.06-.09-4.28c3.18.76,4,1,4.16,1.41h1.83v-3.3Zm17.09,15.56c2.08-2.57,2.17-2.63,2.45-2.63s.37,0,2,1.53c1.07.95,1.16,1.07,1.16,1.28s-.12.43-.58.43H140c0,.21-.09.43-.58.7v1.07c0,2,.18,2.91.18,4.22A3,3,0,0,1,138,75a4.43,4.43,0,0,1-2.38.61c-.61,0-.86,0-1.13-.86-.34-1-1-1.8-2.87-2.35a.15.15,0,0,1,0-.31,18.05,18.05,0,0,0,2.66-.09c1-.09,1.35-.4,1.35-1.77V68.41c0-.95,0-1.56-.06-2.35h-7.12c-1.1,0-2.51.06-4.19.21l-.28-1a34.56,34.56,0,0,0,4.46.21ZM141.13,62c1.8-2.2,1.9-2.26,2.14-2.26s.34,0,1.68,1.25c1,.89,1.13,1,1.13,1.28s-.21.34-.46.34H132c-.7,0-2,.06-3.46.21l-.31-1c1.5.15,2.87.21,3.76.21Zm-8.53-8.26h-2a4.29,4.29,0,0,1-.52.43V58.5h2.51Zm3.76-3.91c0,.12-.24.28-.46.43v2.88h2.51v-3.3Zm-.46,8.62h2.51V53.79H135.9ZM149.42,72a2,2,0,0,1-2,2.14c-.89,0-1.41-.4-2-1.56a9.66,9.66,0,0,0-5-4.65.16.16,0,0,1,.06-.31C145.9,67.43,149.42,69.54,149.42,72Zm-7.64-18.19V58.5h2.54V53.79Z"/><path class="cls-3" d="M83.24,151.72l-.56,1.92a4.57,4.57,0,0,0-2.66,1,8.42,8.42,0,0,0-1.85,3.76l-6.7,21.77H68.82L59.29,159,54.9,173.42a8.67,8.67,0,0,0-.44,2.12,2,2,0,0,0,1.07,1.94,5.12,5.12,0,0,0,2.34.54l-.6,1.91H47.82L48.4,178a3.89,3.89,0,0,0,2.83-1.69,13.47,13.47,0,0,0,1.56-3.6L57.87,156l-.46-.77a3.2,3.2,0,0,0-1.31-1.37,7.4,7.4,0,0,0-2.37-.25l.6-1.92H62l9.45,21,4.06-13.25c.08-.29.19-.65.33-1.07s.25-.82.34-1.19a4.36,4.36,0,0,0,.14-1,2.49,2.49,0,0,0-.79-1.74,3.73,3.73,0,0,0-2.75-.82l.6-1.92Z"/><path class="cls-3" d="M115.4,151.72l-2.46,8.1h-2a10.86,10.86,0,0,0,.19-1.92q0-2.68-1.18-3.4a5.7,5.7,0,0,0-3-.72H104.5l-6.26,20.41a6.62,6.62,0,0,0-.37,1.83,1.59,1.59,0,0,0,.86,1.58,3.91,3.91,0,0,0,1.72.42h1l-.6,1.91h-14l.56-1.91h.69a4.78,4.78,0,0,0,2.86-.6,5.21,5.21,0,0,0,1.3-2.52l6.45-21.12H96.63a8.15,8.15,0,0,0-4.11,1.11q-1.95,1.11-3.63,4.92h-2l2.48-8.1Z"/><path class="cls-3" d="M119,177.82a2.77,2.77,0,0,1-2.73,2.73,2.55,2.55,0,0,1-1.89-.81,2.65,2.65,0,0,1-.79-1.91,2.68,2.68,0,0,1,.35-1.36,2.6,2.6,0,0,1,1-1,2.78,2.78,0,0,1,3.29.43A2.55,2.55,0,0,1,119,177.82Z"/><path class="cls-3" d="M179.74,128.37a3.77,3.77,0,0,1-.87,2.56,3.16,3.16,0,0,1-2.52,1,3.68,3.68,0,0,1-2.11-.63,9.2,9.2,0,0,1-2.15-2.41,15.25,15.25,0,0,0-2.37-3,3.69,3.69,0,0,0-2.37-.65q-3,0-6.13,3.89t-7.3,13.32a16.77,16.77,0,0,1,6.52-1.52,11.45,11.45,0,0,1,4.8,1,10.67,10.67,0,0,1,3.76,2.85,13.24,13.24,0,0,1,2.41,4.32,16.68,16.68,0,0,1,.85,5.43,29.89,29.89,0,0,1-1.43,8.91,30.82,30.82,0,0,1-4.37,8.73,22.87,22.87,0,0,1-7.3,6.65,19.58,19.58,0,0,1-10,2.52,11.34,11.34,0,0,1-11.39-7.47,18.51,18.51,0,0,1-1.22-6.61,52.5,52.5,0,0,1,1.85-11.56A71.73,71.73,0,0,1,144.5,140a45,45,0,0,1,10-13.17q6-5.34,15.43-5.34,5.78,0,7.82,2.3A7,7,0,0,1,179.74,128.37Zm-16,20.9a5.45,5.45,0,0,0-1.17-3.28,4.49,4.49,0,0,0-3.87-1.59,6.48,6.48,0,0,0-5.15,2.43,26,26,0,0,0-3.93,7.17q-5.08,12.91-5.08,18a6.17,6.17,0,0,0,1.26,4.13,4.43,4.43,0,0,0,3.56,1.48,5.91,5.91,0,0,0,4.43-1.69,10,10,0,0,0,2.13-2.87q.82-1.65,2.74-6.63t3.5-10.08A29,29,0,0,0,163.71,149.28Z"/><path class="cls-3" d="M223.25,134.8A50.1,50.1,0,0,1,221.67,146a72.15,72.15,0,0,1-5,14,62.88,62.88,0,0,1-8.6,13.51,24.92,24.92,0,0,1-6.89,5.54,18.75,18.75,0,0,1-9.32,2.33,12.26,12.26,0,0,1-5.89-1.28,8.5,8.5,0,0,1-3.43-3.11,6.74,6.74,0,0,1-1.06-3.35,3.91,3.91,0,0,1,1.2-3,4.09,4.09,0,0,1,2.89-1.11,3.31,3.31,0,0,1,2.35.85,11.49,11.49,0,0,1,2.09,3.45,16.16,16.16,0,0,0,1.59,2.7,2.39,2.39,0,0,0,2,.78q3.08,0,6.06-4.76a108.9,108.9,0,0,0,6.5-12.54,33.77,33.77,0,0,1-3.56,1.3,10.25,10.25,0,0,1-2.65.3,12.65,12.65,0,0,1-6-1.43,10.78,10.78,0,0,1-4.45-4.63,16.8,16.8,0,0,1-1.72-8A27.79,27.79,0,0,1,189.2,139a30,30,0,0,1,4.41-8.58,22.89,22.89,0,0,1,7.3-6.5,19.53,19.53,0,0,1,9.78-2.46,14.89,14.89,0,0,1,5.17.85,10.7,10.7,0,0,1,3.93,2.48,11.13,11.13,0,0,1,2.54,4.13A17,17,0,0,1,223.25,134.8Zm-7.91-5.35a4.24,4.24,0,0,0-1.24-3.19,4.71,4.71,0,0,0-3.41-1.2q-4.82,0-7.56,5.35a82.08,82.08,0,0,0-4.61,12.38q-2.22,7.48-2.22,10.21a5.13,5.13,0,0,0,1.26,3.65,4.59,4.59,0,0,0,3.52,1.35,6.92,6.92,0,0,0,3.46-1,8.48,8.48,0,0,0,2.89-2.69,21.13,21.13,0,0,0,1.7-3.09,37.7,37.7,0,0,0,1.46-3.89q.72-2.24,3.15-10.37A31.09,31.09,0,0,0,215.34,129.46Z"/><path class="cls-3" d="M269.2,135.93a64.35,64.35,0,0,1-1.56,12.32,78.3,78.3,0,0,1-4.8,15.17,38.23,38.23,0,0,1-8.67,12.73,17.73,17.73,0,0,1-12.65,5.19q-7.65,0-10.15-4.82a21.88,21.88,0,0,1-2.5-10.21A65.55,65.55,0,0,1,231.3,151a68.69,68.69,0,0,1,7.26-17.82,31.38,31.38,0,0,1,4.11-5.45,21.32,21.32,0,0,1,6-4.41,17.7,17.7,0,0,1,8.15-1.83,11.87,11.87,0,0,1,6.63,1.67,10.92,10.92,0,0,1,3.82,4.19,15.63,15.63,0,0,1,1.61,4.67A26.14,26.14,0,0,1,269.2,135.93Zm-8.13-6a5.27,5.27,0,0,0-1.13-3.43,3.91,3.91,0,0,0-3.22-1.39,6.46,6.46,0,0,0-5,2.39,17.54,17.54,0,0,0-3,4.48,126.79,126.79,0,0,0-5,13.15q-3,8.84-5,16.69t-2.09,10.32a8.59,8.59,0,0,0,.91,3.54q.91,2,3.91,2,4.83,0,8-7.74,1.17-2.87,3.26-9.23t4-12.69q1.89-6.32,3.15-11.39A35.92,35.92,0,0,0,261.07,130Z"/><path class="cls-3" d="M163.31,76.55l12.06-29.08,1,.34L164.27,76.92Z"/><path class="cls-3" d="M207.18,70.1c2-2.6,2.11-2.64,2.42-2.64s.4,0,2,1.52c1.12,1,1.21,1.18,1.21,1.43a.3.3,0,0,1-.34.31H200c.06,2.48.12,4.4.12,4.78,0,.93-.84,1.33-2.45,1.33-1.36,0-1.64-.16-1.64-1.15,0-.4.06-2.42.12-5h-7.84a29.81,29.81,0,0,0-3.69.22l-.31-1.05c1.61.16,3,.22,4,.22h7.88c0-1.15,0-2.36,0-3.53h-4.16v.93c0,.9-.71,1.3-2.29,1.3-1.09,0-1.36-.19-1.36-1,0-.56.09-4.16.09-6.29,0-2.95,0-3.81-.09-5.08,2.88.62,3.84.93,4.15,1.18h11.29c1.55-1.52,1.71-1.61,2-1.61s.5.06,1.58.84c1.43,1,1.58,1.21,1.58,1.49s-.09.4-1,1.08v1.67c0,2.82.16,5,.16,5.52,0,.9-1,1.4-2.39,1.4s-1.52-.19-1.52-1.08v-.37H200c0,1.21,0,2.42,0,3.53ZM190.06,54.94c0,.9-.78,1.27-2.08,1.27-1.05,0-1.27-.19-1.27-1s.12-1.77.12-3.19a32.37,32.37,0,0,0-.16-4c2.85.68,3.81,1.05,4.06,1.33h2.51c1.21-1.46,1.33-1.52,1.61-1.52s.4.06,1.86,1.18c1,.78,1.05.93,1.05,1.15s-.09.37-.84,1v1.12c0,1.52.09,2.11.09,2.29,0,.9-.93,1.27-2.29,1.27-1,0-1.15-.19-1.15-1v-.22h-3.53Zm3.53-.87V50h-3a3.12,3.12,0,0,1-.53.34v3.72Zm-1.05,4.19a2.33,2.33,0,0,1-.43.34v3.13h4.16V59.66c0-.53,0-1-.06-1.4Zm-.43,7.69h4.16v-3.6h-4.16ZM202.56,55c0,.9-.81,1.27-2.14,1.27-1.05,0-1.27-.19-1.27-1,0-.28.06-2,.06-3.5a26.51,26.51,0,0,0-.16-3.69,17.11,17.11,0,0,1,4,1.24H206c1.24-1.46,1.36-1.52,1.64-1.52s.43,0,1.92,1.21c1,.77,1.09.9,1.09,1.15s-.06.34-.84,1v1.12c0,1,.09,2.2.09,2.39,0,.9-.9,1.27-2.39,1.27-1,0-1.18-.19-1.18-1v-.31h-3.81ZM200,61.73h4.31V58.26h-3.69c0,.31-.19.5-.62.81Zm4.31,4.22v-3.6H200v3.6Zm2-11.88V50h-3.29a3.08,3.08,0,0,1-.53.34v3.72Z"/><path class="cls-3" d="M237.31,51.22A27.73,27.73,0,0,0,240.38,64a23,23,0,0,0,10,8.68c.19.06.19.28,0,.31a6.75,6.75,0,0,0-4,2.48c-.37.5-.56.59-.81.59a1.75,1.75,0,0,1-1-.43,17.05,17.05,0,0,1-6.7-10c-.68-3.22-.87-4.77-.9-11.69l-.15.09c-.4,8.28-2.2,12.34-5.15,15.94a21.31,21.31,0,0,1-10.17,6.6c-.19.06-.34-.22-.19-.31a18.81,18.81,0,0,0,7.6-7.44c2.26-3.69,3.84-9.71,3.84-16.81a30.15,30.15,0,0,0-.15-4.19c5.18.65,5.89,1.12,5.89,1.49s-.22.68-1.18,1.27Z"/><path class="cls-3" d="M221.84,220.37h-4.92v9h-1.66V213.67h6.57Zm-4.92-5.29v1.28h3.35v-1.28Zm3.35,3.92v-1.4h-3.35V219Zm9.83,8.26c0,1-.23,1.55-.92,1.84a11.07,11.07,0,0,1-3.47.31,6,6,0,0,0-.59-1.73c1.19.05,2.45,0,2.81,0s.47-.13.47-.45v-6.88h-5.08v-6.72h6.79Zm-5.19-12.19v1.28h3.47v-1.28Zm3.47,4v-1.44h-3.47V219Z"/><path class="cls-3" d="M239.71,225.82a14.24,14.24,0,0,1-4.14,3.26c-.29-.27-.9-.85-1.24-1.1a11.48,11.48,0,0,0,3.83-2.7Zm10.75-2.2V225h-7.22v4.47h-1.66V225h-7.15v-1.35Zm-10.87-8.71h-4.92v-1.35h15.45v1.35h-5v1.19h4.09v4.23h-13.5V216.1h3.87Zm-3,7.71V221.3h11.7v1.31Zm.68-3.55h2.3v-1.73h-2.3Zm6.27-4.16h-2.41v1.19h2.41Zm-2.41,4.16h2.41v-1.73h-2.41Zm5,6.27a27.8,27.8,0,0,1,4.23,2.74L249,229a25,25,0,0,0-4.14-2.84Zm-1-8v1.73h2.43v-1.73Z"/><path class="cls-3" d="M268.71,222H263v5.74h-1.51V222h-5.73v-1.49h5.73v-5.73H263v5.73h5.73Z"/><path class="cls-3" d="M287.31,227.5c1.06,0,1.22-.43,1.37-2.45a5.66,5.66,0,0,0,1.64.68c-.25,2.56-.81,3.4-2.9,3.4h-4.3c-2.38,0-3-.59-3-2.83v-1.89l-5.73.76-.23-1.64,6-.76v-2.41l-5.15.7-.23-1.6,5.38-.72v-2.39c-1.76.31-3.55.59-5.26.81a6.1,6.1,0,0,0-.5-1.5c4.43-.56,9.42-1.53,12.24-2.7l1.4,1.35A39.18,39.18,0,0,1,281.8,216v2.48l6.64-.9.23,1.57-6.88,1v2.45l7.81-1,.23,1.57-8,1.06v2.12c0,1,.2,1.17,1.42,1.17Z"/><path class="cls-3" d="M308.94,224.88c0,.92-.22,1.42-.9,1.67a10,10,0,0,1-3.35.31,7.12,7.12,0,0,0-.65-1.64c1.17,0,2.38,0,2.72,0s.43-.11.43-.42v-6.68H302.8v11.27H301V218.17h-4.25v8.71H295V216.48h6v-3.58h1.82v3.58h6.14Z"/></g></g></svg>