<svg xmlns="http://www.w3.org/2000/svg" xmlns:xlink="http://www.w3.org/1999/xlink" viewBox="0 0 390 307"><defs><style>.cls-1{isolation:isolate;}.cls-2{opacity:0.65;mix-blend-mode:multiply;}.cls-3{fill:#f5ab00;}.cls-4,.cls-5{fill:none;stroke-miterlimit:10;}.cls-4{stroke:#f4f0e3;stroke-width:2px;}.cls-5{stroke:#1d2b53;}.cls-6{fill:#1d2b53;}</style></defs><title>資產 41</title><g class="cls-1"><g id="圖層_2" data-name="圖層 2"><g id="圖層_1-2" data-name="圖層 1"><image class="cls-2" width="390" height="307" xlink:href="資產 411.png"/><rect class="cls-3" x="19" y="19" width="351.88" height="269" rx="30.46" ry="30.46"/><rect class="cls-4" x="19" y="19" width="351.88" height="269" rx="30.46" ry="30.46"/><line class="cls-5" x1="327.82" y1="212.5" x2="65.82" y2="212.5"/><path class="cls-6" d="M101.24,169.72l-.56,1.92a4.57,4.57,0,0,0-2.66,1,8.42,8.42,0,0,0-1.85,3.76l-6.7,21.77H86.82L77.29,177,72.9,191.42a8.67,8.67,0,0,0-.44,2.12,2,2,0,0,0,1.07,1.94,5.12,5.12,0,0,0,2.34.54l-.6,1.91H65.82L66.4,196a3.89,3.89,0,0,0,2.83-1.69,13.47,13.47,0,0,0,1.56-3.6L75.87,174l-.46-.77a3.2,3.2,0,0,0-1.31-1.37,7.4,7.4,0,0,0-2.37-.25l.6-1.92H80l9.45,21,4.06-13.25c.08-.29.19-.65.33-1.07s.25-.82.34-1.19a4.36,4.36,0,0,0,.14-1,2.49,2.49,0,0,0-.79-1.74,3.73,3.73,0,0,0-2.75-.82l.6-1.92Z"/><path class="cls-6" d="M133.4,169.72l-2.46,8.1h-2a10.86,10.86,0,0,0,.19-1.92q0-2.68-1.18-3.4a5.7,5.7,0,0,0-3-.72H122.5l-6.26,20.41a6.62,6.62,0,0,0-.37,1.83,1.59,1.59,0,0,0,.86,1.58,3.91,3.91,0,0,0,1.72.42h1l-.6,1.91h-14l.56-1.91h.69a4.78,4.78,0,0,0,2.86-.6,5.21,5.21,0,0,0,1.3-2.52l6.45-21.12h-2.12a8.15,8.15,0,0,0-4.11,1.11q-1.95,1.11-3.63,4.92h-2l2.48-8.1Z"/><path class="cls-6" d="M137,195.82a2.77,2.77,0,0,1-2.73,2.73,2.55,2.55,0,0,1-1.89-.81,2.65,2.65,0,0,1-.79-1.91,2.68,2.68,0,0,1,.35-1.36,2.6,2.6,0,0,1,1-1,2.78,2.78,0,0,1,3.29.43A2.55,2.55,0,0,1,137,195.82Z"/><path class="cls-6" d="M193.09,152.41a20.16,20.16,0,0,1-2.11,9.1,32,32,0,0,1-6.21,8.32,85.11,85.11,0,0,1-8.47,7.41q-4.37,3.33-17.19,12.49H183l-3.48,11h-4a3,3,0,0,0,.35-1.35q0-1.39-2.13-1.39H149.85l1.78-5.87q3.22-2.74,5.19-4.52t5.06-4.61q3.08-2.83,6.06-5.74t5.58-5.69a43.2,43.2,0,0,0,6.74-9.67,22.1,22.1,0,0,0,2.69-10,10.42,10.42,0,0,0-.89-4.32,6.91,6.91,0,0,0-2.65-3.09,8,8,0,0,0-4.37-1.11q-3.87,0-5.71,1.82a5.58,5.58,0,0,0-1.85,4q0,2.48,2.56,5,.35.35.67.72a1.07,1.07,0,0,1,.33.54q0,.43-1.26,1.17l-3,1.69a3.42,3.42,0,0,1-1.78.52q-1.17,0-2.89-2.32a8.59,8.59,0,0,1-1.72-5.24,10.14,10.14,0,0,1,1.85-5.71,13,13,0,0,1,5.48-4.46,20.36,20.36,0,0,1,8.67-1.69q8.21,0,12.43,3.65A11.71,11.71,0,0,1,193.09,152.41Z"/><path class="cls-6" d="M239.13,153.93a64.35,64.35,0,0,1-1.56,12.32,78.29,78.29,0,0,1-4.8,15.17,38.23,38.23,0,0,1-8.67,12.73,17.74,17.74,0,0,1-12.65,5.19q-7.65,0-10.15-4.82a21.89,21.89,0,0,1-2.5-10.21,65.55,65.55,0,0,1,2.43-15.3,68.76,68.76,0,0,1,7.26-17.82,31.39,31.39,0,0,1,4.11-5.45,21.31,21.31,0,0,1,6-4.41,17.71,17.71,0,0,1,8.15-1.83,11.87,11.87,0,0,1,6.63,1.67,10.91,10.91,0,0,1,3.82,4.19,15.6,15.6,0,0,1,1.61,4.67A26,26,0,0,1,239.13,153.93ZM231,148a5.27,5.27,0,0,0-1.13-3.43,3.91,3.91,0,0,0-3.22-1.39,6.46,6.46,0,0,0-5,2.39,17.5,17.5,0,0,0-3,4.48,126.33,126.33,0,0,0-5,13.15q-3,8.84-5,16.69t-2.09,10.32a8.6,8.6,0,0,0,.91,3.54q.91,2,3.91,2,4.82,0,8-7.74,1.17-2.87,3.26-9.23t4-12.69q1.89-6.32,3.15-11.39A36,36,0,0,0,231,148Z"/><path class="cls-6" d="M284.53,153.93A64.35,64.35,0,0,1,283,166.25a78.23,78.23,0,0,1-4.8,15.17,38.22,38.22,0,0,1-8.67,12.73,17.73,17.73,0,0,1-12.65,5.19q-7.65,0-10.15-4.82a21.9,21.9,0,0,1-2.5-10.21,65.55,65.55,0,0,1,2.43-15.3,68.69,68.69,0,0,1,7.26-17.82,31.48,31.48,0,0,1,4.11-5.45,21.32,21.32,0,0,1,6-4.41,17.7,17.7,0,0,1,8.15-1.83,11.87,11.87,0,0,1,6.63,1.67,10.93,10.93,0,0,1,3.82,4.19A15.63,15.63,0,0,1,284.2,150,26.27,26.27,0,0,1,284.53,153.93Zm-8.13-6a5.27,5.27,0,0,0-1.13-3.43,3.91,3.91,0,0,0-3.22-1.39,6.46,6.46,0,0,0-5,2.39,17.5,17.5,0,0,0-3,4.48,126.74,126.74,0,0,0-5,13.15q-3,8.84-5,16.69t-2.09,10.32a8.61,8.61,0,0,0,.91,3.54q.91,2,3.91,2,4.82,0,8-7.74,1.17-2.87,3.26-9.23T272,166q1.89-6.32,3.15-11.39A35.92,35.92,0,0,0,276.4,148Z"/><path class="cls-6" d="M329.92,153.93a64.35,64.35,0,0,1-1.56,12.32,78.3,78.3,0,0,1-4.8,15.17,38.22,38.22,0,0,1-8.67,12.73,17.74,17.74,0,0,1-12.65,5.19q-7.65,0-10.15-4.82a21.9,21.9,0,0,1-2.5-10.21A65.55,65.55,0,0,1,292,169a68.76,68.76,0,0,1,7.26-17.82,31.49,31.49,0,0,1,4.11-5.45,21.32,21.32,0,0,1,6-4.41,17.71,17.71,0,0,1,8.15-1.83,11.87,11.87,0,0,1,6.63,1.67,10.92,10.92,0,0,1,3.82,4.19,15.63,15.63,0,0,1,1.61,4.67A26.14,26.14,0,0,1,329.92,153.93Zm-8.13-6a5.27,5.27,0,0,0-1.13-3.43,3.91,3.91,0,0,0-3.21-1.39,6.46,6.46,0,0,0-5,2.39,17.47,17.47,0,0,0-3,4.48,126.29,126.29,0,0,0-5,13.15q-3,8.84-5,16.69t-2.09,10.32a8.62,8.62,0,0,0,.91,3.54q.91,2,3.91,2,4.82,0,8-7.74,1.17-2.87,3.26-9.23t4-12.69q1.89-6.32,3.15-11.39A36,36,0,0,0,321.79,148Z"/><path class="cls-6" d="M54.34,79.3c2,.16,3.29.22,4.37.22H75.27c2.54-3.19,2.57-3.22,2.88-3.22s.43,0,2.17,1.77S82,79.79,82,80s-.16.34-.4.34H58.71c-1.09,0-2.29.06-4.06.22Z"/><path class="cls-6" d="M105.06,78.71c.19,0,.25.22.06.28-.43.19-.87.34-1.3.5,0,6.67.22,10.11.22,10.94a3.66,3.66,0,0,1-1.58,3.44,4.44,4.44,0,0,1-2.36.74c-.53,0-.68-.22-.81-.78a3.5,3.5,0,0,0-2.95-2.51c-.19,0-.19-.31,0-.31,1.43,0,2.6-.12,3.32-.22s1-.31,1-1.3V80.6c-.68.22-1.4.43-2.17.65,1.27.16,1.49.31,1.49.5s-.16.37-.46.62v.84c0,2.54.09,4.4.09,4.84,0,.59-.46.87-1.55.87-.71,0-1-.22-1-.74s.13-2.33.13-4.84V81.62l-.93.25c-.28,6.95-1.43,9.58-5.52,12.5-.16.09-.4,0-.28-.19,2-2.67,2.7-5.36,2.82-11.56l-.59.15c-.4.56-.5.65-.78.65s-.56-.06-1.52-4.28a24.85,24.85,0,0,0,2.88.09c0-7.38-.09-8.59-.31-10.33A27.08,27.08,0,0,1,96.44,70c.15-1.4.22-2.17.28-3a12.75,12.75,0,0,0,0-1.55c4.31.71,4.81,1,4.81,1.49,0,.34-.25.53-1.24.71A30.19,30.19,0,0,1,98,70.28h2.2c1.33-1.49,1.43-1.55,1.71-1.55s.47,0,1.55,1,1.18,1.15,1.18,1.39-.12.37-.84.93V78.8Zm-8.74.5c1.49,0,2.92-.09,4.34-.19V70.9H96.87a1.43,1.43,0,0,1-.56.4ZM100,75.95a1.61,1.61,0,0,1-1.67,1.77,1.1,1.1,0,0,1-1.05-1.21,8.33,8.33,0,0,1,.13-1.24,4.78,4.78,0,0,0-.56-3.1c-.09-.16,0-.28.19-.19C98.7,72.76,100,74.06,100,75.95Zm13.24,3.54c1.46-1.55,1.58-1.64,1.86-1.64s.5,0,1.83,1.21,1.4,1.49,1.4,1.71-.28.59-1.3.9a25.33,25.33,0,0,1-3.35,6.29,19.53,19.53,0,0,0,6.67,3c.19.06.13.22,0,.28a7.36,7.36,0,0,0-3,2.73c-.34.59-.5.68-.68.68a1.47,1.47,0,0,1-.74-.25,16.14,16.14,0,0,1-4.68-3.84,21.57,21.57,0,0,1-8.53,4c-.19.06-.34-.22-.19-.31a20.47,20.47,0,0,0,7.19-5.92c-1.18-2-1.64-4.31-2.14-8.22-.56,0-1.18.09-1.86.16l-.31-1.05a35.08,35.08,0,0,0,4,.22ZM110,70c0,4.28-1.52,6.6-5.58,8.37-.19.06-.37-.09-.25-.22,2.14-1.89,2.36-3.41,2.36-7.47a32.7,32.7,0,0,0-.25-4.53c2.73.74,3.75,1.18,4.09,1.49H112c1.27-1.55,1.43-1.64,1.64-1.64s.4,0,1.64,1,1.39,1.08,1.39,1.3-.06.4-.9,1V73c0,.56.12.71.74.71a1.3,1.3,0,0,0,1-.34c.5-.46,1-1.52,1.89-3.88.06-.19.31-.09.28.09a23.3,23.3,0,0,0-.28,3.07,1.8,1.8,0,0,0,.31,1.08,1.83,1.83,0,0,1,.53,1.36c0,1.27-.78,2-4.37,2-2.85,0-3.66-.56-3.66-3,0-.43.06-1,.06-3.22V68.29h-1.83a1.55,1.55,0,0,1-.46.4ZM109.4,80.1c-.43,0-.9,0-1.36,0A12,12,0,0,0,111.26,86a27.14,27.14,0,0,0,2.29-5.86Z"/><path class="cls-6" d="M137.95,89.19a27.68,27.68,0,0,1-10,5c-.19,0-.31-.22-.16-.31A18.17,18.17,0,0,0,133.92,88a14.85,14.85,0,0,0,1.27-2.17c3.91,2.11,4.06,2.33,4.06,2.7S139,89.07,137.95,89.19Zm-4.31-20.53a42.81,42.81,0,0,0-4.74.22l-.28-1.05a48.9,48.9,0,0,0,5,.22h17.27c2.14-2.54,2.2-2.57,2.51-2.57s.4,0,1.89,1.36c1.21,1.08,1.3,1.21,1.3,1.49a.3.3,0,0,1-.34.34h-8.81c0,.16-.25.31-.46.46V72h2.23c1.55-1.74,1.64-1.8,1.92-1.8s.5.06,2,1.21c1.08.84,1.15.93,1.15,1.24s-.06.37-.9,1.05v.65c0,1.21.16,3.13.16,3.44,0,.87-.74,1.43-2.48,1.43-1.27,0-1.49-.25-1.49-1.12V78H135.16c-.06,1.15-.81,1.52-2.36,1.52-1,0-1.21-.19-1.21-1.08,0-.37.12-2,.12-3.53s0-3.1-.09-4.34c3.22.78,4,1,4.22,1.43h1.86V68.66ZM151,84.45c2.11-2.6,2.2-2.67,2.48-2.67s.37,0,2.08,1.55c1.08,1,1.18,1.08,1.18,1.3s-.12.43-.59.43H145.24c0,.22-.09.43-.59.71v1.08c0,2,.19,2.95.19,4.28a3,3,0,0,1-1.64,3,4.49,4.49,0,0,1-2.42.62c-.62,0-.87,0-1.15-.87-.34-1-1.05-1.83-2.91-2.39a.16.16,0,0,1,0-.31,18.27,18.27,0,0,0,2.7-.09c1-.09,1.36-.4,1.36-1.8V87.45c0-1,0-1.58-.06-2.39h-7.22c-1.12,0-2.54.06-4.25.22L129,84.23a34.91,34.91,0,0,0,4.53.22ZM146.35,81c1.83-2.23,1.92-2.29,2.17-2.29s.34,0,1.71,1.27c1,.9,1.15,1.05,1.15,1.3s-.22.34-.47.34H137.08c-.71,0-2,.06-3.5.22l-.31-1.05c1.52.16,2.91.22,3.81.22Zm-8.65-8.37h-2a4.34,4.34,0,0,1-.53.43v4.34h2.54Zm3.81-4c0,.12-.25.28-.46.43V72h2.54V68.66Zm-.46,8.74h2.54V72.63h-2.54Zm13.7,13.67a2.07,2.07,0,0,1-2,2.17c-.9,0-1.43-.4-2-1.58A9.8,9.8,0,0,0,145.64,87a.16.16,0,0,1,.06-.31C151.19,86.46,154.75,88.6,154.75,91.08ZM147,72.63v4.78h2.57V72.63Z"/><path class="cls-6" d="M164.51,94.55l12.06-29.08,1,.34L165.48,94.92Z"/><path class="cls-6" d="M207.95,67.83c1.74-2,1.8-2,2.14-2s.5.06,2,1.24,1.52,1.33,1.52,1.64-.12.53-1,1.15v8.25c0,8.31.34,13.92.34,15.16,0,.93-1.12,1.36-2.7,1.36-1.24,0-1.58-.09-1.58-1.18V92.23H190.09v1.05c0,.93-.87,1.33-2.79,1.33-1.09,0-1.27-.19-1.27-1.15,0-1.33.31-6.08.31-15.29,0-4.19,0-8.68-.16-11.87,3.81.87,4.59,1.18,4.74,1.52Zm.65,23.78V85.44a.71.71,0,0,1-.28,0h-4.37c0,1.77.12,2.51.12,3.16a2.34,2.34,0,0,1-1.36,2,4.11,4.11,0,0,1-2,.53c-.43,0-.59-.09-.81-.71a2.43,2.43,0,0,0-1.92-1.67A1.81,1.81,0,0,1,196,90.31c-1,0-1.46-.56-1.49-1.58a2.91,2.91,0,0,0-1.18-2.6c-.16-.09-.09-.28.09-.28,3.38,0,4.46,1.33,4.5,2.6a13.48,13.48,0,0,0,1.39-.15c1-.12,1.3-.43,1.3-1.55V85.47h-6.79a19.55,19.55,0,0,0-3.16.22l-.31-1.05a29.65,29.65,0,0,0,3.47.22h6.79a26.21,26.21,0,0,0-.09-2.64c-2.48.5-5.12,1-7.57,1.46-.28.65-.37.71-.62.71s-.5-.12-1.61-3.66c.93,0,1.49.06,2,.06,1.46,0,3,0,4.71,0v-2.2h-2.14c0,.71-.43,1.24-1.8,1.24-1,0-1.18-.16-1.18-1,0-.5.12-1.67.12-3.32,0-.9,0-1.64-.09-3a17.51,17.51,0,0,1,3.19.93h1.89V71.76h-3.38A19.65,19.65,0,0,0,191,72l-.31-1.05a29.84,29.84,0,0,0,3.47.22h3.38a12,12,0,0,0-.19-2.48c3.84.25,4.16.46,4.16.87s-.16.43-.87.84v.78h2.88c1.64-2,1.71-2,2-2s.34.06,1.33,1c1.18,1.05,1.21,1.15,1.21,1.4a.27.27,0,0,1-.31.28H200.6V73.5h2c1.09-1.15,1.21-1.21,1.46-1.21s.34,0,1.71.9c1,.65,1.05.77,1.05,1s0,.28-.59.74v1c0,.53.09,1.77.09,2.11,0,.68-.71,1.12-2.11,1.12-.9,0-1.21-.09-1.3-.5H200.6v2.17c1,0,2,0,3.1-.06A5.34,5.34,0,0,0,202,79.58c-.19-.06-.09-.28.09-.28,4.19.12,5.71,1.58,5.71,2.88a1.46,1.46,0,0,1-.68,1.24q.23.19.74.65a9,9,0,0,1,.74.71V68.45H190.71a2.2,2.2,0,0,1-.62.34V91.61ZM195.36,75.67h2.17V74.12h-1.77a2,2,0,0,1-.4.28Zm0,2.33h2.17V76.29h-2.17Zm5.21-3.88v1.55h2.29V74.12Zm2.29,2.17h-2.29V78h2.29ZM205,84.85,206,83.61c-.4-.09-.71-.43-1.05-1.12a5.73,5.73,0,0,0-.65-1c-1,.22-2.08.43-3.19.65,3.35.34,3.57.59,3.57.87s-.09.4-.74.74v1.12Z"/><path class="cls-6" d="M233.43,83.89c0,3.32.09,6.79.09,7.19a3,3,0,0,1-1.05,2.73,3.63,3.63,0,0,1-2.36.78c-.34,0-.56-.12-.68-.74a3,3,0,0,0-1.8-2.29c-.16-.09-.19-.31,0-.31a14.61,14.61,0,0,0,2.14-.09.7.7,0,0,0,.62-.68v-3.1h-3.25c0,3.75,0,5.8,0,6.23,0,.84-.59,1.21-2.26,1.21-.53,0-.68-.19-.68-.81,0-.78.16-4.28.16-8.15,0-3.19,0-4.65-.06-5.77a1.78,1.78,0,0,1-1.15.4,1.39,1.39,0,0,1-1.3-1.52c0-.74.31-1.12,1-1.77.81-.77.68-1.64.53-2.79,0-.19.16-.25.28-.12a6.77,6.77,0,0,1,.81,1.12V71.83c0-3.69,0-4.43-.06-5.86,2.39.59,3,.9,3.16,1.21H230c1.15-1.46,1.24-1.55,1.46-1.55s.37,0,1.49,1.05c.78.71.9.9.9,1.15s0,.31-.77.84v7.29c.46-1,.65-1.21.77-1.21s.43.12,1.27,1.52a3.23,3.23,0,0,1,.43.93c.06-1.64.12-3.19.12-5.3,0-2,0-2.88-.09-3.91a9.35,9.35,0,0,1,3.22,1.33h.62a29.39,29.39,0,0,0-.15-3.29c2.45.31,3.44.53,3.44,1s-.28.59-.84.84v1.49h1.18a29.16,29.16,0,0,0-.16-3.29c2.6.31,3.54.53,3.54,1s-.19.53-.9.84v1.49h.84c1.3-1.43,1.4-1.49,1.64-1.49s.43.06,1.83,1.18c.78.65.84.78.84,1s-.06.37-.84,1v1.05c0,2.36.19,3.72.19,4.5a1.19,1.19,0,0,1-.74,1.15c.25.19.62.46,1.08.84.9.71,1.05.9,1.05,1.15s-.16.28-.34.28H237.33a18.09,18.09,0,0,0-2.85.22l-.31-1.08a19.61,19.61,0,0,0,3.16.25h9.08q.74-1,1.12-1.4c-.53-.06-.71-.25-.78-.65h-8.43v.22c0,.9-.56,1.15-1.58,1.15s-1.21-.12-1.21-.9v-.06c-.09.19-.34.22-.74.25a2.28,2.28,0,0,0-.9.28c-.37.22-.68.4-1.12.68l.31.25c1.05.84,1.21,1,1.21,1.3s-.06.31-.87,1ZM230,79.73c1.08-1.46,1.21-1.52,1.46-1.52a.67.67,0,0,1,.43.12c.16-.56.25-1.08.37-1.64H225a5.64,5.64,0,0,1,.19,1.43,3.49,3.49,0,0,1-.09.78c1.83.37,2.45.59,2.64.84Zm-2.79-11.94a2.34,2.34,0,0,1-.37.16v8.12h.74V72.72c0-.59,0-1.33-.09-2.48a8.59,8.59,0,0,1,2.6.62h.28V67.79Zm-.12,15.38h3.25V80.35h-2.73a4.77,4.77,0,0,1-.53.46Zm3.25,3.57V83.79h-3.25v2.95Zm0-10.67V71.48H230l-.31.22v4.37Zm16.06,16.77c1.83-2.33,2.11-2.57,2.29-2.57s.43,0,1.77,1.36c1,1,1.21,1.3,1.21,1.52s-.09.31-.34.31H237.52a33.77,33.77,0,0,0-3.44.22l-.28-1.05c2,.19,3.07.22,3.72.22h5.55c.34-1.58.53-2.88.71-4.4.06-.53.09-.84.12-1.64,3.72,1.12,4.22,1.39,4.22,1.83s-.19.5-1,.78c-.84,1.05-1.61,2-2.82,3.44Zm-1.18-11c1.46-1.58,1.58-1.64,1.86-1.64s.46,0,1.77,1.08c1.05.84,1.18,1,1.18,1.27s-.09.37-.81.9v.28c0,.71.09,1.52.09,2.14,0,.87-1,1.18-2.36,1.18-1,0-1.27-.09-1.3-.87h-6.26a1.28,1.28,0,0,1-.37.93c2.29.87,3.13,1.74,3.13,3.35a1.79,1.79,0,0,1-2,2A1.47,1.47,0,0,1,238.64,91a5.39,5.39,0,0,1,.12-1.24,4.25,4.25,0,0,0-.28-2.29,3.71,3.71,0,0,1-1.08.12c-1.18,0-1.3-.25-1.3-.87s.12-1.52.12-3.16a25.17,25.17,0,0,0-.12-3.07c2.7.71,3.69,1,4,1.37Zm-6.48-11.94a3.19,3.19,0,0,1-.5.34v2.42h1.12V69.93Zm-.5,3.38v3.38h1.12V73.31Zm1.86,9.18a1.55,1.55,0,0,1-.71.43v2.67h6.26v-3.1Zm1.71-12.56v2.76h1.18V69.93Zm1.18,3.38h-1.18v3.38h1.18Zm2.48-3.38v2.76h1.18V69.93Zm1.18,3.38h-1.18v3.38h1.18Z"/><path class="cls-6" d="M266.08,242.43h-1.69V246h-1.94v-3.57h-5.73V241l5.28-8.3h2.39v8.08h1.69Zm-3.64-1.6v-3.47c0-.72.07-1.84.11-2.56h-.07c-.32.67-.68,1.35-1.06,2l-2.61,4Z"/><path class="cls-6" d="M274.79,239.64s0,.47,0,.67c-.22,4.18-.41,5.83-.94,6.41a1.54,1.54,0,0,1-1.22.61,16.51,16.51,0,0,1-2.18,0,3.69,3.69,0,0,0-.5-1.64,18.59,18.59,0,0,0,2,.09.77.77,0,0,0,.65-.2c.29-.32.47-1.51.65-4.48h-3.48c.13-1.44.22-3.73.22-5.51h3.28v-2.4h-3.62v-1.49h5.15v5.4h-3.37c0,.86,0,1.75-.07,2.54Zm10.35,2.25c-.81.61-1.71,1.24-2.48,1.75a10.52,10.52,0,0,0,3.17,2.21,6.65,6.65,0,0,0-1.13,1.33,13.38,13.38,0,0,1-5.8-6.72h-1.21v4.79l2.63-.83a10.73,10.73,0,0,0,.11,1.39c-3.35,1.15-3.93,1.39-4.25,1.66a5,5,0,0,0-.72-1.37,1.33,1.33,0,0,0,.65-1.26v-4.37h-1V239h1.3V231.7h8.66V233h-7v1.15h6.34v1.21h-6.34v1.19h6.36v1.24h-6.36V239h7.36v1.42h-5.06a12.55,12.55,0,0,0,1.42,2.21,17.89,17.89,0,0,0,2.07-1.86Z"/><path class="cls-6" d="M296.43,238.37h-4.92v9h-1.66V231.67h6.57Zm-4.92-5.29v1.28h3.35v-1.28Zm3.35,3.92v-1.4h-3.35V237Zm9.83,8.26c0,1-.23,1.55-.92,1.84a11.07,11.07,0,0,1-3.48.31,6,6,0,0,0-.59-1.73c1.19.05,2.45,0,2.81,0s.47-.13.47-.45v-6.88h-5.08v-6.72h6.79Zm-5.19-12.19v1.28H303v-1.28Zm3.47,4v-1.44h-3.47V237Z"/><path class="cls-6" d="M314.3,243.82a14.24,14.24,0,0,1-4.14,3.26c-.29-.27-.9-.85-1.24-1.1a11.49,11.49,0,0,0,3.83-2.7Zm10.75-2.2V243h-7.22v4.47h-1.66V243H309v-1.35Zm-10.88-8.71h-4.92v-1.35h15.45v1.35h-5v1.19h4.09v4.23h-13.5V234.1h3.87Zm-3,7.71V239.3h11.7v1.31Zm.68-3.55h2.3v-1.73h-2.3Zm6.27-4.16h-2.41v1.19h2.41Zm-2.41,4.16h2.41v-1.73h-2.41Zm5,6.27a27.85,27.85,0,0,1,4.23,2.74l-1.31,1a25,25,0,0,0-4.14-2.84Zm-1-8v1.73h2.43v-1.73Z"/></g></g></g></svg>