<svg xmlns="http://www.w3.org/2000/svg" viewBox="0 0 42.29 42.29"><defs><style>.cls-1{fill:#1d2b53;}.cls-2{fill:#fff;}</style></defs><title>fb logo </title><g id="圖層_2" data-name="圖層 2"><g id="圖層_1-2" data-name="圖層 1"><path class="cls-1" d="M42.29,21.14A21.14,21.14,0,1,0,21.14,42.29h.18V27.53H16.23v-5.9h5.09V17.29c0-5,3.08-7.79,7.58-7.79a41.82,41.82,0,0,1,4.55.23V15H30.33c-2.45,0-2.92,1.16-2.92,2.87v3.76h5.84l-.76,5.9H27.41V41.34A21.15,21.15,0,0,0,42.29,21.14Z"/><path class="cls-2" d="M32.49,27.53l.76-5.9H27.41V17.87c0-1.71.47-2.87,2.92-2.87h3.12V9.73a41.82,41.82,0,0,0-4.55-.23c-4.5,0-7.58,2.75-7.58,7.79v4.35H16.23v5.9h5.09V42.28a21.15,21.15,0,0,0,6.09-.94V27.53Z"/></g></g></svg>