<svg xmlns="http://www.w3.org/2000/svg" viewBox="0 0 42.26 42.26"><defs><style>.cls-1{fill:#1d2b53;}.cls-2{fill:#fff;}</style></defs><title>資產 25</title><g id="圖層_2" data-name="圖層 2"><g id="圖層_1-2" data-name="圖層 1"><circle class="cls-1" cx="21.13" cy="21.13" r="21.13"/><path class="cls-2" d="M26.85,35.39H15.4a9.23,9.23,0,0,1-9.22-9.22V16.08A9.23,9.23,0,0,1,15.4,6.87H26.85a9.23,9.23,0,0,1,9.21,9.22V26.17A9.23,9.23,0,0,1,26.85,35.39ZM15.4,8.92a7.18,7.18,0,0,0-7.17,7.17V26.17a7.18,7.18,0,0,0,7.17,7.17H26.85A7.18,7.18,0,0,0,34,26.17V16.08a7.18,7.18,0,0,0-7.17-7.17Z"/><path class="cls-2" d="M21.13,29.33a8.2,8.2,0,1,1,8.2-8.2A8.21,8.21,0,0,1,21.13,29.33Zm0-14.36a6.16,6.16,0,1,0,6.16,6.16A6.16,6.16,0,0,0,21.13,15Z"/><circle class="cls-2" cx="29.21" cy="13.18" r="1.7"/></g></g></svg>