<svg xmlns="http://www.w3.org/2000/svg" viewBox="0 0 179.71 78"><defs><style>.cls-1{fill:#fff;}</style></defs><title>資產 26</title><g id="圖層_2" data-name="圖層 2"><g id="圖層_1-2" data-name="圖層 1"><path class="cls-1" d="M6.8,55.63H35.49c2.48-.33,4.16-1.62,5.63-5.1C42.44,47.42,42.6,43,44,33.16c.81-5.86,1.56-11.73,2.31-17.61h10c.57,0,.89-.53,1.06-1,0-.14.08-.27.14-.41s.25-.75.41-.75H46.54l.92-7.27c0-.24.31-2.78.54-4.51C48.1.76,47.61,0,47,0H39.79S39,6.07,37.94,13.52c0,.29,1.1-.14.88-.14H16.5L18.23,0H12.82L11,13.38H.41L0,15.55H10.7L5.52,53.62C5.38,54.66,6,55.63,6.8,55.63Zm4.56-5.23,2.92-19.91H35.65c-1.24,9.11-2.43,15.74-3,19.61a1.57,1.57,0,0,1-1.37,1.48H12.09C11.62,51.58,11.26,51,11.35,50.4ZM37.68,15.55,36.2,26.42a1.44,1.44,0,0,1-1.26,1.39H14.62l1.59-12.27Z"/><ellipse class="cls-1" cx="125.55" cy="49.35" rx="6.13" ry="6.01"/><path class="cls-1" d="M154,38.52h12.42a2,2,0,0,0,1.85-1.2l.6-1.35H127.39l-1.49,2.55h16c-1.59,6.71-5.78,27.61-5.78,27.61,3.08,0,4.9-.36,6.45-2.46,1.11-1.5,1.25-6.9,2.39-11.66,1-4.35,2-8.72,3-13.08l.08-.4h2.33"/><path class="cls-1" d="M156.82,29.81l.27-1H134.18l-.93,2.55h21.47A2.18,2.18,0,0,0,156.82,29.81Z"/><path class="cls-1" d="M128,19h-5L126.2,2.56h2.42c1.44,0,2.6,1.76,2.6,3.94Z"/><path class="cls-1" d="M160,21.66H156.2l4.35-12.22H163a2.7,2.7,0,0,1,2.6,2.8l-3.91,8.23A1.83,1.83,0,0,1,160,21.66Z"/><path class="cls-1" d="M140.33,10.44H129.79v-.8h10.87v.42A.41.41,0,0,1,140.33,10.44Z"/><path class="cls-1" d="M141.95,20.49l3.26-8.26a2.6,2.6,0,0,0-2.6-2.6h-2.42l-1.21,4-.93,3.08a12.48,12.48,0,0,1-1.45,3.57l-.32.48c-9.45,14.2-20.47,14.91-20.47,14.91,15.93,2.56,26.14-15.21,26.14-15.21"/><path class="cls-1" d="M135.66,18.11l.14-.52H124l-.48,1.4h11A1.14,1.14,0,0,0,135.66,18.11Z"/><path class="cls-1" d="M132.82,22.87l.12-.52H122.22l-.44,1.4h10.05A1.06,1.06,0,0,0,132.82,22.87Z"/><path class="cls-1" d="M160.68,10.76H147.82l.92-1.3H161v.68C161,10.48,160.81,10.76,160.68,10.76Z"/><path class="cls-1" d="M160.45,23.16a39.12,39.12,0,0,1-5-6.12,82,82,0,0,1-5-7.54,1.21,1.21,0,0,0-.92-.59,9.89,9.89,0,0,0-1.66,0,13.75,13.75,0,0,1-2.21,0c2,3.56,3.59,8.5,5.61,12.05a31.56,31.56,0,0,0,8.15,9.63,17.63,17.63,0,0,0,5.79,3.14,18.67,18.67,0,0,0,7,.32c3.19-.33,5.47-.83,7.49-2.71C172.73,30.16,165.28,27.73,160.45,23.16Z"/><path class="cls-1" d="M143.78,39.22a34.18,34.18,0,0,0,8.27,16.44,20,20,0,0,0,4.62,3.8,20.08,20.08,0,0,0,5.89,2,14.34,14.34,0,0,0,8-.85c-5.8-2.66-11.89-6.35-15.57-11a39.19,39.19,0,0,1-3.65-5.81l-3.26-6C146.37,38.35,145.51,38.75,143.78,39.22Z"/><ellipse class="cls-1" cx="69.86" cy="64.71" rx="6.13" ry="6.01"/><path class="cls-1" d="M61.27,55.22h5.91l.12-.72h0l4.65-21.09,0-1.2c.1-2.63-2.7-3-5.24-3.24v0h-.24l-.38,0v0H60.77v0h-7L49,55.22H61.27ZM66,30.09,61.4,53.41H56.57l4.1-23.32Z"/><path class="cls-1" d="M80.81,30.24v0H74.94l-4,17H86.48l.1-.46h0l3.62-13.62,0-.77c.08-1.7-2.27-1.93-4.41-2.09v0h-.21l-.32,0v0ZM77.28,45.66l3.45-14.48H85.2L81.34,45.66Z"/><path class="cls-1" d="M110.38,32.35c.08-1.7-2.27-1.93-4.41-2.09v0h-.21l-.32,0v0h-5l-.54,0h-.33l.1-.46h0l3.62-13.62,0-.77c.08-1.7-2.27-1.93-4.41-2.09v0h-.21l-.32,0v0H93.88v0H88l-4,17H95.1l-4,17h15.55l.1-.46h0l3.62-13.62Zm-20-3.14,3.45-15h4.47l-3.86,15Zm7.09,16.45,3.45-14.48h4.47L101.5,45.66Z"/><path class="cls-1" d="M90,51.21l.19-1.13c0-.13.22-1.7.39-2.86A1.1,1.1,0,0,0,89.44,46H85.18s-.33,2.41-.84,5.24H69.69l-.56,2.15H84l-.18,1h0L81.4,67.59C80.27,73.86,79.33,78,79.34,78c2.82,0,4.49-.44,5.92-3,1-1.82,1.15-3.32,2.19-9.09.76-4.18,1.46-8.38,2.16-12.57H112a1.91,1.91,0,0,0,1.78-1.21l.37-.93Z"/><path class="cls-1" d="M85.59,53.32a33.19,33.19,0,0,0,8.32,15,17.64,17.64,0,0,0,10,5.58,13.64,13.64,0,0,0,7.45-.47c-5.52-2.59-11.35-6.12-14.94-10.4a38.94,38.94,0,0,1-3.62-5.34l-3.26-5.46C88,52.63,87.18,53,85.59,53.32Z"/></g></g></svg>