<svg xmlns="http://www.w3.org/2000/svg" viewBox="0 0 140.28 28.5"><defs><style>.cls-1{fill:#136e9f;}</style></defs><title>資產 46</title><g id="圖層_2" data-name="圖層 2"><g id="圖層_1-2" data-name="圖層 1"><path class="cls-1" d="M21.33,18.08a20.68,20.68,0,0,0,7.5,3.66,8.22,8.22,0,0,0-1.49,1.8,21.82,21.82,0,0,1-4.43-2l0,.25c-.34,3.53-.68,5.08-1.36,5.71a2.46,2.46,0,0,1-1.86.68c-.74.06-2.17,0-3.72,0a5.07,5.07,0,0,0-.53-1.89,31.89,31.89,0,0,0,3.35.15,1.39,1.39,0,0,0,1-.25c.34-.34.62-1.3.84-3.5h-7c-1.33,2.88-3.91,4.74-9.3,5.86a5.75,5.75,0,0,0-1.15-1.8c4.46-.81,6.79-2.14,8-4.06h-6V21.58a33.52,33.52,0,0,1-3.81,1.67A5.28,5.28,0,0,0,0,21.61a22.18,22.18,0,0,0,6.91-3.53H.68V16.22H8.87a10.73,10.73,0,0,0,1.24-1.77H4.31V6H24.56v8.46h-12a20.59,20.59,0,0,1-1.08,1.77H28.06v1.86ZM8,4H1.08V2.11H8V0h2.23V2.11h8.06V0h2.26V2.11h7V4h-7V5.55H18.32V4H10.26V5.55H8ZM22,20.9a17.19,17.19,0,0,1-3.26-2.82H9.92A18.14,18.14,0,0,1,6.29,20.9H12a15.33,15.33,0,0,0,.5-2.2h2.26c-.12.78-.28,1.49-.47,2.2ZM6.51,9.49H22.29v-2H6.51Zm0,3.44H22.29v-2H6.51Z"/><path class="cls-1" d="M46.53,8.25c-2.79.9-5.71,1.8-8,2.54l-.9-2c2.23-.53,5.49-1.46,8.65-2.33ZM49,24.68a44.19,44.19,0,0,1-9.46,3.72,18.07,18.07,0,0,0-1.71-1.74,35.49,35.49,0,0,0,9.08-3ZM45.6,4.87a37.5,37.5,0,0,0-6.48-2.6l1-1.58a39.76,39.76,0,0,1,6.48,2.39Zm-3.88,6.08H61.79V23.38H41.73ZM44,14.57H59.49V12.5H44Zm0,3.63H59.49V16.06H44Zm0,3.66H59.49V19.69H44ZM51.12,4a16.3,16.3,0,0,1-2.76,2.7,5.87,5.87,0,0,0-1.74-1.15A13.46,13.46,0,0,0,51.31,0l2.08.34a19.61,19.61,0,0,1-1.05,1.92h10.6l.37-.09,1.55.46A20.93,20.93,0,0,1,61.76,7L59.9,6.39A12.59,12.59,0,0,0,61.79,4h-5c.68,2.39,2.42,4.62,8.77,5.58a6.5,6.5,0,0,0-1.18,1.86c-5.27-.93-7.53-2.92-8.68-5.15-1.21,2.29-3.5,3.75-7.91,4.62a6.3,6.3,0,0,0-1.08-1.64c5.05-.9,6.91-2.45,7.66-5.27ZM56,23.78c3.35,1.08,7,2.42,9.3,3.44l-2.54,1.15A68,68,0,0,0,54.13,25Z"/><path class="cls-1" d="M82.68.78A50,50,0,0,1,80.2,6.92V28.31H78.06V10.91A30.75,30.75,0,0,1,75.14,15a18.5,18.5,0,0,0-1.21-2.33A36.76,36.76,0,0,0,80.54.19ZM94,22.85l.09,1.92c-4.34.77-8.87,1.55-12.19,2.08l-.37-2.08L86.83,24V18.36H82.4v-2h4.43V12.68H89v3.66h4.22v2H89v5.27ZM88.14,3.72c-.71,2-1.52,4.37-2.33,6.17,1.58-.09,3.29-.22,5.05-.34-.5-1.05-1.05-2.11-1.61-3l1.64-.62A25.85,25.85,0,0,1,94,12.46l-1.77.68a16.85,16.85,0,0,0-.59-1.8c-3.5.34-7,.65-9.7.9l-.22-2.11c.62,0,1.33-.06,2.08-.12a55.2,55.2,0,0,0,2-6.29H82.46V1.8H93.65V3.72ZM96.48,20.9h-2V4h2ZM101.87.59V25.52c0,1.36-.28,2-1.12,2.39a10.52,10.52,0,0,1-4,.46A12.22,12.22,0,0,0,96,26.11c1.49.06,2.82,0,3.26,0s.56-.12.56-.59V.59Z"/><path class="cls-1" d="M138.36,7.88a40.07,40.07,0,0,1-3.44,12.53,14.65,14.65,0,0,0,5.36,6.11,8.78,8.78,0,0,0-1.58,1.83,15.86,15.86,0,0,1-5.08-5.67,19.32,19.32,0,0,1-5.83,5.71,11.52,11.52,0,0,0-1.3-1.89,16.48,16.48,0,0,0,6-6.11,43,43,0,0,1-2.42-8.25,21.53,21.53,0,0,1-1.74,3.38,10.3,10.3,0,0,0-1.3-1.27v2.61h-7.13c-.31.62-.65,1.27-1,1.92,3.07,0,6.45-.09,9.8-.16l-.09,1.74-3.22.06a8.92,8.92,0,0,1-2.42,4.09,28.13,28.13,0,0,1,3.32,1.89l-1.46,1.43a28.08,28.08,0,0,0-3.47-2,21.66,21.66,0,0,1-7.88,2.64,5.91,5.91,0,0,0-.9-1.83,20.09,20.09,0,0,0,6.76-1.8c-1-.46-2.08-.9-3.13-1.3l-.53.87-1.89-.56c.59-.9,1.27-2,2-3.25l-3.84.06-.06-1.8c1.39,0,3,0,4.87,0q.56-1,1-2h-4.56V11.69h5.8V10.26h-5V6.95h-2.14V5.21h2.14V1.92h5V0h2V1.92h5.36V5.21h2.17V6.95h-2.17v3.32H121v1.43H127v1.58C129,9.92,130.14,5,130.82,0l2.2.34c-.28,1.83-.59,3.63-1,5.36h8.09V7.88ZM115.1,15.29h3.84v-2H115.1Zm.78-11.78V5.27h3.07V3.5Zm3.07,5.15V6.85h-3.07v1.8Zm-1,11.88c-.28.53-.59,1-.87,1.52a41.29,41.29,0,0,1,4,1.58,7.78,7.78,0,0,0,2.2-3.19Zm3-17V5.27h3.32V3.5Zm3.32,5.15V6.85H121v1.8Zm.74,4.59H121v2H125Zm6.45-5.36c0,.12-.06.25-.09.4a44.61,44.61,0,0,0,2.39,9.52,38.88,38.88,0,0,0,2.36-9.92Z"/></g></g></svg>