<svg xmlns="http://www.w3.org/2000/svg" viewBox="0 0 140 28.5"><defs><style>.cls-1{fill:#136e9f;}</style></defs><title>資產 49</title><g id="圖層_2" data-name="圖層 2"><g id="圖層_1-2" data-name="圖層 1"><path class="cls-1" d="M5.71,13.86C4.43,13,1.89,11.5,0,10.51L1.27,8.84C3.07,9.74,5.64,11.1,7,12Zm-5,12.5A89.74,89.74,0,0,0,6.6,16.43L8.28,18a112.52,112.52,0,0,1-5.61,10ZM7.25,5.46C6,4.56,3.41,3.07,1.52,2L2.79.4A56.75,56.75,0,0,1,8.59,3.6Zm12.4,5.8v5.09h6.48V28.15h-2.2V27h-11v1.3H10.79v-12h6.67V11.25H8.53V9h8.93V4c-2.26.34-4.62.62-6.82.84a11,11,0,0,0-.62-2c5.33-.56,11.57-1.52,15-2.76l1.83,1.8a50.1,50.1,0,0,1-7.19,1.74V9h8.5v2.23Zm4.28,7.22h-11v6.39h11Z"/><path class="cls-1" d="M64.79,7.19s0,.87,0,1.18c-.34,13-.62,17.3-1.67,18.6A2.45,2.45,0,0,1,61,28.12a21.23,21.23,0,0,1-3.75,0A6.27,6.27,0,0,0,56.61,26c1.49.12,2.85.16,3.44.16a1.17,1.17,0,0,0,1.12-.5c.71-.9,1.09-5,1.4-16.25H58.13c-.37,8.25-1.8,15-7.25,19.1a7.84,7.84,0,0,0-1.71-1.64,16,16,0,0,0,1.36-1.08c-4.71.56-9.52,1.08-13,1.46l-.34-2c1.86-.15,4.19-.37,6.73-.62V21.89H38.07V20.12h5.86V18.23h-5.8V9h5.8v-2h-6.7V5.27h6.7v-2c-2,.16-4,.28-5.83.34a6.85,6.85,0,0,0-.56-1.71A96.75,96.75,0,0,0,50.9.34l1.15,1.77A59.25,59.25,0,0,1,46,3V5.27h6.57v1.8H46V9h6v9.21H46v1.89h6.08v1.77H46v2.45c2-.19,4.12-.4,6.2-.65v.16c2.7-3.66,3.5-8.65,3.78-14.48H52.36V7.19h3.69c.06-2.17.06-4.43.06-6.79h2.17c0,2.33,0,4.62-.06,6.79ZM40,12.84h3.91V10.6H40Zm3.91,3.78V14.36H40v2.26Zm2.08-6v2.23h4.06V10.6Zm4.06,3.75H46v2.26h4.06Z"/><path class="cls-1" d="M82.06.74A52.78,52.78,0,0,1,79.7,7V28.34H77.56V11.13a33.18,33.18,0,0,1-2.7,4,18.57,18.57,0,0,0-1.15-2.39A38,38,0,0,0,80,.16Zm6.23,21.74c1.74-.34,3.57-.68,5.33-1.05l.16,1.89c-4.46.93-9.15,1.86-12.53,2.6l-.4-2.11c1.49-.22,3.32-.56,5.3-.93V18.11h-4.5v-2h4.5V12.68h2.14v3.47h4.84v2H88.29ZM90.55,5.8A31.81,31.81,0,0,1,94.12,12l-1.71.84a16.5,16.5,0,0,0-1-2C84,11.88,83,12.09,82.4,12.37a13.5,13.5,0,0,0-.74-2c.46-.09.87-.62,1.3-1.3a31,31,0,0,0,2.33-4.84H82.15v-2H93.5v2h-6a35.74,35.74,0,0,1-2.91,5.64l5.92-.78c-.56-.9-1.12-1.8-1.64-2.6ZM101.44.9v24c0,1.4-.37,2-1.3,2.36a15.53,15.53,0,0,1-4.87.4,8.48,8.48,0,0,0-.87-2.08c2,.06,3.72.06,4.25,0s.68-.22.68-.71V.9Zm-4.5,19.81h-2V2.57h2Z"/><path class="cls-1" d="M125.33,20.37a6.7,6.7,0,0,1-2.67,4.09,28.81,28.81,0,0,1,3.57,1.83l-1.52,1.33a35,35,0,0,0-3.81-2,31.46,31.46,0,0,1-8.68,2.67,6.75,6.75,0,0,0-1-1.55,31.83,31.83,0,0,0,7.47-2A38.45,38.45,0,0,0,114,23c.5-.62,1.05-1.3,1.58-2l-3.66.19-.22-1.71c1.4,0,3.13-.12,5-.19.46-.84,1-1.64,1.4-2.45H113V11.72h5.86V10.45h-5V7.1h-2.08V5.33h2.08V2.17h5V0h1.83V2.17H126V5.33h2.11V7.1H126v3.35h-5.27v1.27h6v5.05h-6.54a21.8,21.8,0,0,1-1.3,2.33c1.52-.06,3.1-.16,4.71-.25V17.39h1.89v1.36l1.55-.09,0,1.61ZM115,15.22h3.88V13.3H115Zm.87-11.44V5.43h3V3.78Zm3,5.05V7h-3V8.84ZM117.8,20.77c-.31.5-.65,1-1,1.39,1.27.4,2.6.9,3.88,1.43a6,6,0,0,0,2.6-3.1Zm2.92-17V5.43h3.22V3.78Zm3.22,5.05V7h-3.22V8.84Zm-3.22,4.46v1.92h4V13.3ZM137.58,8a44.54,44.54,0,0,1-2.82,11.88A15.31,15.31,0,0,0,140,26.32,7.12,7.12,0,0,0,138.61,28a15.46,15.46,0,0,1-4.87-5.86,18.51,18.51,0,0,1-5.61,6.39,7,7,0,0,0-1.27-1.74,16,16,0,0,0,5.83-7,41.8,41.8,0,0,1-2.26-8.19A20.51,20.51,0,0,1,128.78,15a18.05,18.05,0,0,0-1.58-1.39c2-3.26,3.25-8.28,4-13.36l2,.31c-.25,1.8-.59,3.63-1,5.36h7.57V8Zm-6,0a51.79,51.79,0,0,0,2.08,9.18A43.69,43.69,0,0,0,135.5,8Z"/></g></g></svg>