<svg xmlns="http://www.w3.org/2000/svg" xmlns:xlink="http://www.w3.org/1999/xlink" viewBox="0 0 1940 1082"><defs><style>.cls-1{isolation:isolate;}.cls-2{fill:#f5ab00;}.cls-3{fill:none;stroke:#af302f;stroke-width:4px;}.cls-10,.cls-11,.cls-12,.cls-13,.cls-3{stroke-miterlimit:10;}.cls-4{opacity:0.6;}.cls-4,.cls-6{mix-blend-mode:multiply;}.cls-5{fill:#1e9b8e;}.cls-6{opacity:0.75;}.cls-7{fill:#fff;}.cls-8{fill:#edc62b;}.cls-9{fill:#030000;}.cls-10{fill:#af302f;stroke:#edc62b;}.cls-11{fill:#b73030;stroke:#fff;}.cls-12,.cls-14{fill:#f6f2e5;}.cls-12{stroke:#e7352e;}.cls-12,.cls-13{stroke-width:0.29px;}.cls-13,.cls-15{fill:#e7352e;}.cls-13{stroke:#f6f2e5;}</style></defs><title>資產 48</title><g class="cls-1"><g id="圖層_2" data-name="圖層 2"><g id="圖層_2-2" data-name="圖層 2"><rect class="cls-2" x="9" width="1922" height="1082"/><rect class="cls-3" x="35.5" y="24" width="1863" height="1029.5"/></g><g id="圖層_1-2" data-name="圖層 1"><image class="cls-4" width="1940" height="392" transform="translate(0 241)" xlink:href="資產 481.png"/><rect class="cls-5" x="9" y="250" width="1922" height="374"/><image class="cls-6" width="244" height="243" transform="translate(661.99 215.99)" xlink:href="資產 482.png"/><circle class="cls-7" cx="783.49" cy="328.25" r="103.61"/><path class="cls-8" d="M783.49,421.26c-38.63-.29-74-24.63-87.36-61.07S694.18,281.67,724,256.76s73.81-28.41,107.29-8.24,51.23,60.36,43.21,98.73c-8.94,42.79-47.56,73.69-91.06,74a.91.91,0,0,0,0,1.82c39.48-.29,75.5-25.19,89.12-62.41s1.77-80.39-28.89-105.62-75.48-28.62-109.56-7.77a95.75,95.75,0,0,0-43.75,99.1c8.56,44.2,48.32,76.35,93.09,76.69A.91.91,0,0,0,783.49,421.26Z"/><image class="cls-6" width="243" height="243" transform="translate(844.99 267.99)" xlink:href="資產 483.png"/><circle class="cls-7" cx="966.16" cy="380.27" r="103.61"/><path class="cls-8" d="M966.16,473.28c-38.63-.29-74-24.63-87.36-61.07s-1.94-78.52,27.92-103.43,73.81-28.41,107.29-8.24,51.23,60.36,43.21,98.73c-8.94,42.79-47.56,73.69-91.06,74a.91.91,0,0,0,0,1.82c39.48-.29,75.5-25.19,89.12-62.41s1.77-80.39-28.89-105.62-75.48-28.62-109.56-7.77a95.75,95.75,0,0,0-43.75,99.1c8.56,44.2,48.32,76.35,93.09,76.69A.91.91,0,0,0,966.16,473.28Z"/><image class="cls-6" width="243" height="243" transform="translate(1027.99 217.99)" xlink:href="資產 484.png"/><circle class="cls-7" cx="1149.29" cy="330.73" r="103.61"/><path class="cls-8" d="M1149.3,423.74c-38.63-.29-74-24.63-87.36-61.07s-1.94-78.52,27.92-103.43,73.81-28.41,107.29-8.24,51.23,60.36,43.21,98.73c-8.94,42.79-47.56,73.69-91.06,74a.91.91,0,0,0,0,1.82c39.48-.29,75.5-25.19,89.12-62.41s1.77-80.39-28.89-105.62S1134,228.92,1100,249.77a95.75,95.75,0,0,0-43.75,99.1c8.56,44.2,48.32,76.35,93.09,76.69A.91.91,0,0,0,1149.3,423.74Z"/><path class="cls-9" d="M763.44,284.48l5.41-41.64H752l-5.67,41.64H713.38l-1.28,6.75h33.31L729.28,409.72c-.44,3.26,1.46,6.26,4,6.26h89.31c7.72-1,12.94-5,17.52-15.87,4.1-9.68,4.62-23.41,8.83-54.08,2.51-18.24,4.86-36.52,7.18-54.81h31c1.77,0,2.78-1.65,3.29-3.15.15-.43.26-.86.43-1.28s.77-2.32,1.26-2.32H857q1.43-11.32,2.86-22.64c.09-.73,1-8.66,1.67-14,.34-2.6-1.18-5-3.18-5H836s-2.61,18.45-5.77,41.64Zm-16,115.23,9.09-62h66.52c-3.86,28.34-7.55,49-9.41,61-.41,2.69-2.2,4.62-4.28,4.62H749.73C748.27,403.37,747.16,401.61,747.44,399.71Zm81.94-108.48-4.61,33.84c-.34,2.51-2,4.33-3.93,4.33H757.61l5-38.18Z"/><ellipse class="cls-9" cx="1102.89" cy="404.78" rx="19.07" ry="18.69"/><path class="cls-9" d="M1200.22,344l.83-3h-71.3l-2.9,7.92h66.83A6.8,6.8,0,0,0,1200.22,344Z"/><path class="cls-9" d="M1156,281.13h-7.54v0H1116.1v2.5h31.57l-3,10-2.88,9.6c-1.23,4.08-2.16,7.52-4.53,11.12l-1,1.5c-29.41,44.21-63.72,46.42-63.72,46.42,49.58,8,81.36-47.34,81.36-47.34l10.14-25.71A8.1,8.1,0,0,0,1156,281.13Z"/><path class="cls-9" d="M1111.53,305.93l9-34.52c0-6.76-3.63-12.25-8.1-12.25h-7.54l-10.14,51.14H1131a3.54,3.54,0,0,0,3.36-2.74l.42-1.63Z"/><path class="cls-9" d="M1125.51,322.35l.39-1.63h-33.38l-1.36,4.37h31.29A3.31,3.31,0,0,0,1125.51,322.35Z"/><path class="cls-9" d="M1211.51,323.28c-1.6-1.51-3.09-3.07-4.52-4.67h3a5.69,5.69,0,0,0,5.34-3.73l12.16-25.6c0-4.81-3.63-8.71-8.1-8.71h-7.54l0,.06h-31.45a3.8,3.8,0,0,0-2.75-1.7,30.79,30.79,0,0,0-5.16,0c-.58,0-6.68.38-6.88,0,6.14,11.08,11.19,26.46,17.47,37.51,6.39,11.25,14.68,21.85,25.35,30,5.35,4.07,11.28,7.88,18,9.77,7.15,2,14.62,1.72,21.71,1,9.93-1,17-2.58,23.31-8.43C1249.75,345.07,1226.56,337.49,1211.51,323.28Zm-28.77-38.61h27.64L1201,311.13c-1.7-2.28-3.34-4.59-5-6.89C1191.4,297.74,1186.79,291.41,1182.73,284.66Z"/><path class="cls-9" d="M1194.57,405.72c-4.67-5.88-8-12-11.35-18.08l-9.07-16.57h56a6.31,6.31,0,0,0,5.76-3.74l1.87-4.19H1108.6l-4.64,7.93h49.82c-5,20.88-18,85.93-18,85.93,9.59,0,15.26-1.13,20.09-7.67,3.46-4.68,3.89-21.47,7.45-36.29,1.31-5.46,2.56-10.92,3.79-16.39a99.39,99.39,0,0,0,18.26,27.79,62.37,62.37,0,0,0,14.38,11.83c5.88,3.3,12.24,5,18.33,6.22,8.52,1.75,19,.12,24.92-2.64C1225,431.59,1206,420.09,1194.57,405.72Z"/><ellipse class="cls-9" cx="935.37" cy="457.59" rx="19.07" ry="18.69"/><path class="cls-9" d="M908.64,428.05H927l.36-2.23h-.05l14.47-65.65.14-3.73c.3-8.18-8.39-9.3-16.31-10.09v-.07h-.76l-1.19-.12,0,.12H907.08l0-.12H885.35l-14.85,81.9h38.14Zm14.68-78.21-14.27,72.6H894l12.77-72.6Z"/><path class="cls-9" d="M1061.51,356.88c.26-5.28-7.06-6-13.72-6.52v0h-.64l-1-.08,0,.08h-15.64l-1.67-.08h-1l.3-1.44h0l11.28-42.4s.11-2.39.12-2.41c.25-5.28-7.06-6-13.72-6.52v0h-.64l-1-.08,0,.08h-13.95l0-.08H991.87l-12.48,52.88h34.54l-12.48,52.88h48.41l.3-1.44h0l11.28-42.4Zm-62.36-9.77,10.74-46.77h13.92l-12,46.77Zm22.06,51.19,10.74-45.08h13.92l-12,45.08Z"/><path class="cls-9" d="M998,415.59l.58-3.5c.07-.41.68-5.28,1.21-8.89a3.43,3.43,0,0,0-3.4-3.92H988l10.64-40,.12-2.41c.25-5.28-7.06-6-13.72-6.52v0h-.64l-1-.08,0,.08H969.47l0-.08H951.2l-12.48,52.88h43.79c-.46,3-1.17,7.53-2.06,12.46h-45.6l-1.74,6.68h46.14l-.55,3.08v0l-7.4,41.25c-3.5,19.51-6.42,32.4-6.42,32.4,8.79,0,14-1.37,18.42-9.29,3.17-5.67,3.57-10.33,6.82-28.28Q991.6,453.2,993,445a98.49,98.49,0,0,0,17.25,24,54.92,54.92,0,0,0,31.22,17.36c8,1.88,17.79.79,23.2-1.48-17.18-8.06-35.32-19.05-46.51-32.36a121.2,121.2,0,0,1-11.26-16.62l-8.13-13.61h67.66a5.94,5.94,0,0,0,5.53-3.77l1.14-2.91ZM958.47,398.3l10.74-45.08h13.92l-12,45.08Z"/><path class="cls-10" d="M758.27,284.48l5.41-41.64H746.82l-5.67,41.64H708.21l-1.28,6.75h33.31L724.11,409.72c-.44,3.26,1.46,6.26,4,6.26h89.31c7.72-1,12.94-5,17.52-15.87,4.1-9.68,4.62-23.41,8.83-54.08,2.51-18.24,4.86-36.52,7.18-54.81h31c1.77,0,2.78-1.65,3.29-3.15.15-.43.26-.86.43-1.28s.77-2.32,1.26-2.32H851.78q1.43-11.32,2.86-22.64c.09-.73,1-8.66,1.67-14,.34-2.6-1.18-5-3.18-5H830.79s-2.61,18.45-5.77,41.64Zm-16,115.23,9.09-62h66.52c-3.86,28.34-7.55,49-9.41,61-.41,2.69-2.2,4.62-4.28,4.62H744.56C743.09,403.37,742,401.61,742.27,399.71ZM824.2,291.23l-4.61,33.84c-.34,2.51-2,4.33-3.93,4.33H752.44l5-38.18Z"/><ellipse class="cls-10" cx="1097.71" cy="404.78" rx="19.07" ry="18.69"/><path class="cls-10" d="M1195,344l.83-3h-71.3l-2.9,7.92h66.83A6.8,6.8,0,0,0,1195,344Z"/><path class="cls-10" d="M1150.8,281.13h-7.54v0h-32.32v2.5h31.57l-3,10-2.88,9.6c-1.23,4.08-2.16,7.52-4.53,11.12l-1,1.5c-29.41,44.21-63.72,46.42-63.72,46.42,49.58,8,81.36-47.34,81.36-47.34l10.14-25.71A8.1,8.1,0,0,0,1150.8,281.13Z"/><path class="cls-10" d="M1106.36,305.93l9-34.52c0-6.76-3.63-12.25-8.1-12.25h-7.54l-10.14,51.14h36.24a3.54,3.54,0,0,0,3.36-2.74l.42-1.63Z"/><path class="cls-10" d="M1120.34,322.35l.39-1.63h-33.38l-1.36,4.37h31.29A3.31,3.31,0,0,0,1120.34,322.35Z"/><path class="cls-10" d="M1206.33,323.28c-1.6-1.51-3.09-3.07-4.52-4.67h3a5.69,5.69,0,0,0,5.34-3.73l12.16-25.6c0-4.81-3.63-8.71-8.1-8.71h-7.54l0,.06h-31.45a3.8,3.8,0,0,0-2.75-1.7,30.79,30.79,0,0,0-5.16,0c-.58,0-6.68.38-6.88,0,6.14,11.08,11.19,26.46,17.47,37.51,6.39,11.25,14.68,21.85,25.35,30,5.35,4.07,11.28,7.88,18,9.77,7.15,2,14.62,1.72,21.71,1,9.93-1,17-2.58,23.31-8.43C1244.58,345.07,1221.39,337.49,1206.33,323.28Zm-28.77-38.61h27.64l-9.41,26.47c-1.7-2.28-3.34-4.59-5-6.89C1186.22,297.74,1181.62,291.41,1177.56,284.66Z"/><path class="cls-10" d="M1189.4,405.72c-4.67-5.88-8-12-11.35-18.08L1169,371.07h56a6.31,6.31,0,0,0,5.76-3.74l1.87-4.19H1103.43l-4.64,7.93h49.82c-5,20.88-18,85.93-18,85.93,9.59,0,15.26-1.13,20.09-7.67,3.46-4.68,3.89-21.47,7.45-36.29,1.31-5.46,2.56-10.92,3.79-16.39a99.39,99.39,0,0,0,18.26,27.79,62.37,62.37,0,0,0,14.38,11.83c5.88,3.3,12.24,5,18.33,6.22,8.52,1.75,19,.12,24.92-2.64C1219.78,431.59,1200.82,420.09,1189.4,405.72Z"/><ellipse class="cls-10" cx="930.2" cy="457.59" rx="19.07" ry="18.69"/><path class="cls-10" d="M903.47,428.05h18.39l.36-2.23h-.05l14.47-65.65.14-3.73c.3-8.18-8.39-9.3-16.31-10.09v-.07h-.76l-1.19-.12,0,.12H901.91l0-.12H880.18l-14.85,81.9h38.14Zm14.68-78.21-14.27,72.6h-15l12.77-72.6Z"/><path class="cls-10" d="M1056.34,356.88c.26-5.28-7.06-6-13.72-6.52v0H1042l-1-.08,0,.08h-15.64l-1.67-.08h-1l.3-1.44h0l11.28-42.4s.11-2.39.12-2.41c.25-5.28-7.06-6-13.72-6.52v0h-.64l-1-.08,0,.08H1005l0-.08H986.7l-12.48,52.88h34.54l-12.48,52.88h48.41l.3-1.44h0l11.28-42.4ZM994,347.11l10.74-46.77h13.92l-12,46.77ZM1016,398.3l10.74-45.08h13.92l-12,45.08Z"/><path class="cls-10" d="M992.78,415.59l.58-3.5c.07-.41.68-5.28,1.21-8.89a3.43,3.43,0,0,0-3.4-3.92h-8.32l10.64-40,.12-2.41c.25-5.28-7.06-6-13.72-6.52v0h-.64l-1-.08,0,.08H964.3l0-.08H946l-12.48,52.88h43.79c-.46,3-1.17,7.53-2.06,12.46h-45.6l-1.74,6.68h46.14l-.55,3.08v0l-7.4,41.25c-3.5,19.51-6.42,32.4-6.42,32.4,8.79,0,14-1.37,18.42-9.29,3.17-5.67,3.57-10.33,6.82-28.28q1.49-8.19,2.89-16.4a98.49,98.49,0,0,0,17.25,24,54.92,54.92,0,0,0,31.22,17.36c8,1.88,17.79.79,23.2-1.48-17.18-8.06-35.32-19.05-46.51-32.36a121.2,121.2,0,0,1-11.26-16.62l-8.13-13.61h67.66a5.94,5.94,0,0,0,5.53-3.77l1.14-2.91ZM953.3,398.3,964,353.22H978L966,398.3Z"/><path class="cls-7" d="M907.6,540.39a5.11,5.11,0,0,1-.37,1.83,6.42,6.42,0,0,1-1.11,1.85,5.69,5.69,0,0,1-1.88,1.44,5.92,5.92,0,0,1-2.62.55,7.2,7.2,0,0,1-2.93-.64,6.44,6.44,0,0,1-2.47-1.91,7.4,7.4,0,0,0-.56,1.87h-1.26V539h1.26a12.47,12.47,0,0,0,.94,2.57,6.07,6.07,0,0,0,1.7,2.07,4.22,4.22,0,0,0,2.7.87,3.19,3.19,0,0,0,2.24-.77,2.5,2.5,0,0,0,.84-1.93,2.43,2.43,0,0,0-.26-1.15,2.79,2.79,0,0,0-.75-.88,8.64,8.64,0,0,0-1.35-.83q-.85-.44-1.95-.94a16.13,16.13,0,0,1-2.76-1.6,7.74,7.74,0,0,1-1.63-1.57,5,5,0,0,1-.77-1.44,4.63,4.63,0,0,1-.21-1.38,5,5,0,0,1,.67-2.45,5.28,5.28,0,0,1,2-2,5.71,5.71,0,0,1,3-.77,5.52,5.52,0,0,1,2.47.58,6.35,6.35,0,0,1,2,1.59,8.39,8.39,0,0,0,.45-1.61h1.29v5.17H905q-1.37-4.22-4.76-4.22a2.9,2.9,0,0,0-2,.65,2.12,2.12,0,0,0-.75,1.67,2.21,2.21,0,0,0,.46,1.4,4,4,0,0,0,1.22,1q.76.42,2.45,1.22a34.92,34.92,0,0,1,3.21,1.68,6.93,6.93,0,0,1,2,1.79A4.27,4.27,0,0,1,907.6,540.39Z"/><path class="cls-7" d="M931.23,535.77a2.49,2.49,0,0,0-.94.14,1.3,1.3,0,0,0-.55.5,11.62,11.62,0,0,0-.68,1.29l-4,8.46h-1.18l-3.73-7.37-3.64,7.37h-1.18l-4-8.44a6,6,0,0,0-.94-1.61,1.93,1.93,0,0,0-1.29-.35v-1.26h7v1.26h-.38q-1,0-1,.68a2.22,2.22,0,0,0,.26.9l2.15,4.62,3.71-7.45h1l3.76,7.45,2-4.27a4.25,4.25,0,0,0,.42-1.26.51.51,0,0,0-.36-.56,4.83,4.83,0,0,0-1.24-.11v-1.26h4.81Z"/><path class="cls-7" d="M944.1,539.69h-8.41q0,.26.08,1.11a6.47,6.47,0,0,0,.38,1.74,3.27,3.27,0,0,0,1.11,1.5,3.36,3.36,0,0,0,2.11.61,5.33,5.33,0,0,0,1.75-.37,3.76,3.76,0,0,0,1.78-1.42l1.07.72a5.6,5.6,0,0,1-5.13,2.58,8.64,8.64,0,0,1-2.86-.45,6.42,6.42,0,0,1-2.19-1.26,5.45,5.45,0,0,1-1.38-1.9,5.79,5.79,0,0,1-.48-2.35,6.1,6.1,0,0,1,.8-3.06,5.86,5.86,0,0,1,2.29-2.24,6.85,6.85,0,0,1,3.4-.83,5.87,5.87,0,0,1,3.17.81,5,5,0,0,1,1.91,2.09A6.25,6.25,0,0,1,944.1,539.69Zm-3.39-1.26q0-3.12-2.46-3.12a2.13,2.13,0,0,0-1.83.86,4.05,4.05,0,0,0-.7,2.26Z"/><path class="cls-7" d="M958.37,539.69H950q0,.26.08,1.11a6.47,6.47,0,0,0,.38,1.74,3.27,3.27,0,0,0,1.11,1.5,3.36,3.36,0,0,0,2.11.61,5.33,5.33,0,0,0,1.75-.37,3.76,3.76,0,0,0,1.78-1.42l1.07.72a5.6,5.6,0,0,1-5.13,2.58,8.64,8.64,0,0,1-2.86-.45,6.42,6.42,0,0,1-2.19-1.26,5.45,5.45,0,0,1-1.38-1.9,5.79,5.79,0,0,1-.48-2.35,6.1,6.1,0,0,1,.8-3.06,5.86,5.86,0,0,1,2.29-2.24,6.85,6.85,0,0,1,3.4-.83,5.87,5.87,0,0,1,3.17.81,5,5,0,0,1,1.91,2.09A6.25,6.25,0,0,1,958.37,539.69ZM955,538.43q0-3.12-2.46-3.12a2.13,2.13,0,0,0-1.83.86,4.05,4.05,0,0,0-.7,2.26Z"/><path class="cls-7" d="M969.31,543.27a5.42,5.42,0,0,1-1.72,2.21,4,4,0,0,1-2.31.67,3.6,3.6,0,0,1-2.38-.66A2.69,2.69,0,0,1,962,544a8.56,8.56,0,0,1-.18-1.83v-6.44h-2.06v-1.26A4.87,4.87,0,0,0,962,534a3.93,3.93,0,0,0,1.51-1.33,4.46,4.46,0,0,0,.7-1.79h1.12v3.61h3.87v1.26H965.3v6.52a6.62,6.62,0,0,0,.16,1.72.72.72,0,0,0,.77.53,1.34,1.34,0,0,0,1.08-.51,7.24,7.24,0,0,0,.82-1.28Z"/><path class="cls-7" d="M991.4,540.39a5.11,5.11,0,0,1-.37,1.83,6.41,6.41,0,0,1-1.11,1.85A5.68,5.68,0,0,1,988,545.5a5.92,5.92,0,0,1-2.62.55,7.2,7.2,0,0,1-2.93-.64,6.44,6.44,0,0,1-2.47-1.91,7.4,7.4,0,0,0-.56,1.87H978.2V539h1.26a12.47,12.47,0,0,0,.94,2.57,6.09,6.09,0,0,0,1.7,2.07,4.22,4.22,0,0,0,2.7.87,3.19,3.19,0,0,0,2.24-.77,2.5,2.5,0,0,0,.84-1.93,2.43,2.43,0,0,0-.26-1.15,2.78,2.78,0,0,0-.75-.88,8.64,8.64,0,0,0-1.35-.83q-.85-.44-1.95-.94a16.13,16.13,0,0,1-2.76-1.6,7.75,7.75,0,0,1-1.63-1.57,5,5,0,0,1-.77-1.44,4.63,4.63,0,0,1-.21-1.38,5,5,0,0,1,.67-2.45,5.28,5.28,0,0,1,2-2,5.71,5.71,0,0,1,3-.77,5.52,5.52,0,0,1,2.47.58,6.34,6.34,0,0,1,2,1.59,8.39,8.39,0,0,0,.45-1.61h1.29v5.17h-1.29q-1.37-4.22-4.76-4.22a2.9,2.9,0,0,0-2,.65,2.12,2.12,0,0,0-.75,1.67,2.21,2.21,0,0,0,.46,1.4,4,4,0,0,0,1.22,1q.76.42,2.45,1.22a34.92,34.92,0,0,1,3.21,1.68,6.93,6.93,0,0,1,2,1.79A4.27,4.27,0,0,1,991.4,540.39Z"/><path class="cls-7" d="M1007.24,540.08a5.79,5.79,0,0,1-.9,3.24,5.85,5.85,0,0,1-2.44,2.11,7.75,7.75,0,0,1-3.37.73,8.08,8.08,0,0,1-3.26-.67,6,6,0,0,1-2.52-2,5.61,5.61,0,0,1-1-3.35,5.31,5.31,0,0,1,2-4.5,7.72,7.72,0,0,1,4.81-1.54,7.37,7.37,0,0,1,3.58.82,5.61,5.61,0,0,1,2.28,2.2A6,6,0,0,1,1007.24,540.08Zm-3.77-.08a7.79,7.79,0,0,0-.62-3.5,2.44,2.44,0,0,0-2.39-1.18,2.75,2.75,0,0,0-1.77.51,2.78,2.78,0,0,0-.89,1.59,12.48,12.48,0,0,0-.25,2.78,8.69,8.69,0,0,0,.56,3.4,2.37,2.37,0,0,0,2.45,1.3,2.42,2.42,0,0,0,1.89-.72,3.47,3.47,0,0,0,.83-1.78A14.16,14.16,0,0,0,1003.46,540Z"/><path class="cls-7" d="M1024.46,545.63l-1.38.09q-1,.06-2.21.18a19.31,19.31,0,0,0-2,.27v-2a5.42,5.42,0,0,1-4.22,2,3.9,3.9,0,0,1-2.65-.77,3.19,3.19,0,0,1-1.07-1.69,9.09,9.09,0,0,1-.21-2v-4a5.28,5.28,0,0,0-.1-1.18.87.87,0,0,0-.51-.57,3.35,3.35,0,0,0-1.35-.2v-1.26h5.48V542q0,2.32,1.79,2.32a2.33,2.33,0,0,0,1.74-.73,7.15,7.15,0,0,0,1.09-1.4v-4.51a5.06,5.06,0,0,0-.1-1.22.85.85,0,0,0-.53-.55,3.84,3.84,0,0,0-1.41-.18v-1.26h5.56v8.23a2.79,2.79,0,0,0,.12,1,.9.9,0,0,0,.56.49,4.08,4.08,0,0,0,1.34.18Z"/><path class="cls-7" d="M1041.16,545.71h-7.08v-1.26a2.33,2.33,0,0,0,1.16-.21.9.9,0,0,0,.43-.62,7.77,7.77,0,0,0,.08-1.35v-3.87a4.13,4.13,0,0,0-.34-1.84,1.41,1.41,0,0,0-1.39-.68,2.37,2.37,0,0,0-2.14,1.1,4.6,4.6,0,0,0-.7,2.54v3.06a2.49,2.49,0,0,0,.31,1.48,1.71,1.71,0,0,0,1.35.4v1.26h-7.22v-1.26a4,4,0,0,0,1.31-.16.88.88,0,0,0,.56-.56,4.34,4.34,0,0,0,.14-1.28V538a1.58,1.58,0,0,0-.37-1.25,3,3,0,0,0-1.64-.29v-1.26l5.32-1.18a9.67,9.67,0,0,1,.12,1.48c0,.12,0,.22,0,.31s0,.18,0,.29a9.1,9.1,0,0,1,1.79-1.5,4.31,4.31,0,0,1,2.32-.58,5.07,5.07,0,0,1,2.11.42,3.28,3.28,0,0,1,1.47,1.29,3.87,3.87,0,0,1,.53,2.08v4.61a2.85,2.85,0,0,0,.31,1.57q.31.42,1.58.42Z"/><path class="cls-7" d="M1058.21,545.54a33.35,33.35,0,0,0-5.29.62,4.28,4.28,0,0,1-.25-1.44,5.92,5.92,0,0,1-3.84,1.44,5.66,5.66,0,0,1-3-.83,6.13,6.13,0,0,1-2.19-2.28,6.28,6.28,0,0,1-.81-3.14,6.42,6.42,0,0,1,.36-2.09,5.68,5.68,0,0,1,1.11-1.91,5.28,5.28,0,0,1,1.88-1.36,6.3,6.3,0,0,1,2.56-.49,5.56,5.56,0,0,1,1.8.26,4.49,4.49,0,0,1,1.2.59,8.36,8.36,0,0,1,.92.8v-4.48a4.06,4.06,0,0,0-.15-1.31.79.79,0,0,0-.57-.51,6.77,6.77,0,0,0-1.36-.14V528l5.61-1.18v15.31a7,7,0,0,0,.09,1.37.78.78,0,0,0,.5.55,4.59,4.59,0,0,0,1.42.21Zm-5.54-2.58v-5.54a7.33,7.33,0,0,0-1.37-1.27,3.13,3.13,0,0,0-1.89-.57,2.32,2.32,0,0,0-1.26.37,2.92,2.92,0,0,0-.94.94,6.22,6.22,0,0,0-.6,3.19,5.69,5.69,0,0,0,.85,3.42,2.56,2.56,0,0,0,2.13,1.15,3.4,3.4,0,0,0,1.71-.45A4.39,4.39,0,0,0,1052.67,543Z"/><path class="cls-7" d="M941.88,563H940.6a5.63,5.63,0,0,0-.91-2.26,2.32,2.32,0,0,0-1.27-.87,9.1,9.1,0,0,0-2-.16h-3.31v6.55h1.74a2.44,2.44,0,0,0,1.67-.42,3,3,0,0,0,.52-1.87h1.26v6.17H937a5.51,5.51,0,0,0-.25-1.53,1.09,1.09,0,0,0-.63-.64,3.8,3.8,0,0,0-1.33-.18h-1.68v5.51a2.55,2.55,0,0,0,.44,1.65q.44.53,2.11.53h.38v1.26h-9.52v-1.26a3.22,3.22,0,0,0,2.18-.5,2.38,2.38,0,0,0,.49-1.69V561.61a3.7,3.7,0,0,0-.16-1.24,1.27,1.27,0,0,0-.75-.7,4.63,4.63,0,0,0-1.76-.25v-1.26h15.18Z"/><path class="cls-7" d="M953.79,570.69h-8.41q0,.26.08,1.11a6.48,6.48,0,0,0,.38,1.74A3.27,3.27,0,0,0,947,575a3.36,3.36,0,0,0,2.11.61,5.33,5.33,0,0,0,1.75-.37,3.76,3.76,0,0,0,1.78-1.42l1.07.72a5.6,5.6,0,0,1-5.13,2.58,8.64,8.64,0,0,1-2.86-.45,6.42,6.42,0,0,1-2.19-1.26,5.45,5.45,0,0,1-1.38-1.9,5.8,5.8,0,0,1-.48-2.35,6.1,6.1,0,0,1,.8-3.06,5.86,5.86,0,0,1,2.29-2.24,6.85,6.85,0,0,1,3.4-.83,5.86,5.86,0,0,1,3.17.81,5,5,0,0,1,1.91,2.09A6.25,6.25,0,0,1,953.79,570.69Zm-3.39-1.26q0-3.12-2.46-3.12a2.13,2.13,0,0,0-1.83.86,4.05,4.05,0,0,0-.7,2.26Z"/><path class="cls-7" d="M967.27,573.45a3,3,0,0,1-.7,2,4.35,4.35,0,0,1-1.93,1.26,8.49,8.49,0,0,1-2.82.43,11.38,11.38,0,0,1-2.17-.21,7.12,7.12,0,0,1-1.91-.64l-.53.77h-1.07l-.14-3.55h1.15a3.29,3.29,0,0,0,1.38,1.65,5.58,5.58,0,0,0,3.13.73,9.14,9.14,0,0,0,1.12-.08,2.86,2.86,0,0,0,1.16-.42,1.15,1.15,0,0,0,.55-1.05.94.94,0,0,0-.57-.9,12.56,12.56,0,0,0-2.13-.68q-1.89-.48-3.09-.91a5.59,5.59,0,0,1-2-1.24,2.76,2.76,0,0,1-.83-2.08,2.9,2.9,0,0,1,1.48-2.56,7.15,7.15,0,0,1,3.89-.94,9.47,9.47,0,0,1,2.41.25,9.62,9.62,0,0,1,1.52.53l.33-.7h1.09v3.17h-1.12a2.08,2.08,0,0,0-.68-1,3.67,3.67,0,0,0-1.42-.72,7.43,7.43,0,0,0-2-.25,9,9,0,0,0-1.91.21q-1,.21-1,1a.75.75,0,0,0,.18.52,1.69,1.69,0,0,0,.64.38,15,15,0,0,0,1.59.46l1.35.34a14.52,14.52,0,0,1,3.66,1.38A3,3,0,0,1,967.27,573.45Z"/><path class="cls-7" d="M978.14,574.27a5.42,5.42,0,0,1-1.72,2.21,4,4,0,0,1-2.31.67,3.6,3.6,0,0,1-2.38-.66,2.69,2.69,0,0,1-.94-1.47,8.56,8.56,0,0,1-.18-1.83v-6.44h-2.06v-1.26a4.87,4.87,0,0,0,2.26-.49,3.93,3.93,0,0,0,1.51-1.33,4.46,4.46,0,0,0,.7-1.79h1.12v3.61H978v1.26h-3.87v6.52a6.64,6.64,0,0,0,.16,1.72.72.72,0,0,0,.77.53,1.34,1.34,0,0,0,1.08-.51,7.24,7.24,0,0,0,.82-1.28Z"/><path class="cls-7" d="M986.5,576.71h-7.42v-1.26h.4a2.32,2.32,0,0,0,1.16-.22.91.91,0,0,0,.44-.62,6.16,6.16,0,0,0,.08-1.16v-4.06a4.88,4.88,0,0,0-.1-1.2.8.8,0,0,0-.53-.52,4.63,4.63,0,0,0-1.44-.18v-1.26l5.61-1.18v8.39A3,3,0,0,0,985,575q.29.42,1.53.42Zm-1.54-17a2,2,0,1,1-.57-1.42A1.93,1.93,0,0,1,985,559.71Z"/><path class="cls-7" d="M1001.7,566.77a1.17,1.17,0,0,0-1,.4,10,10,0,0,0-.91,1.56l-4.12,8.3H993.8l-4.7-9.05a3.42,3.42,0,0,0-.63-1,2.25,2.25,0,0,0-1-.22v-1.26h6.69v1.26a4.56,4.56,0,0,0-1.06.13.42.42,0,0,0-.33.43,2.11,2.11,0,0,0,.27.78l2.86,5.55,2.72-5.47a2.39,2.39,0,0,0,.27-.83.45.45,0,0,0-.32-.49,3.79,3.79,0,0,0-1-.1v-1.26h4.14Z"/><path class="cls-7" d="M1016.67,573.82a3.48,3.48,0,0,1-.42,1.77,2.63,2.63,0,0,1-1.14,1.08,3.66,3.66,0,0,1-1.62.35,3.24,3.24,0,0,1-1.91-.54,2.08,2.08,0,0,1-.92-1.29,7.33,7.33,0,0,1-4.59,1.83,3.89,3.89,0,0,1-2.42-.72,2.26,2.26,0,0,1-.94-1.89,3.18,3.18,0,0,1,.51-1.76,4.68,4.68,0,0,1,1.48-1.4,11.44,11.44,0,0,1,2.33-1.09q1.35-.47,3.38-1v-.78a2.32,2.32,0,0,0-.46-1.52,2.11,2.11,0,0,0-1.69-.55,2.17,2.17,0,0,0-1.52.44,2.29,2.29,0,0,0-.62,1.33,2.44,2.44,0,0,1-.4,1,1.46,1.46,0,0,1-1.22.4,1.64,1.64,0,0,1-1-.33,1.14,1.14,0,0,1-.44-1,2.68,2.68,0,0,1,1.38-2.21,7.6,7.6,0,0,1,4.24-.94q3,0,4.14,1a3.46,3.46,0,0,1,1.13,2.71v4.32q0,.82,0,1.2a1,1,0,0,0,.23.58.8.8,0,0,0,1.2-.17,1.48,1.48,0,0,0,.27-.89Zm-6.28.11v-3.39a8.1,8.1,0,0,0-3.3,1.61,2.34,2.34,0,0,0-.7,1.54,1.37,1.37,0,0,0,.38,1,1.46,1.46,0,0,0,1.08.38,2.71,2.71,0,0,0,1.33-.31A8.34,8.34,0,0,0,1010.39,573.93Z"/><path class="cls-7" d="M1024.9,576.71H1017v-1.26h.59a2.32,2.32,0,0,0,1.16-.22.91.91,0,0,0,.44-.62,6.16,6.16,0,0,0,.08-1.16V561.81q0-1-.46-1.26a4,4,0,0,0-1.81-.27V559l5.8-1.18v15.61a6.61,6.61,0,0,0,.08,1.16.91.91,0,0,0,.44.62,2.26,2.26,0,0,0,1.16.23h.4Z"/><circle class="cls-11" cx="1323.77" cy="241.38" r="41.46"/><circle class="cls-11" cx="1323.77" cy="367.88" r="41.46"/><circle class="cls-11" cx="1323.77" cy="494.38" r="41.46"/><circle class="cls-11" cx="1323.77" cy="620.87" r="41.46"/><circle class="cls-11" cx="608.34" cy="241.38" r="41.46"/><circle class="cls-11" cx="608.34" cy="367.88" r="41.46"/><circle class="cls-11" cx="608.34" cy="494.38" r="41.46"/><circle class="cls-11" cx="608.34" cy="622.87" r="41.46"/><path class="cls-7" d="M1313.32,249.71c1.23,2.05,2,2.79,3.9,3.37s5.13,1,9.65,1a131.19,131.19,0,0,0,16.3-1c.21,0,.16.37,0,.45a2.72,2.72,0,0,0-1.6,2.26c-.08,1.27-.2,1.4-1.07,1.48-2.22.2-7,.33-10.34.33-6.9,0-11-.49-13.71-2.05-2.13-1.23-3.37-3.16-4.27-6a41.73,41.73,0,0,1-4.19,6.28c.12,1.6-.12,2-.7,2s-1.48-1.48-3-5.09a14.6,14.6,0,0,0,2.26-1c.86-.45,1.89-1.07,3.12-1.81v-11h-2.34a8,8,0,0,0-2.22.33l-.45-1.6a11.2,11.2,0,0,0,2.67.33h2.05c1.44-1.68,1.77-1.93,2.09-1.93s.74.25,2.22,1.48c.66.57.9.86.9,1.19s-.12.41-1.23,1.31Zm-2.13-19.83c-.94,0-1.44-.49-2-2.54a12,12,0,0,0-2.63-4.8c-.16-.16.12-.41.33-.37,4.72,1.31,6.44,3.28,6.44,5.25A2.19,2.19,0,0,1,1311.18,229.89Zm20.81,0h3.94c1.23-1.44,1.56-1.68,1.89-1.68s.74.25,2.09,1.48c.62.53.86.86.86,1.19s-.25.66-1.15,1.19v1.64c0,4.27.16,7.22.16,8.17,0,1.19-.57,1.68-2,1.68-1.11,0-1.56-.29-1.56-1.07v-.12h-15.85v.12c0,.94-.74,1.35-2.05,1.35-1,0-1.56-.37-1.56-1.15,0-1.48.25-3,.25-8.95a51.14,51.14,0,0,0-.25-5.58c1.81.74,2.09.86,3.94,1.72h3.2a25,25,0,0,0,0-3h-6.08a16.9,16.9,0,0,0-2.63.25l-.45-1.52a14.84,14.84,0,0,0,3.08.33h6c-.41-.16-.66-.53-.82-1.31a8.38,8.38,0,0,0-1.72-3.41c-.12-.16.12-.41.33-.37,3.24.62,4.8,1.6,4.8,3.08a2.06,2.06,0,0,1-1.44,2h4.56c.45-1.11.78-2,1-2.75a18.45,18.45,0,0,0,.7-2.71c3.37,1.07,4.72,1.77,4.72,2.26s-.37.74-1.89.86a16.49,16.49,0,0,1-3.08,2.34h5.38c1.56-1.93,2.05-2.26,2.34-2.26s.82.33,2.38,1.56c.7.57,1,.94,1,1.23s-.12.41-.53.41H1332Zm3.33,17.69c0,.82,0,1.72,0,2.54a2.67,2.67,0,0,1-.94,2.46,6.26,6.26,0,0,1-3,.9c-.9,0-1-.12-1.11-1-.16-1.15-.53-1.44-3.12-2.3-.21-.08-.21-.53,0-.53,1.85.12,2.91.12,3.94.12.57,0,.74-.16.74-.74v-2.59h-13.22a27.05,27.05,0,0,0-3.37.25l-.45-1.52a21.46,21.46,0,0,0,3.69.33h13.34a15.3,15.3,0,0,0-.16-2.42c4,.29,4.8.45,4.8,1,0,.29-.12.37-1.15.82v.57h2.34c1.44-1.52,1.93-1.85,2.22-1.85s.82.33,2.05,1.31c.53.41.86.78.86,1.07s-.12.41-.53.41h-6.94Zm-11.54,4.88c-.9,0-1.11-.29-1.81-2.13a5.78,5.78,0,0,0-1.85-2.91.19.19,0,0,1,.16-.33c3.61.37,5.5,1.48,5.5,3.24A2,2,0,0,1,1323.78,252.42Zm12.44-17.16a1.38,1.38,0,0,1-.9.62,7.74,7.74,0,0,1-2.75.37c-2.59,0-3.49-.57-3.49-2.42,0-.37.12-.74.12-2.38v-.66h-2.42c-.53,3.74-2.13,5.17-6.08,6.28-.2,0-.29-.29-.12-.41,2.17-1.52,3-2.71,3.28-5.87h-3.49v7.27h15.85Zm-15.85,6.12h15.85V239h-15.85Zm6.65-14.57c0,1,0,2-.12,3h2.3v-3Zm9.19,4H1332V233c0,.66,0,.74.62.74a1.19,1.19,0,0,0,1-.37,4.61,4.61,0,0,0,.82-1.85.16.16,0,0,1,.33,0c0,.37,0,.78.08,1.31s.12.53.66.74a2.08,2.08,0,0,1,.74.45Z"/><path class="cls-7" d="M1325.31,366.48h6.61c1.56-1.85,1.89-2.09,2.22-2.09s.74.25,2.5,1.72c.82.7,1.07,1,1.07,1.31s-.25.7-1.36,1.31v3.45c0,5.87.12,8.66.12,10,0,1.11-.86,1.68-2.54,1.68-1.19,0-1.68-.41-1.68-1.44v-1.77h-17.36v1.6c0,1.15-.86,1.6-2.54,1.6-1.11,0-1.64-.41-1.64-1.4,0-2.3.12-4.23.12-13.46,0-1.89,0-3.37-.12-4.84a40,40,0,0,1,4.6,2.34h6V357h-12.36a27.06,27.06,0,0,0-3.37.25l-.45-1.52a20.66,20.66,0,0,0,3.61.33h12.56v-5.34a42.43,42.43,0,0,0-.2-4.76c5.21.45,5.71.9,5.71,1.31s-.33.82-1.48,1.19v7.59H1335c2.26-2.71,2.75-3,3-3s.82.33,3,2.09c1,.82,1.35,1.19,1.35,1.48s-.12.41-.53.41h-16.58Zm6.94.94h-17.36V379.7h17.36Z"/><path class="cls-7" d="M1310.9,499.1a6.91,6.91,0,0,0-.49,2.71c0,2.17,1.64,3.9,1.64,6.07a2.71,2.71,0,0,1-2.63,3c-1.4,0-2-.74-2-2.13s.33-2.71.33-4.06c0-2.67-.37-3.12-3.2-4.15-.2-.08-.12-.66.08-.62a14.55,14.55,0,0,0,1.68.21,2.07,2.07,0,0,0,1.81-.94c.94-1.23,4.52-7.43,7.8-13.46.08-.16.57,0,.49.2C1314.68,490.4,1312.62,495,1310.9,499.1Zm-1.31-8.21a1.55,1.55,0,0,1-1.56-1.07c-1.27-2.91-1.52-3.24-3.37-4.84-.16-.12,0-.33.16-.33,4.35.33,6.73,1.81,6.73,4A2.13,2.13,0,0,1,1309.59,490.89Zm3.2-9.77c-1,0-1.23-.21-2.13-2.34a8,8,0,0,0-2.91-3.69c-.16-.12,0-.33.16-.33,4.39.37,6.94,1.89,6.94,4.19A2.06,2.06,0,0,1,1312.79,481.12Zm16.09,12.31a46.64,46.64,0,0,1-7.55,12.07c4.64,0,9.32-.21,14-.7a25.16,25.16,0,0,0-4.56-6.61c-.16-.16.16-.41.37-.33,6.08,2.71,10,6.61,10,9.89a2.47,2.47,0,0,1-2.42,2.75c-.94,0-1.52-.62-2-2.09a18.14,18.14,0,0,0-.9-2.63,103.37,103.37,0,0,1-17.57,3.57c-.49,1.07-.9,1.48-1.4,1.48s-.62-.08-1.68-5.42c1.11.08,1.52.12,2.5.12h2.34a42.32,42.32,0,0,0,4.15-12.11h-6.28a12.57,12.57,0,0,0-2.3.25l-.45-1.52a12.09,12.09,0,0,0,2.75.33h7.84V484h-6a12.56,12.56,0,0,0-2.3.25l-.45-1.52a12.09,12.09,0,0,0,2.75.33h6V479a33.13,33.13,0,0,0-.29-5c5,.45,5.46.9,5.46,1.35s-.41.74-1.23,1.07v6.69h5.34c1.72-2.18,2.22-2.5,2.5-2.5s.82.33,2.59,1.77c.78.62,1.11,1,1.11,1.27s-.12.41-.53.41h-11v8.46h7.22c1.89-2.3,2.38-2.63,2.67-2.63s.82.33,2.5,1.85c.78.7,1.15,1,1.15,1.31s-.12.41-.53.41Z"/><path class="cls-7" d="M1319,634.52c2.71-.33,5.62-.74,8.21-1.19.21,0,.33.33.16.41a61,61,0,0,1-14.69,5.13c-.37.86-.53,1.11-.94,1.11-.57,0-1-1-1.93-4.93,2,0,2.79,0,3.65,0l1.85-.12V631.2a43.41,43.41,0,0,1-10.63,2.63c-.21,0-.33-.37-.12-.41a42.12,42.12,0,0,0,13.71-6.94h-9.4a25.29,25.29,0,0,0-3.24.25l-.45-1.52a20.66,20.66,0,0,0,3.61.33h13.05v-1a16.36,16.36,0,0,0-.16-2.5h-.2c-.45,0-.62-.12-.7-.66-.29-1.31-.66-1.64-2.5-2.13-.2,0-.2-.53,0-.49a25.35,25.35,0,0,0,2.75.16c.62,0,.74-.12.74-.57v-3.12h-4.06c0,3.37.08,5.71.08,6.77s-.62,1.6-2.09,1.6c-1.23,0-1.56-.33-1.56-1.44s0-3.2.08-6.94h-3.41v5.71c0,1.07-.62,1.52-2.09,1.52-1.11,0-1.52-.33-1.52-1.36,0-.74.16-1.48.16-4.52,0-1.35,0-2.71-.12-4.1a19.58,19.58,0,0,1,4,1.81h3v-3h-6a15.55,15.55,0,0,0-2.55.25l-.45-1.52a13.43,13.43,0,0,0,2.91.33h6.08v-3.49h-4.06a16.5,16.5,0,0,1-3.69,2.87c-.16.12-.53-.12-.41-.29a20.78,20.78,0,0,0,2.34-4.88,20.41,20.41,0,0,0,.74-2.67c3.53.9,4.27,1.19,4.27,1.72s-.49.66-1.44.78a16.19,16.19,0,0,1-1.07,1.52h3.33v-1.19c0-1.07,0-1.89-.12-3.2,3.9.49,4.76.82,4.76,1.44,0,.37-.25.57-1.27.94v2h3.08c1.19-1.68,1.68-2,2-2s.78.33,2,1.4c.49.49.82.86.82,1.15s-.12.41-.53.41h-7.31v3.49h4c1.44-1.81,1.93-2.13,2.22-2.13s.78.33,2.13,1.52c.53.49.86.86.86,1.15s-.12.41-.53.41h-8.7l0,3h3.57c1.27-1.31,1.6-1.56,1.93-1.56s.74.25,2.09,1.35c.57.49.82.78.82,1.11s-.29.57-1.15,1.31v.41c0,.57,0,1.44,0,2.05a2.61,2.61,0,0,1-.7,2,3.66,3.66,0,0,1-1.23.74c3.28.45,3.61.82,3.61,1.23s-.37.62-1.19.86v1.77h10.1c1.77-1.93,2.26-2.26,2.54-2.26s.86.33,2.59,1.6c.78.57,1.11.9,1.11,1.19s-.12.41-.53.41h-16.62a15.86,15.86,0,0,0,4.88,4.6c.74-.78,1.23-1.4,1.77-2s.94-1.35,1.52-2.3c3,1.56,4.06,2.3,4.06,2.79s-.37.7-1.81.66a40,40,0,0,1-4.15,1.64l.45.21a34.75,34.75,0,0,0,11.49,2.75c.2,0,.2.37,0,.45-1.31.49-1.72.9-2.38,2.71-.33.86-.45,1-.9,1a8.47,8.47,0,0,1-1.89-.45,27.18,27.18,0,0,1-8-3.94,19,19,0,0,1-6.16-8.09,30.71,30.71,0,0,1-4.6,3Zm12.93-27c0,4.8.08,8.13.08,9.24s-.66,1.48-2,1.48c-1.19,0-1.64-.37-1.64-1.48,0-.66.16-2.71.16-6.81,0-3.16,0-4.72-.2-6.53,4.76.57,4.76.62,4.76,1.23,0,.41-.29.7-1.15,1Zm4.06-2.67a28.8,28.8,0,0,0-.16-3.28c4.68.7,4.93.82,4.93,1.52,0,.37-.16.49-1.19,1v9c0,2.13.12,4.39.12,6.86a2.86,2.86,0,0,1-.78,2,4.42,4.42,0,0,1-3.53,1.19c-.53,0-.7-.12-.78-.78-.16-1.27-1.31-2.09-3.28-2.46-.2,0-.2-.57,0-.57,1.4.08,3,.12,4,.12.53,0,.66-.16.66-.78Z"/><path class="cls-7" d="M593.95,243.57c0-2.18,0-4.84,0-8.07,0-2.89,0-4-.2-7.61a24.5,24.5,0,0,1,4.13,2.18H605v-5.89H593.36a33,33,0,0,0-3.63.23l-.43-1.44a27.41,27.41,0,0,0,4.06.31h24.8c2-2.38,2.5-2.69,2.77-2.69s.82.31,2.89,1.87c.94.74,1.25,1.05,1.25,1.33s-.12.39-.51.39H608.81v5.89h7.29c1.4-1.64,1.72-1.87,2-1.87s.7.23,2.15,1.44c.66.58.9.86.9,1.17s-.23.58-1,1.17v11.58h.23c1.56-2.26,2-2.57,2.3-2.57s.7.31,2.26,1.79c.62.62.94,1,.94,1.29s-.12.39-.51.39h-5.23c0,6.86.12,7.33.12,8.11,0,1.79-.39,2.57-1.48,3.24a6,6,0,0,1-3,.82c-1,0-1.09-.08-1.25-1.09-.35-1.48-1.56-2.11-4.91-2.89-.2,0-.2-.51,0-.47a47.74,47.74,0,0,0,6.16.39c.55,0,.7-.19.7-.74v-7.37H597.61v10.73c0,1.09-.7,1.64-2.18,1.64-1.17,0-1.64-.39-1.64-1.48,0-2,.12-4.29.16-10.88h-.66a39.61,39.61,0,0,0-4,.23l-.43-1.44a30.36,30.36,0,0,0,4.29.31Zm3.67-12.6v5.54H605V231Zm7.37,12.6v-6.16h-7.37v6.16ZM616.53,231h-7.72v5.54h7.72Zm0,6.44h-7.72v6.16h7.72Z"/><path class="cls-7" d="M597.77,372.18a47.28,47.28,0,0,0,4.68-1.72c.19-.08.43.27.27.39A40.21,40.21,0,0,1,592,377.56c-.08,1.17-.31,1.6-.82,1.6s-1.09-1-2.3-5a29.89,29.89,0,0,0,4-.66l1.4-.35V362.74h-2a11.5,11.5,0,0,0-2.11.23l-.43-1.44a10.07,10.07,0,0,0,2.46.31h2.11v-9.4h-2.5a11.58,11.58,0,0,0-2.15.23l-.43-1.44a10.07,10.07,0,0,0,2.46.31h6.16c1.37-1.79,1.83-2.11,2.11-2.11s.78.31,2.26,1.48c.62.51.94.86.94,1.13s-.12.39-.51.39h-4.84v9.4h.66c1.05-1.6,1.52-1.91,1.79-1.91s.74.31,1.91,1.36c.47.43.78.78.78,1.05s-.12.39-.51.39h-4.64ZM611.19,374c-1.4,5.58-6.16,8.81-14.43,9.83-.2,0-.35-.43-.16-.51,4.88-1.76,8.11-4.13,9.83-7.06a10.07,10.07,0,0,0,1.37-4.8c3.59.55,4.72.94,4.72,1.6C612.51,373.5,612.28,373.66,611.19,374Zm6,5.19c0,.82.35,1,1.91,1s2.18,0,2.77-.82,1-2.07,1.72-4.64c0-.19.47-.16.47,0l-.12,3.39c0,.9.12,1,.7,1.17a1.6,1.6,0,0,1,.74,1.48c0,.94-.55,1.64-1.75,2.07a15.42,15.42,0,0,1-4.68.55c-4.13,0-5.42-.74-5.42-3.59,0-.62.12-2.57.12-4v-5.07h-6V371c0,1.05-.7,1.56-2.14,1.56-1.17,0-1.72-.47-1.72-1.33,0-2.38.2-4.8.2-14.47,0-2.69,0-5.42-.31-8.15a23.87,23.87,0,0,1,4.17,2H618c1.44-1.48,1.75-1.72,2.07-1.72s.74.23,2.15,1.33c.66.55.9.82.9,1.13,0,.47-.27.74-1.17,1.33v3c0,8,.2,13.42.2,15.21,0,1-.82,1.6-2.15,1.6s-1.75-.39-1.75-1.37v-.35h-1.09Zm1.09-27.69H607.6V357h10.65Zm0,6.36H607.6v5.54h10.65Zm0,6.44H607.6v5.58h10.65Z"/><path class="cls-7" d="M616.17,477.59c1.6-1.56,1.91-1.79,2.22-1.79s.78.23,2.26,1.6c.66.58.9.9.9,1.21,0,.47-.2.66-1.37,1.37-.08,3.12-.08,3.55-.08,5.73,0,7.68.47,12.6,1.79,16.22.51,1.44,1,2.5,1.25,2.5.47,0,1-.9,2.38-4.37.08-.19.47,0,.43.16a27.57,27.57,0,0,0-.66,5.54c0,.47,0,.7.78,2a2.75,2.75,0,0,1,.2,1.17,1.62,1.62,0,0,1-1.72,1.72,3.93,3.93,0,0,1-2.73-1.56c-1.72-1.91-3.28-5.42-4.17-9.56s-1.09-7.22-1.13-21.06H597.09v2.77c0,9.32-.19,13.26-.86,16.46a23.78,23.78,0,0,1-7,13.1c-.16.12-.47-.23-.35-.39a30.19,30.19,0,0,0,4.1-13.14,99.14,99.14,0,0,0,.43-10.41,104.36,104.36,0,0,0-.31-11.47,21,21,0,0,1,4.56,2.18Zm-7.88,27c1.52-.23,3-.43,4.49-.7a9.29,9.29,0,0,0-2.11-3.31c-.12-.16.19-.43.39-.35,4.49,2,6.63,4.45,6.63,6.67a2.1,2.1,0,0,1-2,2.18c-1.05,0-1.56-.74-2-2.38-.2-.74-.39-1.37-.55-1.91a67.81,67.81,0,0,1-14.08,4c-.23,1.09-.43,1.37-.86,1.37s-1-1.21-1.83-4.84c.66,0,1,0,1.36,0a68.91,68.91,0,0,0,7.29-.39v-6.94h-3v.94c0,1-.47,1.4-2,1.4-.9,0-1.29-.47-1.29-1s.16-2.46.16-6.9a44.46,44.46,0,0,0-.23-5.07,39,39,0,0,1,3.59,1.87H605v-4.13c-1.79.16-3.86.27-6.24.31-.2,0-.31-.47-.12-.51a43.92,43.92,0,0,0,9.09-2.5,12.29,12.29,0,0,0,4.1-2.34c2.46,2,3,2.54,3,3s-.62.58-1.83.31a29.2,29.2,0,0,1-4.76,1.25v4.56h3.08c1-1.25,1.33-1.48,1.64-1.48s.7.23,1.87,1.21c.51.47.74.74.74,1.05s-.23.55-1,1.05v1.21c0,3.2.12,5.38.12,6.08,0,.9-.47,1.33-1.91,1.33-.94,0-1.37-.23-1.37-1.05v-.66h-3.2ZM605,497.05v-6.94h-3v6.94Zm6.47,0v-6.94h-3.2v6.94Z"/><path class="cls-7" d="M594.22,627.69a16.56,16.56,0,0,0-2.57.23l-.43-1.44a14.13,14.13,0,0,0,2.93.31h2.3v-6h-4.56a16.58,16.58,0,0,0-2.57.23l-.43-1.44a14.12,14.12,0,0,0,2.92.31h4.64v-5.38h-1.91a16.11,16.11,0,0,0-2.54.23l-.43-1.44a14,14,0,0,0,2.89.31h22.7c1.68-2,2.14-2.34,2.42-2.34s.78.31,2.42,1.64c.7.58,1,.94,1,1.21s-.12.39-.51.39h-5.85v5.38h3c1.68-2.07,2.14-2.38,2.42-2.38s.78.31,2.42,1.68c.7.58,1,.94,1,1.21s-.12.39-.51.39h-8.38v6h.82c1.68-2.07,2.15-2.38,2.42-2.38s.78.31,2.42,1.68c.7.58,1,.94,1,1.21s-.12.39-.51.39H608.3v.51c0,1.29,0,2.57.08,3.86h9.52c1.75-2.07,2.22-2.38,2.5-2.38s.82.31,2.61,1.68c.82.62,1.13.94,1.13,1.21s-.12.39-.51.39H608.38c0,2.38.08,4.41.08,5.46s-.82,1.56-2.34,1.56c-1.21,0-1.72-.35-1.72-1.33,0-.7.08-2.5.12-5.69H593a16.56,16.56,0,0,0-2.57.23l-.43-1.44a14.13,14.13,0,0,0,2.93.31h11.58c0-1.13,0-2.38,0-3.82v-.55Zm19.19-18.88c0,1.05,0,1.79,0,2.11,0,.82-.66,1.33-2.11,1.33-1.09,0-1.56-.39-1.56-1.17,0-.23,0-.9,0-2.26h-6.71c0,1.05,0,1.79,0,2.11,0,.86-.7,1.36-2.11,1.36-1.09,0-1.56-.43-1.56-1.25,0-.27,0-1,.08-2.22h-7a16.07,16.07,0,0,0-2.54.23l-.43-1.44a14,14,0,0,0,2.89.31h7.14v-1.36a18.48,18.48,0,0,0-.2-3c4.52.51,5,.58,5,1.17,0,.35-.31.59-1.25,1v2.22h6.71a39.14,39.14,0,0,0-.12-4.33c4.21.47,4.8.62,4.8,1.17,0,.31-.23.51-1.13.94v2.22h5c1.75-2,2.22-2.34,2.5-2.34s.82.31,2.65,1.64c.82.62,1.13.94,1.13,1.21s-.12.39-.51.39Zm-13.5,5.73v5.38h4.64v-5.38Zm0,6.28v6h4.64v-6Zm8.35-.9h4.88v-5.38h-4.87Zm0,3.08c0,1.21,0,2.5,0,3.78h4.84v-6h-4.87Z"/><path class="cls-12" d="M1464,307.32a19.09,19.09,0,0,0,9.39,3l-1.21,2.05L1470.6,315,1461,331.24a7.76,7.76,0,1,1-4.47,3.5L1468.18,315a15.11,15.11,0,0,1-12.9-9l2.76-4.7A19,19,0,0,0,1464,307.32Z"/><path class="cls-13" d="M1459.71,344.69a7,7,0,1,0,1.54-12.71l-1.9.57,12.7-21.58a19.85,19.85,0,0,1-7.89-2.61l-.63-.38a19.84,19.84,0,0,1-5.47-5.23l-1.93,3.27a14.44,14.44,0,0,0,5,5.85l.66.42a14.43,14.43,0,0,0,6.38,2l1.25.09-12.25,20.81A7,7,0,0,0,1459.71,344.69Z"/><path class="cls-12" d="M1432.87,343.55a12.89,12.89,0,0,0,6.34,2l-.82,1.38-1.05,1.79-6.46,11a5.24,5.24,0,1,1-3,2.36l7.84-13.32a10.2,10.2,0,0,1-8.71-6.1l1.87-3.17A12.83,12.83,0,0,0,1432.87,343.55Z"/><path class="cls-13" d="M1430,368.78a4.71,4.71,0,1,0,1-8.58l-1.28.38,8.57-14.56a13.4,13.4,0,0,1-5.32-1.76l-.42-.26a13.39,13.39,0,0,1-3.69-3.53l-1.3,2.21a9.75,9.75,0,0,0,3.4,3.95l.45.28a9.74,9.74,0,0,0,4.3,1.32l.85.06-8.27,14A4.72,4.72,0,0,0,1430,368.78Z"/><polygon class="cls-14" points="1522.65 192.25 1537.97 208.35 1559.91 204.86 1549.34 224.4 1559.45 244.19 1537.59 240.18 1521.89 255.9 1518.96 233.88 1499.15 223.8 1519.19 214.21 1522.65 192.25"/><path class="cls-15" d="M1522.34,192.57l8,8.4,5.18,5.44c.51.54,1.49,2.08,2.23,2.32,2,.67,6.4-.92,8.44-1.25,4.43-.71,9-1.87,13.5-2.15.57,0-.12-.91-.32-.39a17,17,0,0,1-1,1.83l-3.66,6.77-3.55,6.56c-.55,1-2.08,2.85-2.18,4-.15,1.79,2.06,4.58,2.86,6.15,2.19,4.29,4,9.19,6.73,13.18.71,1.06,1.08.71-.29.07-1.87-.87-4.76-.87-6.79-1.25L1544,240.9c-1.63-.3-4.1-1.29-5.77-1.06-1.88.26-3.07,2.19-4.48,3.6-3.51,3.52-7.79,6.92-10.83,10.85a5.42,5.42,0,0,1-1.14,1.14c-.33.21.82.77.53,0-.62-1.69-.54-4-.77-5.81-.63-4.71-.63-10.1-2-14.67-.61-2.08-1.62-2.09-3.79-3.19l-13.61-6.92a12.13,12.13,0,0,1-2.34-1.19c-.55-.48-.67.76,0,.33a55.41,55.41,0,0,1,5.7-2.73l8.18-3.91c1.45-.69,4.43-1.45,5.53-2.65,1.52-1.65,1.34-6.28,1.68-8.46l2.18-13.85c.09-.56-.76-.8-.85-.24l-1.65,10.49-1.21,7.66a23.41,23.41,0,0,1-.52,3.65,25.1,25.1,0,0,1-3,1.39l-6.88,3.3-10,4.8a.44.44,0,0,0,0,.76l9.47,4.81,6.91,3.51c.69.35,3.17,1.39,3.3,1.57,1.1,1.52,1.06,8.44,1.38,10.81l1.47,11a.45.45,0,0,0,.75.31l7.5-7.52,5.48-5.49c.55-.55,2.31-2.58,2.51-2.64,1.79-.57,8.35,1.61,10.71,2l10.93,2a.45.45,0,0,0,.5-.65l-4.83-9.46c-1.14-2.23-5.28-8.12-5.25-10.11s4.12-7.44,5.26-9.55l5.29-9.77a.45.45,0,0,0-.5-.65l-10.49,1.67c-2.46.39-9.37,2.51-11.23,1.86s-5.79-6.22-7.45-8l-7.66-8C1522.57,191.53,1521.94,192.16,1522.34,192.57Z"/><path class="cls-14" d="M1554.43,208l-17.69,2.82-12.35-13-2.79,17.69-16.15,7.73,16,8.12,2.36,17.75,12.65-12.67,17.61,3.24-8.14-15.95Zm-3.77,29.17-14.85-2.73-10.66,10.68-2-15-13.46-6.84,13.61-6.52,2.35-14.91,10.41,10.93,14.91-2.37-7.18,13.28Z"/><path class="cls-15" d="M1554.31,207.59l-8.35,1.33c-2.05.33-7.59,2-9.11,1.51-1.29-.41-4.72-5.09-6-6.4l-6.17-6.49a.45.45,0,0,0-.74.2l-1.32,8.35c-.32,2-.35,7.77-1.4,9.18s-6.23,2.93-7.95,3.75l-8.08,3.87a.44.44,0,0,0,0,.76l7.54,3.83c1.87,1,7.29,2.82,8.29,4.11.82,1.06.86,6.88,1.1,8.67l1.18,8.88a.45.45,0,0,0,.75.31l6-6c1.48-1.48,5-6.07,6.47-6.6,1.26-.44,6.81,1.32,8.58,1.64l8.81,1.62a.45.45,0,0,0,.5-.65l-3.85-7.53c-.95-1.86-4.24-6.6-4.26-8.19,0-1.34,3.37-6.07,4.23-7.65l4.26-7.88c.27-.5-.49-.95-.76-.45l-4.5,8.31c-1,1.81-4,5.42-4.07,7.54-.09,1.72,2.24,4.64,3,6.13,1.62,3.17,3.77,6.42,5,9.77.26.72.75-.33.43-.3a5.6,5.6,0,0,1-1.63-.3c-1.91-.53-4-.73-5.93-1.09-2.42-.45-7.32-2.39-9.75-1.79-1.48.36-3,2.66-4.07,3.71-2.72,2.72-5.87,5.33-8.3,8.31-.78,1-.19,1.33-.14,0a33.61,33.61,0,0,0-.72-5.39l-.89-6.71c-.15-1.15,0-3.31-.58-4.32-.7-1.26-2.25-1.67-3.63-2.37-3.54-1.8-7.36-4.5-11.15-5.67a3.84,3.84,0,0,1-1.19-.6c-.29-.3-.48.84.15.44a40.46,40.46,0,0,1,4.19-2c3.28-1.57,8-2.86,10.8-5.17,1.37-1.12,1.17-1.94,1.49-4,.65-4.1,1.66-8.3,2-12.43a4.79,4.79,0,0,1,.26-1.64s-.94-.34-.27.36l4.05,4.26,5,5.21c.65.68,2,2.66,2.88,3,1.69.66,5.14-.61,6.87-.88l11.27-1.8C1555.11,208.36,1554.87,207.5,1554.31,207.59Z"/><path class="cls-15" d="M1550.77,236.76l-7.91-1.45c-1.64-.3-5.4-1.82-7.06-1.29-1.41.45-2.92,2.74-3.93,3.76-2.15,2.15-4.33,5.08-6.82,6.83-.51.36.71.82.48.22a5.3,5.3,0,0,1-.2-1.49,35.16,35.16,0,0,0-.69-5.18c-.26-2,0-6.28-1.06-8-.61-.94-2.18-1.38-3.2-1.9-3.25-1.65-6.73-3.12-9.85-5-.73-.44-.91.51.24,0s2.51-1.2,3.76-1.8c2.2-1.05,7.37-2.36,8.92-4.27.7-.87.62-2.5.8-3.6.52-3.32,1.67-7.05,1.64-10.41,0-1.52-.56-.86-.07-.49a27.67,27.67,0,0,1,3,3.2c1.81,1.91,4.26,5.78,6.65,7,1,.52,1.91.15,3.17-.05,3.39-.54,7.34-.62,10.59-1.69a5.38,5.38,0,0,1,1.49-.24c.29,0-.12-1.08-.52-.08a39,39,0,0,1-2.1,3.89c-1.16,2.14-4.64,6.32-4.74,8.77-.07,1.55,1.65,3.68,2.33,5l4.53,8.88c.26.51,1,.06.76-.45l-3.21-6.28c-.81-1.59-3.6-5.63-3.62-6.94,0-1.12,2.79-5,3.55-6.42l3.59-6.64a.45.45,0,0,0-.5-.65l-7,1.11c-1.76.28-6.47,1.68-7.71,1.28-1.08-.34-3.89-4.21-5-5.37l-5.2-5.47a.45.45,0,0,0-.74.2l-1.1,7c-.28,1.8-.29,6.52-1.18,7.79-.77,1.11-5.19,2.44-6.67,3.15l-6.81,3.26a.44.44,0,0,0,0,.76l6.29,3.2c1.6.81,6.21,2.41,7,3.48.69.9.7,5.66.92,7.27l1,7.48a.45.45,0,0,0,.75.31l5-5c1.26-1.27,4.23-5.16,5.48-5.6,1.06-.37,5.61,1.09,7.2,1.38l7.42,1.36C1551.09,237.72,1551.33,236.87,1550.77,236.76Z"/><polygon class="cls-14" points="1605.84 252.46 1611.94 264.82 1625.59 266.8 1615.71 276.43 1618.04 290.01 1605.84 283.6 1593.64 290.01 1595.97 276.43 1586.1 266.8 1599.74 264.82 1605.84 252.46"/><path class="cls-15" d="M1605.46,252.68l3.27,6.62c.72,1.45,1.62,4.85,2.9,5.83s4.2.7,5.56.89,7.11.05,8.18,1.19c-.75-.79-.46-.13-1.52.65a32.84,32.84,0,0,0-3.17,3.09c-1.31,1.28-4.69,3.45-5.36,5.24-.37,1,.39,2.85.56,3.86.53,3.07,1.51,6.4,1.63,9.52,0,.27.86.4-.42-.56a27.27,27.27,0,0,0-3.64-1.92c-1.82-1-5.29-3.73-7.32-3.85-1-.06-2,.73-2.95,1.23-2.71,1.42-6.27,2.58-8.62,4.53-1.24,1-.49.38-.45.76a17.86,17.86,0,0,1,.7-4.07c.4-2.36,2-6.44,1.51-8.83-.17-.9-.33-.83-1-1.69a43.41,43.41,0,0,0-7.52-7.33,10.6,10.6,0,0,1-.87-.84c-.83-.78-.55.23-.39.16,1.11-.51,2.9-.42,4.08-.59,2.35-.34,7.19,0,9.12-1.33,1.16-.78,1.71-3,2.34-4.23l4.12-8.35c.25-.51-.51-1-.76-.45l-2.83,5.74c-.69,1.4-2.1,5.76-3.16,6.49s-5.15.7-6.66.92l-6.82,1a.45.45,0,0,0-.2.74l4.58,4.47c1.14,1.11,4.83,3.88,5.19,5s-.94,5.14-1.18,6.57l-1.17,6.79a.45.45,0,0,0,.65.5l5.67-3c1.41-.74,5.19-3.39,6.31-3.39s4.6,2.49,5.88,3.17l6.1,3.21a.45.45,0,0,0,.65-.5l-1.08-6.31c-.27-1.56-1.62-6-1.27-7.05s3.81-3.6,4.84-4.61l4.94-4.81a.45.45,0,0,0-.2-.74l-6.33-.92c-1.55-.22-6.13-.21-7.15-1s-2.27-4.67-2.94-6l-3.05-6.18C1606,251.73,1605.21,252.17,1605.46,252.68Z"/><path class="cls-14" d="M1621.75,267.66l-11-1.6-4.92-10-4.92,10-11,1.6,8,7.75L1596,286.37l9.83-5.17,9.83,5.17-1.88-10.95Zm-7.62,16.58-8.29-4.36-8.29,4.36,1.58-9.23-6.71-6.54,9.27-1.35,4.14-8.4,4.14,8.4,9.27,1.35-6.71,6.54Z"/><path class="cls-15" d="M1621.87,267.24l-5-.73c-1.34-.19-4.9-.15-5.82-.81s-1.81-3.74-2.36-4.84l-2.46-5a.44.44,0,0,0-.76,0l-2.24,4.54c-.6,1.21-1.66,4.61-2.57,5.28s-4.12.56-5.33.74l-5.5.8a.45.45,0,0,0-.2.74l3.63,3.54c.95.92,3.93,3.15,4.22,4s-.74,4.06-.95,5.24l-.94,5.47a.45.45,0,0,0,.65.5l4.48-2.36c1.17-.62,4.21-2.76,5.13-2.76s3.64,2,4.69,2.53l4.92,2.58a.45.45,0,0,0,.65-.5l-.86-5c-.22-1.31-1.32-4.86-1-5.73s3-2.85,3.87-3.68l4-3.88c.41-.4-.22-1-.63-.63l-4.33,4.22c-.93.91-3.19,2.36-3.7,3.63-1.16,2.89,2.07,7.76,1.76,10.87,0,.21,1,.08-.09-.51s-2.16-1.14-3.25-1.71c-1.32-.69-4.24-3-5.78-3-2.65-.08-7.11,3.47-9.47,4.74-1,.56,0,.78-.09.51-.18-.85.4-2.35.54-3.17.33-1.9,1.69-5.36,1.24-7.26-.51-2.18-4.89-5.59-6.66-6.94-2-1.54-1.56-.62.71-.95s5.94-.14,8-1.17c2.33-1.14,4.11-6,5-8.53a7.24,7.24,0,0,1,.56-1.14c.47-.84-.37-.38-.35-.36.67.66,1.09,2.21,1.49,3,.86,1.74,1.8,5.37,3.28,6.65.85.73,2.83.62,3.89.78l7.39,1.07C1622.19,268.17,1622.43,267.32,1621.87,267.24Z"/><path class="cls-15" d="M1614.35,283.86c-2.27-1.19-5.88-4.22-8.39-4.4-2.67-.19-5.6,3.74-8.23,4.19-.07,0,.08,1.12.41-.25.25-1,.37-2.14.55-3.19.23-1.34,1.2-3.77.87-5.08-.52-2.11-4.49-4.82-6.12-6.29-1-.86-.65.1-.44,0a9,9,0,0,1,2.38-.35c1.58-.23,5,0,6.32-.92,1.82-1.19,3.22-5.71,4.1-7.74.5-1.16-.28-.61-.13-.47a8.89,8.89,0,0,1,1.07,2.16c.69,1.4,1.59,4.72,2.82,5.72,1.78,1.45,6.34,1.12,8.62,1.52,1.2.21.54-.49.44-.28-.45.93-2,1.9-2.69,2.62-.95.92-3.27,2.4-3.72,3.64-.84,2.32,1.08,7.14,1.5,9.62.1.56.95.32.85-.24-.37-2.16-2.12-7.39-1.59-9s5.07-4.85,6.6-6.34a.45.45,0,0,0-.2-.74c-2.2-.32-7.55-.17-9.1-1.29s-3.09-6.32-4-8.25a.44.44,0,0,0-.76,0c-1,2-2.5,7.13-4,8.25s-7,1-9.1,1.29a.45.45,0,0,0-.2.74c1.58,1.54,6.06,4.72,6.6,6.34s-1.23,6.9-1.59,9a.45.45,0,0,0,.65.5c1.94-1,6.37-4.3,8.07-4.3s6.18,3.31,8.07,4.3C1614.41,284.89,1614.86,284.13,1614.35,283.86Z"/><path class="cls-2" d="M406.53,277.71A7.61,7.61,0,0,0,404,278a1.81,1.81,0,0,0-1.13,1,4.83,4.83,0,0,0-.27,1.79v20.3a23,23,0,0,1-.18,3.3,8.18,8.18,0,0,1-.88,2.53,7.34,7.34,0,0,1-2.7,2.94,10.09,10.09,0,0,1-3.29,1.36,14.47,14.47,0,0,1-2.73.31,10.94,10.94,0,0,1-3.36-.47,5.16,5.16,0,0,1-2.3-1.39,3.15,3.15,0,0,1-.83-2.19,2.82,2.82,0,0,1,.7-1.87,2.41,2.41,0,0,1,1.94-.83,2.67,2.67,0,0,1,1.26.3,2.39,2.39,0,0,1,.9.79,1.86,1.86,0,0,1,.33,1.05,2.37,2.37,0,0,1-.12.71,2,2,0,0,0-.15.68q0,1.1,2,1.1a4.48,4.48,0,0,0,2.23-.46,2.72,2.72,0,0,0,1.17-1.33,6.1,6.1,0,0,0,.44-1.95q.08-1.08.08-3V280.8a4.87,4.87,0,0,0-.28-1.86,1.77,1.77,0,0,0-1.16-.94,9,9,0,0,0-2.63-.29v-1.78h13.51Z"/><path class="cls-2" d="M438.18,277.71a5.72,5.72,0,0,0-2.52.4,1.72,1.72,0,0,0-.94,1.16,11.23,11.23,0,0,0-.17,2.32v9.65a32.14,32.14,0,0,1-.18,4,7.43,7.43,0,0,1-1,2.71,7.72,7.72,0,0,1-4.1,3.64,14.33,14.33,0,0,1-5.06,1,15.29,15.29,0,0,1-3.69-.47,11.38,11.38,0,0,1-3.54-1.55,7,7,0,0,1-2.49-2.84,10.55,10.55,0,0,1-.71-1.94,9.46,9.46,0,0,1-.3-1.83q0-.86,0-2.25l0-10.9a3.42,3.42,0,0,0-.67-2.39q-.67-.69-3.12-.69v-1.78h13.2v1.78a7,7,0,0,0-2.51.34,1.81,1.81,0,0,0-1.08,1,5,5,0,0,0-.25,1.78v10.9a23.15,23.15,0,0,0,.16,2.94,10.27,10.27,0,0,0,.51,2.21,5.22,5.22,0,0,0,2.23,2.5,6.64,6.64,0,0,0,3.46.94,7.5,7.5,0,0,0,3.77-1,5.42,5.42,0,0,0,2.42-2.58,9.15,9.15,0,0,0,.7-2.56,26.16,26.16,0,0,0,.16-3.15v-9.42a16.75,16.75,0,0,0-.08-1.89,2.29,2.29,0,0,0-.42-1.09,2,2,0,0,0-1.15-.69,9,9,0,0,0-2.21-.21v-1.78h9.63Z"/><path class="cls-2" d="M470.2,277.71a6.88,6.88,0,0,0-2.68.38,1.69,1.69,0,0,0-1,1.11,10.44,10.44,0,0,0-.19,2.39v20.74h-1.78L447.43,282v14.41a10,10,0,0,0,.2,2.38,1.77,1.77,0,0,0,1,1.14,6.66,6.66,0,0,0,2.68.4v1.77h-9.72v-1.77a5.92,5.92,0,0,0,2.52-.4,1.72,1.72,0,0,0,1-1.14,11,11,0,0,0,.18-2.38V283.06q0-1.62-.09-2.43a3.82,3.82,0,0,0-.41-1.42,2.4,2.4,0,0,0-1.07-1,6,6,0,0,0-2.05-.51v-1.78h7.62l14.9,17.6V281.59a9.51,9.51,0,0,0-.2-2.25,1.87,1.87,0,0,0-1-1.21,5.69,5.69,0,0,0-2.54-.42v-1.78h9.76Z"/><path class="cls-2" d="M478.46,299.73a2.88,2.88,0,0,1-.89,2.14,3.05,3.05,0,0,1-4.26,0,2.88,2.88,0,0,1-.89-2.14,3,3,0,0,1,.87-2.16,2.88,2.88,0,0,1,2.14-.89,3,3,0,0,1,3,3Z"/><path class="cls-2" d="M501.59,289.66a27.32,27.32,0,0,1-.34,4.68,12.23,12.23,0,0,1-1,3.22,10.44,10.44,0,0,1-1.57,2.36,7.58,7.58,0,0,1-5.85,2.78A7.8,7.8,0,0,1,487,300a10.63,10.63,0,0,1-2.12-3.92,19.43,19.43,0,0,1-.81-6,32.88,32.88,0,0,1,.36-5.3,13.59,13.59,0,0,1,.84-3.19,13.75,13.75,0,0,1,1.22-2.12,7.44,7.44,0,0,1,6.33-3.38,7.28,7.28,0,0,1,6.33,3.38,12.16,12.16,0,0,1,1.74,3.67A23.63,23.63,0,0,1,501.59,289.66Zm-5.19-.23v-2.55a40,40,0,0,0-.22-4.67,7,7,0,0,0-1-3,2.87,2.87,0,0,0-4.73.1,8.53,8.53,0,0,0-1,3.59q-.19,2.3-.19,6.54t.19,6.42a8.93,8.93,0,0,0,1,3.65,2.57,2.57,0,0,0,2.4,1.34,2.61,2.61,0,0,0,2-.78,4.55,4.55,0,0,0,1.08-2.13,16,16,0,0,0,.41-2.86q.09-1.51.09-4.13Z"/><path class="cls-2" d="M523,287.51a22.27,22.27,0,0,1-.74,5.81,15.84,15.84,0,0,1-2.19,4.87,10.58,10.58,0,0,1-3.58,3.31,9.71,9.71,0,0,1-4.83,1.2,6.24,6.24,0,0,1-3.79-.94,2.63,2.63,0,0,1-1.23-2.07,1.79,1.79,0,0,1,.49-1.23,1.66,1.66,0,0,1,1.3-.55,1.68,1.68,0,0,1,1.1.35,7.18,7.18,0,0,1,1.06,1.2,3,3,0,0,0,2.41,1.37,3,3,0,0,0,2.71-1.58,10.17,10.17,0,0,0,1.33-3.46q.36-1.88.55-4a15.65,15.65,0,0,1-1.83,1,6,6,0,0,1-2.32.46,7.46,7.46,0,0,1-3.25-.84,7.25,7.25,0,0,1-2.91-2.67,8.36,8.36,0,0,1-1.19-4.63,9.18,9.18,0,0,1,1.23-4.85,8.2,8.2,0,0,1,3.14-3.06,8.12,8.12,0,0,1,3.89-1,7.81,7.81,0,0,1,2.81.57,8.45,8.45,0,0,1,2.81,1.85,9.45,9.45,0,0,1,2.18,3.54A15.43,15.43,0,0,1,523,287.51Zm-5-3a13.43,13.43,0,0,0-.7-4.7A2.76,2.76,0,0,0,514.5,278a2.57,2.57,0,0,0-2.2,1,4.84,4.84,0,0,0-.88,2.4,37.53,37.53,0,0,0-.16,4,18.82,18.82,0,0,0,.18,2.73,5.11,5.11,0,0,0,.91,2.26,2.51,2.51,0,0,0,2.19,1,2.73,2.73,0,0,0,2.85-2A15.33,15.33,0,0,0,518.05,284.56Z"/></g></g></g></svg>