<svg xmlns="http://www.w3.org/2000/svg" viewBox="0 0 109.8 104.85"><defs><style>.cls-1{fill:#333;}</style></defs><title>資產 34</title><g id="圖層_2" data-name="圖層 2"><g id="圖層_1-2" data-name="圖層 1"><path class="cls-1" d="M29.14,55.81v-6l.1-.12h2.27a1.38,1.38,0,0,1,1,.36,1.32,1.32,0,0,1,.37,1v.6A1.08,1.08,0,0,1,32,52.74a.89.89,0,0,1,.63.33,1.19,1.19,0,0,1,.27.81v.68a1.32,1.32,0,0,1-.37,1,1.38,1.38,0,0,1-1,.36H29.24Zm.59-3.28h1.72a1,1,0,0,0,.71-.24.93.93,0,0,0,.25-.69V51a.82.82,0,0,0-.93-.94H29.73l-.1.09v2.27Zm0,3h1.82a.82.82,0,0,0,.93-.94v-.67q0-.93-1-.93H29.73l-.1.08v2.37Z"/><polygon class="cls-1" points="37.78 55.93 34.76 55.93 34.66 55.81 34.66 49.77 34.76 49.65 37.78 49.65 37.9 49.76 37.9 49.98 37.78 50.09 35.25 50.09 35.15 50.18 35.15 52.42 35.25 52.51 37.51 52.51 37.61 52.62 37.61 52.84 37.51 52.95 35.25 52.95 35.15 53.04 35.15 55.4 35.25 55.49 37.78 55.49 37.9 55.59 37.9 55.82 37.78 55.93"/><polygon class="cls-1" points="40.09 49.77 40.09 55.81 39.98 55.93 39.7 55.93 39.6 55.81 39.6 49.77 39.7 49.65 39.98 49.65 40.09 49.77"/><polygon class="cls-1" points="42.38 55.93 42.09 55.93 41.99 55.81 41.99 49.77 42.09 49.65 42.36 49.65 42.47 49.71 45.47 54.86 45.51 54.86 45.51 49.77 45.62 49.65 45.89 49.65 46 49.77 46 55.81 45.89 55.93 45.67 55.93 45.51 55.82 42.52 50.7 42.48 50.7 42.48 55.81 42.38 55.93"/><path class="cls-1" d="M50.18,55.93H49.11a1.34,1.34,0,0,1-1-.37,1.38,1.38,0,0,1-.37-1V51a1.38,1.38,0,0,1,.37-1,1.34,1.34,0,0,1,1-.37h1.06A1.28,1.28,0,0,1,51.55,51v.44l-.11.12h-.28l-.11-.12v-.42a1,1,0,0,0-.23-.72.89.89,0,0,0-.68-.25h-1a.88.88,0,0,0-.68.25,1,1,0,0,0-.23.71v3.46a1,1,0,0,0,.23.71.89.89,0,0,0,.68.25h1a.89.89,0,0,0,.68-.25,1,1,0,0,0,.23-.72V53.23L51,53.15H49.84L49.74,53v-.22l.11-.11h1.52l.19.19v1.64a1.28,1.28,0,0,1-1.38,1.39Z"/><polygon class="cls-1" points="60.61 49.65 61.14 49.65 61.23 49.77 61.23 55.81 61.14 55.93 60.85 55.93 60.75 55.81 60.75 50.4 60.71 50.4 58.98 54.45 58.83 54.56 58.51 54.56 58.37 54.45 56.62 50.39 56.58 50.39 56.58 55.81 56.48 55.93 56.2 55.93 56.1 55.81 56.1 49.77 56.2 49.65 56.73 49.65 56.81 49.71 58.65 53.99 58.69 53.99 60.52 49.71 60.61 49.65"/><path class="cls-1" d="M66.48,49.65h.27l.11.11v4.78a1.38,1.38,0,0,1-.37,1,1.34,1.34,0,0,1-1,.37H64.41a1.34,1.34,0,0,1-1-.37,1.38,1.38,0,0,1-.37-1V49.77l.1-.12h.28l.11.12v4.75a1,1,0,0,0,.23.71.89.89,0,0,0,.68.25h1a.9.9,0,0,0,.69-.25,1,1,0,0,0,.24-.72V49.77Z"/><path class="cls-1" d="M68.63,54.54v-.35l.11-.11H69l.11.11v.32a.85.85,0,0,0,.95,1h1q.95,0,.95-1v-.41a.78.78,0,0,0-.35-.67,2.35,2.35,0,0,0-.85-.35l-1-.23a1.93,1.93,0,0,1-.85-.43,1.07,1.07,0,0,1-.35-.84V51A1.28,1.28,0,0,1,70,49.65h1.13a1.36,1.36,0,0,1,1,.37,1.37,1.37,0,0,1,.37,1v.27l-.11.11h-.28L72,51.31v-.24a.85.85,0,0,0-.95-1h-1q-.94,0-.94,1v.49q0,.67,1.2.91c.33.07.67.14,1,.23a1.9,1.9,0,0,1,.85.46,1.18,1.18,0,0,1,.35.9v.48a1.28,1.28,0,0,1-1.38,1.39H70a1.28,1.28,0,0,1-1.38-1.39Z"/><polygon class="cls-1" points="74.89 49.77 74.89 55.81 74.78 55.93 74.5 55.93 74.4 55.81 74.4 49.77 74.5 49.65 74.78 49.65 74.89 49.77"/><path class="cls-1" d="M79.29,55.93H78.06a1.34,1.34,0,0,1-1-.37,1.38,1.38,0,0,1-.37-1V51a1.38,1.38,0,0,1,.37-1,1.34,1.34,0,0,1,1-.37h1.23a1.34,1.34,0,0,1,1,.37,1.38,1.38,0,0,1,.37,1v.48l-.11.12h-.27l-.11-.12v-.46a1,1,0,0,0-.24-.72.9.9,0,0,0-.69-.25H78.1a.88.88,0,0,0-.68.25,1,1,0,0,0-.23.71v3.46a1,1,0,0,0,.23.71.89.89,0,0,0,.68.25h1.14a.9.9,0,0,0,.69-.25,1,1,0,0,0,.24-.72v-.46l.11-.12h.27l.11.12v.48a1.38,1.38,0,0,1-.37,1A1.34,1.34,0,0,1,79.29,55.93Z"/><path class="cls-1" d="M22.93,40.2l.57-20.91c-4.18,5.8-8,8.79-8.79,8.79a.91.91,0,0,1-1-.86,1.07,1.07,0,0,1,.52-.81C20.51,21.86,25.11,15,28.06,8L16.37,8a.82.82,0,0,1-.85-.86.81.81,0,0,1,.85-.81l12.35,0A54.39,54.39,0,0,0,30.53.86a.84.84,0,0,1,.85-.71,1.1,1.1,0,0,1,1.14,1,44.69,44.69,0,0,1-1.95,5.32l23,0a.81.81,0,0,1,.86.81.82.82,0,0,1-.86.86L29.91,8a61.45,61.45,0,0,1-4.56,8.6L24.83,40.1a1,1,0,0,1-1,1,.81.81,0,0,1-.85-.81ZM45.36,27a17.53,17.53,0,0,1,.33,3.61c0,5.42-1.66,9.93-7.32,9.93-.95,0-4.23-.24-4.23-1.57a.89.89,0,0,1,.86-.9l.38.09a7.92,7.92,0,0,0,3,.62c4.37,0,5.51-4.09,5.51-8.51A15.3,15.3,0,0,0,43.6,27l-14,0a.8.8,0,0,1-.81-.81.77.77,0,0,1,.81-.81l13.49,0a6.28,6.28,0,0,0-3.28-3.61.65.65,0,0,1-.43-.62.94.94,0,0,1,.95-.9,4.65,4.65,0,0,1,2.38,1.47c2.42-1.47,5.61-4.09,5.61-5.37,0-.57-.57-.9-1.47-.9-2.71,0-9.27,0-13.3.09h0a.74.74,0,0,1-.76-.81.8.8,0,0,1,.81-.81c2,0,4.47,0,6.94,0s4.85,0,6.56,0c2.23,0,3.28.85,3.28,2,0,2.42-5.18,5.89-6.7,6.84a11.78,11.78,0,0,1,1.28,2.56l9.31,0a.73.73,0,0,1,.76.81.76.76,0,0,1-.76.81Z"/><path class="cls-1" d="M66,40.2l.57-21c-4.09,5.56-8.08,8.84-8.89,8.84a.91.91,0,0,1-.95-.86,1.06,1.06,0,0,1,.47-.81C63,22.19,67.41,16,70.35,9.55l-10.74,0a.86.86,0,0,1,0-1.71l11.45,0A57,57,0,0,0,73.49.86a1,1,0,0,1,1-.86,1,1,0,0,1,1,1,53.73,53.73,0,0,1-2.47,7l22.81,0a.86.86,0,0,1,0,1.71l-23.57,0a60.33,60.33,0,0,1-3.75,6.94L68,40.1a1,1,0,0,1-1,1,.82.82,0,0,1-.9-.81Zm6.13-1.47a.77.77,0,0,1-.76-.86.76.76,0,0,1,.76-.81l10.93,0,0-12.88-8.74,0a.8.8,0,0,1-.81-.81.81.81,0,0,1,.81-.86l8.74,0V14.3a.86.86,0,0,1,.9-.85.87.87,0,0,1,1,.85v8.36l8.79,0a.8.8,0,0,1,.81.81.81.81,0,0,1-.81.86l-8.79,0,0,12.88,11,0a.8.8,0,0,1,.81.81.81.81,0,0,1-.81.86Z"/><path class="cls-1" d="M13.93,82a.8.8,0,0,1-.81-.81.77.77,0,0,1,.81-.81l13.59,0a1.12,1.12,0,0,1-.38-.43,20.53,20.53,0,0,0-4.42-6.22l-.14-.38a.93.93,0,0,1,.9-.86c1.24,0,5.51,5.8,5.51,6.89a1.15,1.15,0,0,1-.67,1H35.5a39.19,39.19,0,0,0,3.66-7.36,1,1,0,0,1,1-.71,1,1,0,0,1,1,1c0,.67-2.57,5.37-3.71,7.08l13.45,0a.75.75,0,0,1,.81.81.77.77,0,0,1-.81.81ZM17,70.78a.8.8,0,0,1-.81-.81.77.77,0,0,1,.81-.81l14.49,0-.1-4.85a.91.91,0,0,1,1-.86.89.89,0,0,1,1,.86l-.1,4.85,14.44,0a.77.77,0,0,1,.81.81.8.8,0,0,1-.81.81ZM39.68,104c-2.52.09-4.66.14-6.65.14-2.57,0-4.94-.1-7.7-.19-3.18-.09-4.61-1.81-4.75-4.23,0-1.33-.09-2.61-.09-3.94,0-1.61,0-3.23.09-4.85.1-2.14,1.62-4,4.66-4.09,2,0,3.71,0,5.42,0,2.76,0,5.42,0,9.27.1,2.66,0,4.42,1.76,4.51,3.75.1,1.52.1,3,.1,4.56s0,3-.1,4.51C44.29,102.14,42.54,103.9,39.68,104Zm3-9.6c0-3.9,0-5.89-3.47-6-2.8,0-5.51-.09-8.32-.09-1.71,0-3.47,0-5.23,0-2.19,0-3.28,1.19-3.33,3,0,1,0,2,0,3ZM22.29,95.92c0,1.14,0,2.28,0,3.42.1,2.18,1.38,2.94,3.37,3q3.56.14,7.13.14c2.09,0,4.23,0,6.41-.09,1.9,0,3.23-1,3.33-3,0-1.14.1-2.28.1-3.47Z"/><path class="cls-1" d="M56,86a.77.77,0,0,1-.71-.86.74.74,0,0,1,.57-.81c.71,0,1.62-.19,2.61-.33a48.37,48.37,0,0,0,2.8-4.42c-1-1.76-4.56-4.85-5.61-5.8a.76.76,0,0,1-.24-.52.83.83,0,0,1,.76-.81c.47,0,.47,0,1.8,1.19a39.64,39.64,0,0,0,3.33-9,.77.77,0,0,1,.81-.62,1,1,0,0,1,1,.9,43.49,43.49,0,0,1-4,9.74,36.1,36.1,0,0,1,3,3.42,54.81,54.81,0,0,0,3.66-8.27.8.8,0,0,1,.76-.57,1,1,0,0,1,1,1c0,.9-3.66,8.22-7.17,13.5,2.33-.33,4.75-.81,6.18-1A15.21,15.21,0,0,0,65.06,80l0-.19a.65.65,0,0,1,.71-.57c1.38,0,3.18,5.8,3.18,6.13a.82.82,0,0,1-.86.86.68.68,0,0,1-.71-.62A14.49,14.49,0,0,0,67,84C63.68,84.85,56.65,86,56,86Zm21,6.08a48.89,48.89,0,0,0,16.82,9.79,1.16,1.16,0,0,1,.86,1,1,1,0,0,1-1,.95c-.57,0-8.93-2.95-17.72-11l.09,11a.91.91,0,0,1-.9,1,.92.92,0,0,1-1-1L74.33,93c-8.27,7.79-17.06,11.17-17.63,11.17a.93.93,0,0,1-1-.9c0-.38.24-.76.86-1A46.57,46.57,0,0,0,73.33,92.12l-15.82.19a.74.74,0,0,1-.76-.81.76.76,0,0,1,.76-.81l16.82.14,0-3.28a.77.77,0,0,1,.86-.86.83.83,0,0,1,.9.81v0l0,3.28,17.15-.14a.76.76,0,0,1,.76.81.74.74,0,0,1-.76.81ZM73.66,68.17c.24-.9.52-2.38.76-3.71a.92.92,0,0,1,1-.71.91.91,0,0,1,1,.81,34.43,34.43,0,0,1-1,3.56c.9,0,1.71,0,2.38,0a3,3,0,0,1,3.09,3.28c0,.29,0,1.28,0,10.17a3.24,3.24,0,0,1-3.14,3.23c-1,0-2,.1-3,.1-.62,0-1.24,0-1.81,0a3.28,3.28,0,0,1-3.23-3.23c0-1,0-2.52,0-4.18,0-2.28,0-4.71,0-6a3.15,3.15,0,0,1,3-3.33Zm5.56,7.46c0-1.62,0-3.14,0-4a1.86,1.86,0,0,0-2-2H74.42c-1.33,0-3.28,0-3.28,2.14,0,.76,0,2.28,0,3.9ZM71.09,77.1c0,1.76,0,3.42,0,4.13,0,2,1.28,2.33,4.13,2.33s3.85-.28,3.94-2.23c0-.86,0-2.52,0-4.23ZM81.88,86a.77.77,0,0,1-.71-.86.78.78,0,0,1,.62-.81c.71,0,1.57-.19,2.57-.33a44.58,44.58,0,0,0,2.76-4.28c-1-1.85-4.18-5.13-5.18-6.18a.61.61,0,0,1-.19-.47.84.84,0,0,1,.76-.86c.43,0,.76.33,1.57,1.14a39.73,39.73,0,0,0,3.18-8.69.77.77,0,0,1,.81-.62,1,1,0,0,1,1,.9c0,1.33-2.71,7.36-3.94,9.55a44.92,44.92,0,0,1,2.8,3.71,52.33,52.33,0,0,0,3.75-8.36.79.79,0,0,1,.71-.57,1,1,0,0,1,1,.95c0,.57-2.85,7.13-7.17,13.54,2.42-.38,5-.86,6.41-1.09A16.31,16.31,0,0,0,91,79.76l-.1-.24c0-.29.43-.62.81-.62,1.14,0,3.56,5.51,3.56,6.65a.9.9,0,0,1-.9.9.7.7,0,0,1-.71-.62A10,10,0,0,0,93.09,84C90,84.75,82.69,86,81.88,86Z"/><polyline class="cls-1" points="87.14 50.06 87.14 55.65 87.42 55.92 87.69 55.65 87.69 50.06 87.42 49.78 87.14 50.06"/><polyline class="cls-1" points="89.9 51.46 89.9 54.25 90.18 54.53 90.46 54.25 90.46 51.46 90.18 51.18 89.9 51.46"/><polyline class="cls-1" points="100.95 48.39 100.95 57.32 101.23 57.6 101.51 57.32 101.51 48.39 101.23 48.11 100.95 48.39"/><polyline class="cls-1" points="92.66 52.42 92.66 53.29 92.94 53.57 93.22 53.29 93.22 52.42 92.94 52.14 92.66 52.42"/><polyline class="cls-1" points="103.71 51.24 103.71 54.47 103.99 54.75 104.27 54.47 104.27 51.24 103.99 50.96 103.71 51.24"/><polyline class="cls-1" points="107.03 53.72 107.03 51.99 106.76 51.71 106.48 51.99 106.48 53.72 106.76 54 107.03 53.72"/><polyline class="cls-1" points="109.24 52.53 109.24 53.17 109.52 53.45 109.8 53.17 109.8 52.53 109.52 52.25 109.24 52.53"/><polyline class="cls-1" points="95.42 51.2 95.42 54.51 95.7 54.79 95.98 54.51 95.98 51.2 95.7 50.92 95.42 51.2"/><polyline class="cls-1" points="98.19 52.13 98.19 53.58 98.47 53.86 98.75 53.58 98.75 52.13 98.47 51.85 98.19 52.13"/><polyline class="cls-1" points="22.66 55.65 22.66 50.06 22.38 49.78 22.1 50.06 22.1 55.65 22.38 55.92 22.66 55.65"/><polyline class="cls-1" points="19.9 54.25 19.9 51.46 19.62 51.18 19.34 51.46 19.34 54.25 19.62 54.53 19.9 54.25"/><polyline class="cls-1" points="8.85 57.32 8.85 48.39 8.57 48.11 8.29 48.39 8.29 57.32 8.57 57.6 8.85 57.32"/><polyline class="cls-1" points="17.14 53.29 17.14 52.42 16.86 52.14 16.58 52.42 16.58 53.29 16.86 53.57 17.14 53.29"/><polyline class="cls-1" points="6.08 54.47 6.08 51.24 5.8 50.96 5.53 51.24 5.53 54.47 5.8 54.75 6.08 54.47"/><polyline class="cls-1" points="2.76 51.99 2.76 53.72 3.04 54 3.32 53.72 3.32 51.99 3.04 51.71 2.76 51.99"/><polyline class="cls-1" points="0.56 53.17 0.56 52.53 0.28 52.25 0 52.53 0 53.17 0.28 53.45 0.56 53.17"/><polyline class="cls-1" points="14.37 54.51 14.37 51.2 14.09 50.92 13.81 51.2 13.81 54.51 14.09 54.79 14.37 54.51"/><polyline class="cls-1" points="11.61 53.58 11.61 52.13 11.33 51.85 11.05 52.13 11.05 53.58 11.33 53.86 11.61 53.58"/></g></g></svg>