<svg xmlns="http://www.w3.org/2000/svg" viewBox="0 0 145.11 58.04"><title>資產 32</title><g id="圖層_2" data-name="圖層 2"><g id="圖層_1-2" data-name="圖層 1"><path d="M54.86,1.39a1.15,1.15,0,0,0,.35.84,1.15,1.15,0,0,0,.83.35h4.28a.63.63,0,0,1,.64.64v10.3a1.23,1.23,0,0,0,.35.84,1.19,1.19,0,0,0,.84.34h0a1.22,1.22,0,0,0,.85-.34,1.24,1.24,0,0,0,.34-.84V3.22A.64.64,0,0,1,64,2.58h4.32a1.18,1.18,0,0,0,1.18-1.19h0a1.14,1.14,0,0,0-.34-.82,1.17,1.17,0,0,0-.83-.35H56a1.15,1.15,0,0,0-.83.35,1.12,1.12,0,0,0-.35.82Z"/><path d="M89.63,6.27H83.42a1.85,1.85,0,1,1,0-3.71h6.86a1.15,1.15,0,0,0,.82-.36,1.16,1.16,0,0,0,.36-.83h0A1.15,1.15,0,0,0,91.1.56a1.18,1.18,0,0,0-.82-.34H83.42a4.2,4.2,0,1,0,0,8.39h6.21a1.86,1.86,0,0,1,0,3.71H81a1.19,1.19,0,0,0-1.18,1.19v0a1.23,1.23,0,0,0,.34.83,1.27,1.27,0,0,0,.84.35h8.6a4.2,4.2,0,0,0,0-8.4"/><path d="M109.47,1.38a1.17,1.17,0,0,0-.33-.83,1.22,1.22,0,0,0-.84-.34H96.07a1.27,1.27,0,0,0-.86.34,1.23,1.23,0,0,0-.32.83h0a1.24,1.24,0,0,0,.32.84,1.26,1.26,0,0,0,.86.35h4.28a.64.64,0,0,1,.65.63v10.3a1.2,1.2,0,0,0,.34.84,1.18,1.18,0,0,0,.84.34h0a1.18,1.18,0,0,0,1.17-1.18V3.22a.65.65,0,0,1,.66-.63h4.31a1.21,1.21,0,0,0,.84-.35,1.19,1.19,0,0,0,.33-.84Z"/><path d="M124.95,14.09a1.16,1.16,0,0,1-1,.59h-.17a1.28,1.28,0,0,1-.62-.17,1.39,1.39,0,0,1-.43-.47l-.88-1.91a1.12,1.12,0,0,0-1-.63h-6.7a1.11,1.11,0,0,0-1,.63L112.17,14a1.29,1.29,0,0,1-.44.47,1.24,1.24,0,0,1-.61.17H111a1.16,1.16,0,0,1-1-.59,1.13,1.13,0,0,1,0-1.15l5.44-11.7A2.38,2.38,0,0,1,117.45,0a2.34,2.34,0,0,1,2.07,1.24L125,12.94a1.16,1.16,0,0,1,0,1.15m-4.71-5.46-2.52-5.5a.31.31,0,0,0-.25-.17h-.06a.31.31,0,0,0-.26.17l-2.52,5.5a.45.45,0,0,0,0,.34.38.38,0,0,0,.3.18h5a.38.38,0,0,0,.3-.18.41.41,0,0,0,0-.34"/><path d="M139.11,9.47a.18.18,0,0,1,0-.17.18.18,0,0,1,.14-.11,5.17,5.17,0,0,0,2.89-1.1,4.19,4.19,0,0,0,1.38-3.34,4.3,4.3,0,0,0-1.34-3.29A4.81,4.81,0,0,0,138.61.21H130a1.2,1.2,0,0,0-.83.34,1.18,1.18,0,0,0-.35.83V13.51A1.2,1.2,0,0,0,130,14.69h0a1.18,1.18,0,0,0,1.18-1.18V9.9a.65.65,0,0,1,.64-.65h3a1.79,1.79,0,0,1,1.35.62l3.66,4a2.38,2.38,0,0,0,.78.57,1.28,1.28,0,0,0,1.62-.49,1.09,1.09,0,0,0-.19-1.27Zm-7.9-6.25a.66.66,0,0,1,.64-.66h6.54c1.84,0,2.74.73,2.74,2.22s-.82,2.08-2.58,2.08h-6.69a.65.65,0,0,1-.64-.65Z"/><path d="M32.66,37a1.64,1.64,0,0,1-.1,1.59,1.72,1.72,0,0,1-1.46.68H2.36a2.32,2.32,0,0,1-2.3-1.76c-.28-1.12.55-2.33,1.21-3.27l6-8.56a3.83,3.83,0,0,1,2.92-1.78,1.58,1.58,0,0,1,1.46.75A1.26,1.26,0,0,1,11.44,26l-6,8.55c-.23.35-.31.66-.21.86s.41.33.83.33H26.58a1.14,1.14,0,0,0,1-.43,1.17,1.17,0,0,0,0-1.05l-2-5.38a1.83,1.83,0,0,1,.09-1.71,1.35,1.35,0,0,1,1.17-.57,3.25,3.25,0,0,1,2.67,2.06Zm.05,8.17V55.25a2.29,2.29,0,0,1-2.28,2.29H3A2.29,2.29,0,0,1,.71,55.25V45.2A2.29,2.29,0,0,1,3,42.91H30.43a2.29,2.29,0,0,1,2.28,2.29m-5.32,1H6.11a1.71,1.71,0,0,0-1.72,1.71v4.45a1.71,1.71,0,0,0,1.72,1.72H27.39a1.71,1.71,0,0,0,1.7-1.72V47.94a1.71,1.71,0,0,0-1.7-1.71"/><path d="M70.43,27.19c0,.83-1,1.48-2.3,1.48H64.76a1.72,1.72,0,0,0-1.71,1.72v5.56c0,1.29-.69,2.29-1.57,2.29s-1.57-1-1.57-2.29V30.39a1.69,1.69,0,0,0-1.65-1.72,2.24,2.24,0,0,0-2.06,1.74L55.06,36c-.25,1.24-1.12,2.2-2,2.2a1.14,1.14,0,0,1-.89-.43,2.31,2.31,0,0,1-.32-1.88L53,30.29a1.39,1.39,0,0,0-.23-1.15,1.33,1.33,0,0,0-1.08-.47H47.81c-1.29,0-2.3-.65-2.3-1.48s1-1.5,2.3-1.5h6.66a2.26,2.26,0,0,0,1.8-.78,2.07,2.07,0,0,0,.15-.17,1.91,1.91,0,0,1,3.12,0,1.06,1.06,0,0,0,.15.17,2.26,2.26,0,0,0,1.8.78h6.65c1.29,0,2.3.66,2.3,1.5M38.5,37.43l3.57,1.24a2.7,2.7,0,0,0,.84.15,1.3,1.3,0,0,0,1.44-1.31A3,3,0,0,0,42.25,35l-3.56-1.26a2.4,2.4,0,0,0-.83-.16,1.33,1.33,0,0,0-1.45,1.34,3,3,0,0,0,2.09,2.49m0-9.25,3.58,1.26a2.39,2.39,0,0,0,.84.16,1.32,1.32,0,0,0,1.44-1.34,3,3,0,0,0-2.09-2.49l-3.56-1.23a2.47,2.47,0,0,0-.82-.15,1.32,1.32,0,0,0-1.46,1.3,3,3,0,0,0,2.08,2.49M68.14,49.89H51.62c-.93,0-1.72-.55-1.72-1.21s.79-1.19,1.72-1.19H67.23a2.3,2.3,0,0,0,2.29-2.3V42a2.3,2.3,0,0,0-2.29-2.31H47.92c-1.28,0-2.28.61-2.28,1.36s1,1.35,2.28,1.35H64.29c.93,0,1.71.56,1.71,1.2s-.78,1.19-1.71,1.19H48.72a2.31,2.31,0,0,0-2.29,2.3v3.27a2.3,2.3,0,0,0,2.29,2.29h16.5c.92,0,1.7.55,1.7,1.19S66.14,55,65.22,55H50.93c-1.28,0-2.29.62-2.29,1.4s1,1.4,2.29,1.4h17.2a2.28,2.28,0,0,0,2.3-2.28V52.18a2.28,2.28,0,0,0-2.3-2.29m-21-12.43c.84,0,1.74-.94,2.05-2.16L50,32a2.29,2.29,0,0,0-.23-1.89,1.1,1.1,0,0,0-.86-.41c-.85,0-1.75.95-2.06,2.17l-.8,3.3A2.29,2.29,0,0,0,46.28,37a1,1,0,0,0,.84.41m-3.91,5.36a3,3,0,0,0-2.47,2.1L37,55.76a1.9,1.9,0,0,0,.13,1.76,1.28,1.28,0,0,0,1.05.52,3,3,0,0,0,2.48-2.11l3.66-10.82a1.94,1.94,0,0,0-.13-1.77,1.23,1.23,0,0,0-1-.52m25.32-5.36a1,1,0,0,0,.84-.41,2.26,2.26,0,0,0,.26-1.88l-.75-3.3c-.29-1.23-1.18-2.18-2.07-2.18a1,1,0,0,0-.85.43A2.19,2.19,0,0,0,65.69,32l.81,3.3c.29,1.22,1.2,2.16,2,2.16"/><path d="M106.67,54H91.17c-.91,0-1.45,0-1.93-.56a1.36,1.36,0,0,1,.09-1.84l17.2-18.5c.81-.87,1.59-1.94,1.36-3.06a2,2,0,0,0-2.23-1.68H95.41a1.71,1.71,0,0,1-1.71-1.71v-.58a2,2,0,0,0-1.83-2.14,1.94,1.94,0,0,0-1.81,2.14v.58a1.72,1.72,0,0,1-1.72,1.71H78.05a2.11,2.11,0,0,0-2.29,1.8A2.11,2.11,0,0,0,78.05,32h23.13c.39,0,.63,0,.74.25s0,.45-.32.74L86.76,49.06c-1.64,1.7-5.54-1.54-4.73-4.87l.35-1.34a2,2,0,0,0-.25-1.78A1.35,1.35,0,0,0,81,40.54a2.81,2.81,0,0,0-2.35,2.15l-3.34,13a2,2,0,0,0,.27,1.78A1.34,1.34,0,0,0,76.7,58,2.8,2.8,0,0,0,79,55.84l1.13-4.25c.21-.82.85-1,1.45-.4L86.69,56a4.59,4.59,0,0,0,3.64,1.51h16.33A2.08,2.08,0,0,0,109,55.76,2.09,2.09,0,0,0,106.67,54"/><path d="M142.81,54.5H132.58a1.68,1.68,0,1,1,0-3.35h8.29c1.27,0,2.29-.68,2.29-1.55s-1-1.53-2.29-1.53h-8.29a1.64,1.64,0,1,1,0-3.28h9.24c1.29,0,2.3-.65,2.3-1.51s-1-1.5-2.3-1.5h-9.24a1.57,1.57,0,1,1,0-3.12h8.29a2.29,2.29,0,0,0,2.29-2.29V26.88a2.31,2.31,0,0,0-2.29-2.3H115.67a2.3,2.3,0,0,0-2.3,2.3v9.47a2.29,2.29,0,0,0,2.3,2.29h9.8a1.57,1.57,0,1,1,0,3.12h-6c-.51,0-.78-.09-1-.42s-.08-.61-.46-1.28a1.43,1.43,0,0,0-1.2-.66A2.41,2.41,0,0,0,114.57,41L112,46.15a1.71,1.71,0,0,0-.08,1.69,1.15,1.15,0,0,0,1,.52,3.41,3.41,0,0,0,2.7-2,2.51,2.51,0,0,1,2.58-1.63h7.26a1.64,1.64,0,1,1,0,3.28h-8.9c-1.27,0-2.29.68-2.29,1.53s1,1.55,2.29,1.55h8.9a1.68,1.68,0,1,1,0,3.35H114.41c-1.29,0-2.28.66-2.28,1.53s1,1.55,2.28,1.55h28.4c1.3,0,2.3-.68,2.3-1.55s-1-1.53-2.3-1.53m-24-24.3A1.6,1.6,0,0,1,117,28.78a1.6,1.6,0,0,1,1.73-1.41h19.05a1.6,1.6,0,0,1,1.73,1.41,1.6,1.6,0,0,1-1.73,1.41Zm19.05,2.9a1.59,1.59,0,0,1,1.73,1.4,1.59,1.59,0,0,1-1.73,1.41H118.77A1.59,1.59,0,0,1,117,34.49a1.59,1.59,0,0,1,1.73-1.4Z"/></g></g></svg>